<svg xmlns="http://www.w3.org/2000/svg" id="Layer_1" data-name="Layer 1" viewBox="0 0 23.5 23.5">
  <path d="M56.41055,73.6789a11.5,11.5,0,1,0-11.5-11.5A11.50035,11.50035,0,0,0,56.41055,73.6789Z" transform="translate(-44.66055 -50.4289)" fill="#fff" stroke="#000" stroke-miterlimit="10" stroke-width="0.5"/>
  <path d="M50.6802,63.89108h6.10838l-.84478.94224H50.6802Z" transform="translate(-44.66055 -50.4289)" fill="#d44927"/>
  <g>
    <path d="M59.64782,68.24492l-1.65706-4.41883L59.19294,62.234l2.37187,6.0109Zm-3.4116-9.00011.90976,2.40436,1.16969-1.55959-1.46211-3.769a1.10472,1.10472,0,0,0-.90976-.61733.94227.94227,0,0,0-.87727.61733L52.2073,63.53366h1.852l1.62457-4.28885a.3249.3249,0,0,1,.25993-.16246h.03249a.25993.25993,0,0,1,.25993.16246Zm-2.82674,5.97841-1.1372,3.0217h-1.917l1.20218-3.0217Z" transform="translate(-44.66055 -50.4289)" fill="#222d60" fill-rule="evenodd"/>
    <path d="M62.31211,55.44332a.58484.58484,0,0,1,.81228-.09747.51988.51988,0,0,1,.09748.77979h0l-5.19862,7.01813q-.065.09748-.09747.09748l-1.03973.64983c-.065.065-.16245,0-.13-.09748l.29242-1.16969c.03249-.065.03249-.09747.065-.13l4.71125-6.36831-.065-.065c-.03249-.0325-.09748,0-.13.03249l-1.52709,2.047c.03249.065.03249.16245-.03249.19495l-.25993.3574a.16246.16246,0,0,1-.25994.065.195.195,0,0,1-.065-.22744h.03249l.16246-.22744.09747-.16246,1.72205-2.33937a.35741.35741,0,0,1,.49886-.08132l.021.01633h.09747Z" transform="translate(-44.66055 -50.4289)" fill="#d44927" fill-rule="evenodd"/>
  </g>
</svg>
