<svg xmlns="http://www.w3.org/2000/svg" xmlns:xlink="http://www.w3.org/1999/xlink" version="1.1" id="Layer_1" x="0px" y="0px" viewBox="0 0 126 28" width="118px" height="26px" xml:space="preserve"><path xmlns="http://www.w3.org/2000/svg" class="st0" d="M27.6897182,8.0066662L17.7897186,3.606667c-0.3299999-0.1099999-0.5500011-0.1099999-0.8799992,0  L7.0097189,8.0066662C6.5697184,8.1166668,6.3497186,8.5566673,6.3497186,8.9966669S6.5697184,9.876667,7.0097184,9.9866676  l9.9000015,4.3999996c0.1099987,0.1099997,0.329998,0.1099997,0.4399986,0.1099997s0.3299999,0,0.4400005-0.1099997  l9.8999996-4.4000006c0.4399986-0.1099997,0.6599998-0.5500002,0.6599998-0.9899998S28.1297169,8.1166668,27.6897182,8.0066662z" fill="#8e97a3"/>
<path class="st1" d="M17.3497181,19.9966679c-0.1100006,0-0.3299999,0-0.4399986-0.1100025l-9.9000006-4.3999987  c-0.5499997-0.2200003-0.7699995-0.8800001-0.5499997-1.4299994c0.2199998-0.5500011,0.8800001-0.7700014,1.4300003-0.5500011  l9.460001,4.1800003l9.460001-4.1800003c0.5499992-0.2200003,1.2099991,0,1.4299984,0.5500011  c0.2200031,0.5499992,0,1.2099991-0.5499992,1.4299994l-9.8999996,4.3999987  C17.679718,19.9966679,17.4597187,19.9966679,17.3497181,19.9966679z" fill="#343b46"/>
<path class="st1" d="M17.3497181,25.496666c-0.1100006,0-0.3299999,0-0.4399986-0.1100006l-9.9000006-4.3999977  c-0.5499997-0.2200012-0.7699995-0.8800011-0.5499997-1.4300022c0.2199998-0.5499992,0.8800001-0.7699986,1.4300003-0.5499992  l9.460001,4.1800003l9.460001-4.1800003c0.5499992-0.2199993,1.2099991,0,1.4299984,0.5499992  c0.2200031,0.5500011,0,1.210001-0.5499992,1.4300022l-9.8999996,4.3999977  C17.679718,25.496666,17.4597187,25.496666,17.3497181,25.496666z" fill="#343b46"/>
<path class="st1" d="M42.6948547,14.2060871c-0.3287888,0.4603043-0.7233353,0.789094-1.315155,1.052125  c-0.526062,0.1972733-1.1836395,0.3287888-1.9069786,0.3287888h-2.1700058c-0.0657578,0-0.1315155,0.0657587-0.1315155,0.1315155  v3.6166792c0,0.1972733-0.1315155,0.263031-0.3287888,0.263031h-1.5124321c-0.0657578,0-0.1315155,0-0.1972733-0.0657578  s-0.0657578-0.1315155-0.0657578-0.1972733v-9.666399c0-0.1315155,0.0657578-0.263031,0.1972733-0.263031h3.8797112  c0.7233353,0,1.3809166,0.1315155,1.9727364,0.3287888c0.5918198,0.1972742,1.052124,0.5918207,1.4466705,1.052125  c0.3287926,0.4603052,0.5260658,1.0521259,0.5260658,1.7754622C43.155159,13.2197189,43.0236473,13.7457819,42.6948547,14.2060871z   M40.7878799,11.5757742c-0.1315155-0.263031-0.3945465-0.3945475-0.6575775-0.526063  c-0.3287926-0.1315155-0.6575813-0.1315155-1.0521278-0.1315155h-1.7097015c-0.1315155,0-0.263031,0.0657578-0.263031,0.1972733  v2.7618284c0,0.1315155,0.0657578,0.263031,0.1972733,0.263031h1.841217c0.5918198,0,1.052124-0.1315155,1.3809128-0.3945465  c0.3287926-0.263032,0.526062-0.6575785,0.526062-1.2493982C41.0509109,12.1018372,40.9851532,11.8388052,40.7878799,11.5757742z" fill="#343b46"/>
<path class="st1" d="M46.7060852,9.4057655c0.1315155,0,0.1972694,0.0657578,0.1972694,0.1972733v9.7321568  c0,0.1315155,0,0.1972733-0.0657539,0.263031c-0.0657578,0.0657597-0.1315155,0.0657597-0.263031,0.0657597h-1.4466743  c-0.1315155,0-0.1972733,0-0.1972733-0.0657597c-0.0657578-0.0657578-0.0657578-0.1315155-0.0657578-0.1972713V9.6687965  c0-0.1315155,0.0657578-0.263031,0.1972733-0.263031H46.7060852z" fill="#343b46"/>
<path class="st1" d="M56.6355133,14.2060871c-0.3287888,0.4603043-0.7233353,0.789094-1.315155,1.052125  c-0.526062,0.1972733-1.1836395,0.3287888-1.9069786,0.3287888h-2.1700096c-0.0657539,0-0.1315155,0.0657587-0.1315155,0.1315155  v3.6166792c0,0.1972733-0.1315155,0.263031-0.3287888,0.263031h-1.5124283c-0.0657578,0-0.1315155,0-0.1972733-0.0657578  s-0.0657578-0.1315155-0.0657578-0.1972733v-9.666399c0-0.1315155,0.0657578-0.263031,0.1972733-0.263031h3.879715  c0.7233315,0,1.3809128,0.1315155,1.9727325,0.3287888c0.5918236,0.1972742,1.052124,0.5918207,1.4466743,1.052125  c0.3287888,0.4603052,0.526062,1.0521259,0.526062,1.7754622C57.1615753,13.2197189,56.9643021,13.7457819,56.6355133,14.2060871z   M54.7942963,11.5757742c-0.1315193-0.263031-0.3945465-0.3945475-0.6575775-0.526063  c-0.3287926-0.1315155-0.6575775-0.1315155-1.052124-0.1315155h-1.7097054c-0.1315155,0-0.263031,0.0657578-0.263031,0.1972733  v2.7618284c0,0.1315155,0.0657578,0.263031,0.1972733,0.263031h1.841217c0.5918236,0,1.052124-0.1315155,1.3809128-0.3945465  c0.3287926-0.263032,0.526062-0.6575785,0.526062-1.2493982C55.0573273,12.1018372,54.9258118,11.8388052,54.7942963,11.5757742z" fill="#343b46"/>
<path class="st1" d="M59.0027962,9.4057655h6.7072945c0.1315231,0,0.1972733,0.0657578,0.1972733,0.1972733v1.052125  c0,0.1972742-0.0657501,0.263032-0.263031,0.263032h-4.5372887c-0.1315155,0-0.263031,0.0657578-0.263031,0.1972733v2.4330397  c0,0.1315155,0.0657578,0.1972733,0.1972733,0.1972733h3.1563759c0.1315155,0,0.1972656,0.0657587,0.1972656,0.1972742v1.1178827  c0,0.0657578,0,0.0657578-0.0657501,0.1315145c0,0-0.0657578,0.0657587-0.1315155,0.0657587h-3.1563759  c-0.1315155,0-0.1972733,0.0657578-0.1972733,0.1972733v2.5645552c0,0.1315155,0.0657578,0.1972733,0.1315155,0.1972733h4.8660774  c0.1315155,0,0.1972733,0.0657578,0.1972733,0.1972713v1.1178837c0,0.0657578,0,0.1315174-0.0657578,0.1315174  c-0.0657578,0.0657558-0.0657578,0.0657558-0.1972733,0.0657558h-6.7072945c-0.1972733,0-0.263031-0.0657558-0.263031-0.263031  V9.6687965C58.8055229,9.4715233,58.8712807,9.4057655,59.0027962,9.4057655z" fill="#343b46"/>
<path class="st1" d="M67.9458542,9.4057655h1.6439438c0.1315155,0,0.1972809,0.0657578,0.1972809,0.1972733v8.3512421  c0,0.1315155,0.0657578,0.1972733,0.1315155,0.1972733h4.5372849c0.1315155,0,0.1972809,0.0657578,0.1972809,0.1972733v1.1178837  c0,0.0657558,0,0.1315136-0.0657578,0.1315136c-0.0657578,0.0657597-0.0657578,0.0657597-0.1972733,0.0657597h-6.4442749  c-0.1315079,0-0.1972733,0-0.1972733-0.0657597c-0.0657578-0.0657578-0.0657578-0.1315136-0.0657578-0.1972713V9.6687965  C67.7485809,9.4715233,67.8143463,9.4057655,67.9458542,9.4057655z" fill="#343b46"/>
<path class="st1" d="M78.1383209,9.4057655c0.1315155,0,0.1972733,0.0657578,0.1972733,0.1972733v9.7321568  c0,0.1315155,0,0.1972733-0.0657501,0.263031c-0.0657578,0.0657597-0.1315155,0.0657597-0.2630386,0.0657597h-1.4466705  c-0.1315079,0-0.1972733,0-0.1972733-0.0657597c-0.0657578-0.0657578-0.0657578-0.1315155-0.0657578-0.1972713V9.6687965  c0-0.1315155,0.0657578-0.263031,0.1972733-0.263031H78.1383209z" fill="#343b46"/>
<path class="st1" d="M88.5938187,9.4057655c0.1315079,0,0.1972733,0.0657578,0.1972733,0.1972733v9.8636723  c0,0.0657578,0,0.1315155-0.0657578,0.1315155c-0.0657578,0.0657597-0.1315155,0.0657597-0.1972733,0.0657597h-1.1178818  c-0.0657578,0-0.1315155,0-0.1972733,0s-0.1315155-0.0657597-0.1315155-0.1315174l-4.7345581-6.7072964  c-0.0657654-0.0657578-0.0657654-0.0657578-0.1315155-0.0657578l-0.0657578,0.0657578v6.6415386  c0,0.1315155-0.0657578,0.1972733-0.263031,0.1972733h-1.1836472c-0.1972733,0-0.263031-0.0657597-0.263031-0.1972733V9.6687965  c0-0.1315155,0.0657578-0.263031,0.1972733-0.263031h1.3809128c0.0657578,0,0.1315155,0,0.1972809,0.0657578  c0.0657501,0,0.0657501,0.0657578,0.1315155,0.1315155l4.4057693,6.3785086  c0.0657578,0.0657587,0.1315155,0.1315165,0.1315155,0.0657587c0.0657501,0,0.0657501-0.0657587,0.0657501-0.1315155V9.6030388  c0-0.1315155,0.0657578-0.1972733,0.1972809-0.1972733H88.5938187z" fill="#343b46"/>
<path class="st1" d="M91.158371,9.4057655h6.7072983c0.1315079,0,0.1972733,0.0657578,0.1972733,0.1972733v1.052125  c0,0.1972742-0.0657578,0.263032-0.263031,0.263032H93.262619c-0.1315155,0-0.263031,0.0657578-0.263031,0.1972733v2.4330397  c0,0.1315155,0.0657578,0.1972733,0.1972733,0.1972733h3.1563797c0.1315155,0,0.1972733,0.0657587,0.1972733,0.1972742v1.1178827  c0,0.0657578,0,0.0657578-0.0657578,0.1315145c-0.0657578,0.0657578-0.0657578,0.0657587-0.1315079,0.0657587h-3.1563797  c-0.1315155,0-0.1972733,0.0657578-0.1972733,0.1972733v2.5645552c0,0.1315155,0.0657578,0.1972733,0.1315079,0.1972733h4.8003235  c0.1315155,0,0.1972733,0.0657578,0.1972733,0.1972713v1.1178837c0,0.0657578,0,0.1315174-0.0657501,0.1315174  c-0.0657578,0.0657558-0.0657578,0.0657558-0.1972733,0.0657558h-6.7730637c-0.1972733,0-0.263031-0.0657558-0.263031-0.263031  V9.6687965C90.9610977,9.4715233,91.0268555,9.4057655,91.158371,9.4057655z" fill="#343b46"/>
<path class="st1" d="M103.3235703,16.3760948c0,0.1972733-0.1315155,0.263031-0.3287888,0.263031H99.772644  c-0.0657578,0-0.1315155,0-0.1972733-0.0657578s-0.0657578-0.0657578-0.0657578-0.1972733v-0.8548517  c0-0.1315155,0.0657578-0.1972742,0.1972733-0.1972742h3.4194031c0.1315231,0,0.1972809,0.0657587,0.1972809,0.1972742V16.3760948z" fill="#343b46"/>
<path class="st1" d="M112.4639053,18.2173138c-0.3287964,0.5918198-0.7891006,0.9863682-1.3809204,1.1836395  c-0.5918198,0.263031-1.315155,0.3945465-2.1700134,0.3945465c-0.9863663,0-1.7097015-0.1315155-2.3015213-0.4603043  s-0.9863663-0.7890949-1.2493973-1.3809147c-0.2630386-0.5918198-0.3945465-1.3151569-0.3945465-2.2357655V9.6687965  c0-0.1972733,0.0657501-0.263031,0.1972733-0.263031h1.6439438c0.1315155,0,0.1972809,0.0657578,0.1972809,0.1972733v6.4442673  c0,0.7890949,0.1972733,1.3809128,0.526062,1.7097034c0.3287888,0.3287888,0.8548508,0.526062,1.578186,0.526062  c0.4603043,0,0.7891006-0.0657578,1.1178894-0.1972733s0.5918198-0.3945484,0.7233429-0.7233372  c0.1972733-0.3287888,0.2630234-0.789093,0.2630234-1.315155V9.6687965c0-0.1315155,0.0657578-0.263031,0.1972809-0.263031  h1.3151474c0.1315155,0,0.1972733,0.0657578,0.1972733,0.1972733v6.3785086  C112.9242096,16.9021568,112.7926865,17.6254921,112.4639053,18.2173138z" fill="#343b46"/>
<path class="st1" d="M116.8696747,9.4057655c0.1315155,0,0.1972733,0.0657578,0.1972733,0.1972733v9.7321568  c0,0.1315155,0,0.1972733-0.0657578,0.263031c-0.0657654,0.0657597-0.1315155,0.0657597-0.263031,0.0657597h-1.4466705  c-0.1315079,0-0.1972733,0-0.1972733-0.0657597c-0.0657654-0.0657578-0.0657654-0.1315155-0.0657654-0.1972713V9.6687965  c0-0.1315155,0.0657654-0.263031,0.1972809-0.263031H116.8696747z" fill="#343b46"/>
</svg>
