<svg xmlns="http://www.w3.org/2000/svg" xmlns:xlink="http://www.w3.org/1999/xlink" id="svg" version="1.1" width="36" height="32" viewBox="0, 0, 260,240"><g id="svgg"><g>
    <path class="cls-1" d="M595.1,2267c0,63.4,35.6,116.4,81.1,116.4h25a47.1,47.1,0,0,0,19.7-4.7,38.3,38.3,0,0,0,18,4.2h40.7c19.1,0,37-12.2,50.3-34.2s20.3-50.6,20.3-81.4c0-64.2-31.7-116.3-70.7-116.3H743.4a53.6,53.6,0,0,0-21.8,4.6A50.3,50.3,0,0,0,701,2151H676.3C631.6,2151,595.1,2203,595.1,2267Zm72.7-96.9,10.7-8a64.9,64.9,0,0,0-5.5,3.6,52,52,0,0,1,14.9-7.8L659.6,2179l-1.6,2a77.1,77.1,0,0,1,12.2-13.1Zm2.6-2.3,2.6-2.1ZM658.1,2181l31.7-23.6-1.9.5a43.2,43.2,0,0,1,7.1-1.7l-40.9,30.4,1.6-2.4Zm58-22.6a60.7,60.7,0,0,0-11.6,8.9l-2.5,1.8h-.2a29.1,29.1,0,0,0-12.1,2.7l20.4-15.2-.9-.2L685.5,2174h0a37.9,37.9,0,0,0-5.3,3.9l-35.3,26.2,1.8-4.1,59.3-44.1h-1l-57.8,42.9-.5,1a110.3,110.3,0,0,1,6.3-11.8l43.2-32.1h0l4.1-.3-50.2,37.3-.8,1.4,52.1-38.7h-.2a45.6,45.6,0,0,1,11.5,1.6l-16.5,12.3,1.4-.2,15.9-11.8A12.4,12.4,0,0,0,716.1,2158.4Zm-62.9,29.8,1-1.6Zm4.6,24.7-20.4,15.2a3.6,3.6,0,0,0-.2,1c.3-1.5.7-2.9,1-4.4l21.2-15.8h0c-1.2,2.9-2.3,5.9-3.4,9l-19.6,14.6c.2-1.1.4-2.2.7-3.3l20.2-15A3.1,3.1,0,0,0,657.8,2212.9Zm-18.8,40h.3l10.8-8-.3,3-6.7,5h1.1l5.5-4.1c-.1,1-.2,2-.2,3l-1.6,1.2Zm10.1,0,.4-.3v-.6a2.8,2.8,0,0,1-.1.9h-.3Zm-14.7,0,16.2-12.1c-.2,1-.3,2.1-.4,3.1l-12.1,9Zm16.4-13-17.1,12.7c.2-2.5.5-5,.8-7.4a.9.9,0,0,1-.1.5l17.8-13.2a.4.4,0,0,1,.1-.3c-.3,1.2-.5,2.4-.7,3.6l-17.5,13c0,.3-.1.6-.1.9l17.4-12.9-.6,3.7Zm-16.3,4.9q.8-5.7,1.8-11.4l19.5-14.5c-.4,1.2-.8,2.4-1.1,3.6h0l-18.9,14.1c-.1.3-.1.6-.2,1l18.8-14c-.7,2.6-1.4,5.2-2,7.9Zm48.1-62.4q7.6-6.9,15.6-8.1c-14.2,17.8-23.5,44.9-25.8,78.6H654.1C655.9,2224.8,667.4,2196,682.6,2182.4Zm-3.1-3.6h0l.4-.4Zm-41,44.9.9-3.5,22.4-16.7h0c-.7,1.4-1.3,2.8-1.9,4.2Zm-.3,1,.3-1Zm1.6-5.6,1.5-4.7a4.9,4.9,0,0,1-.4,1.1l24.1-17.9-2.4,4.6h0Zm-.4,1.1.3-1.1Zm1.8-5.8c.4-1.3.9-2.7,1.4-4v.2l26.6-19.7h0c-1.1,1.7-2.2,3.4-3.3,5.3Zm1.7-4.9,1.5-3.9,31.7-23.6h0a70.8,70.8,0,0,0-5.9,7.2Zm34.8-29.1Zm24.9-11.2Zm34.9,12.3,33.3-24.7a40,40,0,0,1,4.8-.8l-41.7,31Zm0,0a78.5,78.5,0,0,1,9-10.6l-1.3,1.3,16.3-12.1a44,44,0,0,1,7.6-2.9l-30.2,22.5Zm31.6-24.3,1.7-.4Zm-11.7,5.1c1.3-.8,2.7-1.5,4.1-2.2Zm-8.2,6.1a56.4,56.4,0,0,1,8.1-6Zm-1.8,1.7,1.8-1.7Zm29.5-14.2h0Zm2.7-.1h1.1l-50.4,37.4c1.1-2.1,2.3-4.2,3.5-6.1l-.9,1.4,43.9-32.6Zm-33.2,43.7L720.2,2219c.3-1.2.7-2.4,1.1-3.6l28.3-21h0c-1.6,2.3-3.1,4.9-4.6,7.6a103.8,103.8,0,0,0-6.1,14h0L717,2232.3c.2-1.1.4-2.2.7-3.3l22.7-16.9.5-1.2L718,2228c.3-1.1.5-2.3.8-3.4l24-17.8.6-1.3-24.3,18,1.2-4.5-.3,1,25.7-19.1Zm-27.6,25,.3-1A1.7,1.7,0,0,0,718.8,2224.5Zm13.6,66c0-.3-.1-.5-.1-.8l-15.4,11.5a.4.4,0,0,0,.1.3l-1.2-6.8c0,.2.1.5.1.7l15.7-11.7a1.7,1.7,0,0,0-.1-.7l.3,3.3-15.6,11.6c0,.2.1.5.1.7l15.5-11.5c.2,2,.5,3.9.8,5.8l-15.3,11.3c-.2-.8-.3-1.6-.5-2.4Zm-11.6,26.7,14.7-10.9,1.5,5.3-14.5,10.7a1.4,1.4,0,0,1,.2.7l14.4-10.7c0-.1-.1-.3-.1-.4s.5,1.8.8,2.7l-14.4,10.7a1.4,1.4,0,0,1,.2.7l14.3-10.7.8,2.3h0l-14.3,10.6c-1.1-2.8-2.1-5.6-3-8.5l.2.6,14.6-10.8c-.1-.2-.1-.5-.2-.7l-14.6,10.8C721.2,2318.7,721,2318,720.8,2317.2Zm21.6,9.3-.3-.6-14,10.4.2.4-1.2-2.5,14.1-10.5,2.1,4.8h0l-14,10.4c-.3-.7-.7-1.4-1-2Zm-12.7,13.1,14-10.4,1.5,2.9,1.1,1.9v-.2l-13.9,10.3.3.6,13.9-10.3,2.7,4.4-13.9,10.3c-1.6-2.4-3-4.9-4.5-7.5l.3.6,13.9-10.3-.3-.6-13.9,10.4A14.3,14.3,0,0,1,729.7,2339.6Zm11,17.2,14-10.4a52.2,52.2,0,0,0,6.4,6.1l-.5-.4-14.5,10.8h0l-3.6-3.8,14.2-10.5-.5-.5-14.1,10.5A14.1,14.1,0,0,0,740.7,2356.8Zm40.5-1.6c-14,0-26.6-12.3-35-31.6,7-16.1,10.5-35,10.5-56.1s-3.7-39.8-10.6-56.6c8.4-19.5,21-32,35.2-32,25.2,0,45.7,39.6,45.7,88.2S806.4,2355.2,781.2,2355.2Zm35.7-22.5,21.7-16.1a2.4,2.4,0,0,0,.2-.8c-.5,1.8-1.1,3.6-1.7,5.4l.3-1L814,2337.6c1.1-1.7,2.2-3.6,3.2-5.5a89.9,89.9,0,0,0,5.1-11.3l-.3.8,18.9-14.1a4.3,4.3,0,0,1,.1-.5c-.7,2.9-1.4,5.7-2.2,8.5l-21.3,15.8-.4.8C817.2,2332.3,817,2332.5,816.9,2332.7Zm7-16,18-13.4c-.2,1.1-.5,2.2-.7,3.3l-18.7,13.9a133.6,133.6,0,0,0,4.2-13.1l16.8-12.5a4.3,4.3,0,0,1,.1-.5l-.6,3.7-17.2,12.8-.3,1.1,17.3-12.9h0l-.6,3.3-17.9,13.3A3.6,3.6,0,0,0,823.9,2316.7Zm7-34.2,14.5-10.8-.3,7.5a2.8,2.8,0,0,1,.1-.9l-15,11.2h0c.5-3.5.8-7.2,1.1-10.8l14.3-10.6v2.8l-14.4,10.7A1.6,1.6,0,0,0,830.9,2282.5Zm.7-11.4,13.8-10.3c0,1,.1,2,.1,3.1v-.3l-14,10.4c.1-2.3.2-4.6.2-7v.5l13.6-10.1v-.7c.1,1.1.1,2.3.2,3.4l-13.8,10.2A1.9,1.9,0,0,0,831.6,2271.1Zm0-7.7v.4l13.4-10c.1.9.1,1.8.2,2.7l-13.6,10.1Zm-.3-6.6,13.1-9.7v-.3l.6,6.3-13.4,9.9Zm0-.8h0c-.2-3.1-.5-6.3-.9-9.4l12.6-9.4a4.3,4.3,0,0,0-.1-.5c.4,2.1.7,4.2,1,6.3l-12.9,9.6c0,.3.1.5.1.8l12.9-9.6.3,2.6Zm-1.4-13.5c0,.3.1.5.1.8l12.5-9.3a.6.6,0,0,0-.1-.4c.2.9.3,1.9.5,2.9l-12.6,9.4c-.3-2-.5-4-.9-6v.2l12.4-9.2v-.4l.6,2.8Zm-1.1-6.4c0,.2.1.5.1.7l12.2-9.1a20.5,20.5,0,0,1,.5,2.4l-12.3,9.2c-.3-1.9-.7-3.9-1.1-5.8h0l12.1-9c-.1-.2-.1-.5-.2-.7l-12.1,9c-.6-2.9-1.3-5.7-2.1-8.5l11.9-8.8v-.3l.8,2.6-11.9,8.9c.1.2.1.5.2.7l11.9-8.9c.2.8.5,1.6.7,2.5v-.2l-12,8.9c.1.2.1.5.2.7l12-8.9c.5,1.8.9,3.6,1.3,5.4Zm-3.8-15.3c.1.2.1.5.2.7l11.8-8.8.7,2.2-11.8,8.8c-.5-1.8-1-3.5-1.6-5.2l11.7-8.7.9,2.6v-.3Zm-1.9-5.8a1.4,1.4,0,0,1,.2.7l11.6-8.7c0-.1-.1-.2-.1-.3l1.2,3.2a1.4,1.4,0,0,1-.2-.7l-11.7,8.7-1.8-5.1h0l11.6-8.6.9,2.2Zm-17.6-29.6,12.1-9a20.9,20.9,0,0,1,1.4,1.7l-12,8.9Zm14-6.8,1.3,1.8-11.9,8.8-1.4-1.7Zm1.7,2.4-.3-.4c1.1,1.5,2.2,3,3.2,4.6l-11.7,8.7-1.3-1.8,11.7-8.7-.4-.6-11.7,8.7v.2l-1.5-1.9Zm3.3,4.8-.2-.4c.5.8,1,1.5,1.4,2.3l-11.6,8.6.2.3-1.6-2.5c.1.1.1.2.2.2Zm1.5,2.5c1.4,2.3,2.6,4.7,3.9,7.1l-11.5,8.6h0l-1.1-2.1,11.5-8.6-.3-.6-11.5,8.6c-.8-1.6-1.7-3-2.6-4.5Zm4.2,7.7c0-.1-.1-.2-.1-.3l1.1,2.3-11.5,8.6a20,20,0,0,0-1-2.1Zm1.3,2.7h0l1,2.1-11.6,8.6-1.2-2.6c.1.2.2.3.2.5Zm1.2,2.7v-.3l1,2.4-11.6,8.6-.9-2.1Zm12.4,77.8c-.1,1-.1,2-.2,3l-15.3,11.4h0c.2-1.1.3-2.2.5-3.3h0Zm-.3,3.4-.3,3.6v-.2l-15.7,11.7h0l.6-3.2h0l15.4-11.5Zm-.4,4.3c-.3,2.4-.5,4.7-.9,7.1l-16.6,12.3h0c.3-1.1.5-2.3.8-3.4h0l16.2-12.1c0-.3.1-.6.1-.9l-16.1,12h0c.2-1.1.5-2.2.7-3.3Zm-63.8-112.8h.6a27,27,0,0,0-4.9.4h0l20.1-15,2.9,1.4-.7-.3Zm18.8-13.1a46.8,46.8,0,0,1,7.2,4.7l-14.3,10.6-2.5-.9,15-11.1-.6-.4L789,2175.2a15,15,0,0,0-2.9-.6l16.1-12-.6-.4-16.4,12.2a25.6,25.6,0,0,0-3.9-.3h.5Zm7.7,5.1-.3-.2,2.1,1.7-13.7,10.2.3.2-2.6-1.3Zm2.3,1.9,1.7,1.5-13.2,9.8-2.1-1.2Zm-73.9,99c0-18.4,2.9-35.5,8-49.7a147.5,147.5,0,0,1,8.4,50.1c0,18.5-2.8,35.2-8.3,49.7C738.5,2302.9,735.5,2285.6,735.5,2267Zm48.8,92.7-20.5,15.2.5.2-2.9-1.3,18.9-14h.8Zm-23.5,13.9a63.6,63.6,0,0,1-7.4-4.5l15.8-11.7h0l2.5,1-16.3,12.1.6.4,16.5-12.3,2.8.7-17.2,12.8.6.4,17.4-13,3.2.4Zm-7.9-5c.1.1.2.1.2.2l-4.4-3.5,14.9-11,2,1.3-15.2,11.3.5.4,15.3-11.3,2.2,1.1Zm-4.7-3.8.2.2-1.9-1.8,14.6-10.8,2.3,1.7-.4-.3Zm-11-12.7,13.9-10.3h0l1.4,1.8h0L738.6,2354l.4.5,13.9-10.4h0a20,20,0,0,0,1.9,2.2l-.4-.5-14,10.4A41.2,41.2,0,0,1,737.2,2352.1Zm-.4-.5.2.3-1.9-2.7.4.6,13.9-10.3-.2-.3,1.5,2.1h0Zm-10-18,.2.5c-.8-1.8-1.6-3.6-2.3-5.4l14.2-10.6h0c.6,1.7,1.3,3.4,1.9,5Zm-6.9-19.4,14.8-11,.6,2.5h0l-14.7,10.9A15.5,15.5,0,0,1,719.9,2314.2Zm-.8-3,14.9-11.1.6,2.9c0-.2-.1-.3-.1-.5l-14.8,11Zm-.2-.7c0,.1.1.2.1.3-.5-2-1-4-1.4-6.1a.4.4,0,0,0,.1.3l15.2-11.3c.1.8.3,1.6.4,2.5l-15.1,11.2c.1.2.1.5.2.7l15.1-11.2v-.4l.6,3.2c0-.1-.1-.2-.1-.4Zm-3.9-21.6,16.1-12c.1.9.1,1.8.2,2.7l-15.9,11.8c0,.3.1.5.1.8l15.9-11.8a22.8,22.8,0,0,1,.2,2.6l-15.8,11.7A54,54,0,0,1,715,2288.9Zm-.4-3.3,16.3-12.1c0,.9.1,1.8.1,2.8h0l-16.1,12Zm-.3-3.7v.3l16.5-12.3c0,1,0,2,.1,3v-.3l-16.3,12.1A12.7,12.7,0,0,1,714.3,2281.9Zm-.3-3.2,16.7-12.4v2.8l-16.5,12.3A24.5,24.5,0,0,0,714,2278.7Zm-.3-10.6,17.5-13c-.1,1.1-.1,2.2-.2,3.2v-.3l-17.2,12.8v.8l17.2-12.8c0,1-.1,1.9-.1,2.9l-17,12.6v.8l16.9-12.6v2.9h0L714,2277.8C713.8,2274.7,713.7,2271.4,713.7,2268.1Zm.3,10.6v0Zm-.3-11.3Zm0-.1v-2.8l17.7-13.2c-.1,1-.2,2-.2,3Zm17.8-16.9-17.8,13.2c0-1.1,0-2.1.1-3.2v.4l18-13.4-.3,3Zm-17.6,9.5c.1-2.3.2-4.5.4-6.7l18.8-13.9c-.2,1-.3,2.1-.5,3.2l-18.5,13.7v.9l18.4-13.7c-.1,1-.3,2.1-.4,3.1Zm.4-7.1c.2-2.5.4-5,.7-7.4l19.7-14.6c-.2,1.1-.5,2.2-.7,3.3l-19.3,14.3c0,.3-.1.6-.1.9l19.2-14.3-.6,3.2-18.9,14Zm.7-7.4c.2-1.3.3-2.7.5-4l20.2-15c-.3,1.3-.7,2.7-1,4,0-.2.1-.4.1-.6L715,2244.5A2.7,2.7,0,0,1,715,2245.4Zm21-20.1-20.4,15.2c.4-2.8.9-5.5,1.4-8.2-.1.3-.1.6-.2.9l21.7-16.1h0c-1,2.9-1.9,6-2.7,9.1A3.7,3.7,0,0,0,736,2225.3Zm-14.3-11c.4-1.3.8-2.5,1.3-3.7l34.3-25.5a59.9,59.9,0,0,0-6.4,7.5h0Zm1.2-3.8c.7-2.1,1.5-4.2,2.3-6.2l-.5,1.2,65.1-48.4-.8-.2a52.5,52.5,0,0,1,6.7,2.2l-21,15.6a29.6,29.6,0,0,0-7.5,2.8h0l26.1-19.4-.8-.3-69.2,51.4A4,4,0,0,1,722.9,2210.5Zm36.9-27.8-.3.2Zm2.4-1.9h0Zm2.4-1.7Zm31.1-19.9.7.3Zm-70.4,45.1,1.7-4.1,59.1-43.9,2.9.6Zm2-4.8c.8-1.7,1.5-3.3,2.4-4.9l52.1-38.7,3.3.3L727.6,2199Zm86.5-27.5-.5-.5-12.8,9.5-1.9-1.4h0l13-9.7Zm3.4,3.9L805,2185h0l-1.7-1.6h0l12.4-9.2-.5-.5-12.4,9.2-1.8-1.5h0l12.7-9.4A44,44,0,0,1,817.2,2175.9Zm28.3,91.5h0v-.2l-14.2,10.6c.1-1.2.1-2.5.2-3.7v.8l14-10.4Zm-65.9,110.8a40.4,40.4,0,0,1-15-2.9l21.1-15.7a23.8,23.8,0,0,0,5.8-1.6L767,2376.2l.8.2,26.4-19.6a40.6,40.6,0,0,0,11.6-8.7h0l29.5-21.9.4-1.2-27.6,20.5a65,65,0,0,0,4.8-6.3l24.1-17.9c-1,3-2.1,6-3.3,8.8l-63.2,47,.9.2,61.8-45.9.2-.5a99.2,99.2,0,0,1-5.7,11.8l.8-1.4-49.6,36.9h1.3l47.7-35.5c-.9,1.7-1.9,3.4-2.9,5l-40.6,30.2,1.4-.2,38.3-28.5.4-.7a97,97,0,0,1-6.3,8.7l1.6-2-28.7,21.3,1.9-.6,25.2-18.7C807.3,2370.4,794,2378.2,779.6,2378.2Zm-66-3.7-4.3,3.2a56.2,56.2,0,0,1-5.7.9h.9l7.3-5.4Zm.6.4-.5-.3,1.8,1.2-4.5,1.5Zm-3.2,2.4-1.7.4Zm-9.8,1.4h-1.7l9.9-7.4,2,1.6h-.2l-8,5.9ZM644,2292.8h-.8l-7.3,5.4c-.1-.8-.3-1.6-.4-2.5l4-2.9Zm-8.6,2.1c0,.2.1.5.1.7s-.3-1.9-.5-2.9h3.3Zm12.7-2.1-11.6,8.6c0,.2.1.5.1.7l-.6-3.2,8.3-6.1Zm2.4,0,.3,1.8v-.2l-13.6,10.1a20.5,20.5,0,0,1-.5-2.4l12.5-9.3Zm1,5.4c0-.2-.1-.4-.1-.6l-13.4,10-.6-2.4,13.6-10.1A28.7,28.7,0,0,0,651.5,2298.2Zm.4,2.6h0l-13.3,9.9-.6-2.4,13.4-10A22.1,22.1,0,0,1,651.9,2300.8Zm.2.7h0l.6,2.7v-.2l-13.1,9.8-.6-2.3Zm-13.3,9.8c-.1-.2-.1-.5-.2-.7A2.5,2.5,0,0,1,638.8,2311.3Zm14.6-4.4-13,9.7h0l-.9-3,.2.6,13.1-9.7Zm.9,3.5v-.4l-12.9,9.6c-.2-.7-.5-1.5-.7-2.3l13-9.6A26.8,26.8,0,0,0,654.3,2310.4Zm1.6,5.5-12.6,9.4a1.4,1.4,0,0,1,.2.7l12.6-9.4h0l.9,2.6v-.3l-12.5,9.3c-1.1-2.7-2.1-5.5-3.1-8.4l.2.5,12.9-9.6C654.8,2312.4,655.4,2314.2,655.9,2315.9Zm-11.2,12.8,12.5-9.3c.6,1.8,1.3,3.5,2,5.3v-.3l-12.3,9.1c.1.1.1.3.2.4s-.9-2.1-1.4-3.1l.3.6,12.4-9.2a1.4,1.4,0,0,1-.2-.7l-12.4,9.2A5.4,5.4,0,0,1,644.7,2328.7Zm17,1.9-.3-.6-12,8.9.2.3-1.2-2.3,12.1-9v-.3l2.3,5.1h0l-11.9,8.9-1.1-2Zm5.5,10.4-.3-.6-11.6,8.6h.1l-1.3-2,11.7-8.7h-.1l2.7,4.5-11.5,8.6-1.3-1.9Zm6.7,9.5-.4-.5-11.2,8.3.4.5-3.7-4.4,11.4-8.5,1.4,1.9h-.1l-11.3,8.4.4.5,11.3-8.4a52.7,52.7,0,0,0,5.3,6.1l-11.1,8.3.5.5,11.1-8.2a31.6,31.6,0,0,0,3.9,3.5l-11.1,8.2.5.4,11.1-8.2-.5-.4,2.8,2.2-.4-.3-11.1,8.2.6.4,11.1-8.2,2,1.3h0l-11.1,8.3a59.9,59.9,0,0,1-6.6-5.2l11.1-8.2-.5-.5-11.1,8.2a78.3,78.3,0,0,1-5.7-5.8Zm-5,14.6-.5-.4Zm23.5-.2-11.6,8.6-2.2-1.2,11.4-8.4Zm-14.3,7,.6.4-2.7-1.7,11.2-8.3,2.1,1.2Zm-2-1.3-.6-.4ZM657.3,2352l11.5-8.5,1.3,1.9-11.4,8.5Zm0,0-.4-.5Zm-6.3-9.9,11.9-8.8h0a21.2,21.2,0,0,0,1.1,2.1h0l-11.8,8.8.3.6,11.8-8.8h0l1.1,2-11.7,8.7Zm0,0-.3-.6Zm-3-5.8.3.6c-.4-.9-.9-1.7-1.3-2.6l12.2-9.1.9,2.1Zm7.3-43.5h18.3c3.2,24.7,11.1,47.1,22.3,63.4a67.7,67.7,0,0,0,4.4,5.8C680.8,2360,661.2,2330.3,655.3,2292.8Zm44.4,73.9h0l-12.7,9.5-2.5-1,12.1-9-.9-.2-12,8.9-3-1.4.7.3,11.6-8.6A33.8,33.8,0,0,0,699.7,2366.7Zm-15.1,8.5-.7-.3Zm20-8.5,2.5,2.4-.4-.4-12.5,9.3-3.5-.8h.6l13.8-10.2-.5-.4h0l-14.1,10.5-3.3-1,.6.2,13-9.6A16.3,16.3,0,0,0,704.6,2366.7Zm4.6,4.3-.3-.3-10.5,7.8h.2l-3.5-.4h0l12-8.9A16.8,16.8,0,0,0,709.2,2371ZM599.9,2267c0-61.3,34.3-111.2,76.4-111.2h4c-27.7,13-48.6,51.4-51.6,99.3l-.2,2.5h48.4v-2.2c3.5-60.5,29.5-99.6,66.4-99.6h16.2c-29.3,14.2-50.7,58.9-50.7,111.6,0,30.7,7.2,59.6,20.3,81.4,8.5,14,18.8,24,30,29.5H739.3c-30.4,0-55.2-37.1-61.3-88.1l-.2-2.1H629.6l.2,2.8c5.6,42.6,25.6,75.9,50.8,87.8h-4.3C633.5,2376.9,599.9,2327.9,599.9,2267Z" transform="translate(-595.1 -2151)" fill="#536dfe"></path>
    <path class="cls-1" d="M716.3,2236.4l21.1-15.7-.3,1.1-20.9,15.5A2.8,2.8,0,0,1,716.3,2236.4Z" transform="translate(-595.1 -2151)" fill="#536dfe"></path>
    <path class="cls-1" d="M815.6,2198.8l11.6-8.6.3.6-11.6,8.6Z" transform="translate(-595.1 -2151)" fill="#536dfe"></path>
    <path class="cls-1" d="M830.7,2249.2l12.7-9.5c0,.3.1.5.1.8l-12.8,9.5Z" transform="translate(-595.1 -2151)" fill="#536dfe"></path>
    <path class="cls-1" d="M725.6,2330.9l14.2-10.5a1.4,1.4,0,0,1,.2.7l-14.1,10.5Z" transform="translate(-595.1 -2151)" fill="#536dfe"></path>
    <path class="cls-1" d="M844.6,2249.7c0,.3.1.5.1.8l-13.3,9.9v-.8Z" transform="translate(-595.1 -2151)" fill="#536dfe"></path>
    <path class="cls-1" d="M747.9,2336.9,734,2347.2l-.4-.6,13.9-10.3A1.3,1.3,0,0,0,747.9,2336.9Z" transform="translate(-595.1 -2151)" fill="#536dfe"></path>
    <path class="cls-1" d="M845.3,2275.4l-14.8,11c0-.3.1-.6.1-.9l14.7-10.9Z" transform="translate(-595.1 -2151)" fill="#536dfe"></path>
    <path class="cls-1" d="M758.9,2350.5l-14.3,10.7-.5-.5,14.3-10.6Z" transform="translate(-595.1 -2151)" fill="#536dfe"></path>
    <path class="cls-1" d="M839.9,2312l-20.1,14.9.6-1.3,19.8-14.7Z" transform="translate(-595.1 -2151)" fill="#536dfe"></path>
    <path class="cls-1" d="M830.9,2336.8l-55.3,41.1h-1l56.9-42.3Z" transform="translate(-595.1 -2151)" fill="#536dfe"></path>
    <path class="cls-1" d="M653.2,2228.1,635,2241.7c0-.3.1-.6.1-.9l18.4-13.6A1.4,1.4,0,0,0,653.2,2228.1Z" transform="translate(-595.1 -2151)" fill="#536dfe"></path>
    <path class="cls-1" d="M642.5,2323.1a1.4,1.4,0,0,1-.2-.7l12.7-9.5c.1.2.1.5.2.7Z" transform="translate(-595.1 -2151)" fill="#536dfe"></path>
    <path class="cls-1" d="M675.8,2352.7l-11.1,8.3-.5-.5,11.2-8.3Z" transform="translate(-595.1 -2151)" stroke="none" fill="#536dfe" fill-rule="evenodd"></path></g></g></svg>
