<svg xmlns="http://www.w3.org/2000/svg" xmlns:xlink="http://www.w3.org/1999/xlink" id="svg" version="1.1" width="36" height="36" viewBox="0, 0, 36,36"><g id="svgg"><g>
    <path d="M2.5,20.1c0,8.9,5,16.4,11.4,16.4h3.5a5.3,5.3,0,0,0,2.8-.7,5.8,5.8,0,0,0,2.6.6h5.7c2.7,0,5.2-1.7,7.1-4.8a22.1,22.1,0,0,0,2.9-11.5c0-9.1-4.5-16.3-10-16.3H23.4a6.6,6.6,0,0,0-3.1.6,5.8,5.8,0,0,0-2.9-.6H13.9C7.6,3.8,2.5,11,2.5,20.1ZM14.8,8.2a3.6,3.6,0,0,1,2.1-1.1c-2.2,2.3-3.2,6-3.6,10.8H10.8C11,13.9,12.7,10.1,14.8,8.2ZM28.7,32.6c-2,0-3.7-1.8-5-4.5a19.7,19.7,0,0,0,1.6-8,19.6,19.6,0,0,0-1.6-7.9c1.2-2.8,3-4.5,5-4.5,3.6,0,6.5,5.6,6.5,12.4S32.3,32.6,28.7,32.6ZM22.3,20.1a21.3,21.3,0,0,1,.9-7.1,21.6,21.6,0,0,1,1.2,7.1A20,20,0,0,1,23.2,27,19.9,19.9,0,0,1,22.3,20.1ZM11,23.9h2.5a19.5,19.5,0,0,0,3.2,8.7l.3.5c-2.8-.4-4.8-4.2-6-9.4ZM3.1,20.1C3.1,11.5,8,4.4,13.9,4.4h.6c-3.9,1.9-6.9,7.3-7.3,14H14c.5-8.4,4.2-14,9.4-14h2.2c-4.1,2.1-7.1,8.4-7.1,15.7a22.5,22.5,0,0,0,2.9,11.6,11.8,11.8,0,0,0,4.2,4.1H22.8c-4.3,0-7.8-5.2-8.7-12.4v-.2H7.4v.3c.8,6,3.6,10.7,7.2,12.3h-.7C7.9,35.6,3.1,28.7,3.1,20.1Z" transform="translate(-2.5 -3.8)" fill="#536dfe"></path>
    </g></g>
</svg>
