<svg xmlns="http://www.w3.org/2000/svg" xmlns:xlink="http://www.w3.org/1999/xlink" id="svg" version="1.1" width="82" height="82" viewBox="0, 0, 82,82">
  <path fill="#91B0DC" d="M30.8619251,15.8295898c-1.8150024,0.7542839-3.5210171,1.6929455-5.1083488,2.7864933     l-6.7680779-4.2208052l-7.211462,8.1296053l5.0463734,6.2746658c-0.8785629,1.7056446-1.5798559,3.5027161-2.0956497,5.3707085     l-7.9568052,1.1260262L6.4727273,46.1597748l7.9821906,1.5761261c0.4265957,1.8825607,1.0405426,3.6796379,1.8205833,5.383419     l-5.4289341,6.0395393l6.7501545,8.5121689l7.2021484-3.9562035c1.4906597,1.124157,3.0925426,2.1064873,4.7855015,2.9137764     l-0.2806759,8.1882095l10.6500015,2.1829987l1.5164299-3.9252243v-9.1048393     c-10.9288139-0.0328445-20.4945927-8.0202446-22.1438713-19.1588058     c-1.8224621-12.2828636,6.6572266-23.7110386,18.9419556-25.5316296c1.0767632-0.1604843,2.144928-0.2131062,3.2019157-0.2187023     V6.283958L31.029501,7.8309836L30.8619251,15.8295898z"/><path fill="#7397CE" d="M19.3225269,44.8109398c1.6530075,11.1385612,11.2202816,19.1226006,22.1494617,19.1554451V59.361145     c-8.6801224-0.0309677-16.2741432-6.3784294-17.5845413-15.2261124     c-1.4484882-9.7609711,5.2942047-18.8490276,15.0548058-20.2960167c0.8513298-0.123909,1.6914673-0.1694546,2.5297356-0.1731834     v-4.6070919c-1.0588493,0.0018635-2.1270142,0.0600815-3.2056427,0.2205658     C25.9834824,21.0961742,17.5037937,32.5280762,19.3225269,44.8109398z"/><path fill="#6589C6" d="M41.4719887,19.0606041v4.6052284c8.7547569-0.0511265,16.4431953,6.3183422,17.7662811,15.2298508     c1.4470062,9.7587395-5.2956963,18.8452988-15.0566673,20.2904282c-0.9110413,0.1384583-1.8150024,0.176899-2.7096138,0.1750336     v4.6086006c1.1207886,0.0018654,2.2449455-0.0492592,3.3840408-0.2187157     C57.1370087,61.9304314,65.61483,50.5003929,63.7979774,38.2175293     C62.1359978,27.0136662,52.4754372,19.0042381,41.4719887,19.0606041z"/><path fill="#5880C1" d="M73.0375443,25.3587914l-7.991127,1.2376175c-1.038681-1.6257725-2.2360039-3.1347275-3.5721474-4.505209     l3.0052147-7.4518318l-9.2559967-5.6894503l-5.2792816,6.0320711c-1.8332863-0.5792503-3.7397194-0.9748659-5.6950455-1.1588707     L41.7798882,6.236558l-0.3078995,0.0474v12.7747822c11.0034485-0.0545025,20.6640091,7.9601498,22.3259888,19.1569233     c1.8205833,12.284729-6.6591034,23.7147675-18.9419479,25.5335007c-1.1390953,0.1713219-2.2632523,0.2224464-3.3840408,0.2172203     v9.1082001l1.4634094-3.7740555c0.896492-0.0440369,1.7985725-0.1313705,2.7044029-0.2661133     c0.9565697-0.1384583,1.8877716-0.3299255,2.8044205-0.5631943l5.0717583,6.4765854l9.5549507-5.1717911l-2.6588554-7.8015327     c1.3738403-1.2667313,2.6114578-2.6700592,3.7050056-4.1861038l8.0239944,1.698555l3.9946213-10.1017342l-6.9927444-4.2368622     c0.2388458-1.8497124,0.3008118-3.7397156,0.1586075-5.6551208l7.1711655-3.8233223L73.0375443,25.3587914z"/>
</svg>
