<svg xmlns="http://www.w3.org/2000/svg" viewBox="0 0 80 80" class="featureSvg_3LcT" alt="Focus on What Matters">

<g id="_x31_">
</g>
<g id="Layer_1">
	<g id="_x34__1_">
		<g id="_x34_">
			<g>
				<path fill="#7D97DE" d="M45.292645,38.292732c-0.046394-0.0508-0.100098-0.0933-0.150398-0.140202      c-0.061096-0.057098-0.118698-0.117699-0.183601-0.171398l0.550804,0.5494l0.003899,0.003399      c-0.043999-0.048401-0.088402-0.096699-0.132401-0.145C45.35165,38.357132,45.322445,38.324932,45.292645,38.292732z"></path>
				<path fill="#CCCCCC" d="M48.965946,41.97673v-1.7836c-0.614296,0.029701-1.2808,0.024902-1.7593-0.221199      c-0.317802-0.164101-0.587402-0.368698-0.841797-0.588898l2.601601,2.5942l0,0L48.965946,41.97673z"></path>
				<path fill="#FFFFFF" d="M44.952244,37.974331l0.002502,0.002403c0.065903,0.055199,0.125,0.117199,0.1875,0.175797      c0.050301,0.046902,0.104004,0.089401,0.150398,0.140202c0.0298,0.0322,0.059006,0.0644,0.088303,0.096199      c0.044502,0.048302,0.088402,0.097099,0.132401,0.145v0.0005h0.000496c0.271004,0.297802,0.546303,0.5849,0.847603,0.846199      c0.000999,0.0009,0.001999,0.0014,0.003403,0.002403c0.254395,0.2202,0.523994,0.424797,0.841797,0.588898      c0.4785,0.245602,1.145004,0.2509,1.7593,0.221199h0.000504v-11.9737h-0.000504v0.0005      c-1.9375,0-3.877396-0.0825-5.816902-0.2505c-0.482399-0.0415-0.948196-0.1553-1.380394-0.329601      c-0.005302,0.221703-0.004807,0.443401,0.008293,0.690502c0.004906,0.100498,0.012703,0.262699,0.004402,0.434998h-0.820297      v-0.0005c-0.002403-0.130798,0.003395-0.2495,0.006897-0.3344c0.000404-0.007401,0.0009-0.018101,0.0009-0.024899      c0.007805-0.201199,0.007401-0.383801,0.001503-0.563c-0.022499-0.101101-0.051804-0.198299-0.133301-0.258301      c-0.449699-0.3326-0.633804,0.247501-0.651398,0.591301c-0.063004,1.229,0.113297,2.570297,0.658195,3.683098      c0.315002,0.645502,0.755402,0.829603,1.195801,1.296404c0.487801,0.516598,0.406799,1.5312,0.588402,2.1772      c0.124001,0.438999,0.311096,0.838398,0.564499,1.188499c0.264603,0.364201,0.624496,0.632801,0.994598,0.893501v-0.0009      C44.446445,37.595932,44.710049,37.774132,44.952244,37.974331z M44.187145,37.211132l0.383804,0.382801l-0.383804-0.382301      V37.211132z"></path>
				<path fill="#D5D5D9" d="M55.999645,28.765329c-0.0205-0.3335,0.020004-0.769501,0.056198-1.098099      c-0.414093,0.159199-0.854996,0.267101-1.312096,0.306099c-1.926201,0.1646-3.853004,0.246101-5.777298,0.246101v11.9737      c0.002396-0.0005,0.004898-0.0005,0.007294-0.0005c0.222702,0.0107,0.450203,0.012203,0.674805,0.004402      c0.399002-0.014202,0.785698-0.067902,1.092796-0.225601c0.797401-0.410198,1.334-1.043499,1.914101-1.678699      c0.397903-0.4366,0.9282-0.7369,1.400398-1.094799v0.0005c0.261703-0.197701,0.506805-0.412102,0.699707-0.6782      c0.253395-0.349102,0.440895-0.7495,0.5644-1.188499c0.181694-0.6455,0.101097-1.660103,0.588394-2.176701      c0.440903-0.4678,0.880806-0.650402,1.196304-1.296404c0.544395-1.112801,0.720695-2.453598,0.658195-3.682098      c-0.018097-0.344799-0.202194-0.9249-0.651894-0.591801c-0.203102,0.149899-0.1035,0.52-0.2929,0.645      c-0.005905,0.004398-0.010803,0.003399-0.016602,0.007301c-0.055702,0.183098-0.110901,0.3633-0.161705,0.528297H55.999645z"></path>
				<path fill="#D5D5D9" d="M55.129047,27.052431c0.344696-0.0312,0.670898-0.1064,0.982903-0.202602l0,0      C55.799946,26.945532,55.473743,27.020731,55.129047,27.052431z"></path>
				<path fill="#FFFFFF" d="M42.428349,26.332232c1.137695,0.0737,2.275902,0.125999,3.414597,0.160698h-0.000496      c-1.138199-0.035198-2.276405-0.087399-3.413605-0.161198c-0.217796-0.014103-0.4282-0.041-0.6353-0.072201l0,0      C42.000645,26.290731,42.211048,26.318129,42.428349,26.332232z"></path>
				<path fill="#D5D5D9" d="M48.965946,26.543631c-1.041,0-2.082001-0.018501-3.123497-0.050701h0.000496      C46.883945,26.525129,47.925449,26.543631,48.965946,26.543631z"></path>
				<path fill="#D5D5D9" d="M46.586048,23.34693l0.000999,0.0019c-0.117203-0.3843-0.241203-0.77-0.368202-1.152798l0,0      C46.345348,22.578329,46.468845,22.963129,46.586048,23.34693z"></path>
				<path fill="#CCCCCC" d="M51.353649,23.349329c0.244095-0.4814,0.498497-0.9907,0.757301-1.506798      c-0.258804,0.515598-0.512207,1.023899-0.756302,1.504799C51.354145,23.34783,51.354145,23.348829,51.353649,23.349329z"></path>
				<path fill="#CCCCCC" d="M48.983044,24.995329l-0.016594,0.001003c0.278297,0,0.556595-0.012203,0.834999-0.015602      C49.52895,24.984129,49.25555,24.995329,48.983044,24.995329z"></path>
				<path fill="#818386" d="M57.437649,24.47143c-0.226105,0.027302-0.451698,0.059101-0.677704,0.084l0.018501,0.0009      c0.219704-0.024399,0.439499-0.058098,0.659203-0.0844V24.47143z"></path>
				<path fill="#818386" d="M56.773548,24.557329l-0.048798,0.002502c-0.040504,0.004299-0.080605,0.0107-0.121101,0.015099      C56.660244,24.568529,56.716946,24.56373,56.773548,24.557329z"></path>
				<path fill="#818386" d="M56.76865,26.604231c-0.204102,0.098099-0.4282,0.175301-0.6567,0.245598l0,0      c0.2285-0.069798,0.452599-0.147499,0.6567-0.245098c0.184593-0.088402,0.353096-0.190498,0.511795-0.298401v-0.0005      C57.121746,26.413832,56.953243,26.515829,56.76865,26.604231z"></path>
				<path fill="#818386" d="M55.999645,28.765329h0.640099c0.050804-0.164997,0.106003-0.3452,0.161705-0.528297      c0.129799-0.429203,0.258301-0.868202,0.333496-1.1665c-0.327202,0.242199-0.687096,0.4468-1.079102,0.596699      C56.01965,27.995829,55.979145,28.431829,55.999645,28.765329z"></path>
				<path fill="#8C8E91" d="M40.508945,24.473829c0.273903,0.0327,0.547798,0.071301,0.8218,0.101101      c-0.274002-0.0298-0.547897-0.068901-0.8218-0.1021V24.473829z"></path>
				<path fill="#8C8E91" d="M46.218845,22.196032c-0.219696-0.663601-0.4506-1.313-0.681099-1.940903      C45.768246,20.883032,45.999149,21.532431,46.218845,22.196032L46.218845,22.196032z"></path>
				<path fill="#8C8E91" d="M41.793545,26.259531c-0.024399-0.003902-0.051697-0.004902-0.076096-0.008801      C41.742344,26.254629,41.769146,26.256029,41.793545,26.259531L41.793545,26.259531z"></path>
				<path fill="#8C8E91" d="M40.967945,28.430429c-0.003502,0.0849-0.0093,0.203602-0.006897,0.3344l0,0l0.820297,0.0005      c0.008301-0.172298,0.000504-0.334499-0.004402-0.434998c-0.0131-0.247101-0.013596-0.4688-0.008293-0.690502      c-0.3134-0.1269-0.601006-0.294899-0.873001-0.4814c0.040497,0.230499,0.067398,0.454601,0.074699,0.684101      c0.005898,0.179199,0.006302,0.361801-0.001503,0.563C40.968845,28.412329,40.968349,28.423029,40.967945,28.430429z"></path>
				<path fill="#D5D5D9" d="M46.360447,41.781929l2.606003,2.350105v-2.1548l-2.605003-2.596603      c-0.3013-0.261299-0.576599-0.548397-0.847603-0.846199h-0.000496v-0.0005l-0.003899-0.003399l-0.550804-0.5494      l-0.003899-0.004398c-0.242699-0.202103-0.507797-0.380302-0.767601-0.5625v2.406799v0.0005L46.360447,41.781929z"></path>
				<path fill="#CCCCCC" d="M49.114346,44.197929c0.046898,0,0.093803-0.016594,0.131401-0.050301l0.995598-0.898399      l-1.028801-1.026398l-0.246094-0.245598v2.1548l0.017097,0.015594C49.020649,44.181335,49.067547,44.197929,49.114346,44.197929      z"></path>
				<path fill="#B5B5B5" d="M52.655445,38.292732c-0.580101,0.635201-1.116699,1.268501-1.914101,1.678699      c-0.307098,0.1577-0.693794,0.211399-1.092796,0.225601c-0.224602,0.007801-0.452103,0.006798-0.674301-0.003902      c-0.002403,0-0.005402,0-0.007797,0h-0.000504v1.7836l0.000504,0.000504l0.246094,0.245598l1.028801,1.026398l0.000504-0.000496      l1.460396-1.317398l2.3536-2.123005v-2.609898v-0.0005C53.583645,37.555832,53.053349,37.856133,52.655445,38.292732z"></path>
				<path fill="#BFC5DA" d="M48.254543,47.697029c-0.000999-0.096199-0.016098-0.188499-0.044495-0.281296      c-0.018501-0.059998-0.028305-0.123001-0.058105-0.179703l-0.4804-0.902298l-0.721695,1.015602l-1.248505,1.756401      l0.8032,2.385193l0.553703,1.819305l1.1875-5.389099C48.261845,47.846931,48.25555,47.772232,48.254543,47.697029z"></path>
				<path fill="#A1A9C8" d="M49.968845,47.57003c-0.015602,0.116203-0.0112,0.234901,0.014702,0.351105l1.160599,5.270996      l0.578598-1.700195l0.274002-0.814003l0.475998-1.416l0.050301-0.161598l0,0l0.000504-0.000999l-1.966301-2.765099      l-0.480003,0.902298C50.021145,47.34153,49.98505,47.45433,49.968845,47.57003z"></path>
				<path fill="#36488A" d="M48.96645,44.559334v1.112297v13.910103l0.000496,0.000999v-0.000999l0.0019,0.007797l2.175301-6.3974      l-1.160599-5.270996c-0.025902-0.116203-0.030304-0.234901-0.014702-0.351105c0.016205-0.1157,0.052299-0.228996,0.108398-0.334      l0.4795-0.902802l-0.487297-0.685997l-0.773399-1.087898H48.96645z"></path>
				<path fill="#506099" d="M48.96645,45.671631v-1.112297h0.329597l-0.0215-0.030304      c-0.034203-0.047897-0.085899-0.067894-0.137199-0.073296c-0.028801-0.003403-0.050301,0.011299-0.077599,0.020599      c-0.032806,0.0112-0.068901,0.013596-0.0933,0.042397c-0.002403,0.002502-0.004402,0.003899-0.006805,0.005905      c-0.001999,0.000999-0.003899,0.002396-0.004898,0.004395l-0.022003,0.030304l-0.128899,0.181099l-0.336395,0.473602      l-0.575699,0.810097l-0.219704,0.309097l-0.000504,0.000504l0.4804,0.902298      c0.030304,0.056702,0.039604,0.119705,0.058105,0.179703c0.028397,0.092796,0.043495,0.185097,0.044495,0.281296      c0.001007,0.075203,0.007301,0.149902-0.008797,0.224106l-1.1875,5.389595l1.908203,6.271004V45.671631z"></path>
				<path fill="#506099" d="M48.965946,64.683334l-8.7407-16.807602l2.560997-1.0821l-2.9468-1.449203      c0.145103-0.449196,0.463905-1.361298,0.843803-2.186996c-3.528297,1.069298-9.065397,2.699203-9.177298,2.837898      c-3.3349,4.142601-3.863201,13.190903-3.863201,19.606903h21.330996c-0.000999-0.372002-0.002396-0.600601-0.007797-0.601501      V64.683334z"></path>
				<rect x="48.96574" y="64.683083" fill="#506099" width="0.000916" height="0.000748"></rect>
				<rect x="56.961048" y="57.064133" fill="#36488A" width="5.441399" height="0.305702"></rect>
				<path fill="#36488A" d="M66.724754,45.995331c-0.133804-0.122101-5.652805-1.7686-9.180706-2.837898      c0.382401,0.825699,0.698799,1.737801,0.843796,2.186996l-2.9468,1.449203l2.564003,1.0821L49.04755,64.838631l-0.0811-0.154297      l-0.000504-0.000999v0.317398c0.005402,0.0009,0.006798,0.2295,0.007797,0.601501h0.113304h21.612301      C70.699348,58.384529,70.472351,49.43483,66.724754,45.995331z M58.885845,55.06813v-0.451195      c0-0.294006,0.281303-0.5327,0.630402-0.5327h0.330597c0.349106,0,0.629807,0.238693,0.629807,0.5327v0.451195v0.611305      c0,0.293396-0.280701,0.533195-0.629807,0.533195h-0.330597c-0.349098,0-0.630402-0.239799-0.630402-0.533195V55.06813z       M63.291645,57.875229c0,0.638206-0.514702,1.152306-1.148399,1.152306h-4.923401      c-0.6343,0-1.148399-0.514099-1.148399-1.152306v-1.875999c0-0.368599,0.176704-0.692398,0.4468-0.902794h1.992599v0.482399      c0,0.555695,0.449699,1.0093,1.005402,1.0093h0.330597c0.554703,0,1.005302-0.453606,1.005302-1.0093v-0.482399h1.992699      c0.269501,0.210396,0.4468,0.534195,0.4468,0.902794V57.875229z"></path>
				<rect x="56.961048" y="57.771233" fill="#36488A" width="5.441399" height="0.306099"></rect>
				<polygon fill="#36488A" points="52.523045,49.100334 52.472744,49.261932 52.526051,49.103729     "></polygon>
				<path fill="#CACFE0" d="M50.241344,43.249229l-0.995598,0.898399c-0.037598,0.033707-0.084503,0.050301-0.131401,0.050301      c-0.046799,0-0.0942-0.016594-0.131302-0.050301l-0.016594-0.015594v0.000496l0.000496,0.000504v0.250999      c0.008301-0.008301,0.018105-0.015198,0.026398-0.023499c0.012604-0.012199,0.024406-0.024902,0.040001-0.035103      c0.062004-0.042,0.120102-0.034203,0.174805-0.010803c0.0737,0.031807,0.137199,0.098701,0.188499,0.177307      c0.014595,0.022896,0.031197,0.045395,0.043396,0.067398h-0.000496h-0.143005l0.772903,1.087898l0.487297,0.685997      l0.000504,0.001007l1.966301,2.765099l0.002998,0.003899l0.089302-0.264603l0.203094-0.6045l1.989304-5.899399      c0.051804,0.016098,0.124001,0.037598,0.1987,0.059998c0.012199,0.003906,0.019997,0.005905,0.0327,0.009804l-0.909096-2.664101      l-0.074707,0.068401l-2.3536,2.122501l-1.460396,1.317398L50.241344,43.249229z"></path>
				<path fill="#EDEFF5" d="M43.422047,42.335129L43.422047,42.335129h0.000504l1.717194,5.104004l0.2994,0.889702      l0.261703,0.776901l1.249001-1.756401l0.721695-1.015602l0,0l0.000504-0.000504l0.219704-0.309097l0.575699-0.810501      l0.336395-0.473198l0.128899-0.181099l0.022003-0.030304c0.000999-0.001999,0.002899-0.003395,0.004898-0.004395      c0.002403-0.002007,0.004799-0.003906,0.007301-0.006401c0.023903-0.028801,0.059998-0.030701,0.092804-0.041901      c0.027298-0.0093,0.048798-0.024002,0.077599-0.020599c0.051796,0.005402,0.102997,0.025398,0.137199,0.073296      l0.021996,0.030304h0.143005h0.000496c-0.012199-0.022003-0.028801-0.044502-0.043396-0.067398      c-0.0513-0.078606-0.114799-0.1455-0.188499-0.177307c-0.054703-0.023399-0.112801-0.031197-0.174805,0.010803      c-0.015594,0.010201-0.027397,0.022903-0.040001,0.035103c-0.008293,0.008301-0.018097,0.015701-0.026398,0.023499l0,0      v-0.250999L48.96645,44.13253l-2.606003-2.350601l-2.173302-1.960396v-0.0005l-0.088898-0.079601l-0.909103,2.662598      c0.036102-0.010796,0.060501-0.017601,0.093201-0.027397C43.33115,42.36203,43.385845,42.345932,43.422047,42.335129z"></path>
				<path fill="#273B81" d="M42.786243,46.793633l-2.560997,1.0821l8.7407,16.807602v-0.000504v-3.276398v-0.238701V60.14373      v-0.561996l-1.9077-6.271004v-0.000496l-0.553703-1.819305l-0.8032-2.385193h-0.000496l-0.261703-0.776901l-0.2994-0.889702      l-1.717194-5.104004h-0.000504c-0.036697,0.010803-0.090897,0.026901-0.139702,0.041504      c-0.0327,0.009796-0.057098,0.016602-0.093201,0.027397h-0.000496c-0.490799,0.1465-1.3965,0.420403-2.505402,0.753403      c-0.379898,0.825699-0.6987,1.737801-0.843803,2.186996L42.786243,46.793633z"></path>
				<path fill="#0E2472" d="M54.808247,42.335129l-1.9888,5.899002l-0.203598,0.6045l-0.089302,0.264603l-0.000496,0.000496      l-0.053307,0.158203l-0.475998,1.416l-0.273499,0.812996l-0.579102,1.701202l-2.174797,6.397903l-0.000504-0.000504      l-0.0019-0.007797v0.000999v0.560997v1.024002v0.238701v3.276901l0.080605,0.155296l8.957497-16.962898l-2.564003-1.0821      l2.9468-1.449203c-0.144997-0.449196-0.461395-1.361298-0.843796-2.186996      c-1.104904-0.333504-2.012703-0.605003-2.504402-0.752899l0,0c-0.012703-0.003899-0.0205-0.005898-0.0327-0.009804      C54.931744,42.37233,54.86005,42.350334,54.808247,42.335129z"></path>
				<path fill="#4589FF" d="M54.467449,15.293632l0.0112-0.015598c0,0-0.025902-0.034203-0.077103-0.0923      c0.015099,0.023998,0.016602,0.027897,0.026299,0.043499C54.442043,15.252631,54.462048,15.283931,54.467449,15.293632z"></path>
				<path fill="#4589FF" d="M48.965946,24.13933l7.793999,0.4161c0.226006-0.024899,0.451599-0.056698,0.677704-0.084      c0.049797-0.005898,0.100098-0.012699,0.149895-0.0186c0.459503-0.056599,0.9189-0.111797,1.378403-0.176701      c0.000999-0.021999,0.003403-0.043999,0.003403-0.066399c0.149399-3.177299-1.3965-6.110901-3.983398-7.940998      c-0.240204-0.176701-0.497505-0.336402-0.756805-0.491702v0.0005l-0.075699,0.142601      c0.279297,0.224601,0.558098,0.458999,0.815903,0.714801c-1.0224,1.580097-1.9804,3.4585-2.858398,5.2076      c-0.258804,0.516098-0.513206,1.025398-0.757301,1.506798c0,0,0.000496-0.001499,0.000999-0.001999      c-0.000504,0.0005-0.000999,0.001499-0.000999,0.001499c1.313499-3.825199,2.417496-6.560497,2.844696-7.590796l0,0      c-0.012695-0.008301-0.024895-0.017601-0.037598-0.024403l0.118202-0.169498l0.000496-0.0009      c0.067902-0.161701,0.106903-0.252998,0.106903-0.252998s0.001999-0.045902,0.014198-0.125401l0,0h0.000504      c-0.340904-0.338902-1.826202-1.645599-5.430702-1.846203c-0.001503,0-0.002899,0-0.004402,0.0009l0,0V24.13933z"></path>
				<path fill="#4589FF" d="M51.498646,24.948931c0.300301-0.0112,0.601105-0.033699,0.901901-0.048801      c0.550301-0.027397,1.101097-0.0518,1.651802-0.0923c0.310097-0.022499,0.620598-0.056599,0.930695-0.083      c0.540504-0.046898,1.080101-0.091297,1.620605-0.149899c0.040497-0.004398,0.080597-0.010799,0.121101-0.015099      l-7.741707,0.435497c0.272507,0,0.545906-0.0112,0.818405-0.014599      C50.366848,24.973829,50.932247,24.969931,51.498646,24.948931z"></path>
				<path fill="#5492FF" d="M57.437649,24.47193c-0.219704,0.026302-0.439499,0.060001-0.659203,0.0844l0.002899,0.0005      l-0.007797,0.0005c-0.056602,0.006401-0.113304,0.0112-0.169899,0.017601      c-0.540504,0.058601-1.080101,0.103001-1.620605,0.149899c-0.310097,0.026402-0.620598,0.060501-0.930695,0.083      c-0.550705,0.040501-1.101501,0.064903-1.651802,0.0923c-0.300797,0.015102-0.601601,0.037601-0.901901,0.048801      c-0.566399,0.021-1.131798,0.024899-1.697197,0.031799c-0.278404,0.003399-0.556702,0.015602-0.834999,0.015602h-0.000504      v0.329597v0.348602v0.4785v0.390598c2.160202,0,4.322304-0.069302,6.482399-0.208      c1.052803-0.067398,1.993202-0.353001,2.587898-0.748001c-0.076195,0.088902-0.149895,0.1782-0.226997,0.267101      c-0.144096,0.166-0.327202,0.3144-0.528801,0.451599c-0.158699,0.107903-0.327202,0.209999-0.511795,0.298401      c-0.204102,0.097599-0.4282,0.175301-0.6567,0.245098c-0.312004,0.096203-0.638206,0.171402-0.982903,0.202602      c-2.054199,0.188999-4.110802,0.283199-6.163101,0.283199v0.0811v0.000999v0.801701h0.000504      c1.924294,0,3.851097-0.081501,5.777298-0.246101c0.4571-0.038998,0.898003-0.1469,1.312096-0.306099      c0.392006-0.149899,0.7519-0.3545,1.079102-0.596699c0.062004-0.046402,0.130798-0.085003,0.190399-0.1343      c0.365204-0.0415,0.730003-0.075203,1.0952-0.122101c0.763206-0.097599,1.329102-0.717201,1.254402-1.367599      c-0.039101-0.341801-0.078102-0.6856-0.117699-1.0308c-0.098602-0.071301-0.155701-0.111801-0.254402-0.183102      c-0.112297,0.016602-0.224602,0.027302-0.336899,0.043499c-0.459503,0.064903-0.9189,0.120102-1.378403,0.176701      C57.537251,24.458731,57.487446,24.466032,57.437649,24.47193z"></path>
				<path fill="#4B8DFF" d="M43.149044,27.969431c1.939507,0.167999,3.879402,0.2505,5.816902,0.2505v-0.0005V27.41773v-0.000999      v-0.0811c-2.070297,0-4.143997-0.096199-6.216301-0.288502c-0.5952-0.054199-1.158699-0.212399-1.640099-0.442398      c-0.206596-0.099102-0.394096-0.214901-0.566902-0.339401c-0.201698-0.145-0.381401-0.3032-0.5215-0.477497      c-0.041-0.0508-0.0811-0.1021-0.122101-0.153301c0.442902,0.274399,1.064003,0.488201,1.767601,0.607899      c0.008301,0.0014,0.015602,0.003902,0.023399,0.005302c0.008804,0.001499,0.0186,0.001499,0.027405,0.002998      c0.024399,0.003899,0.051697,0.004898,0.076096,0.008801c0.2071,0.0312,0.417503,0.058098,0.6353,0.072201      c1.137199,0.073799,2.275406,0.125999,3.413605,0.161198c1.041496,0.0322,2.082497,0.050701,3.123497,0.050701v-0.390598      v-0.4785V25.32593v-0.329597c-0.846199,0-1.693398-0.016602-2.541496-0.047401      c-0.249001-0.0093-0.498505-0.028801-0.747604-0.040501c-0.599602-0.028801-1.1987-0.056698-1.798798-0.100601      c-0.299805-0.021999-0.599602-0.054699-0.899399-0.080597c-0.549301-0.047302-1.098602-0.0923-1.647903-0.152302      c-0.274002-0.0298-0.547897-0.068401-0.8218-0.101101c-0.061996-0.007298-0.124496-0.016598-0.186501-0.023899      c-0.449799-0.055698-0.899498-0.104-1.349197-0.1675c0-0.0019-0.000504-0.003899-0.000504-0.005901      c-0.114197-0.016098-0.2285-0.027298-0.342697-0.0439c-0.099602,0.070801-0.1558,0.112301-0.254402,0.183102      c-0.0401,0.3452-0.079102,0.688499-0.117699,1.0308c-0.074699,0.649399,0.490204,1.2705,1.253899,1.367599      c0.3545,0.044998,0.709999,0.078201,1.064003,0.119198c0.099602,0.0825,0.212402,0.150902,0.319801,0.225101      c0.271996,0.186501,0.559601,0.3545,0.873001,0.4814C42.200848,27.814131,42.666645,27.927931,43.149044,27.969431z"></path>
				<path fill="#4589FF" d="M56.11195,26.849829c0.2285-0.070297,0.452599-0.147499,0.6567-0.245598      c0.184593-0.088402,0.353096-0.190399,0.511795-0.298401c0.201599-0.1367,0.384705-0.285099,0.528801-0.451599      c0.077103-0.088402,0.150803-0.1777,0.226997-0.266602c-0.594696,0.395-1.535095,0.680603-2.587898,0.748001      c-2.160095,0.138699-4.322197,0.208-6.482399,0.208v0.0606v0.0005v0.73v0.0009c2.052299,0,4.108902-0.0942,6.163101-0.283199      C55.473743,27.020731,55.799946,26.945532,56.11195,26.849829z"></path>
				<path fill="#88B3FF" d="M40.322445,24.44993c0.062004,0.007301,0.124504,0.015602,0.186501,0.0229      c0.273903,0.033199,0.547798,0.0723,0.8218,0.1021c0.549301,0.060001,1.098602,0.105,1.647903,0.152302      c0.299797,0.025898,0.599594,0.058598,0.899399,0.080597c0.600098,0.043903,1.199196,0.0718,1.798798,0.100601      c0.2491,0.0117,0.498604,0.0312,0.747604,0.040501c0.848099,0.0308,1.695297,0.047401,2.541496,0.047401h0.000504      l0.016594-0.001003l7.741707-0.435497l0.048798-0.002502l0.007797-0.0005l-0.002899-0.0005l-0.018501-0.0009l-7.793999-0.4161      v-10.7998l0,0c-3.628403,0.200703-5.111801,1.523003-5.434097,1.854c-0.043404,0.058601-0.069305,0.084503-0.069305,0.084503      l0.011703,0.017097c0.0093-0.014599,0.027397-0.0415,0.057602-0.099098c0.012199,0.068798,0.014198,0.114201,0.014198,0.114201      s0.010696,0.023998,0.030296,0.068398c0.019501,0.044399,0.047806,0.108902,0.0839,0.189899      c0,0.000999,0.000504,0.002003,0.000999,0.003002l0.109901,0.161098c-0.0103,0.007301-0.0205,0.014702-0.0308,0.0205      c0.339905,0.784198,1.065498,2.5059,1.797401,4.501998c0.230499,0.627903,0.461403,1.277302,0.681099,1.940903l0,0      c0.126999,0.382797,0.250999,0.768497,0.368202,1.152798l-0.000504-0.001499v0.001499      c-1.080101-2.114201-2.291-4.6675-3.623497-6.713898c0.124001-0.123001,0.2612-0.229,0.392097-0.3437      c0.141602-0.123501,0.278305-0.254402,0.423302-0.3711l-0.039101-0.076199L43.70425,15.77613      c-0.258804,0.1562-0.518105,0.315902-0.758301,0.491702c-2.586906,1.830997-4.132805,4.765099-3.975105,7.941898      c-0.001495,0.0219,0.001503,0.044399,0.0019,0.066799c0,0.002003,0.000504,0.004002,0.000504,0.005901      C39.422947,24.34593,39.872646,24.394232,40.322445,24.44993z"></path>
				<path fill="#669EFF" d="M48.965946,26.604731v-0.0005v-0.0606c-1.040497,0-2.082001-0.018501-3.123001-0.050701      c-1.138695-0.034698-2.276901-0.086998-3.414597-0.160698c-0.2173-0.014103-0.427704-0.0415-0.634804-0.072701      c-0.024399-0.003502-0.051201-0.004902-0.076096-0.008801c-0.008804-0.001499-0.0186-0.001499-0.027405-0.002998      c-0.007797-0.0014-0.015099-0.003902-0.023399-0.005302c-0.703598-0.119698-1.324699-0.3335-1.767601-0.607899      c0.041,0.051201,0.0811,0.102501,0.122101,0.153301c0.140099,0.173798,0.319801,0.331997,0.5215,0.477497      c0.172806,0.1245,0.360306,0.240299,0.566902,0.339401c0.4814,0.23,1.044899,0.388199,1.640099,0.442398      c2.072304,0.192303,4.146004,0.288502,6.216301,0.288502v-0.0009V26.604731z"></path>
				<path fill="#4B8DFF" d="M43.778446,15.920131c-0.144997,0.116698-0.2817,0.2476-0.423302,0.3711      c-0.130898,0.1147-0.268097,0.220699-0.392097,0.3437c1.332497,2.046398,2.543396,4.599697,3.623497,6.713898l-0.000496-0.0019      c-0.117203-0.383801-0.2407-0.7686-0.367203-1.150898c-0.219696-0.663601-0.4506-1.313-0.681099-1.940903      c-0.731903-1.996098-1.457497-3.7178-1.797401-4.501998c-0.030701-0.070801-0.056099-0.127899-0.079102-0.181599      c-0.000496-0.000999-0.000999-0.002003-0.000999-0.003002c-0.036095-0.080997-0.0644-0.1455-0.0839-0.189899      c-0.0196-0.044399-0.030296-0.068398-0.030296-0.068398s-0.001999-0.045403-0.014198-0.114201      c-0.030205,0.057598-0.048302,0.084499-0.057602,0.099098c-0.004402,0.004902-0.009804,0.015102-0.009804,0.015102      l0.240303,0.465897l0.034599,0.067802L43.778446,15.920131L43.778446,15.920131z"></path>
				<path fill="#5492FF" d="M54.386349,15.310233c0,0-0.039001,0.091297-0.106903,0.252998l-0.000496,0.0009      c-0.023003,0.055698-0.049805,0.120201-0.080605,0.193901l0,0c-0.4272,1.030299-1.531197,3.765597-2.844696,7.591296      c0,0,0.000496-0.001499,0.000999-0.001999c0.244095-0.4809,0.497498-0.989201,0.756302-1.504799      c0.877998-1.7491,1.835999-3.627502,2.858398-5.2076c-0.257805-0.255802-0.536606-0.4902-0.815903-0.714801l0.075699-0.142601      v-0.0005l0.248001-0.466797c0,0-0.006302-0.011703-0.009697-0.016602c-0.005402-0.009701-0.025406-0.041-0.039604-0.0644      c-0.009697-0.015602-0.0112-0.019501-0.026299-0.043499c-0.000496-0.0005-0.000496,0-0.000496,0l-0.000504-0.0009      C54.388348,15.264331,54.386349,15.310233,54.386349,15.310233z"></path>
				<path fill="#F7F7F8" d="M62.844845,55.096436h-1.992699v0.482399c0,0.555695-0.4506,1.0093-1.005302,1.0093h-0.330597      c-0.555702,0-1.005402-0.453606-1.005402-1.0093v-0.482399h-1.992599c-0.270096,0.210396-0.4468,0.534195-0.4468,0.902794      v1.875999c0,0.638206,0.514099,1.152306,1.148399,1.152306h4.923401c0.633698,0,1.148399-0.514099,1.148399-1.152306v-1.875999      C63.291645,55.63063,63.114346,55.306831,62.844845,55.096436z M62.402447,58.077332h-5.441399v-0.306099h5.441399V58.077332z       M62.402447,57.369835h-5.441399v-0.305702h5.441399V57.369835z"></path>
				<path fill="#F7F7F8" d="M59.516247,56.212631h0.330597c0.349106,0,0.629807-0.239799,0.629807-0.533195V55.06813v-0.451195      c0-0.294006-0.280701-0.5327-0.629807-0.5327h-0.330597c-0.349098,0-0.630402,0.238693-0.630402,0.5327v0.451195v0.611305      C58.885845,55.972832,59.167149,56.212631,59.516247,56.212631z"></path>
			</g>
			<g>
				<path fill="#88B3FF" d="M25.30385,12.404033c-0.486301,0.202099-0.943401,0.453598-1.368702,0.746597l-1.8134-1.130898      l-1.932198,2.1782l1.352097,1.681198c-0.235397,0.457-0.423298,0.938498-0.561497,1.438998l-2.131901,0.301701      l-0.079102,2.910702l2.138702,0.422298c0.1143,0.504402,0.278797,0.985901,0.487797,1.442402L19.94105,24.01343      l1.808598,2.280701l1.929703-1.060001c0.399399,0.301201,0.828598,0.5644,1.2822,0.780701l-0.075203,2.193901l2.8535,0.5849      l0.406303-1.051701v-2.439499c-2.928204-0.008801-5.491203-2.148899-5.933102-5.133301      c-0.4883-3.291,1.783699-6.353,5.075199-6.8408c0.288502-0.042999,0.574699-0.057098,0.857903-0.058598V9.846431      l-2.797401,0.414501L25.30385,12.404033z"></path>
				<path fill="#4589FF" d="M36.604145,14.957232l-2.141098,0.3316c-0.278297-0.4356-0.599102-0.839901-0.9571-1.2071      l0.805199-1.996601l-2.479998-1.524399l-1.414501,1.616199c-0.491199-0.155201-1.001999-0.2612-1.525898-0.310501      l-0.661602-2.0327L28.14665,9.846431v3.422802c2.9482-0.014603,5.536596,2.132797,5.981897,5.132796      c0.487797,3.2915-1.784203,6.354-5.075197,6.841301c-0.305202,0.045902-0.606403,0.059601-0.9067,0.058201v2.440399      l0.392097-1.0112c0.2402-0.011799,0.481899-0.035198,0.724602-0.071301c0.256298-0.037098,0.505798-0.088398,0.7514-0.150898      l1.358898,1.735298l2.560099-1.3857l-0.712399-2.090298c0.368099-0.339401,0.699699-0.715401,0.992699-1.121601      l2.149902,0.455101l1.070297-2.7066l-1.873596-1.135201c0.063995-0.495602,0.080597-1.001999,0.042496-1.515202      l1.921402-1.024399L36.604145,14.957232z"></path>
				<path fill="#669EFF" d="M22.212049,20.16913c0.442898,2.984402,3.006298,5.1236,5.934601,5.132401v-1.233902      c-2.325703-0.008297-4.360401-1.709-4.711502-4.079597c-0.3881-2.615299,1.418499-5.0503,4.033699-5.437999      c0.2281-0.033199,0.453201-0.045403,0.677803-0.046402v-1.234398c-0.283703,0.0005-0.569901,0.016098-0.858902,0.059097      C23.996748,13.815131,21.724749,16.87813,22.212049,20.16913z"></path>
				<path fill="#5492FF" d="M28.14665,13.269732v1.233898c2.345699-0.013699,4.405695,1.692901,4.760195,4.0806      c0.387703,2.6147-1.418898,5.049301-4.034197,5.436501c-0.244099,0.037098-0.486301,0.047398-0.725998,0.046898v1.234802      c0.300297,0.0005,0.601498-0.013199,0.9067-0.058601c3.290495-0.487801,5.561995-3.550301,5.075197-6.841301      C33.683247,15.40063,31.094851,13.25463,28.14665,13.269732z"></path>
			</g>
			<path fill="#88B3FF" d="M17.464949,26.144232l-0.132301-1.4687l-1.105499-0.086903     c-0.083-0.238297-0.191399-0.470699-0.3252-0.694897l0.6358-0.900803l-1.0449-1.0401l-0.8936,0.637199     c-0.225101-0.134296-0.461899-0.243599-0.7075-0.328598l-0.090302-1.086899l-1.469299-0.1255l-0.271999,1.054199     c-0.257301,0.041-0.512199,0.109398-0.7612,0.205601l-0.7617-0.7686l-0.034698,0.024899l-1.171402,0.823799l0.4673,0.9799     c-0.173302,0.202202-0.3237,0.420403-0.4492,0.649002L8.27115,23.91963l-0.377903,1.424801l0.994102,0.452698     c-0.002403,0.2607,0.021999,0.5214,0.0742,0.779701l-0.8965,0.621601l0.626499,1.334499l1.063499-0.294399     c0.167,0.201099,0.351002,0.381798,0.549301,0.540001l-0.290501,1.063499l1.337799,0.620598l0.631401-0.918499     c0.2495,0.044899,0.503899,0.066399,0.758301,0.0611l0.466297,1.009701l1.422901-0.384701l-0.054699-0.568401l-0.053299-0.546398     c0.105999-0.060501,0.210999-0.1264,0.312099-0.197201c0.107399-0.075699,0.2089-0.1553,0.306099-0.2393l1.009301,0.476101     l0.8428-1.209999l-0.797901-0.784203c0.089401-0.237301,0.153801-0.483398,0.194302-0.732399L17.464949,26.144232z      M14.014749,27.75313c-0.099102,0.069801-0.203102,0.127499-0.308601,0.180199c-1.0219,0.5093-2.289501,0.212402-2.967201-0.75     c-0.746098-1.061497-0.491699-2.527798,0.570301-3.275898c0.092701-0.064899,0.1889-0.119598,0.287601-0.169899     c1.025398-0.523003,2.305599-0.2295,2.987301,0.7402C15.331647,25.539232,15.076749,27.005129,14.014749,27.75313z"></path>
			<path fill="#4589FF" d="M40.149044,33.850334l-0.145996-1.625l-1.224602-0.096703     c-0.091301-0.2637-0.211403-0.521502-0.359901-0.769503l0.704102-0.997597l-1.1567-1.150902l-0.9888,0.705601     c-0.249001-0.148399-0.5112-0.27-0.783203-0.3633l-0.099594-1.203602l-1.626404-0.138699l-0.3013,1.167     c-0.284698,0.045399-0.566898,0.121601-0.842297,0.2271l-0.8437-0.850101l-0.038101,0.026802l-1.2969,0.912098l0.517601,1.085003     c-0.191898,0.223598-0.358398,0.465298-0.497101,0.7178l-1.193798-0.108902l-0.417999,1.5776l1.100098,0.501503     c-0.002499,0.288097,0.024902,0.577099,0.082001,0.862801l-0.992199,0.6875l0.693398,1.477497l1.1777-0.326599     c0.184101,0.223099,0.388201,0.423801,0.607401,0.598598l-0.320799,1.1772l1.480497,0.687099l0.6992-1.017097     c0.275902,0.050301,0.557198,0.0737,0.838898,0.068298l0.516106,1.117203l1.575195-0.4263l-0.060501-0.628902l-0.059097-0.6045     c0.117203-0.067799,0.232903-0.140099,0.3452-0.2187c0.119102-0.084,0.2314-0.171898,0.338402-0.264698l1.117599,0.526398     l0.932701-1.338898l-0.882401-0.867599c0.098701-0.262703,0.169502-0.535202,0.214897-0.8116L40.149044,33.850334z      M36.329746,35.631531c-0.109398,0.077202-0.224602,0.140701-0.340797,0.198803     c-1.131401,0.5639-2.534203,0.235798-3.284702-0.830101c-0.825697-1.174801-0.544399-2.797401,0.630802-3.626001     c0.102596-0.071301,0.209499-0.132301,0.318398-0.1875c1.135704-0.579601,2.552299-0.254902,3.307098,0.818899     C37.787746,33.180431,37.50555,34.803432,36.329746,35.631531z"></path>
			<g>
				<path fill="#36488A" d="M26.835051,32.398632l-3.2929-4.0254c-0.077702-0.116703-0.330601-0.121601-0.564503-0.0215      l-0.215298,0.092796l7.98,18.544004c0.348598-0.1446,0.654301-0.296898,0.912598-0.462402l-4.544899-10.5611      L26.835051,32.398632z"></path>
				<path fill="#506099" d="M22.546549,28.536829c-0.234402,0.1021-0.403301,0.287102-0.372601,0.425301l0.658699,5.159704      l2.402802,2.650398l4.542,10.555603c0.356499-0.105904,0.675301-0.218704,0.964901-0.339302L22.76185,28.444529      L22.546549,28.536829z"></path>
				<path fill="#4589FF" d="M38.421543,55.857635c-0.133293-0.298302-0.266098-0.5952-0.399399-0.889206      c-2.475098-2.087799-3.6856-4.900299-3.747597-8.3442c-0.167999-0.184601-0.371601-0.315399-0.591801-0.402794      c-0.440899-0.175804-0.947701-0.184601-1.416,0.017097c0,0-0.193901,0.086403-0.4863,0.211899      c-0.038097,0.026299-0.084,0.048798-0.1255,0.075699c-0.258297,0.165504-0.563999,0.317802-0.912598,0.462402      l9.644999,22.409599l1.558098-0.670403c0.935104-0.402794,1.371597-1.496994,0.968704-2.432594L38.421543,55.857635z"></path>
				<path fill="#88B3FF" d="M29.777449,47.327835c-0.047798,0.013695-0.089802,0.0298-0.138599,0.042999      c-0.292999,0.125999-0.4883,0.207497-0.4883,0.207497c-0.4678,0.203102-0.810101,0.576202-0.985901,1.0186      c-0.088299,0.2202-0.1157,0.468201-0.111801,0.7089c2.415501,2.427299,3.625504,5.239799,3.479504,8.4561      c0.122597,0.299301,0.247097,0.598602,0.372097,0.899902l4.492201,10.436996      c0.402802,0.936501,1.497002,1.372101,2.432098,0.969704l1.558601-0.668404L30.74235,46.988533      C30.452749,47.108131,30.133947,47.221931,29.777449,47.327835z"></path>
			</g>
			<g>
				<path fill="#36488A" d="M27.907351,68.419632l-2.4053-1.741699l0.304199-2.955101l1.378498-0.616699l-11.531301-25.7729      l-0.017101,0.023899l-4.023399-0.414501l-1.599098-3.573299c-0.577702,1.307602-0.625999,2.8438,0.004398,4.251499      c0.828102,1.850601,2.598103,2.981903,4.491699,3.087402l9.615201,21.489201      c-1.183098,1.482498-1.520496,3.555199-0.692398,5.406296c1.180199,2.639603,4.277802,3.8218,6.9175,2.640602      c0.008801-0.004402,0.015099-0.007797,0.023399-0.012199l-1.087898-2.429703L27.907351,68.419632z"></path>
				<path fill="#1F337D" d="M28.499647,60.240433l-9.6152-21.4897c1.182602-1.482498,1.519501-3.556202,0.691902-5.4053      c-0.630402-1.409201-1.808102-2.396002-3.1675-2.8379l1.598099,3.574701l-2.353501,3.250999l11.531301,25.7729l1.3325-0.5952      l2.405701,1.741699l-0.152802,1.4776l0.606503,1.3545l-0.606503-1.3545l-0.152298,1.475998l-1.3321,0.596199l1.087898,2.429703      c2.622099-1.187996,3.794897-4.275398,2.617701-6.905296C32.163246,61.477234,30.392748,60.346931,28.499647,60.240433z"></path>
			</g>
		</g>
	</g>
	<g>
		<path fill="#88B3FF" d="M30.889448,21.520868h-0.905884l-0.60392-2.178432l-1.25098,2.178432h-1.013725l1.941174-3.386272    l-0.301956-1.186275l-2.652943,4.572548h-1.013725l3.364708-5.780391h0.884315l0.388233,1.42353h0.905884l-0.625488,1.100002    l0.884315,3.256863L30.889448,21.520868z"></path>
	</g>
	<g opacity="0.7">
		<path fill="#88B3FF" d="M36.289585,34.827328h-0.471519l-0.314354-1.133904l-0.651154,1.133904h-0.527657l1.010414-1.7626    l-0.157181-0.61747l-1.380886,2.38007h-0.52766l1.751373-3.008772h0.460304l0.20208,0.740969h0.471519l-0.325569,0.572563    l0.460297,1.695244L36.289585,34.827328z"></path>
	</g>
	<g opacity="0.7">
		<path fill="#88B3FF" d="M14.040132,27.037149h-0.471523l-0.314346-1.133904l-0.651154,1.133904h-0.527657l1.010406-1.7626    l-0.157173-0.617474l-1.38089,2.380074h-0.52766l1.751377-3.008774h0.460297l0.202084,0.740967h0.471523l-0.325577,0.572567    l0.460297,1.69524H14.040132z"></path>
	</g>
</g>
<path fill="url(#undraw_docusaurus_tree_svg__d)" d="M27.321 33.79l.378-.668 12.487 7.067-.377.667L27.32 33.79zm.029 13.564l4.012-2.257.376.669-4.012 2.257-.376-.669zm12.105 2.942h.767v14.731h-.767V50.296zm8.922-4.552l.39-.662 12.695 7.473-.389.662-12.696-7.473zm.026-10.432l12.738-7.088.373.67-12.738 7.088-.373-.67zm-8.723-4.556l.098-14.348.767.005-.098 14.348-.767-.005z"></path></svg>