<svg alt="Powered by React" class="featureSvg_3LcT" viewBox="0 0 80 80" xmlns="http://www.w3.org/2000/svg">
				<path fill="#4B8DFF" d="M40.784088,13.594098c-0.074188-0.171299-0.120087-0.273399-0.120087-0.273399      s-0.002014-0.047802-0.014709-0.120102c-0.031189,0.061501-0.049805,0.089802-0.060516,0.1045      c-0.004883,0.004902-0.010773,0.015602-0.010773,0.015602l0.253876,0.492199l0.078217,0.152302      c-0.295898,0.236897-0.588898,0.484898-0.86142,0.754898c1.407318,2.160703,2.686615,4.856999,3.826202,7.089402      c-1.019501-3.341801-2.468689-6.7818-3.005798-8.021001C40.836792,13.7133,40.809479,13.651799,40.784088,13.594098z"></path>
				<path fill="#5492FF" d="M51.94519,13.814397l0.261688-0.493698c0,0-0.006775-0.0117-0.010681-0.017101      c-0.00882-0.017101-0.029297-0.051701-0.069305-0.1152c-0.013702,0.084-0.015686,0.132301-0.015686,0.132301      s-0.041016,0.096699-0.11322,0.267097c-0.024506,0.059101-0.052795,0.127903-0.084991,0.206001      c-0.451202,1.088402-1.617218,3.976602-3.003906,8.016202c1.131805-2.232903,2.419891-4.929199,3.817413-7.089902      c-0.272522-0.2705-0.566406-0.518002-0.860413-0.754898L51.94519,13.814397z"></path>
				<g>
					<path fill="#7D97DE" d="M42.151276,37.256298c0.003937,0.002899,0.006805,0.006798,0.010712,0.009697l-0.008789-0.008297       L42.151276,37.256298z"></path>
					<path fill="#7D97DE" d="M42.161987,37.265995l0.579102,0.578602c-0.077087-0.0854-0.154297-0.169399-0.231384-0.254898       C42.402283,37.472996,42.284088,37.367596,42.161987,37.265995z"></path>
					<path fill="#CCCCCC" d="M44.530212,39.362698c-0.336914-0.173801-0.623108-0.391102-0.892609-0.625l2.750977,2.743198v-1.8843       C45.73819,39.628296,45.035095,39.621994,44.530212,39.362698z"></path>
					<path fill="#D5D5D9" d="M54.98819,26.282099c-0.214905,0.158699-0.109406,0.549801-0.309601,0.681202       c-0.005798,0.004898-0.009705,0.003899-0.017609,0.007797c-0.058502,0.193401-0.11618,0.383301-0.170898,0.558102h-0.67569       c-0.020508-0.352501,0.021393-0.8125,0.059509-1.159203c-0.436523,0.167503-0.902313,0.281803-1.385712,0.322803       c-2.03421,0.173798-4.06839,0.260197-6.100586,0.260197v12.643599c0.000977-0.000999,0.000977-0.000999,0.000977-0.000999       c0.081024,0.004402,0.164001,0.004402,0.246124,0.006798c0.083984,0.003502,0.167877,0.007401,0.252899,0.007401       c0.09668,0,0.192383-0.007401,0.288086-0.012199c0.06839-0.002998,0.137695-0.002495,0.205994-0.008301       c0.109406-0.0103,0.212921-0.031799,0.31842-0.051796c0.048798-0.008301,0.099579-0.011703,0.147491-0.023903       c0.1474-0.036198,0.287109-0.085999,0.415009-0.150898c0.841797-0.432602,1.408173-1.101601,2.020477-1.772999       c0.419922-0.460403,0.980499-0.777802,1.479523-1.155201c0.276398-0.209,0.53418-0.4356,0.738281-0.716801       c0.267609-0.368198,0.464813-0.791,0.595703-1.254902c0.192413-0.681198,0.107391-1.752399,0.622101-2.298298       c0.464813-0.4937,0.929596-0.687098,1.263611-1.3692c0.57428-1.174797,0.760803-2.590797,0.69339-3.888199       C55.658081,26.543398,55.462799,25.930597,54.98819,26.282099z"></path>
					<path fill="#FFFFFF" d="M38.786987,26.3407c-0.005798,0.233398-0.004883,0.4688,0.008789,0.729       c0.00592,0.105499,0.014709,0.277897,0.00592,0.459499h-0.867218c-0.001984-0.149403,0.004913-0.288601,0.007812-0.379402       c0.008789-0.212898,0.007812-0.4067,0.001892-0.5952c-0.023407-0.106499-0.055603-0.209-0.140594-0.272499       c-0.473602-0.351501-0.668884,0.2603-0.688507,0.625c-0.065399,1.297401,0.120209,2.712898,0.69632,3.889198       c0.332092,0.680702,0.796875,0.875,1.26181,1.3682c0.515564,0.545898,0.430573,1.617599,0.621979,2.298801       c0.129913,0.463398,0.328094,0.885696,0.595703,1.254398c0.279297,0.385201,0.65921,0.669899,1.050812,0.944302       c0.273376,0.192398,0.55368,0.381397,0.80957,0.594299c0.126007,0.104,0.247009,0.212399,0.358429,0.3325       c0.077087,0.086399,0.155273,0.170399,0.231384,0.254898v0.0009c0.287109,0.315498,0.579102,0.617199,0.896515,0.893101       c0.269501,0.233398,0.555695,0.451698,0.892609,0.6245c0.504883,0.259796,1.207977,0.266098,1.857391,0.234398V26.953497       c-2.045898,0-4.094727-0.087399-6.142609-0.264599C39.736206,26.645899,39.243103,26.524797,38.786987,26.3407z"></path>
					<path fill="#818386" d="M53.814392,27.5292h0.67569c0.054718-0.174801,0.112396-0.3647,0.170898-0.558102       c0.137695-0.453098,0.272522-0.917,0.351624-1.231899c-0.343719,0.256302-0.724609,0.472099-1.138702,0.630798       C53.835785,26.7167,53.793884,27.176699,53.814392,27.5292z"></path>
					<path fill="#8C8E91" d="M38.787994,26.3407c-0.332001-0.1343-0.635712-0.311501-0.921906-0.508801       c0.042999,0.242699,0.070312,0.480499,0.078094,0.722698c0.00592,0.188999,0.006897,0.382301-0.000885,0.5947       c-0.003021,0.090801-0.010803,0.2295-0.00882,0.379902h0.866211c0.008789-0.182102,0.001007-0.3535-0.004913-0.459999       C38.782104,26.8085,38.781189,26.575098,38.787994,26.3407z"></path>
					<path fill="#D5D5D9" d="M43.637604,38.737698c-0.31842-0.275402-0.609406-0.577602-0.895508-0.892601l-0.588898-0.587399       l-0.001923-0.0014c-0.25589-0.213902-0.535187-0.401901-0.80957-0.594299v1.577198       c0,0.631302-0.097626,1.259701-0.290009,1.862801c-0.248108,0.773903-0.557617,1.766998-0.518616,1.755798l0.042023,0.079597       c1.328094,1.780304,3.433594,2.943901,5.810577,2.991707h0.013611h0.024384l-0.036072-3.449203L43.637604,38.737698z"></path>
					<path fill="#273B81" d="M40.574097,41.937393c0,0-0.000885-0.002396-0.001892-0.002899l-0.00592-0.007294       c-0.020508-0.0196-0.03418-0.0401-0.047791-0.0606c-0.060608,0.013695-0.142609,0.033699-0.230499,0.067894       c-0.386719,0.107903-1.022491,0.304199-1.808594,0.542v10.514603h-4.180725v-9.254898       c-3.136686,0.941902-6.266569,1.883301-6.35449,1.985397c-3.516602,4.3769-4.756805,13.929199-4.756805,20.704102h8.902403       V54.054596h0.000916h14.273499h0.000885h0.027405l0.006805-7.045898v-0.005402V44.9291h-0.013611       C44.008698,44.881294,41.903198,43.717697,40.574097,41.937393z"></path>
					<path fill="#4589FF" d="M52.74408,14.332398c-0.252991-0.186001-0.525391-0.3545-0.798889-0.518002L51.866089,13.9647       c0.294006,0.236897,0.587891,0.484898,0.860413,0.755898c-1.397522,2.160203-2.685608,4.8565-3.817413,7.088902       c1.386688-4.038601,2.552704-6.9273,3.003906-8.016603c-0.013702-0.007801-0.026398-0.017601-0.040009-0.025398l0.125-0.178699       c0.072205-0.170902,0.11322-0.268101,0.11322-0.268101s0.001984-0.048302,0.015686-0.132301       c-0.360413-0.357899-1.927795-1.737801-5.734406-1.9492c-0.001984,0-0.002899,0-0.003906,0V23.5487       c0.892609,0,1.786102-0.016602,2.680603-0.049801c0.295898-0.0112,0.591797-0.034199,0.887695-0.048302       c0.598724-0.028797,1.197327-0.056198,1.796906-0.100098c0.355499-0.026901,0.711914-0.064503,1.067413-0.095703       c0.540009-0.047398,1.080078-0.090298,1.620087-0.149399c0.296906-0.031799,0.594696-0.075199,0.891602-0.110401       c0.087891-0.0112,0.174805-0.021999,0.260803-0.0327c0.451111-0.056099,0.90329-0.109398,1.354523-0.173298       c0-0.023502,0.002869-0.046902,0.003876-0.070801C57.108276,19.363199,55.476501,16.265497,52.74408,14.332398z"></path>
					<path fill="#5492FF" d="M57.302582,22.743097c-0.118103,0.017502-0.237305,0.028801-0.355377,0.045403       c-0.451202,0.0644-0.902405,0.117699-1.353516,0.173798c-0.087006,0.0107-0.173889,0.023403-0.260803,0.033203       c-0.296906,0.036098-0.594696,0.077599-0.892609,0.109898c-0.539978,0.059101-1.079071,0.102501-1.61908,0.149399       c-0.355499,0.0312-0.710907,0.069801-1.067413,0.096203c-0.599579,0.0429-1.198181,0.070801-1.796906,0.099598       c-0.295898,0.014603-0.591797,0.037102-0.88858,0.048302c-0.893616,0.033199-1.787109,0.050301-2.680695,0.050301v0.348198       v0.368099v0.505402V25.1835c2.281281,0,4.564484-0.0732,6.844696-0.2202c1.112305-0.070801,2.105499-0.372601,2.733398-0.7901       c-0.080994,0.094299-0.159119,0.188499-0.240204,0.282799c-0.271515,0.312901-0.656311,0.578598-1.098602,0.792       c-0.509796,0.243599-1.100616,0.415501-1.731506,0.473099c-2.169891,0.1992-4.34079,0.298302-6.507782,0.298302v0.085999       v0.847599c2.032196,0,4.066376-0.086399,6.100586-0.260197c0.483398-0.041,0.949188-0.1548,1.385712-0.322803       c0.414093-0.158699,0.794983-0.374496,1.139679-0.630798c0.065399-0.047901,0.138702-0.088902,0.201202-0.141602       c0.385712-0.042999,0.770508-0.080097,1.156219-0.128899c0.80658-0.1031,1.40329-0.757401,1.325195-1.444901       c-0.041992-0.359798-0.083008-0.722599-0.125-1.087399C57.467682,22.8612,57.407104,22.8183,57.302582,22.743097z"></path>
					<path fill="#4B8DFF" d="M42.824097,23.451597c-0.599609-0.029797-1.199219-0.057198-1.800812-0.101097       c-0.355408-0.025902-0.711884-0.064503-1.068298-0.095703c-0.540009-0.046898-1.079102-0.090298-1.619202-0.149399       c-0.292908-0.031799-0.5849-0.0728-0.877899-0.107899c-0.087891-0.0103-0.175781-0.022999-0.263702-0.033699       c-0.453094-0.056202-0.906189-0.110401-1.358398-0.173901c-0.121002-0.017002-0.242096-0.029301-0.36319-0.046803       c-0.104492,0.075203-0.164093,0.118103-0.269592,0.193302c-0.041016,0.364799-0.081024,0.726601-0.123016,1.087399       c-0.078094,0.6875,0.517609,1.341801,1.324219,1.444401c0.375,0.048302,0.75,0.0835,1.123993,0.1255       c0.105499,0.087399,0.223694,0.160099,0.337891,0.237701c0.286194,0.1978,0.589905,0.375999,0.920898,0.508801       c0.457092,0.185097,0.948303,0.304699,1.458008,0.349197c2.048889,0.176201,4.09671,0.264099,6.143585,0.264099v-0.848099       V26.0194c-2.1875,0-4.375977-0.101501-6.565369-0.304699c-0.629028-0.057602-1.222717-0.224102-1.731506-0.466702       c-0.474609-0.2276-0.875-0.521999-1.149414-0.862801c-0.044006-0.053799-0.084991-0.107998-0.128906-0.162201       c0.630798,0.390701,1.601593,0.6675,2.670898,0.736401c2.299805,0.149399,4.602509,0.223602,6.904297,0.223602v-0.412102       v-0.505402v-0.367599V23.5487c-0.893585,0-1.787079-0.016602-2.681702-0.049801       C43.412994,23.4877,43.118103,23.4652,42.824097,23.451597z"></path>
					<path fill="#B5B5B5" d="M51.827087,38.627796l-0.064484-2.193298c-0.5,0.3764-1.059601,0.693798-1.478516,1.155201       c-0.613312,0.671398-1.179688,1.339897-2.021484,1.772999c-0.127899,0.064899-0.266602,0.1147-0.415009,0.150898       c-0.046906,0.0112-0.098694,0.014603-0.147491,0.023903c-0.105499,0.019997-0.208008,0.041496-0.31842,0.0522       c-0.068298,0.005898-0.137604,0.005402-0.207001,0.007896c-0.094696,0.004799-0.189392,0.012199-0.287079,0.012199       c-0.085022,0-0.168915-0.004898-0.252899-0.007401c-0.082123-0.0019-0.166016-0.002396-0.246124-0.006798v0.000999v1.8843       l3.108398,2.831001c1.230499-0.528297,2.27832-1.380402,3.05661-2.448204l0.002991-0.005898       c0.047821,0.013702-0.366302-1.487801-0.584991-2.273399C51.884705,39.271397,51.836792,38.952496,51.827087,38.627796z"></path>
					<path fill="#CCCCCC" d="M46.423676,44.9291h0.04303h0.134796h0.000977c0.182617,0,0.366211-0.013702,0.548798-0.027306       c0.001007,0,0.001007,0,0.001007,0c0.826111-0.067894,1.61911-0.270996,2.342712-0.589401       c0.001007,0,0.001007-0.000496,0.001007-0.000496l-3.108398-2.832001L46.423676,44.9291z"></path>
					<path fill="#0E2472" d="M58.906189,43.777199v9.213898h-4.180695V42.510201       c-0.839813-0.250504-1.517609-0.453705-1.923798-0.575706c-0.101593-0.034195-0.182617-0.054199-0.244202-0.074699       c-0.000916,0.001404-0.001892,0.002403-0.002899,0.003899c-0.77832,1.068306-1.827118,1.919907-3.057617,2.448204       c0,0-0.000977,0.000496-0.001984,0.000496c-0.723602,0.318405-1.516602,0.521507-2.342712,0.589401c0,0,0,0-0.001007,0       c-0.182587,0.013603-0.36618,0.027306-0.548798,0.027306h-0.000977h-0.134796h-0.04303h-0.024384v2.074196v0.005402       l-0.006805,7.045898h0.041016h14.680695l0,0v12.371101h8.895508c0-7.621597-0.914124-17.073303-4.864319-20.704102       C65.036987,45.626396,61.994995,44.705498,58.906189,43.777199z"></path>
					<path fill="#4589FF" d="M46.387604,25.183001V25.247v0.7724c2.167999,0,4.338898-0.099102,6.507782-0.299301       c0.63089-0.057598,1.22171-0.2285,1.731506-0.473099c0.442291-0.211502,0.827087-0.4781,1.098602-0.792       c0.081085-0.0933,0.15921-0.1875,0.239288-0.2822c-0.626984,0.4179-1.620178,0.7197-2.732483,0.790501       C50.953003,25.1103,48.668884,25.183001,46.387604,25.183001z"></path>
					<path fill="#669EFF" d="M36.813385,24.222998c0.043915,0.054203,0.0849,0.108402,0.128906,0.162201       c0.274414,0.341301,0.674805,0.635201,1.149414,0.861801c0.507782,0.243599,1.102478,0.410099,1.731506,0.467701       c2.188385,0.203197,4.377869,0.304699,6.564392,0.304699V25.247v-0.063999c-2.300812,0-4.603516-0.074203-6.902313-0.223602       C38.415894,24.8915,37.443298,24.613699,36.813385,24.222998z"></path>
					<path fill="#7683AF" d="M32.090698,54.054596h-0.000916v12.371101h0.000916h2.607513v-6.1856h9.179565v6.1856h2.56842       l-0.082001-12.371101H32.090698z M37.980377,55.577095H34.7323v-0.931702h3.248077V55.577095z"></path>
					<path fill="#5C6BA0" d="M46.392487,54.054596h-0.027405h-0.000885l0.082001,12.371101h14.667999V54.054596H46.433502H46.392487       z M55.217682,54.645393h3.248016v0.931702h-3.248016V54.645393z"></path>
					<path fill="#7683AF" d="M34.298676,43.736198v9.254898h4.180725V42.476494       c-0.264618,0.074203-0.542023,0.162102-0.84082,0.250504C36.629791,43.038994,35.463776,43.384193,34.298676,43.736198z        M37.980377,52.341698H34.7323v-0.931602h3.248077V52.341698z"></path>
					<path fill="#5C6BA0" d="M54.725494,42.510201v10.480896h4.180695v-9.213898       c-1.206085-0.3657-2.419006-0.731903-3.462006-1.050201C55.193298,42.652199,54.955994,42.577499,54.725494,42.510201z        M58.465698,52.341698h-3.248016v-0.931602h3.248016V52.341698z"></path>
					<rect x="34.7323" y="54.645393" fill="#273B81" width="3.248108" height="0.931702"></rect>
					<rect x="34.7323" y="51.410095" fill="#273B81" width="3.248108" height="0.931602"></rect>
					<rect x="55.217682" y="54.645393" fill="#0E2472" width="3.247986" height="0.931702"></rect>
					<rect x="55.217682" y="51.410095" fill="#0E2472" width="3.247986" height="0.931602"></rect>
					<rect x="34.698212" y="60.240097" fill="#5C6BA0" width="9.179596" height="6.1856"></rect>
					<g>
						<path fill="#7885B1" d="M59.340698,51.287994l-2.379913,0.459l-0.010681-0.012695l-3.635712,10.519501l1.583893-0.139099        l2.911194-8.427803c1.124023-0.162102,2.121124-0.930199,2.517609-2.077599        c0.302704-0.874001,0.192291-1.787605-0.220703-2.537605L59.340698,51.287994z"></path>
						<path fill="#506099" d="M56.140503,47.701096c-0.788025,0.3349-1.439423,0.985298-1.741211,1.859802        c-0.396515,1.1465-0.085907,2.365295,0.697296,3.188499l-3.332001,9.641602l1.549805-0.137199l3.635712-10.519501        L55.374878,49.9179L56.140503,47.701096z"></path>
					</g>
					<g>
						<path fill="#88B3FF" d="M60.32019,54.758194l-2.410095,0.2481l-0.010803-0.014198l-4.545898,10.160103h1.589905        L58.5849,57.0131c1.133789-0.063004,2.194305-0.7407,2.689392-1.848602        c0.377991-0.843803,0.348694-1.764198,0.002991-2.547401L60.32019,54.758194z"></path>
						<path fill="#4589FF" d="M57.447205,50.903694c-0.813507,0.264206-1.519623,0.855499-1.897522,1.699699        c-0.496094,1.107407-0.293884,2.349106,0.414093,3.237305l-4.165985,9.311501h1.555603l4.545898-10.160103l-1.40921-1.9478        L57.447205,50.903694z"></path>
					</g>
					<rect x="48.765503" y="60.240097" fill="#7683AF" width="9.179718" height="6.1856"></rect>
					<path fill="#88B3FF" d="M46.387604,11.240098c-3.831024,0.211498-5.397522,1.608398-5.738312,1.9576       c-0.045898,0.062-0.073212,0.089302-0.073212,0.089302l0.012695,0.018097c0.009705-0.015598,0.029327-0.043999,0.060516-0.1045       c0.012695,0.0723,0.014709,0.119602,0.014709,0.119602s0.045898,0.1026,0.120087,0.273899l0.118195,0.173401       c-0.010803,0.006298-0.022491,0.015099-0.032288,0.021c0.536194,1.239201,1.985382,4.6797,3.004883,8.021001       c-1.139587-2.232403-2.419891-4.928699-3.825195-7.089402c0.271515-0.2705,0.565399-0.518002,0.860413-0.755398       l-0.079102-0.151802c-0.272491,0.165001-0.545898,0.3335-0.799805,0.519501       c-2.732513,1.933099-4.364288,5.030801-4.198303,8.3858C35.830994,22.742098,35.8349,22.765497,35.8349,22.789       c0.453094,0.0644,0.907196,0.118599,1.359283,0.174801c0.087921,0.0107,0.175812,0.0219,0.263702,0.0327       c0.291992,0.035099,0.585999,0.077099,0.877899,0.108898c0.5401,0.059101,1.079193,0.102501,1.619202,0.149399       c0.356415,0.0312,0.712891,0.069801,1.068298,0.096203c0.601593,0.0429,1.201202,0.070801,1.801819,0.099598       c0.292999,0.014603,0.587891,0.038101,0.881775,0.048302c0.894623,0.0327,1.788116,0.050301,2.680725,0.050301       l7.704102-0.443802l-7.704102-0.5V11.240098z"></path>
				</g>
			
			<g>
				<polygon fill="#506099" points="34.060486,64.474495 32.574097,64.474495 32.574097,59.796295 32.574097,23.089701       30.775301,23.089701 30.775301,59.796295 30.775301,64.474495 12.341691,64.474495 12.341691,64.1147 10.502793,64.1147       10.502793,67.353394 35.51358,67.353394 35.51358,64.1147 34.060486,64.1147     "></polygon>
				<path fill="#182D78" d="M28.901278,21.650801h-0.098694v0.055199L22.725496,25.1513l6.077087,5.2202l1.612396,1.3867v1.895998      l-1.612396-1.3862l-7.36319-6.324198c-0.081116,0.038498-0.170013,0.054199-0.253906,0.079998L9.063386,38.024296      l-0.480499,4.377499l13.075196-7.556698l7.144501,5.633297V57.0868H12.341691V64.1147v0.359795h18.433609v-4.6782V23.089701      h1.798796v36.706596v4.6782h1.486389V64.1147v-4.318405h0.012726V40.723V21.650801v-0.120102h-4.961027L28.901278,21.650801z       M29.334902,62.674194H13.980393v-1.319298h15.354508V62.674194z M29.334902,59.675194h-0.532318h-14.82219v-1.319298h14.82219      h0.532318V59.675194z M30.41498,39.139095l-1.612396-1.385799l-7.603485-6.531698      c-0.623993,0.301701-1.392517,0.226101-1.953094-0.253899c-0.752899-0.646999-0.838898-1.783199-0.192413-2.537601      c0.648499-0.752899,1.783203-0.839397,2.538116-0.192398c0.559601,0.480499,0.75,1.23,0.544891,1.893101l6.665985,5.725496      l1.612396,1.385799V39.139095z"></path>
				<path fill="#88B3FF" d="M16.458895,40.473c-0.486299,0.201195-0.9404,0.451195-1.364305,0.743698l-1.807602-1.125999      l-1.926697,2.169899l1.347595,1.6763c-0.233398,0.455101-0.42189,0.934097-0.559601,1.432602l-2.123001,0.302299      l-0.080093,2.901299l2.131897,0.420502c0.114197,0.502396,0.278305,0.982895,0.486298,1.4384l-1.449188,1.612297      l1.801697,2.273003l1.923904-1.056702c0.398407,0.300797,0.825195,0.5625,1.276292,0.777397l-0.074203,2.1875l2.205093,0.451706      l0.638702,0.131294l0.05072-0.131294l0.355499-0.917503v-2.430702c-1.861313-0.005402-3.572312-0.877396-4.68361-2.279297      c-0.631805-0.794403-1.071304-1.760201-1.232407-2.838402c-0.48439-3.278297,1.780319-6.332497,5.060517-6.817802      c0.287079-0.042999,0.572296-0.057693,0.855499-0.058594v-3.411701l-2.789108,0.414097L16.458895,40.473z"></path>
				<path fill="#4589FF" d="M27.722597,43.017494l-2.134796,0.330101c-0.276398-0.433098-0.59671-0.835999-0.953094-1.202202      l0.801697-1.9907l-2.472595-1.519497l-1.40921,1.610798c-0.489319-0.1548-0.998993-0.2593-1.521515-0.309097l-0.658203-2.025902      l-0.082977,0.012203V41.3349c0.689484-0.002502,1.357391,0.111298,1.984406,0.327599      c0.208984,0.0728,0.413086,0.156296,0.611298,0.250999c1.375977,0.652298,2.479492,1.819298,3.037079,3.290001      c0.150421,0.396996,0.265594,0.8125,0.330109,1.2481c0.043915,0.294395,0.064392,0.586899,0.064392,0.874496      c0.003021,1.440399-0.516602,2.793404-1.399384,3.848602c-0.352509,0.422897-0.764587,0.796898-1.224609,1.110802      c-0.726501,0.497101-1.571289,0.847198-2.5,0.985397c-0.303711,0.044899-0.604492,0.058601-0.90329,0.058098v2.430702      l0.391602-1.006401c0.238281-0.013199,0.478485-0.035095,0.72171-0.072197      c0.254883-0.036705,0.505768-0.087898,0.748993-0.149902l1.353485,1.729897l2.552795-1.381294l-0.708984-2.083504      c0.364197-0.338402,0.696289-0.713898,0.988281-1.118698l2.143494,0.453697l1.066406-2.698799l-1.868103-1.129898      c0.064423-0.493599,0.080017-0.999001,0.042908-1.5112l1.9151-1.0205L27.722597,43.017494z"></path>
				<path fill="#5476D4" d="M19.291903,41.3358v-0.0009c-0.283203,0.0009-0.56842,0.015594-0.855499,0.058594      c-3.280198,0.485306-5.544908,3.539505-5.060517,6.817802c0.161102,1.078201,0.600601,2.043999,1.232407,2.838402      c1.112305,1.401901,2.822297,2.273399,4.68361,2.278801V42.098495"></path>
				<path fill="#2953C9" d="M19.291903,42.098495v11.230003v0.000496c0.298798,0.000504,0.599579-0.013199,0.90329-0.058098      c0.928711-0.138199,1.773499-0.488297,2.5-0.985397c0.460022-0.313904,0.872101-0.687904,1.224609-1.110802      c0.882782-1.055199,1.402405-2.408203,1.399384-3.848602c0-0.287598-0.020477-0.580101-0.064392-0.874496      c-0.064514-0.4356-0.179688-0.851105-0.330109-1.2481c-0.557587-1.470703-1.661102-2.637703-3.037079-3.290001      c-0.198212-0.094704-0.402313-0.1782-0.611298-0.250999c-0.627014-0.216301-1.294922-0.330101-1.984406-0.326698"></path>
				<path fill="#88B3FF" d="M22.136599,30.1308c0.205109-0.663101,0.014709-1.412601-0.544891-1.893101      c-0.754913-0.646999-1.889618-0.560501-2.538116,0.192398c-0.646484,0.754402-0.560486,1.890602,0.192413,2.537601      c0.560577,0.48,1.329102,0.555599,1.953094,0.253899l7.603485,6.531698l1.612396,1.385799v-1.896999l-1.612396-1.385799      L22.136599,30.1308z"></path>
				<path fill="#88B3FF" d="M22.725496,25.1513L22.376894,24.8515c0.204102-0.661701,0.014587-1.411201-0.545898-1.892101      c-0.753906-0.646999-1.888702-0.5611-2.537109,0.191902c-0.648499,0.754898-0.561584,1.890099,0.193298,2.537598      c0.485413,0.4179,1.127014,0.5112,1.698303,0.3349c0.083893-0.025799,0.172791-0.0415,0.253906-0.079998l7.36319,6.324198      l1.612396,1.3862V31.7582l-1.612396-1.3867L22.725496,25.1513z"></path>
				<polygon fill="#88B3FF" points="13.980393,58.355896 13.980393,59.675194 28.802584,59.675194 29.334902,59.675194       29.334902,58.355896 28.802584,58.355896     "></polygon>
				<rect x="13.980393" y="61.354897" fill="#88B3FF" width="15.354507" height="1.319298"></rect>
			</g>
		
	
	<g id="Layer_2_2_">
		<g>
			<path fill="#88B3FF" d="M23.600527,47.313789c0-0.569702-0.71344-1.109612-1.807281-1.44442     c0.252411-1.114868,0.140228-2.001854-0.354095-2.285828c-0.113953-0.066612-0.247162-0.098167-0.39267-0.098167v0.390907     c0.080658,0,0.145508,0.015778,0.19986,0.045578c0.238373,0.136726,0.341797,0.657349,0.261169,1.326973     c-0.019287,0.164772-0.050842,0.338318-0.089386,0.515358c-0.343597-0.084137-0.718719-0.148994-1.113129-0.191071     c-0.236633-0.324287-0.482056-0.618782-0.729218-0.876465c0.571472-0.531136,1.107849-0.822128,1.472473-0.822128v-0.3909l0,0     c-0.482056,0-1.113129,0.343575-1.75119,0.939568c-0.638062-0.592491-1.269119-0.932556-1.751175-0.932556v0.3909     c0.362854,0,0.901016,0.289238,1.472458,0.816872c-0.245422,0.257683-0.490814,0.550423-0.723969,0.87471     c-0.396149,0.042076-0.771286,0.106934-1.114853,0.192825c-0.040329-0.175293-0.070114-0.345329-0.091156-0.508354     c-0.082382-0.669617,0.019287-1.190239,0.25592-1.32872c0.052597-0.031555,0.120956-0.045578,0.201599-0.045578v-0.390907l0,0     c-0.147247,0-0.280472,0.031555-0.396164,0.098167c-0.492584,0.283974-0.603012,1.169205-0.348831,2.280571     c-1.090333,0.336563-1.800279,0.87471-1.800279,1.442665c0,0.569702,0.713455,1.109604,1.807282,1.44442     c-0.252426,1.114868-0.140228,2.001846,0.354095,2.285828c0.113937,0.066612,0.247162,0.09816,0.394409,0.09816     c0.482056,0,1.113129-0.343575,1.75119-0.939575c0.638062,0.592499,1.269104,0.932564,1.75119,0.932564     c0.147247,0,0.280457-0.031548,0.396149-0.09816c0.492584-0.283981,0.602997-1.169212,0.348846-2.280571     C22.890566,48.421646,23.600527,47.881737,23.600527,47.313789z M21.318209,46.144577     c-0.06488,0.226135-0.145508,0.459274-0.236664,0.692413c-0.071869-0.140236-0.147247-0.280472-0.229645-0.420708     c-0.080627-0.140236-0.166504-0.276962-0.252411-0.410187C20.848421,46.042908,21.088564,46.088486,21.318209,46.144577z      M20.515352,48.011459c-0.136719,0.236641-0.276978,0.461021-0.422455,0.669617     c-0.2612,0.022789-0.525879,0.035057-0.792328,0.035057c-0.264709,0-0.529388-0.012268-0.788818-0.033302     c-0.145508-0.208603-0.287476-0.431221-0.424225-0.666115c-0.133209-0.229637-0.254166-0.462776-0.364594-0.69767     c0.108673-0.234894,0.231384-0.469788,0.362854-0.699417c0.136719-0.236649,0.276947-0.461021,0.422455-0.669624     c0.2612-0.022789,0.525879-0.035057,0.792328-0.035057c0.264679,0,0.529388,0.012268,0.788818,0.033302     c0.145508,0.208603,0.287476,0.431221,0.424225,0.666115c0.133209,0.229637,0.25415,0.462776,0.364594,0.69767     C20.767763,47.546928,20.646822,47.781822,20.515352,48.011459z M21.081545,47.783577     c0.094666,0.234894,0.175293,0.469788,0.241913,0.697662c-0.229645,0.056099-0.471558,0.103424-0.722198,0.140236     c0.085876-0.134972,0.171783-0.273453,0.252411-0.415443C20.934298,48.065796,21.009676,47.923813,21.081545,47.783577z      M19.304079,49.653954c-0.163025-0.168282-0.32605-0.355843-0.487335-0.560936     c0.157776,0.007011,0.319061,0.012268,0.482086,0.012268c0.164764,0,0.327789-0.003502,0.487305-0.012268     C19.628359,49.298111,19.465334,49.485672,19.304079,49.653954z M17.999895,48.621475     c-0.248917-0.036812-0.489075-0.082382-0.718704-0.138481c0.06485-0.226128,0.145493-0.459267,0.236649-0.692406     c0.071869,0.140236,0.147232,0.280472,0.22963,0.4207C17.829851,48.351524,17.913988,48.488258,17.999895,48.621475z      M19.295321,44.973618c0.163025,0.168282,0.32605,0.35585,0.487305,0.560944     c-0.157776-0.007011-0.319031-0.012276-0.482056-0.012276c-0.164764,0-0.327789,0.00351-0.487305,0.012276     C18.97101,45.329468,19.134035,45.141899,19.295321,44.973618z M17.99814,46.006096     c-0.085892,0.134979-0.171783,0.27346-0.252426,0.415451c-0.080627,0.140228-0.156006,0.280464-0.227875,0.4207     c-0.094666-0.234894-0.175293-0.469788-0.241913-0.69767C17.505556,46.09024,17.747469,46.042908,17.99814,46.006096z      M16.41173,48.200775c-0.620545-0.264694-1.021958-0.611778-1.021958-0.886986c0-0.275215,0.401413-0.624046,1.021958-0.886986     c0.150757-0.064857,0.315536-0.122704,0.485565-0.177048c0.099915,0.343575,0.231384,0.701172,0.394409,1.067535     c-0.16127,0.364616-0.290985,0.720459-0.389145,1.062279C16.729006,48.325233,16.564241,48.265633,16.41173,48.200775z      M17.354815,50.705719c-0.238403-0.136726-0.341827-0.657349-0.2612-1.326973     c0.019287-0.16478,0.050842-0.338318,0.089401-0.515366c0.343582,0.084145,0.718704,0.149002,1.113129,0.191071     c0.236633,0.324295,0.482056,0.61879,0.729218,0.876472c-0.571472,0.531136-1.107864,0.822121-1.472473,0.822121     C17.474016,50.751297,17.407396,50.735519,17.354815,50.705719z M21.512758,49.36998     c0.082397,0.669624-0.019257,1.190247-0.25592,1.328728c-0.052582,0.031548-0.120941,0.045578-0.201569,0.045578     c-0.362885,0-0.901031-0.289238-1.472473-0.816872c0.245392-0.257683,0.490814-0.550423,0.723969-0.874718     c0.396149-0.042068,0.771271-0.106926,1.114868-0.192818C21.461946,49.036926,21.493502,49.206955,21.512758,49.36998z      M22.187654,48.200775c-0.150757,0.064857-0.315521,0.122704-0.485565,0.177048     c-0.099915-0.343575-0.231384-0.70118-0.394409-1.067543c0.161255-0.364609,0.290985-0.720451,0.38916-1.062279     c0.173523,0.054344,0.338318,0.113945,0.492554,0.178802c0.620544,0.264694,1.021973,0.611771,1.021973,0.886986     C23.209627,47.588997,22.808199,47.937836,22.187654,48.200775z"></path>
			<circle fill="#88B3FF" cx="19.29883" cy="47.313789" r="0.80109"></circle>
		</g>
	</g>


					
					
					
					
					
					
					
					
					
					
					
					
					
					
					
					
					
					
					
					
					
					
					
					
					
				
			
			
			
			
		
	
	
	
	
	
	


				
				
			
			
		
	
	
	


				
				
				
				
			
			
			
			
			
			
		
	
	
	
	
	


				
				
			
			
			
		
		
		
	
	
	


				
				
			
			
			
			
		
	
	
	
	
	
	
	

</svg>