<svg alt="Powered by React" class="featureSvg_3LcT" viewBox="0 0 80 80" xmlns="http://www.w3.org/2000/svg">
				<path fill="#506099" d="M55.018723,51.502712l-0.105377-31.4189c2.279297-1.185608,3.8349-3.568405,3.82608-6.314499      c-0.007782-2.090805-1.060486-3.960007-2.502899-5.253906l0.017609,5.304703l-4.598602,2.892609l-0.197296-0.122101      l-4.420898-2.739304L47.01973,8.546612c-1.434601,1.302795-2.474579,3.179703-2.467773,5.269608      c0.008789,2.746994,1.581085,5.118088,3.868195,6.289993l0.105499,31.418991      c-2.279327,1.186523-3.834015,4.046814-3.824219,6.793915c0.012604,3.851593,3.094696,6.968784,6.920898,7.060612      c0.065399,0.000885,0.129822,0.008698,0.196198,0.008698c3.917999-0.012726,7.083008-3.199223,7.069427-7.11713      C58.879135,55.525204,57.305832,52.673611,55.018723,51.502712z M54.282425,62.570126l-2.669891,0.008789l-2.276398,0.007812      l-0.547791-0.896515L46.849838,58.5173l2.458008-4.291901l2.276398-0.101593l2.668884-0.120087l2.487305,4.275391      L54.282425,62.570126z"></path>
				<path fill="#394B8C" d="M62.193527,62.23901L62.08815,30.820126c2.279297-1.186523,3.833984-4.047913,3.824188-6.794006      c-0.012695-3.851501-3.094696-6.968704-6.920898-7.060501c-0.065399-0.001999-0.129913-0.009811-0.196289-0.009811      c-3.917999,0.013702-7.083008,3.200211-7.069305,7.11821c0.008789,2.746094,1.582001,5.596695,3.86911,6.767593      l0.105469,31.418915c-2.225586,1.15918-3.75,3.459995-3.812469,6.123997h2.694275l4.376007-2.751892l0.197296,0.122101      l4.245117,2.629791h2.650391C65.987534,65.700928,64.440628,63.3894,62.193527,62.23901z M59.029526,28.221523      L56.36055,28.34161l-2.487305-4.275391l2.457977-4.291l2.670013-0.008804l2.276306-0.007797l0.547882,0.896393      l1.938538,3.172897l-2.45813,4.291992L59.029526,28.221523z"></path>
			
			<g>
				<path fill="#7D97DE" d="M30.786331,39.919704l0.001007,0.001923l0.586914,0.584991      c-0.077118-0.084991-0.154297-0.168915-0.232422-0.253906C31.032425,40.132626,30.911331,40.024227,30.786331,39.919704z"></path>
				<path fill="#CCCCCC" d="M33.156448,42.019314c-0.335907-0.172791-0.621124-0.389587-0.889618-0.623016l2.741211,2.733429      v-1.878021C34.36055,42.284023,33.659439,42.278103,33.156448,42.019314z"></path>
				<path fill="#D5D5D9" d="M43.578323,28.984127c-0.212891,0.158173-0.109375,0.547882-0.307587,0.678772      c-0.006775,0.004822-0.011688,0.003906-0.018585,0.007812c-0.057617,0.192413-0.116211,0.381805-0.169922,0.555603h-0.673798      c-0.020477-0.350616,0.021515-0.809509,0.059601-1.155212c-0.435608,0.167023-0.899506,0.281219-1.38089,0.322205      c-2.026398,0.17392-4.054718,0.259796-6.079102,0.259796v12.598602l0,0c0.080994,0.003906,0.164093,0.003906,0.246094,0.006897      c0.084015,0.001923,0.166992,0.006805,0.251892,0.006805c0.09671,0,0.191406-0.006805,0.286224-0.011688      c0.068298-0.003021,0.13858-0.003021,0.205078-0.00882c0.110321-0.009796,0.213806-0.031281,0.318298-0.050781      c0.047913-0.009796,0.099609-0.012695,0.146515-0.024414c0.147491-0.036102,0.287109-0.084991,0.414093-0.150391      c0.838806-0.43161,1.40329-1.097687,2.013611-1.766602c0.419006-0.459015,0.976593-0.776398,1.473694-1.151398      c0.275421-0.208008,0.533203-0.433594,0.736298-0.713806c0.266602-0.368195,0.463898-0.789093,0.593689-1.25      c0.191406-0.679688,0.106506-1.747101,0.619202-2.290985c0.463806-0.492218,0.926697-0.685608,1.25882-1.364319      c0.573181-1.171906,0.758789-2.582977,0.692413-3.876007C44.245346,29.243923,44.051041,28.633602,43.578323,28.984127z"></path>
				<path fill="#FFFFFF" d="M28.885941,29.3894c-0.506805-0.042877-0.996979-0.163086-1.452087-0.34668      c-0.00592,0.233398-0.004913,0.465881,0.008789,0.726593c0.004791,0.105499,0.013611,0.276398,0.004791,0.457001h-0.86319      c-0.002991-0.149414,0.004791-0.287109,0.007782-0.377899c0.007812-0.211914,0.007812-0.404297,0.001007-0.592804      c-0.023499-0.106384-0.053802-0.208008-0.139709-0.271484c-0.472595-0.350525-0.666992,0.259796-0.685486,0.62207      c-0.066406,1.29303,0.11911,2.704102,0.692291,3.876007c0.332123,0.678711,0.795013,0.872101,1.25882,1.364319      c0.512695,0.543884,0.427795,1.611298,0.619202,2.290985c0.129883,0.460907,0.327087,0.881805,0.593689,1.25      c0.27829,0.383789,0.657196,0.666992,1.046906,0.940399c0.273407,0.192413,0.551788,0.379913,0.807587,0.591797      c0.125,0.104523,0.246094,0.212921,0.355499,0.333008c0.078125,0.084991,0.155304,0.168915,0.232422,0.253906l0,0      c0.285187,0.313507,0.576172,0.615204,0.892578,0.889679c0.268494,0.233429,0.553711,0.450226,0.889618,0.623016      c0.502991,0.258789,1.204102,0.264709,1.851593,0.232391V29.653103l0,0      C32.968948,29.653103,30.926956,29.565212,28.885941,29.3894z"></path>
				<path fill="#818386" d="M42.408432,30.226315h0.673798c0.053711-0.173798,0.112305-0.36319,0.169922-0.555603      c0.13681-0.451202,0.271484-0.913086,0.351593-1.2276c-0.344696,0.254913-0.723602,0.469788-1.135712,0.627991      C42.429947,29.416805,42.387955,29.875698,42.408432,30.226315z"></path>
				<path fill="#818386" d="M43.922134,25.708813v-0.001007c-0.295898,0.036102-0.592804,0.07811-0.889709,0.110306      C43.32933,25.785915,43.626236,25.744915,43.922134,25.708813z"></path>
				<path fill="#8C8E91" d="M27.433853,29.042721c-0.330109-0.133698-0.632812-0.310516-0.919006-0.507812      c0.042999,0.243195,0.070282,0.479492,0.078186,0.720703c0.006805,0.188507,0.006805,0.38089-0.001007,0.592804      c-0.002991,0.09079-0.010773,0.228485-0.007782,0.377899h0.86319c0.00882-0.180603,0-0.351501-0.004791-0.457001      C27.42894,29.508602,27.427933,29.276119,27.433853,29.042721z"></path>
				<path fill="#8C8E91" d="M26.108627,25.710705c0.292023,0.035202,0.584015,0.076202,0.876007,0.107407      c-0.291992-0.031204-0.583984-0.073196-0.876007-0.108398V25.710705z"></path>
				<path fill="#D5D5D9" d="M32.26683,41.396297c-0.316406-0.274475-0.607391-0.576172-0.892578-0.889679l-0.586914-0.584991      l-0.001007-0.001923c-0.255798-0.211884-0.53418-0.399384-0.807587-0.591797v1.57132      c0,0.629883-0.09671,1.255798-0.288116,1.856384c-0.247101,0.771515-0.555695,1.761688-0.517578,1.75l0.041992,0.079102      c1.323303,1.774414,3.421906,2.934601,5.7901,2.981506h0.013611h0.024475l-0.035187-3.436493L32.26683,41.396297z"></path>
				<path fill="#273B81" d="M29.215042,44.584713c-0.001007-0.000916-0.001892-0.001892-0.001892-0.002899l-0.006897-0.006805      c-0.020508-0.019592-0.034119-0.0401-0.047821-0.060608c-0.060608,0.013702-0.141602,0.03421-0.229492,0.067413      c-0.384796,0.108398-1.019501,0.303711-1.802704,0.540009v10.478577h-4.1651v-9.222687      c-3.126007,0.938507-6.245087,1.877014-6.333008,1.978485c-3.503877,4.361328-4.740174,13.88092-4.740174,20.632816h8.871095      V56.659908h0.000885h14.224701h0.000916h0.026398l0.006805-7.021484v-0.004822v-2.067383h-0.013611      C32.636948,47.519314,30.538345,46.359127,29.215042,44.584713z"></path>
				<path fill="#4589FF" d="M40.797134,16.05061l0.010712-0.016602c0,0-0.027313-0.035202-0.081116-0.097702      C40.76683,15.998806,40.786331,16.033016,40.797134,16.05061z"></path>
				<path fill="#4589FF" d="M41.342026,17.075909c-0.252991-0.184494-0.524384-0.3535-0.795898-0.516602l-0.080078,0.150406      c0.293884,0.236404,0.586884,0.483398,0.858398,0.753006c-1.392609,2.15329-2.676819,4.839798-3.804718,7.064392      c1.382812-4.024399,2.544006-6.903305,2.994232-7.988297c-0.013733-0.007797-0.026428-0.017502-0.040131-0.025406      l0.125-0.178696c0.07132-0.170898,0.112305-0.266602,0.112305-0.266602s0.002014-0.047806,0.015594-0.131805      c-0.359283-0.357391-1.921783-1.732391-5.714783-1.942398c-0.001007,0-0.002899,0-0.004913,0l0.001007,12.266602      c0.889587,0,1.780304-0.016602,2.670898-0.049805c0.294891-0.010696,0.59079-0.033188,0.885712-0.047791      c0.59668-0.029297,1.19339-0.056702,1.791077-0.099701c0.353516-0.026306,0.708923-0.064407,1.063416-0.095703      c0.538086-0.046799,1.075195-0.090805,1.613281-0.149399c0.296906-0.032196,0.593811-0.074203,0.889709-0.110306      c0.086914-0.009796,0.172821-0.0215,0.259705-0.032196c0.449188-0.055695,0.898499-0.10939,1.348694-0.172897      c0.000916-0.023407,0.003906-0.046906,0.003906-0.070297C45.690628,22.089611,44.064651,19.002712,41.342026,17.075909z"></path>
				<path fill="#5492FF" d="M45.884933,25.457806c-0.118103,0.016602-0.236298,0.028305-0.354401,0.044907      c-0.450195,0.063507-0.899506,0.117203-1.348694,0.172897c-0.086884,0.010696-0.173798,0.023407-0.259705,0.033203      c-0.295898,0.036102-0.592804,0.077103-0.889709,0.109299c-0.538086,0.058594-1.075195,0.1026-1.613281,0.149399      c-0.354492,0.031296-0.7099,0.069397-1.063416,0.095703c-0.597687,0.042999-1.194397,0.070404-1.791077,0.099701      c-0.294922,0.014603-0.59082,0.037094-0.885712,0.047791c-0.890594,0.033203-1.781311,0.049805-2.670898,0.049805v0.347702      v0.366196v0.503906v0.41011c2.272491,0,4.547791-0.072205,6.820282-0.218704      c1.108429-0.070312,2.097717-0.371109,2.723633-0.787109c-0.080017,0.093704-0.158203,0.188507-0.239227,0.281204      c-0.270477,0.3125-0.65329,0.578186-1.094696,0.789093c-0.507904,0.243195-1.09668,0.414093-1.724701,0.47171      c-2.162079,0.199188-4.32608,0.297791-6.485291,0.297791v0.085999v0.844696l0,0c2.024384,0,4.052704-0.085876,6.079102-0.259796      c0.481384-0.040985,0.945282-0.155182,1.38089-0.322205c0.412109-0.158203,0.791016-0.373077,1.135712-0.627991      c0.065399-0.047791,0.137695-0.088806,0.200195-0.140594c0.383789-0.043915,0.768494-0.080109,1.152313-0.128906      c0.80368-0.102509,1.398499-0.754898,1.320282-1.439499c-0.040985-0.359299-0.082001-0.720703-0.123993-1.083893      C46.049026,25.575008,45.989426,25.532009,45.884933,25.457806z"></path>
				<path fill="#4B8DFF" d="M31.456253,26.162914c-0.597626-0.029297-1.195312-0.056702-1.793915-0.099701      c-0.355499-0.026306-0.709991-0.064407-1.065399-0.095703c-0.537109-0.046799-1.075195-0.090805-1.612305-0.149399      c-0.291992-0.031204-0.583984-0.072205-0.876007-0.107407c-0.087891-0.009796-0.174774-0.022491-0.262665-0.033188      c-0.451233-0.05571-0.902435-0.110306-1.354523-0.173798c-0.120087-0.017609-0.240204-0.028305-0.360413-0.046906      c-0.104492,0.075195-0.164001,0.118195-0.268494,0.193405c-0.040985,0.36319-0.082001,0.724594-0.123108,1.083893      c-0.078094,0.684601,0.515717,1.33699,1.319427,1.439499c0.372986,0.047913,0.746979,0.083008,1.120087,0.125      c0.104492,0.086914,0.222595,0.15921,0.335907,0.236298c0.286194,0.197296,0.588898,0.374115,0.919006,0.507812      c0.455109,0.183594,0.945282,0.303802,1.452087,0.34668c2.041016,0.175812,4.083008,0.263702,6.122101,0.263702v-0.844696      v-0.085999c-2.178711,0-4.361298-0.100586-6.541992-0.303711c-0.627014-0.057587-1.218719-0.223572-1.725616-0.46579      c-0.472595-0.226593-0.872101-0.519501-1.145477-0.85939c-0.043915-0.053711-0.085022-0.107407-0.128906-0.161102      c0.628906,0.389603,1.59668,0.664993,2.662079,0.733398c2.292023,0.149399,4.586914,0.22261,6.879913,0.22261v-0.41011      v-0.503906v-0.366196v-0.347702c-0.890594,0-1.781311-0.017593-2.671906-0.049805      C32.043228,26.200008,31.750229,26.177517,31.456253,26.162914z"></path>
				<path fill="#B5B5B5" d="M40.427933,41.286922l-0.064392-2.185608c-0.497101,0.375-1.054688,0.692383-1.473694,1.151398      c-0.610321,0.668915-1.174805,1.334991-2.013611,1.766602c-0.126984,0.065399-0.266602,0.114288-0.414093,0.150391      c-0.046906,0.011719-0.098602,0.014618-0.146515,0.024414c-0.104492,0.019501-0.207977,0.040985-0.318298,0.050781      c-0.066498,0.005798-0.13678,0.005798-0.205078,0.00882c-0.094818,0.004883-0.189514,0.011688-0.286224,0.011688      c-0.0849,0-0.167877-0.004883-0.251892-0.006805c-0.082001-0.002991-0.1651-0.002991-0.246094-0.006897l0,0v1.878021      l3.097687,2.821198c1.226501-0.525299,2.271423-1.375,3.046814-2.438416l0.002991-0.006897      c0.046814,0.014709-0.365295-1.482391-0.583099-2.265594C40.48555,41.928524,40.437729,41.610104,40.427933,41.286922z"></path>
				<path fill="#CCCCCC" d="M35.043228,47.566219h0.042908h0.134827h0.000977c0.18161,0,0.364197-0.013702,0.546814-0.027405      h0.000977c0.823303-0.067291,1.612305-0.269501,2.335022-0.586914l0.000977-0.000977l-3.097687-2.821198L35.043228,47.566219z"></path>
				<path fill="#0E2472" d="M47.481644,46.418697v9.181702h-4.165009V45.156002c-0.836884-0.25-1.512695-0.452087-1.917999-0.574188      c-0.100586-0.033203-0.18161-0.053711-0.242188-0.074188c-0.001923,0.001892-0.002899,0.002899-0.003906,0.004883      c-0.775391,1.063416-1.820312,1.913116-3.046814,2.438416L38.104752,46.9519      c-0.722717,0.317413-1.511719,0.519623-2.335022,0.586914h-0.000977c-0.182617,0.013702-0.365204,0.027405-0.546814,0.027405      h-0.000977h-0.134827h-0.042908h-0.024475v2.067383v0.004822l-0.006805,7.021484h0.040985h14.629913l0,0v12.329105h8.865204      c0-7.595707-0.912109-17.013615-4.847626-20.632816C53.592026,48.261501,50.560745,47.343502,47.481644,46.418697z"></path>
				<path fill="#4589FF" d="M35.008041,27.888424v0.064484v0.769501c2.15921,0,4.323212-0.098602,6.485291-0.297791      c0.628021-0.057617,1.216797-0.228516,1.724701-0.47171c0.441406-0.210907,0.824219-0.476593,1.094696-0.789093      c0.081024-0.092697,0.15921-0.1875,0.239227-0.281204c-0.625916,0.416-1.615204,0.716797-2.723633,0.787109      C39.555832,27.816219,37.280533,27.888424,35.008041,27.888424z"></path>
				<path fill="#669EFF" d="M25.466049,26.932415c0.043884,0.053696,0.084991,0.107391,0.128906,0.161102      c0.273376,0.33989,0.672882,0.632797,1.145477,0.85939c0.506897,0.242218,1.098602,0.408203,1.725616,0.46579      c2.180695,0.203125,4.363281,0.303711,6.541992,0.303711v-0.769501v-0.064484c-2.292999,0-4.587891-0.073212-6.879913-0.22261      C27.062729,27.597408,26.094955,27.322018,25.466049,26.932415z"></path>
				<path fill="#4B8DFF" d="M29.424026,16.339611c-0.075195-0.169891-0.120087-0.2715-0.120087-0.2715      s-0.001984-0.047806-0.014709-0.120102c-0.032196,0.060608-0.05069,0.088898-0.061493,0.1035      c-0.003906,0.005905-0.009705,0.016602-0.009705,0.016602l0.25293,0.490295l0.078064,0.151306      c-0.293884,0.236404-0.586884,0.483398-0.858398,0.753006c1.402405,2.15329,2.676819,4.839798,3.813507,7.064392      c-1.017609-3.330093-2.460907-6.757797-2.996094-7.993103C29.475845,16.458813,29.449448,16.398205,29.424026,16.339611z"></path>
				<path fill="#5492FF" d="M40.546127,16.559307l0.260712-0.491196c0,0-0.006805-0.011703-0.009705-0.017502      c-0.010803-0.017593-0.030304-0.051804-0.070404-0.114304c-0.01358,0.084-0.015594,0.131805-0.015594,0.131805      s-0.040985,0.095703-0.112305,0.266602c-0.024384,0.057602-0.052704,0.125992-0.084869,0.204102      c-0.450226,1.084991-1.61142,3.963898-2.994232,7.988297c1.127899-2.224594,2.412109-4.911102,3.804718-7.064392      c-0.271515-0.269608-0.564514-0.516602-0.858398-0.753006L40.546127,16.559307z"></path>
				<path fill="#4F72D3" d="M20.759933,56.659908h-0.000885v12.329105h0.000885h2.598694v-6.164005h9.148407v6.164005h2.558594      l-0.080994-12.329105H20.759933z M26.630142,58.177517h-3.237305v-0.928711h3.237305V58.177517z"></path>
				<path fill="#2953C9" d="M35.011948,56.659908H34.98555h-0.000916l0.080994,12.329105h14.617218V56.659908H35.052933H35.011948z       M43.806839,57.248806h3.236389v0.928711h-3.236389V57.248806z"></path>
				<path fill="#4F72D3" d="M22.961136,46.377712v9.222687h4.1651V45.121822c-0.262695,0.07428-0.5401,0.162201-0.837006,0.25      C25.283432,45.6824,24.12233,46.027126,22.961136,46.377712z M26.630142,54.953915h-3.237305v-0.928711h3.237305V54.953915z"></path>
				<path fill="#2953C9" d="M43.316635,45.156002v10.444397h4.165009v-9.181702      c-1.201111-0.365173-2.410095-0.729492-3.449219-1.046875C43.782425,45.297604,43.546127,45.223415,43.316635,45.156002z       M47.043228,54.953915h-3.236389v-0.928711h3.236389V54.953915z"></path>
				<rect x="23.392838" y="57.248806" fill="#273B81" width="3.237305" height="0.928711"></rect>
				<rect x="23.392838" y="54.025204" fill="#273B81" width="3.237305" height="0.928711"></rect>
				<rect x="43.806839" y="57.248806" fill="#0E2472" width="3.236389" height="0.928711"></rect>
				<rect x="43.806839" y="54.025204" fill="#0E2472" width="3.236389" height="0.928711"></rect>
				<g>
					<path fill="#6472A5" d="M27.768753,55.108212c-0.168915-1.019592-0.830017-1.848694-1.636719-2.365295l0.428711,2.586884       l-1.929718,1.69931l1.768616,10.68552h1.52829l-1.526398-9.22263C27.420151,57.733212,27.990433,56.447018,27.768753,55.108212       z"></path>
					<path fill="#808CB5" d="M24.545151,57.104305l-2.478516-1.030304l-0.42868-2.586884       c-0.59671,0.748993-0.956116,1.747009-0.787109,2.765594c0.221588,1.339813,1.17569,2.372101,2.384705,2.762695       l1.439484,8.699223h1.724609l-1.768616-10.68552L24.545151,57.104305z"></path>
				</g>
				<rect x="22.961136" y="62.825008" fill="#2953C9" width="9.545898" height="6.164001"></rect>
				<path fill="#88B3FF" d="M35.007034,13.993908c-3.817383,0.211899-5.377899,1.6035-5.717804,1.951202      c-0.045898,0.0625-0.073181,0.088898-0.073181,0.088898l0.011688,0.017502c0.010803-0.014603,0.029297-0.042892,0.061493-0.1035      c0.012726,0.072296,0.014709,0.120102,0.014709,0.120102s0.044891,0.101608,0.120087,0.2715l0.117218,0.173798      c-0.011719,0.005905-0.021515,0.013702-0.033203,0.020599c0.535187,1.235306,1.978485,4.66301,2.996094,7.993103      c-1.136688-2.224594-2.411102-4.911102-3.813507-7.064392c0.271515-0.269608,0.564514-0.516602,0.858398-0.753006      l-0.078064-0.151306c-0.272522,0.164001-0.544922,0.332001-0.797913,0.517502      c-2.722626,1.926804-4.348602,5.013702-4.183624,8.356506c-0.001892,0.024399,0.002014,0.047791,0.002014,0.071304      c0.452087,0.063492,0.90329,0.118088,1.354523,0.173798c0.087891,0.010696,0.174774,0.0215,0.262665,0.032196      c0.292023,0.035202,0.584015,0.077194,0.876007,0.108398c0.537109,0.058594,1.075195,0.1026,1.612305,0.149399      c0.355408,0.031296,0.7099,0.069397,1.065399,0.095703c0.598602,0.042999,1.196289,0.070404,1.793915,0.099701      c0.293976,0.014603,0.586975,0.037094,0.879883,0.047791c0.890594,0.032211,1.781311,0.049805,2.671906,0.049805      l7.677704-0.442398l-7.677704-0.498001L35.007034,13.993908z"></path>
			</g>
		
	
	<path fill="#173042" d="M44.927231,63.741055c0-1.131348-0.00174-1.213013-0.03302-1.299896   c-0.050415-0.149445-0.168579-0.257202-0.46228-0.425781l-0.21991-0.125l-0.73761-0.424133   c-0.422302-0.241547-0.801147-0.455322-0.844574-0.474426c-0.118164-0.052124-0.304138-0.048645-0.425781,0.006958   c-0.050385,0.024323-0.530029,0.29541-1.065277,0.603027c-0.832428,0.477905-0.985321,0.571747-1.061798,0.653412   c-0.161621,0.168579-0.154663,0.09906-0.154663,1.48584c0,1.131321,0.00174,1.212986,0.03302,1.29987   c0.053864,0.158142,0.1651,0.253723,0.540466,0.470947c0.13562,0.078827,0.28009,0.161865,0.347626,0.199402   c0.042023,0.03241,0.271088,0.154419,0.62207,0.35498c0.783752,0.450104,0.761169,0.437927,0.861938,0.455292   c0.111237,0.017395,0.220703,0.003479,0.323242-0.043427c0.048676-0.020874,0.524811-0.290222,1.060089-0.597839   c0.832397-0.477875,0.985321-0.571716,1.061798-0.653412C44.934158,65.058319,44.927231,65.127808,44.927231,63.741055z"></path>
	<g>
		<path fill="#88B3FF" d="M43.858902,64.540649c-0.015106-0.014313-0.023163-0.020844-0.028015-0.021332    c-0.068604-0.072632-0.208923-0.215576-0.371674-0.378357c-0.123505-0.122955-0.207245-0.206181-0.268463-0.265507    l-0.023499-0.033417c-0.019104-0.027802-0.053864-0.06601-0.078186-0.088623l-0.043457-0.039948l0.09906-0.09906l0.097321-0.09906    l-0.009521-0.000977c0.013275-0.013031,0.029785-0.029419,0.044983-0.044434    c0.000366,0.000214,0.000641,0.001953,0.001007,0.001953c0.017395,0,0.615204-0.59433,0.615204-0.611694    c0-0.006958-0.020844-0.013916-0.046936-0.013916c-0.001953,0-0.005463,0.00177-0.008087,0.002533    c-0.083679-0.009277-0.287445,0.001526-0.334259,0.023529c-0.029541,0.013916-0.147705,0.119904-0.26239,0.234619    l-0.208557,0.208527h0.008514c-0.119537,0.115143-0.187134,0.181335-0.216736,0.216309    c-0.01712,0.015778-0.039703,0.03772-0.069824,0.066956l-0.121643,0.116425l0.121643,0.116455    c0.03009,0.029205,0.052643,0.051086,0.069763,0.066895c0.029572,0.034943,0.097198,0.101166,0.216797,0.216373h-0.008514    l0.208557,0.208527c0.060699,0.061646,0.121704,0.118927,0.170868,0.162415    c-0.000763,0.004822,0.006622,0.013458,0.022034,0.030487c0.017365,0.020844,0.048645,0.043457,0.067749,0.052155    c0.04126,0.015747,0.070496,0.017151,0.085022,0.006409c0.086365,0.009857,0.206757,0.012848,0.259979,0.005249    c0.003967,0.001099,0.006104,0.003967,0.011261,0.003967c0.019135,0,0.03476-0.003479,0.03476-0.005219    C43.893661,64.575409,43.878036,64.558044,43.858902,64.540649z"></path>
		<path fill="#88B3FF" d="M43.250656,64.719666l-0.050385-0.057343l-0.000092,0.002472    c-0.025452-0.02774-0.055725-0.058655-0.09549-0.098083l-0.13208-0.128571v0.006531l-0.03302-0.034363    c-0.13623-0.140778-0.200439-0.206879-0.231506-0.230286c-0.085541-0.091003-0.164062-0.171173-0.210724-0.215733    c-0.001801-0.006165-0.009155-0.01474-0.025238-0.030121c-0.031281-0.026093-0.03476-0.026093-0.064301,0.006927    c-0.007782,0.008636-0.01355,0.015106-0.016998,0.019989c-0.001801,0.00177-0.003815,0.002472-0.005585,0.004364    l-0.046936,0.04517h0.004486l-0.103516,0.1008l-0.196381,0.194641h0.006042    c-0.075836,0.072998-0.11676,0.114136-0.134186,0.137054l-0.050873,0.048889    c-0.078186,0.076355-0.147675,0.147003-0.196014,0.198669l-0.000336-0.010986l-0.041718,0.048645    c-0.024323,0.026062-0.043457,0.064301-0.043457,0.083435c0,0.002167,0.001556,0.003082,0.001831,0.005066    c-0.013123,0.028503-0.019196,0.085114-0.019196,0.189575c0,0.038361,0.000885,0.066345,0.002899,0.087189    c-0.001831,0.006104-0.002899,0.01181-0.002899,0.017059c0,0.026093,0.005219,0.046936,0.013916,0.046936    c0.006927,0,0.125092-0.112976,0.26413-0.251984c0.11795-0.11795,0.179199-0.179443,0.206329-0.21283    c0.021454-0.017151,0.047516-0.042084,0.071716-0.067841v0.002594l0.161621-0.159882l0.156372-0.156342    c0.001587-0.000275,0.003723-0.001801,0.005249-0.001862l0.102539,0.097382l0.005402,0.005066l-0.005402,0.000153    l0.095581,0.088623l0.095581,0.090393l0.000671-0.006287l0.056671,0.056671l0.107727,0.107758v0.003479l0.137299,0.13205    c0.036865,0.036011,0.071442,0.068878,0.098022,0.093109c0.013275,0.017334,0.034302,0.040955,0.06012,0.066772l0.095581,0.097321    l0.005219-0.16684c0.001587-0.061523,0.001282-0.10495-0.004486-0.142273c0.004547-0.005585,0.007965-0.012665,0.007965-0.022797    C43.302811,64.790894,43.280228,64.750946,43.250656,64.719666z"></path>
		<path fill="#88B3FF" d="M41.575424,62.616879c0.004242,0.015289,0.009979,0.025574,0.016174,0.031891    c0.006348,0.015747,0.015656,0.032806,0.030731,0.051544c0.002869,0.003815,0.004242,0.005371,0.006683,0.008606    l-0.003204,0.000061l0.01297,0.012451c0.008453,0.01062,0.014618,0.01709,0.018036,0.017303l0.220978,0.211823l0.031403,0.03009    c0.01944,0.026398,0.072327,0.078796,0.17627,0.178436h-0.007812l0.178986,0.177277l0.085907,0.083405h-0.000763    l0.039978,0.043457c0.005798,0.006226,0.011597,0.010529,0.017548,0.015839    c0.002838,0.003357,0.004547,0.005798,0.008514,0.010223c0.017395,0.019104,0.03302,0.03476,0.03476,0.03476    s0.017395-0.015656,0.03476-0.03476c0.013-0.014465,0.018433-0.022003,0.017914-0.026947    c0.049622-0.046204,0.127411-0.12384,0.211334-0.210999c0.030334-0.022125,0.094177-0.087799,0.233002-0.231293l0.03302-0.034332    v0.008301l0.140778-0.139038c0.037506-0.037506,0.074402-0.076538,0.104095-0.109802l0.000153,0.005524l0.041718-0.048645    c0.038391-0.043518,0.050842-0.085693,0.036285-0.105103c0.004608-0.036865,0.007172-0.084564,0.007172-0.145142V62.28323    l-0.095581,0.093842c-0.029572,0.028625-0.052368,0.054321-0.066132,0.073029    c-0.026917,0.024445-0.062531,0.058258-0.100708,0.095551l-0.137299,0.13205v0.00351l-0.010345,0.010345    c-0.021606,0.012512-0.064362,0.053223-0.154724,0.140808l-0.173798,0.168579l0.005951,0.000183l-0.014648,0.013733    l-0.111206,0.106079c-0.001556-0.000092-0.003693-0.001587-0.00528-0.001862l-0.138947-0.138977l-0.144257-0.142517v0.008972    c-0.025299-0.025421-0.05484-0.055084-0.086914-0.087158h0.006989l-0.06778-0.071259l-0.069519-0.069519l-0.001099,0.009491    c-0.108612-0.108276-0.165253-0.162842-0.194611-0.183929l-0.030212-0.030609l-0.111938-0.113434    c-0.000427-0.000397-0.00061-0.000885-0.001007-0.001251c-0.00061-0.000549-0.001007-0.000885-0.001617-0.001404    l-0.015778-0.015991v0.003571c-0.01709-0.009857-0.017365,0.014648-0.017365,0.12851    c0,0.048798,0.002014,0.097198,0.00473,0.133972C41.56398,62.559566,41.565781,62.580257,41.575424,62.616879z"></path>
		<path fill="#88B3FF" d="M41.624069,64.337341c0.002594-0.002625,0.004303-0.004395,0.006836-0.006958    c0.047882-0.042877,0.129517-0.124176,0.276428-0.271088l0.344086-0.34412l-0.234589-0.234589    c-0.117523-0.118408-0.176025-0.176819-0.205963-0.198944c-0.037262-0.043182-0.123901-0.13208-0.216339-0.221619    c-0.046173-0.04538-0.0849-0.081604-0.118195-0.110931l0.010437-0.000275l-0.048645-0.041718    c-0.024414-0.021698-0.040649-0.032104-0.053284-0.036652c-0.00351-0.002319-0.004822-0.004425-0.009277-0.006775    c-0.027588-0.014252-0.049927-0.019104-0.065369-0.015594c-0.010223-0.001099-0.018341-0.000885-0.024261,0.001038    c-0.016357-0.001678-0.03418-0.002838-0.054596-0.002838c-0.01944,0-0.032013,0.001465-0.041992,0.003906    c-0.049042-0.004913-0.114166-0.004486-0.151428,0.000427c-0.004974-0.001495-0.008301-0.004333-0.015137-0.004333    c-0.03476,0-0.036499,0.00174-0.005219,0.03476c0.016846,0.018524,0.033142,0.033142,0.037354,0.034119    c0.032776,0.034943,0.079346,0.081909,0.132965,0.132721c0.033478,0.03244,0.059021,0.057037,0.081085,0.077972    l-0.008087,0.000214l0.173767,0.168579c0.03183,0.030853,0.056244,0.054321,0.077515,0.074493l-0.007996,0.000244    l0.177246,0.172028l0.071625,0.069519h-0.003845l0.050415,0.052124l0.050385,0.052124l-0.043457,0.045197l-0.041687,0.043457    l0.001801-0.000153l-0.085236,0.083557l-0.177246,0.17551h0.006104c-0.01886,0.017944-0.040039,0.0383-0.066925,0.064331    l-0.1651,0.159851l0.008331,0.000244c-0.023956,0.022705-0.05246,0.050171-0.089996,0.086639    c-0.057495,0.054596-0.106842,0.104462-0.141174,0.141052c-0.003784,0.000427-0.020691,0.015656-0.037842,0.034485    c-0.031281,0.03302-0.029541,0.03476,0.005219,0.03476c0.006042,0,0.008789-0.002655,0.013367-0.003815    c0.030334,0.004333,0.080078,0.004608,0.121521-0.000092c0.012573,0.002563,0.029175,0.003906,0.056274,0.003906    c0.027466,0,0.051117-0.001129,0.071533-0.003204c0.012421,0.004364,0.033203,0.001801,0.067505-0.007233    c0.006561-0.001801,0.00885-0.004669,0.013702-0.006958h0.008881l0.005768-0.005371    c0.012756-0.003296,0.030182-0.014404,0.056793-0.038055l0.048645-0.041718l-0.012054-0.000336    C41.514969,64.445099,41.563858,64.39801,41.624069,64.337341z"></path>
	</g>


				
				
				
				
			
			
			
			
			
			
		
	
	
	
	
	


				
				
			
			
			
		
		
		
	
	
	


				
				
			
			
			
			
		
	
	
	
	
	
	
	

</svg>