<svg alt="Powered by React" class="featureSvg_3LcT" viewBox="0 0 80 80" xmlns="http://www.w3.org/2000/svg">
				<path fill="#506099" d="M35.435047,8.078294c-0.660095,0.274399-1.280182,0.615707-1.857391,1.013702L31.11577,7.556794      l-2.623016,2.9561l1.835907,2.282196c-0.319305,0.620605-0.575195,1.273911-0.762695,1.95311l-2.893616,0.410187      l-0.107391,3.950608l2.902405,0.573303c0.156189,0.684601,0.378876,1.338394,0.662079,1.957489l-1.973694,2.196808      l2.455109,3.095703l2.619204-1.439011c0.541992,0.40921,1.125,0.766602,1.740204,1.060104l-0.101624,2.977997l3.873138,0.793503      l0.551666-1.426804v-3.311996c-3.975494-0.011703-7.454103-2.916504-8.053682-6.967804      c-0.663116-4.466798,2.4209-8.622987,6.888704-9.2856c0.391602-0.05809,0.780304-0.077698,1.164978-0.079102V4.606599      l-3.797791,0.562988L35.435047,8.078294z"></path>
				<path fill="#2C3F84" d="M50.773945,11.544099l-2.906189,0.449692c-0.377991-0.591293-0.813507-1.139603-1.298889-1.638199      l1.092773-2.710403l-3.36618-2.068893l-1.919891,2.193893c-0.667023-0.210999-1.360413-0.354492-2.07132-0.42189      L39.40575,4.589494l-0.111298,0.017105v4.645996c4.001007-0.019501,7.514709,2.895004,8.119202,6.967301      c0.662109,4.4673-2.421875,8.624496-6.889709,9.286102c-0.414093,0.0625-0.823181,0.0811-1.229492,0.079102v3.312988      l0.532196-1.372986c0.325195-0.016205,0.653412-0.047409,0.982513-0.09671c0.347595-0.050293,0.6875-0.120102,1.020508-0.205093      l1.844696,2.356003l3.474579-1.881409l-0.966797-2.837402c0.5-0.460892,0.950195-0.971191,1.347717-1.5224l2.917908,0.617599      l1.453186-3.673798l-2.544006-1.540497c0.087891-0.672897,0.109406-1.360901,0.058594-2.057205l2.607422-1.390595      L50.773945,11.544099z"></path>
				<path fill="#22367E" d="M31.238848,18.618288c0.600494,4.0513,4.080019,6.955109,8.055605,6.966812v-1.675308      c-3.158203-0.0112-5.918884-2.31929-6.395508-5.537598c-0.527283-3.549806,1.924805-6.854493,5.474609-7.381303      c0.309601-0.044891,0.615295-0.061096,0.920898-0.063004V9.252595c-0.385681,0.000992-0.774384,0.022003-1.166992,0.080093      C33.660664,9.993287,30.576647,14.15149,31.238848,18.618288z"></path>
				<path fill="#031A6B" d="M39.294453,9.253587v1.674301c3.183594-0.0186,5.979492,2.298309,6.459991,5.539506      c0.527313,3.548904-1.925781,6.854004-5.474579,7.379395c-0.332092,0.050308-0.661224,0.064011-0.985413,0.063004v1.6763      c0.406311,0.001007,0.815399-0.017593,1.229492-0.079102c4.466827-0.662598,7.550812-4.819794,6.889709-9.286102      C46.809162,12.146195,43.29546,9.233094,39.294453,9.253587z"></path>
			
			<path fill="#506099" d="M28.694841,41.3918l-0.235291-2.608902l-1.963898-0.1548     c-0.147491-0.422897-0.339905-0.835907-0.578094-1.234406l1.129791-1.600098l-1.856384-1.847595l-1.586914,1.13179     c-0.399384-0.238297-0.820282-0.43309-1.256805-0.583496l-0.160187-1.930695l-2.610413-0.22261l-0.482391,1.872101     c-0.458008,0.073212-0.911102,0.194809-1.352478,0.3647l-1.353516-1.364304l-0.061615,0.043503l-2.080993,1.463409     l0.830109,1.740692c-0.307617,0.359406-0.575195,0.746597-0.797913,1.153305l-1.915009-0.174805l-0.670898,2.530807     l1.766602,0.804703c-0.004883,0.462891,0.038116,0.926193,0.130798,1.384689l-1.592682,1.104004l1.11319,2.370605     l1.889709-0.523407c0.295898,0.357407,0.622986,0.679199,0.974609,0.959503l-0.514618,1.890091l2.375915,1.101608     l1.122101-1.631409c0.442383,0.080109,0.894501,0.117706,1.34668,0.108902l0.827118,1.792999l2.528412-0.683594     l-0.097717-1.009308l-0.093811-0.970688c0.1875-0.10791,0.374115-0.224609,0.553802-0.350098     c0.190399-0.134811,0.371094-0.276413,0.542908-0.425308l1.792999,0.845703l1.497101-2.148895l-1.416016-1.3936     c0.159119-0.420914,0.2724-0.858414,0.344727-1.301208L28.694841,41.3918z M22.564959,44.249695     c-0.175812,0.123505-0.360291,0.225998-0.546814,0.319794c-1.815491,0.9048-4.067383,0.376907-5.271484-1.332489     c-1.325194-1.8853-0.874114-4.489807,1.012695-5.818909c0.165009-0.115692,0.336884-0.212402,0.510712-0.301193     c1.822296-0.929703,4.09671-0.408707,5.30658,1.314392C24.904863,40.316589,24.451647,42.921097,22.564959,44.249695z"></path>
			<path fill="#506099" d="M67.789536,20.702791l-0.198181-2.2061l-1.662109-0.131302     c-0.123993-0.357895-0.287109-0.707489-0.488281-1.044388l0.955078-1.354005l-1.570282-1.562103l-1.341793,0.957596     c-0.338898-0.201691-0.694427-0.366196-1.063507-0.493195l-0.134796-1.633804l-2.208008-0.187988l-0.408203,1.583496     c-0.387695,0.061996-0.770508,0.1651-1.144501,0.308594l-1.144501-1.153793l-0.051788,0.036591L55.568867,15.0607     l0.702179,1.472199c-0.260803,0.303696-0.487274,0.63179-0.674805,0.974594l-1.620087-0.147995l-0.56839,2.141602     l1.49408,0.680191c-0.003876,0.391098,0.033203,0.783203,0.11142,1.170898l-1.347717,0.934113l0.941406,2.005386     l1.598694-0.442886c0.25,0.302689,0.527313,0.574692,0.825104,0.811996l-0.435486,1.598099l2.008789,0.93219l0.949188-1.380386     c0.375,0.067886,0.756805,0.100601,1.138702,0.092789l0.701202,1.516098l2.137604-0.578094L63.44875,25.98749l-0.080109-0.820801     c0.15921-0.091797,0.316406-0.189499,0.468811-0.296387c0.161102-0.114304,0.313503-0.233414,0.459011-0.359406     l1.516602,0.714798l1.266571-1.817307l-1.198273-1.178299c0.134796-0.3564,0.230499-0.726501,0.291992-1.101501     L67.789536,20.702791z M62.605061,23.12079c-0.148499,0.104507-0.304718,0.190399-0.462921,0.269501     c-1.535187,0.76561-3.439484,0.319809-4.458984-1.126999c-1.120087-1.594696-0.738312-3.797302,0.857391-4.921799     c0.138702-0.096695,0.28421-0.179199,0.431702-0.254395c1.541901-0.786606,3.464813-0.345703,4.48822,1.111801     C64.584549,19.793596,64.20076,21.996294,62.605061,23.12079z"></path>
			<path fill="#2C3F84" d="M65.475143,48.980087l-0.199188-2.205994l-1.66119-0.131393     c-0.125-0.35791-0.287109-0.707504-0.489197-1.044403l0.95599-1.354004l-1.570309-1.561996l-1.342804,0.957489     c-0.337799-0.201691-0.693298-0.366699-1.0625-0.493195l-0.135681-1.633698l-2.207001-0.188004l-0.40921,1.583496     c-0.386688,0.062012-0.769501,0.165009-1.143585,0.308609l-1.144501-1.1539l-0.051819,0.036697l-1.760681,1.238297     l0.702179,1.472107c-0.260803,0.303696-0.486389,0.631897-0.674896,0.974594l-1.620087-0.147903l-0.567413,2.141602     l1.494202,0.680206c-0.003906,0.391098,0.033203,0.783203,0.110321,1.171295l-1.346619,0.933609L52.292561,52.569     l1.598602-0.442902c0.25,0.302795,0.527283,0.574692,0.824188,0.811996l-0.435486,1.598206l2.009674,0.932098l0.94931-1.38031     c0.375,0.06781,0.756805,0.10051,1.138611,0.092697l0.700195,1.516113l2.138702-0.57811l-0.082001-0.854004L61.054249,53.444     c0.15921-0.091812,0.315399-0.189407,0.468719-0.296402c0.160187-0.114212,0.313477-0.233398,0.458984-0.359406     l1.516602,0.714905l1.266598-1.817902l-1.198208-1.177704c0.13382-0.356506,0.230408-0.726593,0.292023-1.101593     L65.475143,48.980087z M60.290546,51.398087c-0.148407,0.104507-0.305695,0.190399-0.462891,0.269501     c-1.535095,0.765213-3.439392,0.319901-4.459015-1.126892c-1.121094-1.594696-0.73819-3.797409,0.856506-4.921906     c0.139618-0.096695,0.285095-0.179199,0.432617-0.254395c1.540985-0.786606,3.463898-0.345703,4.488281,1.111801     C62.269062,48.070999,61.88625,50.27359,60.290546,51.398087z"></path>
			<g>
				<path fill="#36488A" d="M51.452656,27.499193c-1.78421,2.0952-2.137695,4.924299-1.160095,7.306105L29.573748,59.135391      c-2.507782-0.584-5.24408,0.212906-7.029297,2.308105c-2.544891,2.987793-2.185486,7.473694,0.803711,10.019104      c0.009796,0.007797,0.018616,0.013596,0.028381,0.020996l2.342712-2.751999L24.157763,67.403l0.729492-3.964401      l3.798798-1.352509l1.560608,1.329102l24.848604-29.178696l-0.039124-0.007309l-1.84079-5.171888l3.444427-4.045898      C54.720264,25.067095,52.809162,25.904497,51.452656,27.499193z"></path>
				<path fill="#1F337D" d="M60.453663,35.22229l-5.358398-0.985794L30.24666,63.415192l1.506805,1.285202l-0.729523,3.964798      L29.124559,69.3405l-1.305695,1.534195l1.305695-1.534195l-1.897491,0.675797l-1.507812-1.284698l-2.342712,2.751999      c2.987305,2.519501,7.454102,2.153793,9.990236-0.82431c1.783173-2.094696,2.133789-4.924286,1.15918-7.306091      l20.718689-24.330597c2.506897,0.584,5.245117-0.21431,7.027405-2.308105      c1.359314-1.594696,1.880795-3.614197,1.627899-5.538099L60.453663,35.22229z"></path>
			</g>
			<g>
				<path fill="#36488A" d="M30.500566,31.233095l-5.484406-3.6577c-0.137695-0.112793-0.44632-0.024902-0.692413,0.183502      l-0.226501,0.191895l16.552706,19.517607c0.368195-0.304703,0.682617-0.603012,0.934601-0.898911l-9.427795-11.115692      L30.500566,31.233095z"></path>
				<path fill="#506099" d="M23.869646,28.142702c-0.246094,0.210999-0.381805,0.498596-0.293884,0.654297l2.712891,6.009794      l3.895508,2.320801L39.605946,48.237c0.392609-0.2603,0.737305-0.515213,1.044006-0.7686L24.096239,27.951296      L23.869646,28.142702z"></path>
				<path fill="#4589FF" d="M53.248554,55.369293c-0.2724-0.311493-0.543915-0.622604-0.814392-0.929199      c-3.774384-1.612305-6.285217-4.572296-7.637695-8.724106c-0.272522-0.161194-0.56842-0.244202-0.867218-0.269089      c-0.599579-0.048813-1.216797,0.128494-1.709991,0.54689c0,0-0.203094,0.176804-0.510712,0.436996      c-0.037079,0.045914-0.083984,0.090408-0.123993,0.138702c-0.251984,0.295898-0.566406,0.594208-0.934601,0.898911      l20.004913,23.584488l1.639587-1.390594c0.983398-0.835495,1.107391-2.323303,0.271515-3.307602L53.248554,55.369293z"></path>
				<path fill="#88B3FF" d="M39.605946,48.237c-0.052704,0.034592-0.097595,0.069794-0.152283,0.103989      c-0.308594,0.2612-0.514618,0.432602-0.514618,0.432602c-0.492188,0.419403-0.768585,0.999496-0.817383,1.600601      c-0.025421,0.299301,0.033203,0.610306,0.127899,0.900406c3.828094,2.045898,6.338898,5.006302,7.354492,8.959      c0.259796,0.317291,0.521515,0.634201,0.785095,0.953094l9.317413,10.983902      c0.834991,0.985794,2.323303,1.107895,3.307587,0.273407l1.640717-1.388702L40.649952,47.468399      C40.34325,47.720886,39.998554,47.9767,39.605946,48.237z"></path>
			</g>
		
	
	<path fill="#506099" d="M36.432545,21.138094c-0.012238-0.004898,0.046478-0.08728,0.3573-0.501709l0.371185-0.495193h0.423401   c0.420135,0,0.423401,0,0.500092-0.019577c0.087311-0.022034,0.128082-0.040802,0.198242-0.090561   c0.123199-0.087296,0.217834-0.220261,0.311646-0.436447l0.040771-0.093826l-0.304291-2.206741l-0.30835-2.228776   l-0.004089-0.022842h0.635498l0.636322,0.006531c0,0.015503,0.228424,2.95157,0.230896,2.962998   c0.000793,0.006516,0.024475-0.030197,0.052185-0.081589l1.45459-2.740281c0-0.002441-0.111755-0.061996-0.24881-0.131332   c-0.137054-0.069351-0.24884-0.128906-0.24884-0.132172c0-0.007339,1.983215-1.582657,1.987305-1.578568   c0.001617,0.001633,0.002441,0.589005,0.001617,1.304459l-0.002441,1.302017l-0.265137-0.137054   c-0.146027-0.075867-0.267578-0.135422-0.27002-0.132156c-0.006531,0.006531-1.989746,3.531617-2.10968,3.750245   c-0.414429,0.752167-0.642029,1.102966-0.861481,1.33139c-0.106873,0.110947-0.198242,0.179474-0.319794,0.239029   c-0.142761,0.070969-0.288788,0.107681-0.517212,0.130524C38.077991,21.145433,36.456196,21.147066,36.432545,21.138094z"></path>
	<path fill="#506099" d="M58.370777,46.511627c0.019745-0.451004,0.026459-0.511795,0.060181-0.532547   c0.046356-0.029068,0.04007-0.031219,1.09137,0.588425l0.83606,0.492325l-0.000458,0.069229   c-0.000458,0.069244-0.006805,0.073395-0.432251,0.316071c-0.248535,0.141037-0.454834,0.246689-0.484222,0.24649   c-0.067139-0.002533-1.001404-0.552155-1.053406-0.62175C58.352711,47.021378,58.350819,46.991989,58.370777,46.511627z    M56.250355,47.005386c0.122284-0.08313,1.832367-1.041199,1.85965-1.041031   c0.014679,0.000107,0.046082,0.014984,0.066895,0.036118c0.033386,0.031693,0.037292,0.075775,0.03418,0.543671   c-0.002686,0.407043-0.009705,0.514008-0.032928,0.539032c-0.016907,0.014572-0.143311,0.09346-0.284424,0.172272   c-0.081665,0.04631-0.151947,0.089478-0.198853,0.120773l-0.008453-0.002869l-0.107025,0.060852   c-0.056641,0.033569-0.18042,0.102814-0.272766,0.155273c-0.092316,0.05246-0.182526,0.096512-0.19931,0.096512   s-0.186737-0.08812-0.377686-0.197235c-0.150177-0.086365-0.235748-0.134125-0.293335-0.160233   c0.000153-0.00032,0.000702-0.000565,0.000793-0.00087c0.002167-0.012573-0.049988-0.056992-0.118958-0.099411   C56.171864,47.137039,56.1534,47.073975,56.250355,47.005386z M56.041431,49.595352   c-0.002167-0.000763-0.003174-0.0009-0.005219-0.001602c-0.002686-0.004181-0.004913-0.008179-0.00946-0.013077   c-0.027283-0.025177-0.031494-0.12381-0.031494-0.595901c0-0.250443-0.002899-0.415894-0.009094-0.499634l0.008942-0.004288   l0.003662-0.551819c0.002197-0.330704,0.00296-0.462204-0.006287-0.515381c0.010712-0.011398,0.018951-0.023514,0.024628-0.038422   c0.019226-0.048141,0.036072-0.060608,0.084351-0.060303c0.033569,0.000214,0.07962,0.015228,0.104706,0.032181   c0.003357,0.002472,0.008606,0.00415,0.013184,0.006104c0.034027,0.033157,0.179626,0.126465,0.357117,0.227875   c0.205627,0.119598,0.390259,0.230804,0.411255,0.247589c0.029358,0.027283,0.035675,0.069244,0.035675,0.258087v0.16156   l-0.004211,0.425919l-0.006287,0.42804l-0.140594,0.083923c-0.053711,0.031113-0.097992,0.061249-0.122345,0.080795   c-0.059784,0.025131-0.143585,0.072388-0.301483,0.162598C56.119068,49.620529,56.112782,49.622635,56.041431,49.595352z    M58.18578,50.432526c-0.014679,0.499374-0.014679,0.509872-0.060852,0.530853   c-0.035645,0.014694-0.062927,0.012589-0.111206-0.012589c-0.011292-0.005981-0.020813-0.010315-0.030884-0.015121   l-0.818878-0.473755c-0.463684-0.26857-0.874939-0.507782-0.91272-0.530853c-0.058746-0.035675-0.069214-0.05455-0.062927-0.106995   c0.006287-0.060852,0.035645-0.081833,0.43222-0.308441c0.174683-0.100723,0.325775-0.192001,0.390381-0.234879   c0.024017-0.003204,0.046722-0.006683,0.064911-0.010605c0.045258-0.010452,0.106689,0.014297,0.369629,0.163712   c0.002319,0.002136,0.003326,0.004135,0.005951,0.006241c0.029114,0.020615,0.041962,0.027863,0.04834,0.024658   c0.040161,0.022995,0.083221,0.04776,0.132111,0.07605c0.27066,0.157364,0.509857,0.306335,0.530853,0.333603   C58.198353,49.920563,58.200459,49.958344,58.18578,50.432526z M60.346149,49.858795   c-0.004486,0.044052-0.04245,0.075256-0.185699,0.160339l-0.130524,0.075623l-0.000061-0.000946l-0.516022,0.292435   c-0.20871,0.117249-0.389343,0.223969-0.472809,0.277679c-0.048615,0.024384-0.151855,0.080963-0.269867,0.148376   c-0.16156,0.092316-0.306335,0.167862-0.321014,0.167862c-0.016785,0-0.046143-0.014694-0.067139-0.03566   c-0.033569-0.031479-0.03775-0.075546-0.03775-0.543442c0-0.407043,0.006287-0.514069,0.029358-0.539246   c0.016785-0.014679,0.14267-0.094406,0.283264-0.174149c0.119965-0.06839,0.192322-0.112473,0.226837-0.139481   c0.057159-0.027954,0.145813-0.075333,0.245239-0.13118c0.153168-0.086029,0.291656-0.157364,0.308441-0.157364   s0.125885,0.056656,0.245483,0.123795c0.04422,0.026047,0.08316,0.047562,0.117401,0.065872   c0.025085,0.02475,0.120026,0.08696,0.225555,0.149292C60.33202,49.77478,60.354969,49.793823,60.346149,49.858795z    M60.548298,48.479492c-0.004608,0.698685-0.015564,1.084702-0.02832,1.111877   c-0.038239,0.069-0.119873,0.043274-0.431305-0.141327c-0.118439-0.069763-0.219543-0.128418-0.272858-0.158447   c-0.022095-0.025833-0.052551-0.046661-0.10675-0.076019c-0.193024-0.1091-0.188843-0.100708-0.188843-0.358795   c0-0.071426-0.001465-0.119598-0.004242-0.155396l0.002716,0.000015l0.002777-0.419647l0.002777-0.419632l0.080078-0.049805   c0.193848-0.122528,0.823517-0.468765,0.852875-0.468582c0.01889,0.000137,0.048157,0.01503,0.064819,0.034012   C60.551228,47.407318,60.554554,47.535339,60.548298,48.479492z"></path>
	<g>
		<path fill="#506099" d="M23.012133,42.454758c-0.030212-0.028625-0.046326-0.041687-0.055969-0.042648    c-0.137177-0.145172-0.417633-0.430954-0.743011-0.756363c-0.246857-0.245804-0.414276-0.41214-0.536652-0.530731    l-0.046967-0.066772c-0.038208-0.055573-0.107697-0.132004-0.156342-0.17717l-0.086853-0.079895l0.198029-0.198013    l0.19455-0.198013l-0.019012-0.001953c0.02652-0.026062,0.05954-0.058792,0.089905-0.088821    c0.000763,0.000412,0.001312,0.003922,0.002045,0.003922c0.034729,0,1.229767-1.188049,1.229767-1.222794    c0-0.013901-0.041687-0.027802-0.093811-0.027802c-0.003937,0-0.010925,0.003555-0.016205,0.005081    c-0.167236-0.018555-0.574615,0.003006-0.668152,0.047043c-0.059052,0.027771-0.295288,0.239685-0.524536,0.468964    l-0.41687,0.41687h0.016998c-0.238953,0.230148-0.374084,0.362473-0.433258,0.432373    c-0.034241,0.03157-0.079376,0.075378-0.139557,0.133865l-0.243195,0.232758l0.243195,0.232742    c0.06012,0.058411,0.105194,0.102158,0.139404,0.133728c0.059113,0.069885,0.194305,0.202225,0.433411,0.432526h-0.016998    l0.41687,0.416855c0.121368,0.123245,0.243317,0.237732,0.341583,0.324646    c-0.001526,0.009674,0.013214,0.026901,0.044006,0.060959c0.034729,0.041702,0.09726,0.086853,0.135498,0.104233    c0.082397,0.031509,0.1409,0.034317,0.169891,0.012863c0.172668,0.019669,0.41333,0.025696,0.519745,0.010468    c0.007904,0.002228,0.012177,0.007935,0.022491,0.007935c0.038208,0,0.069489-0.006958,0.069489-0.010422    C23.081621,42.524231,23.050341,42.489502,23.012133,42.454758z"></path>
		<path fill="#506099" d="M21.796282,42.812561l-0.100769-0.114624l-0.000153,0.00499    c-0.050934-0.055496-0.111389-0.117294-0.190887-0.196075l-0.264008-0.257065v0.013092l-0.06601-0.068665    c-0.272339-0.281418-0.400726-0.413605-0.462769-0.460373c-0.171021-0.181885-0.328033-0.342194-0.421295-0.431274    c-0.003601-0.012268-0.018311-0.029434-0.050446-0.060196c-0.0625-0.052124-0.069458-0.052124-0.12851,0.013885    c-0.015533,0.017273-0.0271,0.030182-0.033966,0.039932c-0.003632,0.003525-0.00769,0.004944-0.0112,0.008713l-0.093811,0.090317    h0.008942l-0.20694,0.201492l-0.392548,0.389069h0.012115c-0.151611,0.145935-0.233429,0.228149-0.268219,0.274002    l-0.101715,0.097702c-0.156311,0.152618-0.295227,0.293884-0.391846,0.397171l-0.000702-0.021988l-0.083374,0.097275    c-0.048615,0.052094-0.086853,0.128525-0.086853,0.166748c0,0.004333,0.003113,0.006165,0.003632,0.010147    c-0.026245,0.056992-0.038361,0.17012-0.038361,0.378922c0,0.076691,0.001801,0.132645,0.005829,0.174286    c-0.003693,0.012222-0.005829,0.023621-0.005829,0.034149c0,0.052124,0.010406,0.093796,0.027802,0.093796    c0.013885,0,0.250092-0.2258,0.528015-0.503708c0.235779-0.235779,0.358246-0.358719,0.412476-0.425415    c0.042847-0.034286,0.094971-0.084152,0.143372-0.13562v0.005203l0.323059-0.319611l0.312561-0.312531    c0.003174-0.000595,0.007416-0.003601,0.010498-0.003754l0.204987,0.194702l0.010834,0.010117l-0.010834,0.000305l0.19104,0.17717    l0.191071,0.180664l0.001343-0.012573l0.113312,0.113312l0.215363,0.215363v0.006958l0.274445,0.264023    c0.073669,0.07196,0.142822,0.13768,0.195953,0.186127c0.02655,0.034653,0.068573,0.081848,0.120178,0.133469l0.19104,0.19455    l0.010437-0.333511c0.003204-0.123032,0.002594-0.209793-0.008972-0.284424c0.009094-0.0112,0.01593-0.025345,0.01593-0.045609    C21.900499,42.955002,21.855333,42.875107,21.796282,42.812561z"></path>
		<path fill="#506099" d="M18.447435,38.609146c0.008484,0.030548,0.019958,0.051132,0.032349,0.063736    c0.012726,0.031464,0.031281,0.065567,0.061432,0.103027c0.005768,0.007614,0.008453,0.010727,0.013397,0.017181    l-0.006439,0.000168l0.02594,0.024872c0.016907,0.02121,0.029205,0.03418,0.036041,0.034576l0.441742,0.423431l0.062744,0.060165    c0.038879,0.052765,0.144592,0.157516,0.352386,0.35672h-0.015625l0.357788,0.354324l0.171722,0.166748h-0.001495    l0.079895,0.086853c0.011627,0.012497,0.023193,0.021042,0.035065,0.031708    c0.005707,0.006714,0.009125,0.011581,0.017059,0.020386c0.034729,0.038223,0.06601,0.069489,0.069489,0.069489    c0.003448,0,0.034729-0.031265,0.069458-0.069489c0.026001-0.02887,0.036835-0.043976,0.035797-0.053833    c0.099213-0.092346,0.2547-0.247589,0.422485-0.421783c0.060608-0.044266,0.188232-0.175537,0.46579-0.462341l0.06601-0.068665    v0.016571l0.281372-0.277908c0.074951-0.074966,0.148712-0.152985,0.208069-0.219467l0.000366,0.011032l0.083374-0.097275    c0.076721-0.08696,0.101624-0.171249,0.07251-0.210098c0.009216-0.073654,0.014343-0.169006,0.014343-0.290131v-0.336975    l-0.191071,0.187592c-0.059113,0.057205-0.104706,0.108612-0.132172,0.14595c-0.053802,0.048889-0.125,0.11647-0.201324,0.191025    l-0.274445,0.263992v0.006973l-0.020721,0.020691c-0.043182,0.024994-0.128662,0.106415-0.309296,0.281509l-0.347382,0.336975    l0.011871,0.000351l-0.029266,0.027451l-0.222321,0.212067c-0.003082-0.000183-0.007355-0.003159-0.010529-0.003754    l-0.277802-0.277802l-0.28833-0.284866v0.017929c-0.050568-0.050812-0.109619-0.110092-0.173767-0.17424h0.013977    l-0.135498-0.142441l-0.138947-0.138947l-0.002167,0.018951c-0.217133-0.216431-0.330414-0.325531-0.389038-0.367661    l-0.060394-0.061203l-0.223785-0.226746c-0.000824-0.000793-0.00119-0.001755-0.002045-0.002533    c-0.001221-0.001099-0.002014-0.001724-0.003204-0.002777l-0.031525-0.031967v0.007156    c-0.03418-0.01973-0.034729,0.029266-0.034729,0.256866c0,0.097534,0.004059,0.194305,0.00946,0.267792    C18.424547,38.494553,18.428148,38.535919,18.447435,38.609146z"></path>
		<path fill="#506099" d="M18.544695,42.048309c0.005157-0.005234,0.008636-0.008789,0.013672-0.013901    c0.095703-0.085678,0.258911-0.248245,0.552582-0.541916l0.687836-0.687836l-0.468964-0.468979    c-0.234924-0.236664-0.351837-0.353455-0.411682-0.397675c-0.074493-0.086349-0.247711-0.264069-0.432495-0.442993    c-0.092316-0.090744-0.169708-0.163177-0.236298-0.221771l0.020935-0.000565l-0.09729-0.083374    c-0.048828-0.043427-0.081268-0.064224-0.106506-0.073288c-0.007019-0.004623-0.009644-0.008835-0.018555-0.013565    c-0.055145-0.028458-0.099792-0.038162-0.130676-0.031128c-0.020416-0.002243-0.036621-0.001785-0.048492,0.002075    c-0.032715-0.003403-0.068298-0.005692-0.109161-0.005692c-0.038818,0-0.063995,0.00293-0.083893,0.007828    c-0.098053-0.009857-0.228241-0.008972-0.302734,0.000809c-0.009918-0.002991-0.016602-0.008636-0.030243-0.008636    c-0.069458,0-0.072968,0.003464-0.010406,0.069473c0.0336,0.037003,0.066223,0.066269,0.074646,0.068192    c0.065521,0.069855,0.15863,0.163773,0.265778,0.265305c0.066925,0.064896,0.117981,0.114059,0.162079,0.155884    l-0.016174,0.000458l0.347382,0.33696c0.063599,0.061661,0.112396,0.108582,0.154938,0.148926l-0.015961,0.000458    l0.35434,0.343918l0.143127,0.138931h-0.00766l0.100769,0.104233l0.100739,0.104218l-0.086853,0.090317l-0.083374,0.086838    l0.003601-0.000259l-0.170349,0.167007l-0.35434,0.350876h0.012238c-0.03772,0.035858-0.080048,0.076508-0.13382,0.12854    l-0.330048,0.319595l0.016693,0.000488c-0.047913,0.045349-0.104889,0.100281-0.179962,0.173187    c-0.114899,0.109146-0.213531,0.208771-0.282166,0.281967c-0.007568,0.000854-0.041382,0.03125-0.075623,0.068909    c-0.062561,0.06601-0.059052,0.069489,0.010406,0.069489c0.012054,0,0.017578-0.00531,0.026703-0.007629    c0.060669,0.008652,0.160095,0.009232,0.24292-0.000153c0.025177,0.005127,0.05835,0.007782,0.112488,0.007782    c0.054932,0,0.102173-0.002289,0.143036-0.006424c0.024841,0.008743,0.066345,0.003616,0.134918-0.01442    c0.013123-0.003647,0.01767-0.009338,0.027405-0.013916h0.017731l0.011536-0.010742    c0.025513-0.006592,0.060333-0.028778,0.113525-0.07608l0.09729-0.083389l-0.024139-0.000656    C18.326647,42.263748,18.424364,42.169601,18.544695,42.048309z"></path>
	</g>
	<path fill="#506099" d="M61.369282,18.181826v1.003235c0,0.085983-0.069702,0.155685-0.15567,0.155685h-1.210815   c-0.085968,0-0.15567-0.069702-0.15567-0.155685v-1.003235c0-0.066864-0.054199-0.121078-0.121063-0.121078h-0.536224   c-0.066864,0-0.121063,0.054214-0.121063,0.121078v4.11673c0,0.066879,0.054199,0.121078,0.121063,0.121078h0.536224   c0.066864,0,0.121063-0.054199,0.121063-0.121078v-1.989182c0-0.085968,0.069702-0.15567,0.15567-0.15567h1.210815   c0.085968,0,0.15567,0.069702,0.15567,0.15567v1.989182c0,0.066879,0.05423,0.121078,0.121094,0.121078h0.536194   c0.066895,0,0.121094-0.054199,0.121094-0.121078v-4.11673c0-0.066864-0.054199-0.121078-0.121094-0.121078h-0.536194   C61.423512,18.060747,61.369282,18.114962,61.369282,18.181826z"></path>




</svg>