<svg xmlns="http://www.w3.org/2000/svg" viewBox="0 0 80 80" class="featureSvg_3LcT" alt="Powered by React">
				<path fill="#5476D4" d="M57.941769,41.428055c-0.145386-0.116661-0.359489-0.21117-0.476933-0.21117H15.779254      c-0.117423,0-0.330786,0.094509-0.476254,0.21117l-8.210585,6.582134L5.888889,50.15028h61.427929l-1.237564-2.20179      L57.941769,41.428055z"></path>
				<path fill="#1745C5" d="M66.032738,48.151573H7.216495c-0.058365,0-0.143277,0.024723-0.24074,0.065323L5.888889,50.15028      h61.427929l-1.097992-1.954777C66.144951,48.168209,66.079254,48.151573,66.032738,48.151573z"></path>
			
			<g>
				<g>
					<path fill="#506099" d="M48.667992,41.04668H16.948078c-0.379553,0-0.73317,0.04174-0.787081,0.09338l-3.539743,3.379913       c-0.079685,0.076744,0.235595,0.139492,0.700738,0.139492h38.972088c0.465904,0,0.781185-0.062748,0.700748-0.139492       l-3.539742-3.379913C49.401161,41.088421,49.047558,41.04668,48.667992,41.04668z"></path>
					<path fill="#273B81" d="M48.171101,41.196915H17.444983c-0.36693,0-0.706635,0.039169-0.75532,0.087185l-3.113698,3.099243       c-0.069406,0.068653,0.237025,0.125141,0.680017,0.125141H51.3601c0.443752,0,0.749435-0.056488,0.680031-0.125141       L48.926418,41.2841C48.878426,41.236084,48.53878,41.196915,48.171101,41.196915z"></path>
				</g>
				<g>
					<path fill="#506099" d="M50.160194,19.977215H15.455875c-0.414255,0-0.729534,0.338953-0.699977,0.751997l1.4575,20.427107       c0.025105,0.348171,0.355127,0.631699,0.73468,0.631699h31.719913c0.379566,0,0.709587-0.283527,0.734692-0.631699       l1.4575-20.427107C50.88974,20.316168,50.575222,19.977215,50.160194,19.977215z"></path>
					<path fill="#EDEFF5" d="M49.379009,21.181122H16.23774c-0.396487,0-0.699214,0.307123-0.67336,0.68153l1.277396,18.660522       c0.022152,0.319744,0.338873,0.581123,0.703611,0.581123h30.526058c0.36475,0,0.680698-0.261379,0.70285-0.581123       l1.278168-18.660522C50.078236,21.488245,49.774818,21.181122,49.379009,21.181122z"></path>
				</g>
				<g>
					<g>
						
							<rect x="18.560682" y="24.939711" transform="matrix(0.996901 -0.078672 0.078672 0.996901 -2.355693 1.573149)" fill="#808CB5" width="0.453676" height="11.487507"></rect>
					</g>
					<g>
						<rect x="20.187284" y="36.863895" fill="#808CB5" width="5.529508" height="0.454103"></rect>
					</g>
					<g>
						<polygon fill="#808CB5" points="19.239231,24.281126 24.91498,24.281126 24.91498,30.063557 25.369072,30.063557         25.369072,23.827404 19.239231,23.827404       "></polygon>
					</g>
					<g>
						<path fill="#808CB5" d="M24.058483,26.032135h-3.858646c-0.626186,0-1.135643,0.508764-1.135643,1.142588        c0,0.625807,0.509457,1.134882,1.135643,1.134882h3.858646c0.626106,0,1.134882-0.509075,1.134882-1.142588        C25.193365,26.540899,24.684589,26.032135,24.058483,26.032135z M24.058483,27.855883h-3.858646        c-0.375849,0-0.68154-0.305693-0.68154-0.688866c0-0.375467,0.305691-0.68116,0.68154-0.68116h3.858646        c0.375086,0,0.68079,0.305693,0.68079,0.688866C24.739273,27.55019,24.433569,27.855883,24.058483,27.855883z"></path>
					</g>
					<g>
						<path fill="#808CB5" d="M24.80868,29.83651h-3.71327c-0.626106,0-1.1348,0.509146-1.1348,1.179184        c0,0.626106,0.508694,1.13525,1.1348,1.13525h3.71327c0.626106,0,1.134859-0.509144,1.134859-1.179182        C25.943539,30.345655,25.434786,29.83651,24.80868,29.83651z M24.80868,31.696842h-3.71327        c-0.375086,0-0.680698-0.305681-0.680698-0.72508c0-0.375467,0.305613-0.681149,0.680698-0.681149h3.71327        c0.375086,0,0.680767,0.305681,0.680767,0.72508C25.489447,31.391161,25.183765,31.696842,24.80868,31.696842z"></path>
					</g>
					<g>
						<path fill="#808CB5" d="M47.053917,23.974314H36.873455c-0.376541,0-0.68222,0.306063-0.68222,0.682659        c0,0.37653,0.305679,0.682592,0.68222,0.682592h10.180462c0.37661,0,0.682289-0.306063,0.682289-0.682592        C47.736206,24.280376,47.430527,23.974314,47.053917,23.974314z M47.053917,24.885841H36.873455        c-0.126282,0-0.228867-0.102596-0.228867-0.228868c0-0.125877,0.102585-0.228556,0.228867-0.228556h10.180462        c0.125587,0,0.228199,0.102678,0.228199,0.228556C47.282116,24.783245,47.179504,24.885841,47.053917,24.885841z"></path>
					</g>
					<g>
						<path fill="#808CB5" d="M47.053917,26.310532h-8.502884c-0.376587,0-0.683029,0.305679-0.683029,0.682209        c0,0.376598,0.306442,0.682659,0.683029,0.682659h8.502884c0.37661,0,0.682289-0.306061,0.682289-0.682659        C47.736206,26.616211,47.430527,26.310532,47.053917,26.310532z M47.053917,27.221298h-8.502884        c-0.126259,0-0.228939-0.102667-0.228939-0.228558s0.10268-0.228107,0.228939-0.228107h8.502884        c0.125587,0,0.228199,0.102217,0.228199,0.228107S47.179504,27.221298,47.053917,27.221298z"></path>
					</g>
					<g>
						<rect x="41.132294" y="30.278811" fill="#808CB5" width="4.570447" height="0.453722"></rect>
					</g>
					<g>
						<g>
							<g>
								<path fill="#808CB5" d="M18.335489,22.924044c-0.623232,0-1.129736,0.506872-1.129736,1.130035          c0,0.623547,0.506504,1.130419,1.129736,1.130419c0.623846,0,1.130419-0.506872,1.130419-1.130419          C19.465908,23.430916,18.959335,22.924044,18.335489,22.924044z M18.335489,24.730394          c-0.372894,0-0.675632-0.30304-0.675632-0.676315c0-0.372894,0.302738-0.675934,0.675632-0.675934          c0.373577,0,0.676315,0.30304,0.676315,0.675934C19.011805,24.427355,18.709066,24.730394,18.335489,24.730394z"></path>
							</g>
						</g>
						<g>
							<path fill="#808CB5" d="M19.284214,35.960537c-0.623154,0-1.130407,0.50687-1.130407,1.130417         c0,0.623531,0.507254,1.130405,1.130407,1.130405c0.623243,0,1.130497-0.506874,1.130497-1.130405         C20.414711,36.467407,19.907457,35.960537,19.284214,35.960537z M19.284214,37.767269         c-0.372814,0-0.676315-0.303501-0.676315-0.676315c0-0.372906,0.303501-0.676395,0.676315-0.676395         c0.372906,0,0.676395,0.30349,0.676395,0.676395C19.960609,37.463768,19.65712,37.767269,19.284214,37.767269z"></path>
						</g>
						<g>
							<path fill="#808CB5" d="M40.229301,29.37545c-0.623913,0-1.130405,0.506874-1.130405,1.130419         c0,0.623163,0.506493,1.130035,1.130405,1.130035c0.623177,0,1.130428-0.506872,1.130428-1.130035         C41.35973,29.882324,40.852478,29.37545,40.229301,29.37545z M40.229301,31.181803         c-0.372894,0-0.676315-0.303421-0.676315-0.675934c0-0.373207,0.303421-0.676315,0.676315-0.676315         c0.372826,0,0.676315,0.303108,0.676315,0.676315C40.905617,30.878382,40.602127,31.181803,40.229301,31.181803z"></path>
						</g>
						<g>
							<path fill="#808CB5" d="M46.605801,29.37545c-0.623177,0-1.130428,0.506874-1.130428,1.130419         c0,0.623163,0.507252,1.130035,1.130428,1.130035c0.623913,0,1.130405-0.506872,1.130405-1.130035         C47.736206,29.882324,47.229713,29.37545,46.605801,29.37545z M46.605801,31.181803         c-0.372917,0-0.676407-0.303421-0.676407-0.675934c0-0.373207,0.30349-0.676315,0.676407-0.676315         c0.373562,0,0.676315,0.303108,0.676315,0.676315C47.282116,30.878382,46.979362,31.181803,46.605801,31.181803z"></path>
						</g>
						<g>
							<path fill="#808CB5" d="M26.619852,35.960537c-0.623152,0-1.130405,0.50687-1.130405,1.130417         c0,0.623531,0.507254,1.130405,1.130405,1.130405c0.623177,0,1.13043-0.506874,1.13043-1.130405         C27.750282,36.467407,27.243029,35.960537,26.619852,35.960537z M26.619852,37.767269         c-0.372894,0-0.676313-0.303501-0.676313-0.676315c0-0.372906,0.303419-0.676395,0.676313-0.676395         c0.372826,0,0.676315,0.30349,0.676315,0.676395C27.296167,37.463768,26.992678,37.767269,26.619852,37.767269z"></path>
						</g>
					</g>
				</g>
				<g>
					<path fill="#506099" d="M28.138681,24.75844c-0.373655,0.15546-0.724331,0.348183-1.049971,0.573338l-1.391785-0.867897       l-1.481173,1.670933l1.036657,1.289867c-0.180161,0.349995-0.324879,0.719566-0.430441,1.103502l-1.635468,0.231441       l-0.061317,2.232477l1.640623,0.324509c0.088604,0.386889,0.214125,0.75646,0.374395,1.105696l-1.115662,1.241863       l1.387331,1.749565l1.479719-0.813694c0.307135,0.23151,0.63649,0.432701,0.984188,0.599201l-0.057615,1.683483       l2.187807,0.447826l0.313087-0.80629v-1.871754c-2.246092-0.006645-4.212343-1.647648-4.551989-3.937281       c-0.374395-2.524105,1.368896-4.873543,3.892611-5.24758c0.222223-0.032812,0.441561-0.043934,0.659378-0.044983v-2.626022       l-2.146435,0.317852L28.138681,24.75844z"></path>
					<path fill="#2C3F84" d="M36.80698,26.717678l-1.642803,0.254423c-0.213432-0.334869-0.459332-0.644634-0.733929-0.925522       l0.617935-1.532501l-1.902752-1.169205l-1.085342,1.239752c-0.37661-0.119314-0.768633-0.19976-1.170347-0.238546       l-0.507923-1.558655l-0.062759,0.009218v2.626022c2.261595-0.011492,4.246977,1.635397,4.588121,3.937662       c0.374348,2.524025-1.368202,4.873545-3.892611,5.247499c-0.234083,0.034702-0.465881,0.045444-0.695511,0.044682v1.871754       l0.300467-0.775658c0.184635-0.009228,0.36994-0.026997,0.55603-0.054661       c0.196358-0.02919,0.388308-0.067894,0.576658-0.115532l1.041803,1.330849l1.964062-1.063194l-0.54641-1.603348       c0.282768-0.260616,0.537502-0.549374,0.761227-0.860188l1.64954,0.34885l0.821011-2.076647l-1.437611-0.870481       c0.050278-0.379169,0.062092-0.768251,0.032513-1.162546l1.474525-0.785639L36.80698,26.717678z"></path>
					<path fill="#22367E" d="M25.767071,30.715227c0.339645,2.289633,2.305897,3.930635,4.551989,3.937281v-0.946609       c-1.783878-0.007027-3.344816-1.31097-3.614296-3.129862c-0.297581-2.006113,1.087627-3.873484,3.093729-4.170996       c0.174969-0.025866,0.348482-0.034702,0.520567-0.035465v-0.946911c-0.217817,0.001049-0.437155,0.012171-0.659378,0.044983       C27.135967,25.841684,25.392675,28.191122,25.767071,30.715227z"></path>
					<path fill="#031A6B" d="M30.319059,25.422665v0.946911c1.799314-0.01104,3.37945,1.298418,3.65119,3.129574       c0.296772,2.006481-1.088367,3.873772-3.09449,4.170994c-0.18759,0.028046-0.372894,0.036514-0.5567,0.035755v0.946609       c0.22963,0.000763,0.461428-0.009979,0.695511-0.044682c2.524408-0.373955,4.266958-2.723475,3.892611-5.247499       C34.566036,27.058062,32.580654,25.411173,30.319059,25.422665z"></path>
				</g>
				<path fill="#506099" d="M44.259983,37.17215l-0.110706-1.237099l-0.931854-0.073109      c-0.070099-0.200821-0.161655-0.39687-0.274696-0.585506l0.536076-0.759037l-0.880081-0.875694l-0.752388,0.536743      c-0.189758-0.112957-0.389137-0.205578-0.595856-0.276493L41.1744,32.986412l-1.237465-0.105621l-0.228939,0.887184      c-0.217079,0.035004-0.431942,0.093002-0.641613,0.174198l-0.641609-0.647507l-0.028797,0.01989l-0.987232,0.694839      l0.394306,0.825108c-0.146912,0.170193-0.27317,0.354065-0.378803,0.5471l-0.908203-0.083401l-0.318165,1.200207      l0.837299,0.381744c-0.001522,0.218887,0.018436,0.438526,0.062,0.655674l-0.754581,0.523808l0.527142,1.124523      l0.896416-0.248829c0.140244,0.170193,0.295322,0.321938,0.462193,0.455616L37.984665,40.2869l1.126781,0.522076      l0.531597-0.773846c0.209671,0.038406,0.423798,0.056103,0.63866,0.05209l0.392113,0.85059l1.198311-0.324509      l-0.045753-0.478447l-0.0443-0.460758c0.089363-0.050579,0.176468-0.105621,0.262138-0.166107      c0.090034-0.063133,0.176468-0.130726,0.257664-0.201275l0.850594,0.400951l0.709587-1.01889l-0.671932-0.660137      c0.075314-0.200432,0.129974-0.407219,0.163155-0.617638L44.259983,37.17215z M41.353825,38.527054      c-0.083458,0.058662-0.170563,0.107811-0.25919,0.151741c-0.86095,0.429001-1.928596,0.179043-2.499371-0.63171      c-0.629059-0.894131-0.414173-2.129421,0.479958-2.75848c0.077599-0.055042,0.159531-0.101166,0.241489-0.143276      c0.863834-0.44117,1.942604-0.193405,2.517071,0.622852C42.462841,36.662323,42.247978,37.897614,41.353825,38.527054z"></path>
			</g>
			<g>
				<path fill="#7D97DE" d="M53.935452,34.213913c-0.081959-0.089748-0.171989-0.170193-0.265831-0.248066l0.438606,0.437466      C54.051376,34.340183,53.993828,34.277802,53.935452,34.213913z"></path>
				<path fill="#CCCCCC" d="M55.438778,35.532589c-0.251022-0.128834-0.463715-0.290859-0.663765-0.464764l2.045189,2.039684      v-1.401016C56.337383,35.730156,55.814625,35.725693,55.438778,35.532589z"></path>
				<path fill="#D5D5D9" d="M62.343918,26.731743c-0.015507-0.262142,0.016243-0.604338,0.0443-0.862394      c-0.324902,0.12476-0.671169,0.209671-1.03001,0.24036c-1.512924,0.129524-3.026516,0.193785-4.538006,0.193785v9.403      c0.002285-0.000381,0.004475-0.000381,0.006668-0.000381c0.484409,0.024044,1.010792,0.02034,1.388161-0.173523      c0.626106-0.321857,1.046951-0.81921,1.502563-1.318676c0.313019-0.342579,0.728714-0.578854,1.100155-0.859058      c0.205219-0.155449,0.39793-0.32383,0.549294-0.532742c0.19862-0.2743,0.346291-0.588448,0.443066-0.933296      c0.143215-0.506886,0.079697-1.303564,0.462948-1.70965c0.345531-0.366631,0.691059-0.511337,0.939125-1.017839      c0.427582-0.874634,0.565632-1.927477,0.516876-2.892536c-0.014008-0.270597-0.159462-0.725843-0.511662-0.464764      c-0.159531,0.118103-0.081955,0.40904-0.230366,0.506872c-0.005146,0.003334-0.008171,0.003334-0.013313,0.006277      c-0.043541,0.143206-0.087105,0.28459-0.127022,0.414566H62.343918z"></path>
				<path fill="#FFFFFF" d="M53.669621,33.965847c0.093842,0.077873,0.183872,0.158318,0.265831,0.248066      c0.058376,0.063889,0.115925,0.12627,0.172775,0.1894l0.000763,0.000381l0.666023,0.664131l0,0      c0.20005,0.173904,0.412743,0.33593,0.663765,0.464764c0.375847,0.193104,0.898605,0.197567,1.381424,0.173904v-9.403l0,0      c-1.521759,0-3.044952-0.065323-4.568233-0.196426c-0.378708-0.032442-0.744957-0.122189-1.084602-0.259487      c-0.003693,0.174194-0.002934,0.348471,0.006668,0.542637c0.004383,0.078634,0.010288,0.206406,0.003689,0.341526h-0.643871      c-0.002193-0.111528,0.003716-0.214888,0.005905-0.282021c0.005886-0.1584,0.005146-0.302357,0.000763-0.442692      c-0.017029-0.079386-0.040611-0.155748-0.10413-0.203003c-0.352913-0.26108-0.497658,0.194166-0.511707,0.464764      c-0.049446,0.965059,0.088604,2.017902,0.51685,2.892536c0.247398,0.506502,0.592926,0.651209,0.939217,1.017839      c0.383163,0.406086,0.319733,1.202765,0.462193,1.70965c0.096771,0.344849,0.244442,0.658997,0.443062,0.933296      c0.208218,0.286106,0.490246,0.497658,0.781185,0.701801C53.27169,33.667492,53.479168,33.807446,53.669621,33.965847      L53.669621,33.965847z"></path>
				<path fill="#818386" d="M62.953087,23.426832l-0.04287,0.002573c-0.033203,0.003702-0.067146,0.008848-0.100418,0.012552      C62.857056,23.436441,62.905071,23.432358,62.953087,23.426832z"></path>
				<path fill="#818386" d="M63.47356,23.359318c-0.177898,0.0214-0.355888,0.046494-0.533787,0.066383l0.016266,0.000761      c0.172756-0.019209,0.344769-0.045374,0.517521-0.066463V23.359318z"></path>
				<path fill="#818386" d="M62.343918,26.731743h0.502777c0.039917-0.129976,0.083481-0.27136,0.127022-0.414566      c0.101913-0.337431,0.203094-0.681911,0.261379-0.916294c-0.256237,0.190462-0.539005,0.350676-0.846878,0.468466      C62.360161,26.127405,62.328411,26.469601,62.343918,26.731743z"></path>
				<path fill="#8C8E91" d="M50.533852,26.731743h0.643871c0.006599-0.13512,0.000694-0.262892-0.003689-0.341526      c-0.009602-0.194166-0.010361-0.368443-0.006668-0.542637c-0.245876-0.099344-0.47179-0.231512-0.685223-0.37804      c0.03175,0.180851,0.052471,0.356939,0.058376,0.537491c0.004383,0.140335,0.005123,0.284292-0.000763,0.442692      C50.537567,26.516855,50.531658,26.620214,50.533852,26.731743z"></path>
				<path fill="#8C8E91" d="M50.178722,23.361509c0.217747,0.026236,0.435589,0.056484,0.653404,0.080448      c-0.217815-0.023964-0.435658-0.054962-0.653404-0.081209V23.361509z"></path>
				<path fill="#D5D5D9" d="M56.820202,37.10751l-2.045189-2.039684l0,0L54.10899,34.40406l-0.439369-0.438213      c-0.190453-0.158401-0.39793-0.298355-0.602432-0.441933v1.890583l3.753014,3.385723V37.10751z"></path>
				<path fill="#CCCCCC" d="M57.039539,38.812393l0.782639-0.705872l-1.001976-0.999012v1.692711l0.013313,0.012173      C56.892559,38.865242,56.981186,38.865242,57.039539,38.812393z"></path>
				<path fill="#B5B5B5" d="M58.215031,35.532589c-0.377369,0.193863-0.903751,0.197567-1.388161,0.173523      c-0.002193,0-0.004383,0-0.006668,0.000381v1.401016l1.001976,0.999012l2.995571-2.702003v-2.049664      c-0.371441,0.280205-0.787136,0.516479-1.100155,0.859058C59.261982,34.713379,58.841137,35.210732,58.215031,35.532589z"></path>
				<path fill="#BFC5DA" d="M56.180805,41.237892l-0.377304-0.709122l-1.547623,2.177364l0.631344,1.873646l0.434895,1.42868      l0.932549-4.232983C56.294514,41.593483,56.268646,41.40295,56.180805,41.237892z"></path>
				<path fill="#A1A9C8" d="M57.619152,41.775478l0.911854,4.139984l0.45409-1.335682l0.589211-1.751389l0.039917-0.127022      l-1.54467-2.1726l-0.376587,0.709122C57.605103,41.40295,57.579235,41.593483,57.619152,41.775478z"></path>
				<path fill="#36488A" d="M58.531006,45.915462l-0.911854-4.139984c-0.039917-0.181995-0.01405-0.372528,0.073814-0.537586      l0.376587-0.709122l-0.382496-0.539005l-0.60767-0.854305h-0.259186v0.873505v10.924377l0.002285,0.006657L58.531006,45.915462z      "></path>
				<path fill="#506099" d="M56.820202,39.13546h0.259186l-0.016933-0.023663      c-0.059116-0.083019-0.177971-0.084148-0.242252-0.008469c-0.002193,0.003334-0.006577,0.004765-0.008839,0.008469      L56.79369,39.13546l-0.36475,0.513912l-0.625439,0.879398l0.377304,0.709122      c0.087841,0.165058,0.113708,0.355591,0.07386,0.537586l-0.932549,4.232983l1.498085,4.924881V40.008965V39.13546z"></path>
				<path fill="#506099" d="M56.820202,54.939659l-6.86451-13.199646l2.011314-0.849461l-2.314064-1.138203l0,0      c0.036987-0.11515,0.090885-0.273552,0.154385-0.451149c0.045757-0.128464,0.095203-0.264702,0.151295-0.412365      c0.045063-0.11742,0.093082-0.238846,0.143288-0.361782c0.067215-0.163929,0.138813-0.330418,0.213364-0.492512      c-2.771042,0.83992-7.120003,2.120201-7.207108,2.228775c-2.618984,3.253178-3.03392,10.359512-3.03392,15.398483h16.751953      c0-0.292381-0.002281-0.472172-0.005997-0.472931V54.939659z"></path>
				<rect x="63.099236" y="48.955971" fill="#36488A" width="4.272912" height="0.240359"></rect>
				<rect x="63.099236" y="49.511238" fill="#36488A" width="4.272912" height="0.240359"></rect>
				<path fill="#36488A" d="M70.767105,40.263317c-0.104805-0.095654-4.439018-1.388855-7.210064-2.228775      c0.075314,0.162094,0.146912,0.328583,0.214127,0.492512c0.050945,0.122936,0.098961,0.244362,0.143288,0.361782      c0.090031,0.234455,0.166843,0.451912,0.227345,0.62981c0.030319,0.088615,0.056183,0.167618,0.077576,0.233704l0,0      l-2.314068,1.138203l2.013508,0.849461l-7.035091,13.321835l-0.063522-0.122189v0.24921      c0.003716,0.000759,0.005997,0.18055,0.005997,0.472931h0.089275h16.973412      C73.888885,49.993008,73.710228,42.964561,70.767105,40.263317z M64.610703,47.388466v-0.354076      c0-0.230301,0.221466-0.41864,0.495399-0.41864h0.259186c0.273933,0,0.495461,0.188339,0.495461,0.41864v0.354076v0.480637      c0,0.230381-0.221527,0.41872-0.495461,0.41872h-0.259186c-0.273933,0-0.495399-0.188339-0.495399-0.41872V47.388466z       M68.07061,49.593197c0,0.500977-0.4039,0.904873-0.901558,0.904873h-3.866745c-0.497654,0-0.901535-0.403896-0.901535-0.904873      v-1.473373c0-0.289436,0.138809-0.544159,0.350742-0.709206h1.564564v0.379169c0,0.435955,0.353699,0.792606,0.790024,0.792606      h0.259186c0.436325,0,0.790024-0.356651,0.790024-0.792606v-0.379169h1.564629      c0.211861,0.165047,0.35067,0.419769,0.35067,0.709206V49.593197z"></path>
				<polygon fill="#36488A" points="59.616417,42.704323 59.614223,42.70137 59.574306,42.828392     "></polygon>
				<path fill="#CACFE0" d="M57.039539,38.812393c-0.058353,0.052849-0.14698,0.052849-0.206024,0l-0.013313-0.012173v0.197872      c0.017029-0.015888,0.032509-0.032444,0.05249-0.046127c0.133598-0.089363,0.250999,0.060188,0.319664,0.183495h-0.112968      l0.60767,0.854305l0.382496,0.539005l1.54467,2.1726l0.002193,0.002953l0.230389-0.68259l1.561611-4.633266      c0.047253,0.014446,0.111515,0.033642,0.18235,0.055042l-0.71471-2.092152l-0.058308,0.053162l-2.995571,2.702003      L57.039539,38.812393z"></path>
				<path fill="#EDEFF5" d="M53.815102,41.397057l0.23558,0.698467l0.205196,0.610611l1.547623-2.177364l0.625439-0.879398      l0.36475-0.513912l0.017673-0.023663c0.002262-0.003704,0.006645-0.005135,0.008839-0.008469      c0.064281-0.07568,0.183136-0.074551,0.242252,0.008469l0.016933,0.023663h0.112968      c-0.068665-0.123306-0.186066-0.272858-0.319664-0.183495c-0.019981,0.013683-0.035461,0.030239-0.05249,0.046127V38.80022      l-3.753014-3.385723l-0.070168-0.063141l-0.71397,2.09177c0.071598-0.021389,0.135857-0.040596,0.183113-0.054661      L53.815102,41.397057z"></path>
				<path fill="#273B81" d="M49.807327,39.301201c-0.063499,0.177597-0.117397,0.335999-0.154385,0.451149l0,0l2.314064,1.138203      l-2.011314,0.849461l6.86451,13.199646v-2.573158v-0.187592v-0.804016v-0.441551l-1.498085-4.924881l-0.434895-1.42868      l-0.631344-1.873646l-0.205196-0.610611l-0.23558-0.698467l-1.348938-4.008591      c-0.047256,0.014065-0.111515,0.033272-0.183113,0.054661c-0.385448,0.114853-1.097229,0.330036-1.967777,0.591415      c-0.074551,0.162094-0.146149,0.328583-0.213364,0.492512c-0.050205,0.122936-0.098225,0.244362-0.143288,0.361782      C49.902531,39.036499,49.853085,39.172737,49.807327,39.301201z"></path>
				<path fill="#0E2472" d="M59.846806,42.021732l-0.230389,0.68259l-0.04211,0.124069l-0.589211,1.751389l-0.45409,1.335682      l-1.708519,5.024536l-0.002285-0.006657v0.441551v0.804016v0.187592v2.573158l0.063522,0.122189l7.035091-13.321835      l-2.013508-0.849461l2.314068-1.138203l0,0c-0.021393-0.066086-0.047256-0.145088-0.077576-0.233704      c-0.060501-0.177898-0.137314-0.395355-0.227345-0.62981c-0.044327-0.11742-0.092342-0.238846-0.143288-0.361782      c-0.067215-0.163929-0.138813-0.330418-0.214127-0.492512c-0.867596-0.261761-1.580803-0.475121-1.966274-0.591034      c-0.070835-0.0214-0.135098-0.040596-0.18235-0.055042L59.846806,42.021732z"></path>
				<path fill="#4589FF" d="M61.149227,16.139578c0,0-0.01989-0.026535-0.060566-0.073109      c0.029556,0.046955,0.045063,0.072428,0.05249,0.085279L61.149227,16.139578z"></path>
				<path fill="#4589FF" d="M59.476105,23.698572c0.445255-0.02177,0.889748-0.04211,1.334999-0.074553      c0.265003-0.019197,0.529408-0.048004,0.793739-0.070917c0.401619-0.035084,0.803333-0.067595,1.204956-0.111145      c0.033272-0.003704,0.067215-0.00885,0.100418-0.012552l-6.090015,0.342276c0.663853,0,1.32914-0.012922,1.994331-0.037346      C59.034611,23.726248,59.255314,23.70923,59.476105,23.698572z"></path>
				<path fill="#4589FF" d="M62.939774,23.425701c0.177898-0.01989,0.355888-0.044983,0.533787-0.066383      c0.064285-0.007788,0.127785-0.015875,0.192043-0.024042c0.33593-0.041361,0.67186-0.081577,1.007866-0.129213      c0.000687-0.017317,0.002953-0.034702,0.002953-0.052019c0.117348-2.4953-1.096466-4.798994-3.128433-6.236984      c-0.188351-0.138062-0.391354-0.263571-0.594425-0.385378l-0.059071,0.111828      c0.219341,0.176468,0.437847,0.360723,0.640182,0.561914c-1.039612,1.607052-1.997265,3.612402-2.839016,5.272604      c1.031532-3.003983,1.898369-5.151859,2.234299-5.96184c-0.010361-0.006277-0.019958-0.013313-0.030319-0.019209      l0.093842-0.133297c0.053162-0.127022,0.083389-0.198999,0.083389-0.198999s0.001522-0.035765,0.011791-0.098213      c-0.267956-0.266525-1.433826-1.292823-4.264744-1.449713c-0.001431,0-0.002193,0-0.003716,0v8.481863L62.939774,23.425701z"></path>
				<path fill="#5492FF" d="M63.47356,23.359999c-0.172752,0.02109-0.344765,0.047255-0.517521,0.066463h0.002193l-0.005146,0.00037      c-0.048016,0.005526-0.096031,0.009609-0.143288,0.015125c-0.401623,0.04355-0.803337,0.076061-1.204956,0.111145      c-0.264332,0.022913-0.528736,0.05172-0.793739,0.070917c-0.445251,0.032442-0.889744,0.052782-1.334999,0.074553      c-0.220791,0.010658-0.441494,0.027676-0.661572,0.035763c-0.665192,0.024424-1.330479,0.037346-1.994331,0.037346v0.259106      v0.273632v0.375767v0.306442c1.696796,0,3.395046-0.053911,5.090321-0.163166      c0.82692-0.052469,1.566063-0.276873,2.032658-0.587387c-0.059807,0.069775-0.117352,0.139942-0.177921,0.209728      c-0.202332,0.232952-0.488056,0.43119-0.817387,0.588842c-0.379494,0.181602-0.81884,0.309004-1.286938,0.351805      c-1.614079,0.148792-3.228825,0.222281-4.840733,0.222281v0.064192v0.630571l0,0c1.51149,0,3.025082-0.06426,4.538006-0.193785      c0.358841-0.030689,0.705109-0.115601,1.03001-0.24036c0.307873-0.11779,0.590641-0.278004,0.846878-0.468466      c0.049446-0.036594,0.103371-0.066833,0.150623-0.105619c0.286461-0.032131,0.572945-0.059427,0.859497-0.096022      c0.600266-0.076363,1.043259-0.563356,0.984947-1.074245c-0.030319-0.268024-0.061302-0.537952-0.092316-0.809299      c-0.077507-0.055723-0.12178-0.087484-0.199379-0.143587c-0.088531,0.012932-0.176468,0.0214-0.264999,0.033953      c-0.336006,0.047636-0.671936,0.087852-1.007866,0.129213C63.601345,23.343443,63.537083,23.35228,63.47356,23.359999z"></path>
				<path fill="#4B8DFF" d="M52.251968,26.107067c1.523281,0.131104,3.046474,0.196426,4.568233,0.196426v-0.630571V25.60873      c-1.625801,0-3.253929-0.075001-4.882011-0.225994c-0.467407-0.043171-0.909615-0.16724-1.287655-0.348091      c-0.352959-0.168762-0.650539-0.387651-0.855068-0.641312c-0.03244-0.039848-0.063522-0.080067-0.09594-0.120295      c0.468834,0.290485,1.191643,0.496523,1.986904,0.547482c1.710018,0.111065,3.422989,0.166107,5.13377,0.166107v-0.306442      v-0.375767v-0.273632v-0.259106c-0.663765,0-1.328262-0.012922-1.992786-0.037346      c-0.222961-0.008087-0.445946-0.025105-0.66898-0.036144c-0.44223-0.021389-0.884552-0.041729-1.326786-0.074171      c-0.266594-0.019197-0.533096-0.048004-0.79969-0.071297c-0.400188-0.035084-0.799641-0.067514-1.199833-0.110765      c-0.217815-0.023964-0.435658-0.054213-0.653404-0.080448c-0.065781-0.007788-0.131474-0.017385-0.197186-0.025484      c-0.33667-0.041348-0.6726-0.077494-1.009293-0.12513c0-0.001511,0-0.002941,0-0.004084      c-0.090126-0.01292-0.179398-0.021389-0.269547-0.034702c-0.077484,0.055723-0.122547,0.087864-0.20005,0.143587      c-0.031082,0.271347-0.061329,0.541275-0.092319,0.809299c-0.058376,0.510889,0.385448,0.997883,0.984951,1.074245      c0.279144,0.035452,0.557461,0.061699,0.835846,0.093449c0.078243,0.064953,0.16687,0.118483,0.251019,0.176849      c0.213432,0.146528,0.439346,0.278696,0.685223,0.37804C51.507011,25.984879,51.87326,26.074625,52.251968,26.107067z"></path>
				<path fill="#4589FF" d="M62.947872,25.034645c0.32933-0.157652,0.615055-0.35589,0.817387-0.588842      c0.06057-0.069786,0.118114-0.139954,0.177921-0.209728c-0.466595,0.310514-1.205738,0.534918-2.032658,0.587387      c-1.695274,0.109255-3.393524,0.163166-5.090321,0.163166v0.048018v0.574085c1.611908,0,3.226654-0.073488,4.840733-0.222281      C62.129032,25.343649,62.568378,25.216248,62.947872,25.034645z"></path>
				<path fill="#88B3FF" d="M49.981537,23.336025c0.065712,0.008099,0.131405,0.016636,0.197186,0.024723      c0.217747,0.026247,0.435589,0.057245,0.653404,0.081209c0.400192,0.043251,0.799644,0.075682,1.199833,0.110765      c0.266594,0.023293,0.533096,0.052099,0.79969,0.071297c0.442234,0.032442,0.884556,0.052782,1.326786,0.074171      c0.223034,0.01104,0.446018,0.028057,0.66898,0.036144c0.664524,0.024424,1.329021,0.037346,1.992786,0.037346      l6.090015-0.342276l0.04287-0.002573l0.005146-0.00037h-0.002193l-0.016266-0.000761l-6.119572-0.327082v-8.481863      c-2.849285,0.158021-4.014393,1.196501-4.267696,1.456369c-0.033943,0.046574-0.054665,0.066452-0.054665,0.066452      l0.009624,0.013313c0.007404-0.011421,0.021458-0.032511,0.04504-0.077505c0.009621,0.053532,0.01112,0.089296,0.01112,0.089296      s0.033943,0.075682,0.089294,0.203083l0.087868,0.129213c-0.008862,0.004765-0.01627,0.01066-0.024345,0.015875      c0.399429,0.921438,1.476696,3.479866,2.235039,5.965174c-0.848396-1.660202-1.799404-3.665552-2.845661-5.272604      c0.203003-0.201191,0.420841-0.385447,0.64085-0.561914l-0.058285-0.112577      c-0.203762,0.121807-0.40686,0.247684-0.595879,0.386127c-2.031967,1.43799-3.245853,3.741684-3.121761,6.236984      c-0.001453,0.017317,0.001499,0.035082,0.001499,0.052769c0,0.001143,0,0.002573,0,0.004084      C49.308937,23.258532,49.644867,23.294678,49.981537,23.336025z"></path>
				<path fill="#669EFF" d="M56.820202,24.986628c-1.710781,0-3.423752-0.055042-5.13377-0.166107      c-0.795261-0.050959-1.51807-0.256996-1.986904-0.547482c0.032417,0.040228,0.063499,0.080446,0.09594,0.120295      c0.204529,0.25366,0.50211,0.472549,0.855068,0.641312c0.37804,0.180851,0.820248,0.30492,1.287655,0.348091      c1.628082,0.150993,3.25621,0.225994,4.882011,0.225994v-0.574085V24.986628z"></path>
				<path fill="#4B8DFF" d="M52.10582,17.205423c1.046257,1.607052,1.997265,3.612402,2.845661,5.272604      c-0.758343-2.485308-1.835609-5.043736-2.235039-5.965174c-0.025105-0.056473-0.044323-0.101917-0.063522-0.145088      c-0.055351-0.127401-0.089294-0.203083-0.089294-0.203083s-0.001499-0.035765-0.01112-0.089296      c-0.023582,0.044994-0.037636,0.066084-0.04504,0.077505c-0.002953,0.004084-0.008099,0.011791-0.008099,0.011791      l0.189018,0.366249l0.058285,0.112577C52.526661,16.819977,52.308823,17.004232,52.10582,17.205423z"></path>
				<path fill="#5492FF" d="M60.993481,16.363682c-0.018459,0.04355-0.039917,0.094509-0.063522,0.152506      c-0.33593,0.80998-1.202766,2.957857-2.234299,5.96184c0.841751-1.660202,1.799404-3.665552,2.839016-5.272604      c-0.202335-0.201191-0.420841-0.385447-0.640182-0.561914l0.059071-0.111828l0.194973-0.366999      c0,0-0.005215-0.008469-0.007385-0.012934c-0.007427-0.012852-0.022934-0.038324-0.05249-0.085279      c-0.010269,0.062449-0.011791,0.098213-0.011791,0.098213S61.046642,16.23666,60.993481,16.363682z"></path>
				<path fill="#F7F7F8" d="M67.71994,47.410618h-1.564629v0.379169c0,0.435955-0.353699,0.792606-0.790024,0.792606h-0.259186      c-0.436325,0-0.790024-0.356651-0.790024-0.792606v-0.379169h-1.564564c-0.211933,0.165047-0.350742,0.419769-0.350742,0.709206      v1.473373c0,0.500977,0.403881,0.904873,0.901535,0.904873h3.866745c0.497658,0,0.901558-0.403896,0.901558-0.904873v-1.473373      C68.07061,47.830387,67.931801,47.575665,67.71994,47.410618z M67.372147,49.751587h-4.272911v-0.240349h4.272911V49.751587z       M67.372147,49.196327h-4.272911v-0.240356h4.272911V49.196327z"></path>
				<path fill="#F7F7F8" d="M65.106102,48.287823h0.259186c0.273933,0,0.495461-0.188339,0.495461-0.41872v-0.480637v-0.354076      c0-0.230301-0.221527-0.41864-0.495461-0.41864h-0.259186c-0.273933,0-0.495399,0.188339-0.495399,0.41864v0.354076v0.480637      C64.610703,48.099483,64.832169,48.287823,65.106102,48.287823z"></path>
			</g>
			<g>
				<g>
					<g>
						<path fill="#E6E6E7" d="M23.249252,45.691738c-1.00717,3.739056-1.957417,7.482483-2.853069,11.229691        c3.691118,0.57515,7.348953,1.218655,10.970585,1.928989c-0.056852-4.193905-0.115923-8.387802-0.177229-12.581329        C28.550663,46.043163,25.903622,45.850441,23.249252,45.691738z"></path>
					</g>
					<g>
						<path fill="#F0F0F0" d="M8.77666,60.716576c3.812164-1.340836,7.686315-2.606743,11.619523-3.795147        c0.895653-3.747208,1.8459-7.490635,2.853069-11.229691c-2.788797,0.65863-5.555454,1.354141-8.299189,2.086559        C12.753421,52.069656,10.695669,56.384308,8.77666,60.716576z"></path>
					</g>
					<g>
						<path fill="#F0F0F0" d="M31.189539,46.269089c0.061306,4.193527,0.120377,8.387424,0.177229,12.581329        c3.765659-1.074696,7.586647-2.077412,11.45937-3.004745c-1.083912-3.756809-2.232086-7.508404-3.44371-11.25267        C36.631275,45.115761,33.900082,45.674732,31.189539,46.269089z"></path>
					</g>
					<g>
						<path fill="#E6E6E7" d="M39.382427,44.593002c1.211624,3.744267,2.359798,7.495861,3.44371,11.25267        c4.609531,0.885593,9.16893,1.877953,13.6744,2.973366c-2.432919-4.437969-5.03709-8.84705-7.811131-13.21962        C45.597939,45.218056,42.49535,44.882507,39.382427,44.593002z"></path>
					</g>
				</g>
				<g>
					<g>
						<path fill="#949EC1" d="M22.15498,46.329647l-6.547049,1.824116c-0.065702,0.018448-0.10412,0.086803-0.085661,0.152126        c0.015574,0.054295,0.065022,0.089676,0.118921,0.089676c0.011042,0,0.022162-0.00106,0.033192-0.004013l6.54706-1.824501        c0.064941-0.018066,0.103348-0.086411,0.085661-0.151745C22.288656,46.349606,22.221443,46.313393,22.15498,46.329647z"></path>
					</g>
					<g>
						<path fill="#949EC1" d="M22.046486,46.738686l-6.665981,1.868801c-0.065714,0.018078-0.104039,0.08604-0.084911,0.151375        c0.014813,0.054283,0.06426,0.089745,0.118173,0.089745c0.011041,0,0.02215-0.001511,0.033191-0.004845l6.665913-1.86842        c0.065773-0.018448,0.104109-0.08604,0.085661-0.151745C22.180084,46.758263,22.112869,46.719479,22.046486,46.738686z"></path>
					</g>
					<g>
						<path fill="#949EC1" d="M21.934959,47.161407l-6.79073,1.914547c-0.065714,0.018147-0.103359,0.08604-0.084911,0.151375        c0.014813,0.054279,0.06426,0.090126,0.118183,0.090126c0.011029,0,0.02214-0.001511,0.03318-0.004845l6.790741-1.914925        c0.065702-0.01807,0.103348-0.086044,0.0849-0.151367C22.068638,47.181,22.001423,47.142582,21.934959,47.161407z"></path>
					</g>
					<g>
						<path fill="#949EC1" d="M21.817537,47.598877l-6.917682,1.963688c-0.065702,0.018082-0.103348,0.086426-0.0849,0.151756        c0.015494,0.054581,0.064941,0.089664,0.118172,0.089664c0.011042,0,0.022832-0.001808,0.033942-0.005142l6.918444-1.963692        c0.064953-0.018066,0.103357-0.086342,0.084148-0.151745C21.951977,47.618084,21.884001,47.580059,21.817537,47.598877z"></path>
					</g>
					<g>
						<path fill="#949EC1" d="M21.697935,48.052608l-7.052041,2.014271c-0.065702,0.018826-0.103439,0.086342-0.084911,0.151745        c0.015506,0.054211,0.064953,0.089294,0.118854,0.089294c0.011041,0,0.022161-0.00106,0.033191-0.004765l7.052121-2.014271        c0.064941-0.018459,0.103348-0.086353,0.0849-0.151756C21.8316,48.071808,21.764387,48.032719,21.697935,48.052608z"></path>
					</g>
					<g>
						<path fill="#949EC1" d="M21.572426,48.522587l-7.190184,2.06818c-0.064941,0.018829-0.102597,0.087105-0.08415,0.152424        c0.015506,0.053913,0.064953,0.088997,0.118173,0.088997c0.011041,0,0.022843-0.001522,0.034715-0.004845l7.189341-2.068111        c0.065771-0.018818,0.103428-0.087093,0.084219-0.152496C21.706091,48.541416,21.638878,48.502628,21.572426,48.522587z"></path>
					</g>
					<g>
						<path fill="#949EC1" d="M21.443201,49.010632l-7.334129,2.124283c-0.065691,0.018829-0.102597,0.087105-0.084149,0.152428        c0.015506,0.053909,0.064953,0.088993,0.118103,0.088993c0.011109,0,0.022901-0.001442,0.034022-0.004765l7.334059-2.124283        c0.065771-0.018829,0.103428-0.087105,0.084219-0.152508C21.576128,49.029461,21.509676,48.98999,21.443201,49.010632z"></path>
					</g>
					<g>
						<path fill="#949EC1" d="M21.308092,49.517883l-7.483981,2.182583c-0.06426,0.019207-0.101928,0.08717-0.083481,0.152874        c0.015506,0.053162,0.064953,0.088234,0.118184,0.088234c0.01179,0,0.022832-0.001511,0.034703-0.004833l7.483981-2.182583        c0.06419-0.019196,0.101927-0.087471,0.083399-0.152805C21.441689,49.536713,21.373045,49.498688,21.308092,49.517883z"></path>
					</g>
					<g>
						<path fill="#949EC1" d="M21.167768,50.044346l-7.639059,2.244282c-0.065702,0.019497-0.102597,0.088234-0.083388,0.152794        c0.015494,0.053909,0.064941,0.088612,0.118092,0.088612c0.011871,0,0.022912-0.001511,0.034703-0.004765l7.639059-2.244648        c0.065783-0.019207,0.102678-0.087852,0.083481-0.152805C21.301435,50.062042,21.232029,50.024387,21.167768,50.044346z"></path>
					</g>
					<g>
						<path fill="#949EC1" d="M21.022369,50.592197l-7.802294,2.309982c-0.064953,0.019211-0.102597,0.087471-0.082639,0.152805        c0.015494,0.053532,0.064191,0.087852,0.117341,0.087852c0.011791,0,0.023663-0.001431,0.035464-0.005142l7.802215-2.309971        c0.065022-0.019211,0.10269-0.087486,0.08272-0.152805C21.156729,50.609894,21.090265,50.570427,21.022369,50.592197z"></path>
					</g>
					<g>
						<path fill="#949EC1" d="M20.871006,51.161831l-7.972117,2.379387c-0.065702,0.019211-0.102597,0.087852-0.082707,0.152508        c0.016255,0.053532,0.065022,0.088234,0.118172,0.088234c0.011041,0,0.022913-0.001511,0.034703-0.005226l7.972037-2.379307        c0.065783-0.019199,0.102678-0.087936,0.082718-0.152878C21.004602,51.1796,20.935947,51.141193,20.871006,51.161831z"></path>
					</g>
					<g>
						<path fill="#949EC1" d="M20.712986,51.755508l-8.149255,2.451366c-0.065033,0.019577-0.101929,0.087852-0.081969,0.153175        c0.015505,0.053528,0.064952,0.087482,0.117341,0.087482c0.011871,0,0.023674-0.001442,0.036215-0.005146l8.149266-2.451355        c0.064953-0.019588,0.101915-0.087864,0.081957-0.153187C20.847343,51.772823,20.78163,51.734486,20.712986,51.755508z"></path>
					</g>
					<g>
						<path fill="#949EC1" d="M20.54907,52.374207l-8.334653,2.528179c-0.065714,0.01997-0.101848,0.088615-0.081969,0.153568        c0.016255,0.05315,0.064272,0.087471,0.117422,0.087471c0.011803,0,0.024343-0.002193,0.035464-0.005516l8.334571-2.528107        c0.065702-0.019581,0.101929-0.088234,0.081959-0.153255C20.681986,52.391224,20.611818,52.356522,20.54907,52.374207z"></path>
					</g>
					<g>
						<path fill="#949EC1" d="M20.376986,53.019901l-8.528749,2.609009c-0.06426,0.019958-0.101155,0.088993-0.081196,0.153934        c0.016174,0.052849,0.06494,0.086803,0.117341,0.086803c0.012552,0,0.024424-0.001892,0.036215-0.005146l8.528736-2.609005        c0.065033-0.02034,0.101168-0.088997,0.08197-0.153938C20.510653,53.036907,20.442757,53.001835,20.376986,53.019901z"></path>
					</g>
					<g>
						<path fill="#949EC1" d="M20.197565,53.693726l-8.731071,2.695347c-0.06494,0.019958-0.101155,0.088615-0.081197,0.153557        c0.016256,0.05315,0.064941,0.087185,0.117342,0.087185c0.012552,0,0.024424-0.001892,0.036976-0.005226l8.731059-2.694969        c0.065022-0.02034,0.101166-0.088997,0.081207-0.153934C20.331991,53.710659,20.266289,53.675957,20.197565,53.693726z"></path>
					</g>
					<g>
						<path fill="#949EC1" d="M20.010817,54.399216l-8.944514,2.786156c-0.06494,0.02034-0.101167,0.088993-0.080516,0.153946        c0.016256,0.052853,0.065022,0.086414,0.117412,0.086414c0.011802,0,0.024354-0.001812,0.036214-0.005516l8.944513-2.786617        c0.064941-0.019878,0.101088-0.088982,0.081198-0.153557C20.144415,54.415104,20.075008,54.379639,20.010817,54.399216z"></path>
					</g>
					<g>
						<path fill="#949EC1" d="M19.81514,55.136467l-9.168237,2.883621c-0.064941,0.019958-0.101155,0.089375-0.080447,0.154316        c0.016187,0.052471,0.064953,0.08604,0.117342,0.08604c0.011871,0,0.024424-0.00219,0.036976-0.005894l9.168156-2.88332        c0.065022-0.020256,0.100487-0.089363,0.080528-0.154316C19.948736,55.152355,19.882273,55.116508,19.81514,55.136467z"></path>
					</g>
					<g>
						<path fill="#949EC1" d="M19.609102,55.908733l-9.402988,2.986668c-0.064953,0.020721-0.100406,0.089745-0.079766,0.154697        c0.016255,0.05209,0.065022,0.085663,0.116661,0.085663c0.012552,0,0.025105-0.001812,0.037656-0.005898l9.40307-2.986664        c0.064941-0.020653,0.100405-0.089676,0.079685-0.15432C19.743542,55.923927,19.671864,55.889606,19.609102,55.908733z"></path>
					</g>
				</g>
				<g>
					<g>
						<g>
							<path fill="#949EC1" d="M38.725239,44.940422l-7.235165,1.817093c-0.065691,0.016254-0.1063,0.083088-0.089365,0.148792         c0.014053,0.056484,0.064283,0.093376,0.119616,0.093376c0.009598,0,0.019197-0.00106,0.029556-0.00362l7.235165-1.817474         c0.065693-0.016254,0.106373-0.083088,0.089367-0.148788C38.858166,44.963333,38.792454,44.919033,38.725239,44.940422z"></path>
						</g>
					</g>
					<g>
						<g>
							<path fill="#949EC1" d="M38.864811,45.360584l-7.365137,1.855865c-0.065691,0.016556-0.10561,0.083401-0.088604,0.149487         c0.014051,0.05579,0.063499,0.092686,0.118853,0.092686c0.010361,0,0.020721-0.000751,0.030319-0.003704l7.36581-1.855865         c0.065781-0.016636,0.105629-0.083401,0.088623-0.149483C38.998478,45.383415,38.929764,45.341755,38.864811,45.360584z"></path>
						</g>
					</g>
					<g>
						<g>
							<path fill="#949EC1" d="M39.010292,45.796539l-7.499567,1.895416c-0.066475,0.016254-0.1063,0.083767-0.089294,0.149471         c0.013983,0.055805,0.06419,0.092697,0.119614,0.092697c0.0096,0,0.01989-0.000759,0.030228-0.0037l7.499567-1.895348         c0.065712-0.016636,0.10556-0.083851,0.089294-0.149551C39.143196,45.819439,39.074482,45.77771,39.010292,45.796539z"></path>
						</g>
					</g>
					<g>
						<g>
							<path fill="#949EC1" d="M39.161655,46.248451l-7.64057,1.937824c-0.065714,0.016636-0.105562,0.083401-0.089365,0.149483         c0.014051,0.055794,0.06426,0.09269,0.119591,0.09269c0.010361,0,0.01996-0.001514,0.030319-0.003704l7.640572-1.937828         c0.065712-0.016933,0.10556-0.083778,0.088558-0.149483C39.294559,46.271351,39.225849,46.231815,39.161655,46.248451z"></path>
						</g>
					</g>
					<g>
						<g>
							<path fill="#949EC1" d="M39.318165,46.717667l-7.785288,1.981388c-0.066454,0.017006-0.106302,0.083469-0.089296,0.149551         c0.013983,0.055725,0.064192,0.092999,0.119614,0.092999c0.0096,0,0.01989-0.00182,0.030251-0.004082l7.785267-1.98177         c0.065712-0.016556,0.10556-0.083389,0.088627-0.14909C39.451069,46.740578,39.382427,46.702541,39.318165,46.717667z"></path>
						</g>
					</g>
					<g>
						<g>
							<path fill="#949EC1" d="M39.481319,47.20496l-7.936583,2.027203c-0.065784,0.016937-0.10561,0.083782-0.089365,0.149483         c0.014744,0.055794,0.064953,0.093067,0.119614,0.093067c0.010361,0,0.019958-0.001511,0.030251-0.004082l7.936653-2.027122         c0.065689-0.017017,0.105606-0.083851,0.088604-0.149551C39.613487,47.227493,39.546341,47.189468,39.481319,47.20496z"></path>
						</g>
					</g>
					<g>
						<g>
							<path fill="#949EC1" d="M39.649689,47.711834l-8.093163,2.074837c-0.066452,0.016636-0.105608,0.083782-0.088602,0.149864         c0.013983,0.055412,0.06426,0.092319,0.118853,0.092319c0.010361,0,0.02072-0.001526,0.031012-0.004086l8.093161-2.074768         c0.066452-0.016636,0.10561-0.083851,0.088604-0.149933C39.782616,47.734745,39.717594,47.696339,39.649689,47.711834z"></path>
						</g>
					</g>
					<g>
						<g>
							<path fill="#949EC1" d="M39.82542,48.239056l-8.256342,2.124653c-0.065691,0.016937-0.105608,0.084164-0.088602,0.150234         c0.014744,0.055355,0.064953,0.092319,0.119614,0.092319c0.0096,0,0.019958-0.001511,0.030251-0.004086l8.257076-2.124653         c0.065693-0.016937,0.10487-0.084148,0.087841-0.150234C39.958324,48.261959,39.894062,48.223171,39.82542,48.239056z"></path>
						</g>
					</g>
					<g>
						<g>
							<path fill="#949EC1" d="M40.009293,48.78804l-8.426901,2.177063c-0.065783,0.017319-0.105631,0.084152-0.088602,0.150234         c0.013983,0.055042,0.06419,0.092319,0.118853,0.092319c0.010361,0,0.020628-0.001514,0.030989-0.004086l8.426899-2.177067         c0.066452-0.017303,0.105633-0.084148,0.088627-0.149853C40.142128,48.811253,40.074986,48.772926,40.009293,48.78804z"></path>
						</g>
					</g>
					<g>
						<g>
							<path fill="#949EC1" d="M40.200504,49.360245l-8.604868,2.232475c-0.065714,0.017319-0.104801,0.084152-0.087864,0.149853         c0.014051,0.055725,0.06426,0.092319,0.118921,0.092319c0.010292,0,0.020651-0.001511,0.031012-0.003704l8.604109-2.232777         c0.065712-0.017017,0.104801-0.083851,0.088554-0.149933C40.333435,49.382774,40.264767,49.344749,40.200504,49.360245z"></path>
						</g>
					</g>
					<g>
						<g>
							<path fill="#949EC1" d="M40.398361,49.956863l-8.78791,2.290024c-0.065022,0.017315-0.10487,0.08453-0.087866,0.150612         c0.014744,0.055344,0.064192,0.091557,0.118853,0.091557c0.010361,0,0.020651-0.001511,0.031773-0.003704l8.787914-2.29039         c0.065712-0.016937,0.10487-0.084534,0.087864-0.150234C40.532051,49.979393,40.46777,49.941368,40.398361,49.956863z"></path>
						</g>
					</g>
					<g>
						<g>
							<path fill="#949EC1" d="M40.606602,50.579647l-8.981407,2.35096c-0.065691,0.017315-0.10487,0.08453-0.087866,0.150234         c0.014746,0.055424,0.064192,0.091938,0.119616,0.091938c0.009598,0,0.020651-0.001514,0.031012-0.003704l8.981386-2.350952         c0.065712-0.017315,0.10487-0.08453,0.087864-0.150612C40.740269,50.602177,40.674488,50.564152,40.606602,50.579647z"></path>
						</g>
					</g>
					<g>
						<g>
							<path fill="#949EC1" d="M40.824421,51.230488l-9.182983,2.414841c-0.065691,0.017315-0.105608,0.08453-0.087841,0.150612         c0.014744,0.055042,0.064192,0.091557,0.118853,0.091557c0.010361,0,0.020628-0.001431,0.030989-0.003704l9.18298-2.414768         c0.065716-0.017387,0.105633-0.084522,0.087868-0.150303C40.956585,51.253399,40.892326,51.21468,40.824421,51.230488z"></path>
						</g>
					</g>
					<g>
						<g>
							<path fill="#949EC1" d="M41.051857,51.911255l-9.394152,2.482746c-0.065691,0.017769-0.105631,0.084911-0.087866,0.150314         c0.014746,0.055344,0.064192,0.091858,0.118855,0.091858c0.010359,0,0.020651-0.001431,0.031773-0.004005l9.393391-2.482365         c0.066452-0.017769,0.105606-0.084911,0.087841-0.150303C41.184761,51.933784,41.11898,51.896141,41.051857,51.911255z"></path>
						</g>
					</g>
					<g>
						<g>
							<path fill="#949EC1" d="M41.288803,52.624165l-9.614162,2.553665c-0.064951,0.017315-0.104801,0.084911-0.087103,0.150612         c0.014744,0.054592,0.064953,0.091187,0.118853,0.091187c0.011122,0,0.021389-0.001141,0.03175-0.004082l9.614185-2.553967         c0.065689-0.017014,0.10487-0.08453,0.08717-0.150311C41.422493,52.645947,41.353825,52.606857,41.288803,52.624165z"></path>
						</g>
					</g>
					<g>
						<g>
							<path fill="#949EC1" d="M41.538391,53.371777l-9.845984,2.628513c-0.065714,0.017399-0.10487,0.084614-0.087172,0.150696         c0.014812,0.055344,0.065022,0.091175,0.118921,0.091175c0.011053,0,0.021389-0.001511,0.03175-0.004082l9.845984-2.628967         c0.065712-0.017315,0.10487-0.08453,0.087101-0.15023C41.672081,53.392796,41.60265,53.354389,41.538391,53.371777z"></path>
						</g>
					</g>
					<g>
						<g>
							<path fill="#949EC1" d="M41.800529,54.155533l-10.088924,2.708664c-0.065783,0.017384-0.104109,0.085281-0.086411,0.1506         c0.014051,0.055424,0.06426,0.091187,0.118092,0.091187c0.011122,0,0.021481-0.001431,0.03175-0.004002l10.088993-2.709042         c0.065716-0.017387,0.10487-0.085281,0.087105-0.150684C41.933437,54.176556,41.865459,54.137466,41.800529,54.155533z"></path>
						</g>
					</g>
					<g>
						<g>
							<path fill="#949EC1" d="M42.075203,54.979507L31.731495,57.7724c-0.064953,0.017689-0.104109,0.085281-0.086342,0.150986         c0.014744,0.054661,0.064192,0.090805,0.118853,0.090805c0.010361,0,0.020651-0.001442,0.03175-0.004383l10.343637-2.792892         c0.065784-0.017685,0.104107-0.085281,0.086433-0.150982C42.20813,55.00061,42.142414,54.962574,42.075203,54.979507z"></path>
						</g>
					</g>
				</g>
				<g>
					<g>
						<path fill="#E6E6E7" d="M44.005249,50.275475l-0.186066-0.019196l1.058807,2.888451l0.208218,0.038406l5.70826,1.051414        l-1.740265-3.444103L44.005249,50.275475z M45.463512,52.935371l-0.886749-2.311794l0.894154,0.098976l0.971706,2.38414        L45.463512,52.935371z M46.870132,53.181244l-1.009384-2.41552l0.96582,0.107063l1.105305,2.494537L46.870132,53.181244z         M48.504078,53.46735l-1.158463-2.537331l1.05064,0.11628l1.27,2.624512L48.504078,53.46735z"></path>
					</g>
				</g>
				<g>
					<g>
						<path fill="#949EC1" d="M53.420792,56.121799c-3.446594-0.72176-9.217682-1.918247-9.574982-1.918247        c-0.005905,0-0.010384,0.000366-0.013313,0.000748c-0.066475,0.014744-0.11742,0.081207-0.102608,0.147659        c0.014744,0.066467,0.070099,0.110016,0.13731,0.095192c0.273911,0.002953,5.833,1.147053,9.503384,1.915688        c0.008171,0.001511,0.017029,0.00264,0.025105,0.00264c0.057617,0,0.107826-0.039917,0.120377-0.098213        C53.530117,56.200802,53.487267,56.135479,53.420792,56.121799z"></path>
					</g>
				</g>
				<g>
					<g>
						<path fill="#949EC1" d="M54.40657,56.906307c-3.058331-0.677448-10.142132-2.236481-10.514267-2.236481        c-0.005142,0-0.008858,0-0.011051,0.000366c-0.066452,0.013996-0.118183,0.080448-0.104107,0.14653        c0.013981,0.066845,0.072357,0.108955,0.135857,0.096703c0.288677,0.006275,6.402271,1.339027,10.441101,2.232857        c0.008167,0.002193,0.017765,0.003334,0.025864,0.003334c0.056854,0,0.107803-0.039165,0.120354-0.096783        C54.515064,56.98637,54.472954,56.921051,54.40657,56.906307z"></path>
					</g>
				</g>
				<g>
					<g>
						<path fill="#949EC1" d="M30.291,55.199909c-2.491964-0.42083-8.265234-1.386951-8.563509-1.367073        c-0.003702,0.000381-0.006657,0.000381-0.008848,0.001141c-0.052469,0.015495-0.090126,0.075684-0.0753,0.132156        c0.015493,0.056866,0.064939,0.089745,0.115149,0.076061c0.23181-0.010357,5.212797,0.812565,8.503714,1.367825        c0.007338,0.00106,0.014744,0.001442,0.021389,0.00106c0.045755-0.003254,0.08415-0.039467,0.090818-0.089664        C30.382488,55.263039,30.344854,55.209209,30.291,55.199909z"></path>
					</g>
				</g>
				<g>
					<g>
						<path fill="#949EC1" d="M30.164742,55.862228c-2.492725-0.42083-8.265245-1.38665-8.563509-1.36668        c-0.003716,0-0.006657,0.00037-0.008848,0.000751c-0.052471,0.015873-0.090126,0.07568-0.075314,0.132164        c0.015507,0.056854,0.064953,0.089664,0.11515,0.076065c0.231821-0.009979,5.212809,0.812553,8.503725,1.367821        c0.007338,0.001064,0.014744,0.001431,0.021389,0.001064c0.045755-0.002956,0.08415-0.039101,0.090796-0.089676        C30.256298,55.925739,30.218573,55.87146,30.164742,55.862228z"></path>
					</g>
				</g>
			</g>
		
	
	<path fill="#ABB3CE" d="M44.368408,50.625366l2.975269,0.601879l-0.155197,0.522621l-2.563793-0.518642L44.368408,50.625366z"></path>
	<g>
		<path fill-rule="evenodd" clip-rule="evenodd" fill="#949EC1" d="M49.920528,54.308468l-2.008961-3.004559l0.152538-0.905243    l2.790146,4.098682L49.920528,54.308468z M45.810932,48.185295l1.097065,1.635628l0.14555-0.887554l-1.737247-2.567509    c-0.179768-0.243797-0.412373-0.42902-0.611038-0.48658c-0.190334-0.036743-0.293682,0.086956-0.259396,0.310505l0.56916,4.356232    l0.902069,0.182491l-0.375202-2.597645c0.000717-0.055237,0.031635-0.08482,0.08242-0.078842l0.015827,0.003197    C45.692841,48.0611,45.761902,48.113686,45.810932,48.185295L45.810932,48.185295z M46.060104,51.750847l0.267933,1.830879    l-0.933723-0.188885l-0.236275-1.824474L46.060104,51.750847z"></path>
		<path fill-rule="evenodd" clip-rule="evenodd" fill="#ABB3CE" d="M47.736439,46.339638    c0.029579-0.139816,0.193588-0.132111,0.369133,0.017365c0.159668,0.126141,0.278683,0.340057,0.265854,0.477776    c-0.001129,0.011906-0.003208,0.023003-0.006275,0.033226l0,0l-0.623337,4.000385    c-0.003437,0.037521-0.010429,0.055206-0.020973,0.05307l-0.329678,0.315384    c-0.013985,0.035385-0.079144-0.016003-0.089828-0.075485l-0.175705-0.723282    c-0.001846-0.038589-0.010685-0.059483-0.003693-0.077168l0.562698-3.630573l-0.049332-0.04818    c-0.024666-0.024101-0.047485-0.009609-0.054451,0.008087l-0.187084,1.16571    c0.033482,0.044979,0.059994,0.107662,0.037197,0.12215l-0.029396,0.204193c0.007614,0.050991-0.026306,0.06929-0.075775,0.040886    c-0.011028-0.006336-0.022266-0.014709-0.03318-0.024712c-0.048573-0.040703-0.086872-0.10321-0.093494-0.152645    l0.015827,0.003208l0.017262-0.130241l0.003296-0.094856L47.438,46.48941c0.0126-0.091652,0.111469-0.093056,0.220886-0.003128    c0.004913,0.00404,0.009808,0.008236,0.014652,0.012577l0.047485,0.009598L47.736439,46.339638z"></path>
	</g>
	<path fill="#ABB3CE" d="M28.512569,47.787514L28.512569,47.787514c1.227755,1.1684,1.478542,3.295937,0.560139,4.752213l0,0   c-0.918383,1.456276-2.658051,1.689621-3.885828,0.521236l0,0c-1.227753-1.168396-1.478531-3.295948-0.560137-4.752224l0,0   C25.545124,46.852474,27.284792,46.619118,28.512569,47.787514z"></path>
	<path fill="#E6E6E7" d="M27.848738,49.63549l-0.027227-0.107533l-0.055908,0.094891l-0.333715,0.621326l-0.277807,0.526428   l-0.24435,0.4669l-0.132952,0.264122l-0.427649-0.065056l0.333693-0.62133l0.077505-0.156231l-0.054062-0.202091   l-0.149426-0.578495l-0.121738-0.457954l-0.027225-0.107548l-0.055931,0.094902l-0.333693,0.621319l-0.321394,0.636131   l-0.333715,0.621319l-0.415789-0.063244l0.321833-0.623131l0.333277-0.634319l0.321833-0.623131l0.322271-0.610138   l0.380138,0.057823l0.002169,0.064953l0.16131,0.580292l0.001753,0.051975l0.13579,0.524719l0.041302,0.174297l0,0   l0.321833-0.623127l0.322269-0.610142l0.38014,0.057823l0.002169,0.064953l0.801699,2.758606l-0.427673-0.065056   L27.848738,49.63549z"></path>
	<g>
		<path fill="#808CB5" d="M32.432728,31.838146h-0.684919l-0.456629-1.647074l-0.945839,1.647074h-0.766464l1.467697-2.560297    l-0.228313-0.896923l-2.005825,3.45722h-0.766462l2.543995-4.370443h0.668608l0.293545,1.076309h0.684921l-0.472919,0.83168    L32.432728,31.838146L32.432728,31.838146z"></path>
	</g>
	<g>
		<path fill="#808CB5" d="M41.239677,37.863014h-0.330784l-0.220516-0.795433l-0.456791,0.795433h-0.370148l0.708801-1.236465    l-0.110249-0.433163l-0.968704,1.669628H39.12114l1.228584-2.110661h0.322918l0.141743,0.519794h0.330784l-0.228386,0.401657    L41.239677,37.863014L41.239677,37.863014z"></path>
	</g>

</svg>