<?xml version="1.0" encoding="utf-8"?>
<!-- Generator: Adobe Illustrator 25.2.1, SVG Export Plug-In . SVG Version: 6.00 Build 0)  -->
<!DOCTYPE svg PUBLIC "-//W3C//DTD SVG 1.1//EN" "http://www.w3.org/Graphics/SVG/1.1/DTD/svg11.dtd" [
	<!ENTITY ns_extend "http://ns.adobe.com/Extensibility/1.0/">
	<!ENTITY ns_ai "http://ns.adobe.com/AdobeIllustrator/10.0/">
	<!ENTITY ns_graphs "http://ns.adobe.com/Graphs/1.0/">
	<!ENTITY ns_vars "http://ns.adobe.com/Variables/1.0/">
	<!ENTITY ns_imrep "http://ns.adobe.com/ImageReplacement/1.0/">
	<!ENTITY ns_sfw "http://ns.adobe.com/SaveForWeb/1.0/">
	<!ENTITY ns_custom "http://ns.adobe.com/GenericCustomNamespace/1.0/">
	<!ENTITY ns_adobe_xpath "http://ns.adobe.com/XPath/1.0/">
]>
<svg version="1.1" id="Layer_1" xmlns:x="&ns_extend;" xmlns:i="&ns_ai;" xmlns:graph="&ns_graphs;"
	 xmlns="http://www.w3.org/2000/svg" xmlns:xlink="http://www.w3.org/1999/xlink" x="0px" y="0px" viewBox="0 0 80 80"
	 enable-background="new 0 0 80 80" xml:space="preserve">
<metadata>
	<sfw  xmlns="&ns_sfw;">
		<slices></slices>
		<sliceSourceBounds  bottomLeftOrigin="true" height="59.940052" width="60" x="276" y="-425.9700317"></sliceSourceBounds>
	</sfw>
</metadata>
<g>
	<g>
		<linearGradient id="SVGID_1_" gradientUnits="userSpaceOnUse" x1="37.9096718" y1="50.1241379" x2="42.0303841" y2="52.503231">
			<stop  offset="0" style="stop-color:#69CAD6"/>
			<stop  offset="1" style="stop-color:#5A55A5"/>
		</linearGradient>
		<path fill="url(#SVGID_1_)" d="M40.2697296,52.8571434l2.2477493-1.2887115c0.2097893-0.1198807,0.2097893-0.3896141,0-0.509491
			l-2.2477493-1.2887115c-0.179821-0.1198807-0.4195824-0.1198807-0.5994034,0l-2.2477493,1.2887115
			c-0.2097893,0.1198769-0.2097893,0.3896103,0,0.509491l2.2477493,1.2887115
			C39.8501472,52.9770241,40.0899086,52.9770241,40.2697296,52.8571434z"/>
	</g>
	<g>
		<linearGradient id="SVGID_2_" gradientUnits="userSpaceOnUse" x1="31.3004704" y1="37.6346054" x2="48.6373215" y2="47.644043">
			<stop  offset="0" style="stop-color:#69CAD6"/>
			<stop  offset="1" style="stop-color:#5A55A5"/>
		</linearGradient>
		<path fill="url(#SVGID_2_)" d="M47.7622337,36.763237l-6.5934029-3.8061905
			c-0.359642-0.2097893-0.7792206-0.32967-1.1988029-0.32967s-0.8391609,0.1198807-1.1987991,0.32967l-6.5934067,3.8061905
			c-0.7492523,0.4195824-1.1988029,1.2287712-1.1988029,2.0679321v7.6123886c0,0.8691292,0.4495506,1.6483536,1.1988029,2.0679321
			l1.4985008,0.8691292c0.1798172,0.1198769,0.4195786,0.1198769,0.5993996,0l2.2477531-1.2887154
			c0.2097893-0.1198769,0.2097893-0.3896103,0-0.5094872l-1.9480515-1.1388626
			c-0.359642-0.2097893-0.5994034-0.5993996-0.5994034-1.0489502v-5.5444565c0-0.4195824,0.2397614-0.8091888,0.5994034-1.0489502
			l4.7952042-2.7572441c0.1798172-0.1198807,0.3896103-0.1498489,0.5993996-0.1498489s0.4195824,0.0599403,0.5993996,0.1498489
			l4.7952042,2.7572441c0.359642,0.2097893,0.5994034,0.5993996,0.5994034,1.0489502v5.5444565
			c0,0.4195786-0.2397614,0.8091888-0.5994034,1.0489502l-1.9480515,1.1388626
			c-0.2097893,0.1198769-0.2097893,0.3896103,0,0.5094872l2.2477531,1.2887154c0.179821,0.1198769,0.4195786,0.1198769,0.5993996,0
			l1.4985008-0.8691292c0.7492523-0.4195786,1.1988029-1.228775,1.1988029-2.0679321v-7.6123886
			C48.9610367,37.992012,48.5114861,37.2127876,47.7622337,36.763237z"/>
		<linearGradient id="SVGID_3_" gradientUnits="userSpaceOnUse" x1="31.3026829" y1="54.9534492" x2="48.639534" y2="64.962883">
			<stop  offset="0" style="stop-color:#69CAD6"/>
			<stop  offset="1" style="stop-color:#5A55A5"/>
		</linearGradient>
		<path fill="url(#SVGID_3_)" d="M47.7622337,54.0859146l-1.4985008-0.8691292c-0.179821-0.1198769-0.4195786-0.1198769-0.5993996,0
			l-2.2477531,1.2887115c-0.2097893,0.1198807-0.2097893,0.3896141,0,0.509491l1.9480515,1.1388626
			c0.359642,0.2097893,0.5994034,0.5993996,0.5994034,1.0489502v5.5444565c0,0.4195786-0.2397614,0.8091888-0.5994034,1.0489502
			l-4.7952042,2.7572441c-0.1798172,0.119873-0.3896103,0.1498489-0.5993996,0.1498489s-0.4195824-0.0599442-0.5993996-0.1498489
			l-4.7952042-2.7572441c-0.359642-0.2097893-0.5994034-0.5993996-0.5994034-1.0489502v-5.5444565
			c0-0.4195786,0.2397614-0.8091888,0.5994034-1.0489502l1.9480515-1.1388626c0.2097893-0.1198769,0.2097893-0.3896103,0-0.509491
			l-2.2477531-1.2887115c-0.179821-0.1198769-0.4195824-0.1198769-0.5993996,0l-1.4985008,0.8691292
			c-0.7492523,0.4195786-1.1988029,1.228775-1.1988029,2.0679321v7.6123848c0,0.8691292,0.4495506,1.6483498,1.1988029,2.0679283
			l6.5934067,3.8061905c0.3596382,0.2097931,0.7792168,0.3296738,1.1987991,0.3296738s0.8391609-0.119873,1.1988029-0.3296738
			l6.5934029-3.8061905c0.7492523-0.4195786,1.1988029-1.228775,1.1988029-2.0679283v-7.6123848
			C48.9610367,55.2847176,48.5114861,54.5054932,47.7622337,54.0859146z"/>
	</g>
</g>
<linearGradient id="SVGID_4_" gradientUnits="userSpaceOnUse" x1="17.0024357" y1="11.7525721" x2="62.9938202" y2="38.3057098">
	<stop  offset="0" style="stop-color:#69CAD6"/>
	<stop  offset="1" style="stop-color:#5A55A5"/>
</linearGradient>
<path fill="url(#SVGID_4_)" d="M68.261734,21.5384655l-11.088913-9.5904093
	c-1.4085884-1.2287712-3.6563416-1.9180822-6.113884-1.9180822H28.8811169c-2.4575405,0-4.7052917,0.689311-6.1138859,1.9180822
	l-11.0889101,9.5904093C10.5994005,22.4975052,10,23.7262764,10,25.0149879s0.5994005,2.5174828,1.6783218,3.4765224
	l11.0889091,9.5904102c1.1088905,0.9590378,2.727272,1.5884132,4.5554447,1.8281708
	c0.3596382,0.0599403,0.6893101-0.2397614,0.6893101-0.5993996v-1.8281708c0-0.2997017-0.2097893-0.539463-0.5094891-0.5994034
	c-1.1388626-0.1798172-2.1278706-0.5694313-2.7572422-1.0789185L13.6563444,26.213789
	c-0.7492504-0.6593399-0.7492504-1.7382622,0-2.3976021l11.0889101-9.5904093
	c0.8691311-0.7492504,2.4275723-1.198801,4.1658344-1.198801h22.1778202c1.7082901,0,3.2967033,0.4495506,4.1658325,1.198801
	l11.0889091,9.5904093c0.7492523,0.6593399,0.7492523,1.7382622,0,2.3976021l-11.0889091,9.5904102
	c-0.6293716,0.5394592-1.5884132,0.9290695-2.7572403,1.0789185c-0.2997017,0.0599403-0.509491,0.2997017-0.509491,0.5994034
	v1.8281708c0,0.3596382,0.3296738,0.6293678,0.689312,0.5993996c1.8281746-0.2397614,3.4465523-0.869133,4.5554428-1.8281708
	l11.088913-9.5904102C69.4005966,27.5624409,70,26.3336697,70,25.0149879
	C69.9400558,23.7262764,69.3406525,22.4975052,68.261734,21.5384655z"/>
<g>
	<linearGradient id="SVGID_5_" gradientUnits="userSpaceOnUse" x1="9.3856411" y1="50.7194748" x2="29.6447754" y2="62.4160919">
		<stop  offset="0" style="stop-color:#69CAD6"/>
		<stop  offset="1" style="stop-color:#5A55A5"/>
	</linearGradient>
	<path fill="url(#SVGID_5_)" d="M27.4725266,62.6573448c-1.1388607-0.179821-2.1278706-0.5694275-2.7572403-1.0789223
		l-11.0889111-9.5904083c-0.7492504-0.6593399-0.7492504-1.7382622,0-2.3976021l0.4495506-0.3896141
		c0.2697306-0.2397614,0.2697306-0.6593399,0-0.8990974l-1.3786221-1.1988029c-0.2397594-0.179821-0.5694304-0.2097893-0.7792206,0
		l-0.2397594,0.2097893C10.5994005,48.2717323,10,49.5004997,10,50.7892113s0.5994005,2.5174828,1.6783218,3.4765244
		l11.0889091,9.5904121c1.1088905,0.9590378,2.727272,1.5884094,4.5554447,1.8281708
		c0.3596382,0.0599442,0.6893101-0.2397614,0.6893101-0.5993958v-1.8281784
		C27.9820175,62.9570465,27.7722282,62.7172852,27.4725266,62.6573448z"/>
	<linearGradient id="SVGID_6_" gradientUnits="userSpaceOnUse" x1="56.9251862" y1="54.4901199" x2="65.6066895" y2="59.502388">
		<stop  offset="0" style="stop-color:#69CAD6"/>
		<stop  offset="1" style="stop-color:#5A55A5"/>
	</linearGradient>
	<path fill="url(#SVGID_6_)" d="M68.261734,47.3126869l-0.2397614-0.2097893c-0.2397614-0.179821-0.5694275-0.179821-0.7792206,0
		l-1.378624,1.1988029c-0.2697296,0.2397575-0.2697296,0.6593361,0,0.8990974l0.4495468,0.3896141
		c0.7492523,0.6593399,0.7492523,1.7382622,0,2.3976021l-11.0889091,9.5904083
		c-0.6293716,0.539463-1.5884132,0.9290733-2.7572403,1.0789223c-0.2997017,0.0599403-0.509491,0.2997017-0.509491,0.5993996
		v1.8281784c0,0.3596344,0.3296738,0.6293716,0.689312,0.5993958c1.8281746-0.2397614,3.4465523-0.8691254,4.5554428-1.8281708
		l11.088913-9.5904121c1.0789185-0.9290695,1.6783218-2.1578407,1.6783218-3.4765244
		C69.9400558,49.5004997,69.3406525,48.2717323,68.261734,47.3126869z"/>
</g>
<g>
	<linearGradient id="SVGID_7_" gradientUnits="userSpaceOnUse" x1="55.8542557" y1="41.0253754" x2="65.5666046" y2="46.6328011">
		<stop  offset="0" style="stop-color:#69CAD6"/>
		<stop  offset="1" style="stop-color:#5A55A5"/>
	</linearGradient>
	<path fill="url(#SVGID_7_)" d="M68.261734,34.4255791l-0.2397614-0.2097893c-0.2397614-0.179821-0.5694275-0.179821-0.7792206,0
		l-1.378624,1.1987991c-0.2697296,0.2397614-0.2697296,0.6593399,0,0.8991013l0.4495468,0.3896103
		c0.7492523,0.6593399,0.7492523,1.7382622,0,2.3976021l-11.0889091,9.5904083
		c-0.6293716,0.5394592-1.5884132,0.9290733-2.7572403,1.0789223c-0.0599403,0-0.0899124,0.0299721-0.1498528,0.0299721
		c-0.0599365,0-0.1198769,0.0299721-0.1498489,0.0599403l-2.0679283,1.1987991
		c-0.1798248,0.1198769-0.1798248,0.3596382,0,0.4795227l2.0679283,1.1988029
		c0.1198769,0.0599365,0.2697296,0.0899086,0.3896103,0.0599365c0.0299721,0,0.0299721,0,0.0599403,0
		c1.8281746-0.2397614,3.4465523-0.8691292,4.5554428-1.8281746l11.0889091-9.5904083
		c1.0789261-0.9290695,1.6783218-2.1578407,1.6783218-3.4765205C69.9400558,36.6133881,69.3406525,35.3846169,68.261734,34.4255791z
		"/>
	<linearGradient id="SVGID_8_" gradientUnits="userSpaceOnUse" x1="9.3874836" y1="37.8291664" x2="30.6975937" y2="50.1325645">
		<stop  offset="0" style="stop-color:#69CAD6"/>
		<stop  offset="1" style="stop-color:#5A55A5"/>
	</linearGradient>
	<path fill="url(#SVGID_8_)" d="M29.8401585,51.0589409l-2.067934-1.1988029
		c-0.0599384-0.0299721-0.1198788-0.0599365-0.1498489-0.0599365c-0.0299702-0.0299721-0.0899105-0.0299721-0.1498508-0.0299721
		c-1.1388607-0.179821-2.1278706-0.5694313-2.7572422-1.0789223l-11.0889091-9.5904121
		c-0.7492514-0.6593399-0.7492514-1.7382622,0-2.3976021l0.4495497-0.3896103c0.2697315-0.2397614,0.2697315-0.6593399,0-0.8991013
		l-1.3786211-1.1987991c-0.2397594-0.2097893-0.5694304-0.2097893-0.7792206,0l-0.2397604,0.2097893
		C10.5994005,35.3846169,10,36.6133881,10,37.9020996s0.5994005,2.5174828,1.6783218,3.4765244l11.0889091,9.5904083
		c1.1088905,0.9590416,2.727272,1.5884132,4.5554447,1.8281746c0.0299683,0,0.0299683,0,0.0599384,0
		c0.1198807,0.0299721,0.2697315,0,0.3896103-0.0599365l2.067934-1.1988029
		C30.0199795,51.4485512,30.0199795,51.1788216,29.8401585,51.0589409z"/>
</g>
</svg>
