<?xml version="1.0" standalone="no"?>
<!DOCTYPE svg PUBLIC "-//W3C//DTD SVG 20010904//EN"
 "http://www.w3.org/TR/2001/REC-SVG-20010904/DTD/svg10.dtd">
<svg version="1.0" xmlns="http://www.w3.org/2000/svg"
 width="700.000000pt" height="700.000000pt" viewBox="0 0 700.000000 700.000000"
 preserveAspectRatio="xMidYMid meet">
<metadata>
Created by potrace 1.14, written by Peter Selinger 2001-2017
</metadata>
<g transform="translate(0.000000,700.000000) scale(0.100000,-0.100000)"
fill="#000000" stroke="none">
<path d="M2260 6289 c-100 -11 -143 -18 -227 -40 -634 -165 -1183 -802 -1428
-1659 -20 -69 -43 -156 -51 -195 -9 -38 -17 -79 -20 -90 -11 -50 -28 -156 -39
-240 -4 -33 -9 -68 -11 -79 -25 -137 -25 -711 0 -866 3 -14 7 -47 10 -75 3
-27 8 -61 10 -75 3 -14 7 -41 10 -60 3 -19 12 -71 21 -115 9 -44 18 -91 21
-105 3 -14 18 -74 35 -135 183 -667 532 -1202 983 -1504 205 -138 458 -230
679 -247 115 -9 741 -9 822 0 84 9 216 43 295 75 l68 28 58 -25 c33 -14 91
-34 129 -45 67 -20 98 -21 695 -24 681 -3 684 -3 860 57 515 175 969 783 1179
1580 31 117 58 236 67 300 3 19 7 42 9 50 12 43 47 363 52 485 11 236 5 572
-12 700 -2 16 -9 73 -16 125 -6 52 -13 104 -15 115 -2 11 -13 72 -24 135 -60
331 -183 698 -331 980 -235 448 -576 780 -924 898 -158 54 -190 56 -775 56
-608 -1 -637 -3 -836 -70 l-107 -35 -46 19 c-176 74 -263 85 -701 86 -206 1
-404 -2 -440 -5z m670 -108 c0 -8 -150 -121 -870 -655 -118 -87 -233 -173
-255 -190 l-40 -31 31 55 c23 42 51 70 115 118 46 35 95 71 109 82 14 10 171
127 350 260 179 133 332 246 340 253 85 67 140 102 170 108 51 10 50 10 50 0z
m112 -1 c13 0 -16 -27 -83 -76 -101 -74 -237 -176 -289 -214 -14 -11 -95 -71
-180 -134 -370 -274 -627 -465 -703 -523 -45 -34 -83 -60 -85 -58 -2 1 7 23
20 49 23 48 34 57 318 267 63 47 221 164 350 260 129 97 282 210 340 253 154
113 161 119 191 143 33 28 69 43 87 37 8 -2 23 -4 34 -4z m-591 -11 c-40 -16
-142 -80 -219 -137 -438 -321 -785 -969 -918 -1712 -14 -75 -24 -141 -29 -190
-4 -30 -8 -66 -10 -80 -5 -35 -14 -133 -20 -211 l-4 -66 569 -1 c314 0 571 3
571 7 1 3 3 22 4 41 7 104 16 211 20 246 19 165 18 159 51 344 161 918 596
1556 1174 1723 131 38 137 39 430 44 l275 4 -80 -46 c-384 -219 -729 -709
-920 -1305 -38 -119 -100 -356 -111 -424 -3 -21 -8 -48 -10 -60 -10 -51 -33
-195 -38 -236 -3 -25 -11 -92 -17 -150 -14 -118 -18 -627 -6 -765 8 -96 34
-311 42 -360 3 -16 13 -68 21 -115 90 -499 305 -1007 567 -1338 146 -185 346
-360 502 -441 22 -11 33 -21 25 -21 -49 -4 -522 1 -555 5 -131 17 -287 76
-414 158 -88 58 -116 81 -221 187 -322 323 -563 862 -674 1510 -14 80 -28 172
-32 205 -3 33 -7 61 -9 63 -2 2 -762 4 -1067 2 l-68 0 0 -37 c0 -71 53 -347
101 -531 184 -702 556 -1262 1015 -1528 l79 -46 -115 5 c-796 35 -1492 810
-1714 1907 -47 230 -70 478 -70 735 1 206 10 335 40 545 14 103 38 228 65 335
221 891 751 1542 1389 1705 45 11 100 23 123 26 23 4 43 7 44 8 2 1 56 3 120
4 87 1 112 -1 94 -9z m679 2 c23 -6 3 -23 -195 -171 -121 -91 -238 -177 -260
-193 -76 -54 -184 -133 -317 -232 -129 -98 -585 -438 -673 -502 l-44 -32 20
47 c22 51 -12 23 534 430 170 126 686 510 820 609 73 55 74 55 115 44z m1564
-19 c-18 -15 -114 -88 -215 -163 -219 -162 -698 -517 -718 -533 -17 -13 -16
-12 41 75 20 31 43 59 50 62 11 5 248 177 288 210 8 7 119 90 247 184 230 171
238 176 333 192 3 0 -9 -12 -26 -27z m126 8 c-14 -11 -119 -90 -235 -175 -115
-86 -217 -161 -225 -168 -8 -7 -31 -23 -50 -37 -19 -14 -42 -30 -50 -37 -28
-24 -583 -433 -587 -433 -2 0 8 22 21 48 26 51 20 46 311 261 93 68 176 130
185 137 8 7 74 56 145 108 72 52 195 145 275 205 134 102 148 110 190 110 l45
0 -25 -19z m128 11 c2 -1 -72 -57 -165 -126 -92 -69 -179 -134 -193 -145 -14
-10 -79 -59 -145 -107 -66 -49 -281 -210 -479 -357 -197 -147 -360 -266 -362
-264 -1 2 7 23 19 47 18 37 56 70 225 195 214 158 759 564 802 596 226 171
224 169 260 165 19 -2 37 -4 38 -4z m-2138 -7 c0 -1 -24 -20 -52 -41 -29 -21
-60 -43 -68 -50 -8 -6 -132 -99 -275 -205 -143 -106 -264 -196 -270 -201 -5
-4 -46 -34 -90 -67 -44 -33 -84 -63 -90 -68 -5 -4 -32 -23 -59 -42 l-50 -34
35 48 c51 71 63 83 189 177 581 433 629 467 666 476 38 9 64 12 64 7z m2228
-9 c4 -3 -389 -297 -1078 -808 -96 -72 -224 -167 -285 -212 -141 -105 -138
-103 -123 -68 25 58 45 76 246 225 114 84 396 294 627 466 566 422 553 413
584 405 14 -3 27 -7 29 -8z m-1820 -1 c28 -8 41 4 -192 -169 -138 -101 -189
-134 -241 -150 -36 -12 -62 -18 -58 -14 24 24 450 339 458 339 6 0 20 -3 33
-6z m1902 -23 c-1 -3 -69 -55 -151 -116 -83 -60 -156 -114 -162 -120 -16 -14
-66 -51 -477 -356 -195 -144 -460 -341 -589 -436 -128 -96 -234 -173 -236
-171 -2 2 4 20 12 40 15 37 41 58 473 378 14 10 90 67 170 127 81 60 222 165
315 234 94 68 213 157 265 196 279 212 320 240 350 235 17 -2 30 -7 30 -11z
m-1807 -8 c4 -3 -13 -18 -39 -35 -62 -39 -129 -90 -179 -137 -67 -61 -98 -79
-155 -86 l-55 -7 40 31 c316 243 342 259 388 234z m1076 -113 c-96 -72 -181
-136 -189 -143 -8 -6 -51 -39 -95 -71 -44 -33 -115 -86 -157 -117 -43 -32 -78
-57 -78 -55 0 6 58 76 102 125 24 26 124 107 223 180 99 74 186 138 192 143
17 14 145 66 162 67 8 1 -64 -58 -160 -129z m-1759 106 c0 -2 -96 -75 -212
-162 -117 -87 -256 -190 -308 -229 -146 -109 -146 -107 -5 44 71 76 310 254
402 300 95 47 123 58 123 47z m2555 -5 c16 -7 -22 -39 -227 -191 -206 -153
-257 -187 -310 -203 -35 -10 -67 -23 -72 -28 -6 -5 -14 -9 -19 -9 -4 0 63 53
150 118 87 64 218 163 293 219 135 102 147 108 185 94z m68 -34 c16 -11 -7
-31 -191 -168 -183 -137 -214 -157 -255 -162 -26 -3 -47 -4 -47 -3 0 2 78 62
172 132 95 71 180 135 188 141 49 40 96 72 106 73 5 0 18 -6 27 -13z m80 -51
c-4 -11 -366 -279 -377 -279 -84 -1 -84 -2 20 75 55 40 149 110 209 155 99 74
112 81 130 69 11 -8 19 -16 18 -20z m51 -21 c23 -18 26 -14 -79 -91 -44 -32
-87 -64 -95 -71 -107 -86 -162 -119 -190 -115 -17 2 -30 7 -30 11 0 6 361 280
370 280 3 0 14 -6 24 -14z m59 -43 c16 -17 7 -25 -150 -141 -134 -99 -170
-121 -189 -117 -34 9 -30 19 19 55 23 18 98 74 167 126 69 52 128 94 131 94 3
1 13 -7 22 -17z m67 -62 c0 -4 -19 -20 -42 -36 -24 -16 -49 -35 -58 -41 -8 -7
-60 -46 -115 -87 -77 -56 -105 -72 -120 -66 -11 4 -20 12 -20 18 0 6 72 64
160 130 147 109 161 118 178 104 9 -8 17 -18 17 -22z m42 -26 c17 -16 10 -23
-135 -130 -83 -62 -157 -113 -163 -114 -5 0 -18 6 -27 13 -15 10 3 27 141 129
86 65 159 118 161 118 3 0 13 -7 23 -16z m49 -45 c26 -13 17 -24 -70 -86 -36
-26 -68 -49 -71 -52 -10 -12 -120 -92 -133 -97 -7 -2 -21 2 -32 10 -20 15 -20
15 0 30 11 8 76 57 145 109 69 52 129 95 133 96 5 1 17 -4 28 -10z m58 -79
c-8 -5 -72 -52 -142 -104 -71 -53 -132 -98 -135 -99 -4 -1 -17 5 -29 14 -23
16 -22 16 59 75 236 172 220 162 241 141 16 -16 17 -21 6 -27z m-2769 -19 c0
-5 -6 -14 -14 -20 -22 -18 -147 -214 -199 -311 -170 -315 -314 -809 -362
-1240 -6 -56 -15 -140 -21 -204 -3 -33 -7 -63 -9 -66 -2 -3 -97 -5 -212 -5
l-208 0 0 55 c0 30 5 93 12 140 7 47 15 108 19 135 3 28 8 53 10 56 2 3 6 20
9 37 18 104 70 291 117 422 166 463 411 807 671 944 92 49 187 77 187 57z
m2811 -7 c11 -14 11 -18 -2 -28 -52 -40 -219 -165 -245 -183 -31 -22 -32 -22
-49 -3 -16 18 -12 22 125 124 78 58 145 106 150 106 4 0 14 -7 21 -16z m42
-51 c14 -17 6 -25 -119 -118 -74 -55 -138 -101 -142 -103 -4 -1 -17 4 -27 12
-20 15 -20 15 2 31 12 9 75 56 140 105 65 49 121 89 124 90 3 0 13 -8 22 -17z
m-732 -58 c74 -19 194 -81 259 -133 317 -256 542 -746 639 -1394 39 -255 46
-715 16 -953 -2 -16 -7 -55 -10 -85 -3 -30 -8 -64 -10 -75 -3 -11 -7 -36 -10
-55 -2 -19 -7 -46 -10 -60 -2 -14 -10 -50 -16 -80 -5 -30 -22 -98 -35 -150
-148 -567 -411 -968 -728 -1110 -372 -167 -760 61 -1027 600 -25 50 -39 92
-36 104 3 12 21 62 41 112 47 121 90 272 125 441 28 134 34 168 47 283 3 30 7
66 10 80 6 41 18 290 17 390 0 105 -12 391 -17 399 -2 4 -7 40 -10 81 -4 41
-11 95 -16 120 -5 25 -12 63 -15 85 -19 136 -99 423 -163 588 l-30 77 62 123
c136 270 304 461 491 559 139 72 281 90 426 53z m767 -29 c-13 -12 -75 -59
-137 -105 -89 -64 -118 -81 -130 -74 -9 6 -16 15 -16 21 0 5 61 55 135 110
126 94 136 99 153 84 17 -15 17 -17 -5 -36z m49 -25 c10 -16 -2 -28 -115 -112
-160 -120 -151 -114 -170 -95 -14 14 -15 18 -2 31 19 18 263 195 270 195 3 0
10 -8 17 -19z m-3503 -58 c-16 -21 -39 -49 -51 -63 -13 -14 -23 -28 -23 -32 0
-4 -69 -58 -152 -120 -84 -62 -229 -170 -323 -240 -93 -70 -172 -123 -174
-117 -2 6 2 16 8 22 6 6 11 19 11 28 0 10 117 104 307 245 169 126 332 248
363 271 30 23 57 42 59 43 2 0 -9 -17 -25 -37z m3417 -119 c-135 -102 -136
-103 -154 -82 -17 20 -15 22 120 123 136 102 138 103 154 82 16 -20 13 -23
-120 -123z m169 46 c0 -7 -185 -147 -243 -185 -24 -16 -30 -16 -38 -4 -5 8 -8
19 -6 26 1 7 61 55 132 107 116 85 131 94 143 79 6 -9 12 -20 12 -23z m-1679
-12 c-17 -18 -41 -48 -54 -66 -22 -33 -717 -559 -717 -543 0 5 6 24 14 43 12
27 71 76 283 234 147 109 319 238 383 285 63 47 117 85 119 83 2 -1 -11 -18
-28 -36z m1707 -28 c10 -17 9 -22 -5 -35 -40 -33 -249 -185 -255 -185 -4 0
-12 9 -19 21 -9 17 -7 23 9 35 12 8 72 52 134 99 62 46 115 84 118 85 3 0 11
-9 18 -20z m30 -88 c-7 -8 -66 -54 -132 -103 -93 -69 -122 -86 -133 -78 -18
16 -16 36 5 48 9 5 69 48 132 95 102 76 116 84 127 69 10 -13 10 -20 1 -31z
m-3799 -22 c-24 -39 -60 -73 -148 -138 -64 -47 -192 -141 -284 -210 -92 -68
-171 -122 -174 -119 -7 8 17 70 31 79 6 4 144 106 306 227 162 120 296 218
298 216 2 -1 -11 -26 -29 -55z m3832 -11 c14 -26 18 -22 -136 -137 l-120 -90
-13 25 c-8 14 -12 26 -10 28 2 1 56 41 120 89 64 48 120 91 123 96 10 16 23
12 36 -11z m-1924 -61 c-37 -61 -104 -115 -439 -360 -13 -9 -62 -46 -109 -81
-116 -86 -110 -84 -96 -37 11 37 36 58 342 285 181 135 330 245 332 245 1 0
-12 -23 -30 -52z m1962 -18 c0 -8 -23 -31 -50 -50 -28 -19 -87 -63 -131 -98
-45 -34 -82 -61 -83 -60 -1 2 -7 13 -13 24 -10 20 -3 28 81 91 166 125 180
134 189 120 4 -6 8 -19 7 -27z m-3941 -27 c-29 -67 -58 -93 -308 -277 -145
-108 -265 -194 -266 -193 -2 2 3 19 10 40 11 32 50 65 292 246 153 115 280
210 281 210 2 1 -3 -11 -9 -26z m3967 -24 c8 -26 12 -22 -141 -136 l-122 -91
-11 25 c-7 14 -10 27 -9 28 27 24 264 195 269 195 4 0 11 -10 14 -21z m-2077
-91 c-19 -34 -65 -74 -213 -186 -277 -208 -370 -273 -373 -263 -2 5 3 23 10
39 9 23 80 81 258 213 135 100 265 197 289 215 24 19 46 32 48 30 3 -2 -6 -24
-19 -48z m2106 36 c12 -32 19 -25 -245 -221 -13 -10 -18 -8 -27 12 -10 22 -6
27 46 67 31 24 61 47 67 51 55 43 141 106 146 107 4 0 10 -7 13 -16z m-4083
-92 c-17 -33 -70 -77 -268 -226 -137 -101 -249 -181 -251 -177 -1 4 4 23 12
42 10 24 39 53 88 89 40 30 153 114 252 188 98 73 180 131 183 128 2 -2 -5
-22 -16 -44z m4109 17 c7 -11 10 -23 7 -25 -2 -3 -64 -49 -138 -104 -124 -92
-135 -97 -142 -78 -4 12 -6 25 -5 29 3 10 250 197 260 198 4 1 12 -8 18 -20z
m30 -84 c0 -11 -233 -189 -263 -201 -11 -4 -17 -1 -18 10 -1 9 -2 20 -3 25 -1
5 49 46 109 91 61 45 119 91 130 101 19 18 21 18 32 2 7 -9 13 -22 13 -28z
m-2226 -11 c-14 -33 -49 -63 -226 -194 -115 -85 -235 -174 -265 -198 -31 -23
-57 -41 -59 -39 -2 2 1 19 7 39 7 27 23 47 62 74 29 21 138 101 242 179 231
171 249 184 252 181 2 -1 -4 -20 -13 -42z m-1962 -39 c-16 -41 -38 -60 -252
-219 -129 -96 -237 -170 -238 -165 -14 37 16 66 256 244 136 102 248 185 249
185 2 0 -5 -20 -15 -45z m4210 -9 c2 -15 -29 -43 -131 -118 -74 -54 -138 -95
-142 -91 -25 26 -9 45 120 142 74 56 138 98 142 94 4 -5 9 -17 11 -27z m-2297
-73 c-12 -31 -37 -55 -113 -111 -53 -39 -166 -123 -251 -186 -85 -64 -157
-114 -159 -111 -2 2 -1 18 3 35 6 26 41 56 223 192 120 88 237 176 261 194 24
19 46 32 48 30 2 -2 -3 -21 -12 -43z m2317 12 c5 -21 -10 -36 -130 -124 -74
-55 -139 -98 -143 -95 -5 3 -9 15 -8 27 0 16 34 47 132 119 73 54 135 98 138
98 4 0 9 -11 11 -25z m-4267 -32 c-4 -10 -10 -26 -13 -36 -4 -17 -463 -370
-470 -362 -2 1 1 18 6 36 9 37 7 36 297 251 93 69 174 127 179 127 4 1 5 -7 1
-16z m4287 -40 c2 -18 -24 -42 -137 -127 l-140 -105 -7 27 c-4 15 -3 31 2 37
31 31 266 201 272 196 4 -4 9 -16 10 -28z m-2372 -43 c-12 -43 -12 -43 -128
-129 -59 -44 -168 -125 -242 -180 -74 -55 -136 -98 -138 -96 -2 2 -1 18 3 35
6 26 41 56 223 192 120 88 231 171 247 184 40 31 45 30 35 -6z m168 -77 c49
-158 81 -289 117 -488 3 -16 7 -48 10 -70 3 -22 7 -56 10 -75 21 -168 28 -586
12 -765 -26 -286 -73 -522 -150 -750 l-34 -100 -27 85 c-32 99 -80 289 -95
375 -6 33 -13 71 -16 84 -4 22 -19 129 -30 213 -20 153 -26 521 -12 726 11
158 50 416 86 563 39 158 82 299 92 299 4 0 21 -44 37 -97z m2226 55 c7 -28
17 -18 -145 -138 l-134 -99 -7 26 c-4 15 -6 28 -5 29 13 13 274 204 278 204 4
0 9 -10 13 -22z m-4354 -29 c-9 -31 -38 -56 -221 -193 -203 -151 -236 -172
-232 -151 0 6 3 19 5 29 2 12 76 75 183 154 99 74 200 150 224 168 24 19 46
33 47 31 2 -2 -1 -19 -6 -38z m4372 -34 c0 -8 1 -19 2 -24 1 -4 -63 -56 -141
-114 -141 -105 -141 -105 -148 -79 -5 21 -2 30 14 40 11 8 73 54 138 103 65
48 121 89 126 89 4 0 8 -7 9 -15z m-2445 -31 c-6 -20 -25 -46 -41 -59 -17 -12
-121 -89 -231 -171 -110 -82 -205 -152 -210 -156 -7 -4 -9 5 -7 28 4 31 17 44
135 132 72 53 181 134 242 179 60 45 113 82 117 83 3 0 1 -16 -5 -36z m-1958
-51 c-7 -21 -12 -41 -12 -44 1 -3 -4 -6 -10 -6 -7 0 -102 -66 -210 -147 -109
-81 -201 -145 -204 -143 -3 3 -2 19 2 36 5 25 44 58 222 191 119 88 218 158
221 156 2 -3 -2 -22 -9 -43z m4423 7 c4 -29 -2 -36 -135 -135 -77 -58 -143
-105 -148 -105 -5 0 -9 13 -9 29 0 26 16 41 143 135 78 58 143 106 143 106 1
0 4 -14 6 -30z m-2499 -78 c-8 -20 -443 -352 -463 -352 -5 0 -10 3 -10 8 1 33
23 60 99 116 47 35 151 112 231 171 141 104 163 113 143 57z m2515 -9 c2 -16
-22 -39 -110 -104 -62 -46 -119 -89 -126 -96 -8 -7 -22 -18 -32 -23 -15 -8
-19 -5 -24 16 -4 15 -6 28 -4 29 27 27 276 204 283 202 6 -2 11 -13 13 -24z
m-4462 -5 c-3 -13 -6 -28 -6 -35 0 -6 -24 -28 -52 -49 -29 -21 -115 -85 -191
-141 -155 -116 -194 -143 -185 -127 4 6 8 27 10 46 1 20 7 34 12 33 6 -2 99
63 206 145 107 82 199 149 204 149 4 1 6 -9 2 -21z m1928 -76 c-6 -28 -38 -55
-230 -197 -123 -91 -225 -165 -228 -165 -3 0 -4 14 -3 30 3 23 15 39 48 62 24
18 46 35 49 39 3 3 46 35 95 71 50 36 130 95 179 132 49 36 91 65 93 63 2 -2
0 -18 -3 -35z m2552 12 c5 -18 2 -29 -7 -35 -8 -4 -75 -53 -149 -109 l-135
-101 -3 32 c-2 19 2 35 10 40 7 4 69 50 138 103 69 52 128 95 132 95 4 1 11
-11 14 -25z m-4501 -46 c-3 -17 -8 -34 -10 -38 -3 -5 -114 -88 -369 -276 l-42
-31 6 37 c5 35 15 46 130 131 69 50 161 118 204 151 43 32 81 58 83 58 2 0 1
-14 -2 -32z m4515 -39 c0 -16 -246 -211 -284 -225 -12 -5 -16 0 -16 22 1 25
19 42 143 135 138 103 156 111 157 68z m-2586 -26 c-5 -25 -41 -56 -224 -192
-120 -88 -220 -161 -223 -161 -5 0 0 61 5 65 2 1 30 21 63 45 33 24 131 97
219 162 87 65 160 117 162 115 2 -2 1 -17 -2 -34z m-1951 -41 c-6 -25 -46 -60
-202 -176 -107 -81 -197 -146 -201 -146 -4 0 -5 14 -2 31 4 25 24 44 121 116
64 47 154 115 201 149 46 35 86 62 88 60 2 -2 0 -18 -5 -34z m4549 -2 c3 -16
2 -30 -1 -30 -3 0 -69 -47 -146 -105 -77 -57 -144 -105 -148 -105 -5 0 -7 13
-5 30 3 24 25 45 143 134 77 58 143 106 146 106 4 0 9 -13 11 -30z m-2649
-108 c-90 -77 -399 -299 -404 -290 -20 31 8 61 185 190 99 73 183 135 186 138
3 3 19 15 35 27 l30 22 3 -27 c3 -21 -4 -34 -35 -60z m2659 33 c5 -22 -11 -37
-142 -135 -81 -60 -150 -110 -154 -110 -3 0 -6 13 -6 30 0 21 8 35 31 52 18
13 82 60 143 105 61 46 114 83 117 83 4 0 9 -11 11 -25z m-4574 -16 c-2 -27
-18 -42 -133 -126 -71 -53 -136 -101 -143 -106 -7 -6 -31 -11 -53 -12 -33 -2
-38 0 -27 11 22 22 342 263 351 263 4 1 6 -13 5 -30z m1938 -60 c-2 -18 -8
-35 -13 -39 -4 -3 -42 -31 -83 -62 -41 -30 -128 -94 -194 -142 -141 -104 -146
-107 -146 -72 0 22 31 49 213 186 116 87 216 159 220 160 5 0 6 -14 3 -31z
m2645 -26 c-4 -7 -73 -62 -154 -122 -104 -77 -147 -105 -148 -93 0 9 -2 25 -4
35 -2 9 0 17 4 17 4 0 72 49 151 109 132 98 146 107 151 87 3 -11 3 -26 0 -33z
m-4593 -5 c-2 -28 -15 -42 -81 -92 -66 -50 -86 -60 -124 -61 -26 -2 -41 1 -35
7 10 10 236 177 240 178 2 0 2 -15 0 -32z m4600 -82 c-2 -2 -70 -54 -153 -115
l-150 -113 -3 32 c-2 22 2 36 15 45 10 7 79 59 153 114 l135 101 3 -31 c2 -17
2 -32 0 -33z m-2668 22 c-1 -30 -10 -40 -95 -103 -52 -38 -105 -78 -117 -87
-66 -49 -185 -135 -195 -142 -9 -5 -13 1 -13 22 0 25 11 38 68 80 37 28 130
98 207 156 77 58 141 106 143 106 1 0 2 -15 2 -32z m-1953 -75 c-17 -18 -101
-31 -96 -15 2 5 27 28 54 50 l50 40 3 -30 c2 -17 -3 -37 -11 -45z m4633 5 c-1
-30 -10 -40 -111 -113 -61 -44 -130 -94 -152 -112 -42 -33 -59 -30 -53 10 2
13 298 247 313 247 2 0 3 -15 3 -32z m-2688 -23 c-4 -32 -18 -45 -176 -163
-259 -194 -246 -186 -238 -135 2 18 18 39 45 59 136 101 370 274 371 274 1 0
0 -16 -2 -35z m2692 -57 c4 -25 -8 -36 -144 -137 -82 -61 -155 -114 -164 -117
-11 -4 -14 1 -12 23 2 23 28 47 157 144 85 65 155 116 156 115 1 -1 4 -13 7
-28z m-2696 -31 c-2 -30 -18 -44 -205 -184 l-203 -152 0 33 c0 23 7 38 23 50
12 9 103 77 202 151 99 74 181 135 183 135 1 0 2 -15 0 -33z m2705 -53 c4 -24
-9 -36 -156 -145 -100 -75 -163 -116 -167 -109 -19 30 8 59 154 167 83 62 154
112 157 113 4 0 9 -12 12 -26z m-2709 -26 c-1 -13 -3 -28 -3 -34 -1 -5 -31
-32 -68 -59 -38 -27 -72 -53 -78 -58 -5 -4 -64 -48 -130 -97 l-120 -89 -3 30
c-2 21 2 35 15 44 10 8 99 74 198 149 99 74 183 135 186 135 3 1 5 -9 3 -21z
m2708 -45 c5 -23 -11 -60 -28 -67 -8 -3 -67 -45 -131 -94 -65 -49 -131 -97
-146 -107 l-28 -18 6 34 c3 18 8 36 11 38 15 15 300 230 306 230 3 1 8 -7 10
-16z m-2712 -55 c-1 -31 -13 -42 -192 -173 -105 -77 -196 -142 -201 -144 -4
-2 -7 11 -5 29 3 28 23 47 193 175 105 79 193 144 198 144 4 1 7 -14 7 -31z
m2711 -48 c-5 -25 -35 -52 -166 -150 l-160 -119 -3 31 c-2 19 2 34 10 39 7 4
78 57 158 118 80 60 150 110 156 110 8 1 9 -10 5 -29z m-2711 -39 c0 -25 -20
-44 -191 -170 -105 -79 -193 -140 -195 -138 -3 2 -6 14 -9 26 -4 23 -1 25 240
205 77 58 143 105 148 105 4 1 7 -12 7 -28z m2715 -47 c1 -21 -28 -46 -166
-149 -92 -69 -170 -125 -173 -125 -15 0 6 67 27 82 136 104 303 224 307 221 3
-3 5 -16 5 -29z m-2715 -36 c0 -29 -9 -39 -63 -79 -34 -26 -114 -85 -178 -132
-63 -47 -121 -87 -128 -89 -8 -2 -15 7 -17 22 -2 22 18 40 167 150 94 69 180
133 191 143 28 23 28 22 28 -15z m2710 -47 c0 -26 -18 -42 -167 -154 -93 -69
-171 -123 -174 -121 -4 2 -4 17 0 32 5 23 40 55 166 150 88 67 163 121 168
121 4 1 7 -12 7 -28z m-2706 -42 c-1 -17 -4 -32 -6 -33 -1 -2 -86 -65 -188
-141 l-185 -137 -3 32 c-2 22 2 36 15 45 10 7 94 70 188 139 93 69 172 126
175 126 4 0 5 -14 4 -31z m2701 -44 c-1 -19 -3 -36 -6 -38 -2 -2 -75 -56 -161
-120 -182 -136 -192 -141 -182 -101 3 16 12 35 19 42 9 10 324 249 331 252 1
0 0 -16 -1 -35z m-2695 -34 c0 -25 -13 -39 -92 -97 -51 -38 -100 -74 -108 -81
-63 -49 -166 -123 -172 -123 -5 0 -8 13 -8 28 0 24 12 37 78 84 42 31 86 63
97 72 71 56 191 145 198 145 4 1 7 -12 7 -28z m2690 -55 c0 -32 -8 -40 -172
-162 -95 -71 -176 -131 -180 -132 -5 -2 -6 7 -4 20 3 12 5 28 5 35 1 7 54 51
119 99 64 48 142 106 172 130 30 24 56 43 58 44 1 0 2 -15 2 -34z m-2680 -25
c0 -26 -19 -43 -184 -165 -101 -75 -187 -136 -190 -136 -3 0 -6 13 -6 29 0 20
8 34 26 46 14 9 33 23 42 30 47 39 298 224 305 224 4 1 7 -12 7 -28z m2674
-53 c-1 -13 -3 -28 -3 -34 -1 -10 -76 -67 -358 -277 -10 -7 -12 -2 -7 24 6 34
15 44 70 86 111 84 298 223 299 223 1 0 1 -10 -1 -22z m-2674 -27 c0 -25 -14
-39 -102 -105 -57 -43 -110 -83 -118 -89 -101 -79 -133 -99 -141 -86 -5 8 -9
20 -9 26 0 10 353 283 366 283 2 0 4 -13 4 -29z m10 -81 c0 -24 -10 -37 -57
-72 -32 -24 -64 -49 -73 -55 -58 -47 -222 -165 -225 -162 -2 3 -5 16 -7 30 -3
24 15 40 172 158 96 72 178 131 183 131 4 0 7 -13 7 -30z m2655 13 c-2 -10 -4
-23 -4 -30 -1 -12 -372 -295 -379 -289 -2 2 1 19 5 37 8 27 38 55 183 165 96
72 180 132 187 133 6 1 10 -7 8 -16z m-2645 -90 c0 -23 -13 -37 -63 -74 -34
-25 -114 -85 -179 -132 l-116 -86 -7 27 c-7 29 4 41 90 100 22 15 91 64 154
110 62 45 115 82 117 82 2 0 4 -12 4 -27z m2630 -19 c-8 -35 -18 -46 -70 -82
-14 -9 -90 -65 -169 -124 -79 -60 -146 -106 -148 -105 -2 2 0 18 3 36 6 27 34
52 193 171 102 77 189 140 192 140 4 0 3 -16 -1 -36z m-4889 -25 c-29 -24 -37
-24 -44 0 -4 16 1 20 27 23 42 4 45 0 17 -23z m137 16 c-27 -28 -153 -113
-159 -109 -5 3 -9 15 -9 28 0 35 74 84 129 85 24 1 42 -1 39 -4z m-8 -94 c-74
-55 -136 -98 -138 -97 -1 2 -5 15 -7 29 -4 22 7 34 91 96 87 64 102 71 143 71
l46 0 -135 -99z m193 79 c4 -15 -13 -32 -82 -82 -47 -34 -117 -86 -155 -115
-38 -29 -73 -53 -78 -53 -5 0 -8 13 -6 29 3 25 25 46 143 134 77 58 147 106
156 106 9 1 19 -8 22 -19z m548 3 c0 -10 2 -27 4 -38 2 -11 7 -42 10 -70 4
-27 10 -68 15 -90 5 -22 12 -56 15 -75 31 -183 134 -522 219 -725 83 -196 209
-420 317 -561 21 -28 39 -54 39 -57 0 -13 -149 36 -209 69 -332 182 -632 664
-782 1257 -31 124 -59 260 -59 290 0 16 17 17 215 17 198 0 215 -1 216 -17z
m1405 -36 c4 -24 -12 -38 -172 -157 -97 -72 -177 -130 -179 -128 -1 2 -6 13
-9 25 -6 18 5 30 66 77 145 110 283 212 286 210 2 -1 5 -13 8 -27z m2606 -32
c-5 -40 -1 -36 -256 -225 -82 -61 -151 -109 -153 -107 -2 2 2 21 9 41 11 30
44 59 208 181 107 79 195 145 195 145 1 0 -1 -16 -3 -35z m-4542 -9 c0 -17
-34 -47 -147 -131 -82 -60 -151 -113 -155 -119 -6 -10 -9 -6 -22 38 -3 9 43
49 121 107 205 152 203 152 203 105z m1953 -32 c4 -24 -10 -37 -170 -156 -96
-71 -172 -132 -169 -135 6 -6 80 46 231 161 55 42 102 76 106 76 4 0 9 -11 11
-25 5 -22 -12 -38 -164 -150 -93 -69 -173 -123 -179 -120 -5 4 -9 16 -9 28 -1
12 -7 36 -14 52 l-13 30 176 132 c97 72 179 132 182 132 4 1 9 -11 12 -25z
m-1944 -49 c0 -30 -301 -250 -312 -229 -5 8 -7 21 -5 29 5 22 302 242 310 230
4 -5 7 -19 7 -30z m4514 -17 c-3 -18 -6 -33 -7 -34 -6 -5 -333 -248 -372 -277
l-52 -37 12 41 c12 38 29 54 212 190 109 82 202 149 206 149 4 0 5 -15 1 -32z
m-4493 -59 c0 -10 -40 -47 -92 -85 -51 -38 -97 -72 -103 -77 -68 -53 -106 -79
-109 -76 -2 2 -6 14 -10 25 -6 19 11 35 116 115 68 51 125 96 128 99 3 3 16
14 30 23 26 18 40 9 40 -24z m1952 -26 c3 -26 -12 -39 -167 -155 -93 -69 -173
-124 -176 -122 -9 5 -18 54 -10 54 3 0 20 11 36 25 57 46 300 224 307 225 4 0
8 -12 10 -27z m2518 -15 c-9 -31 -37 -55 -217 -189 -113 -85 -212 -157 -218
-161 -27 -17 20 79 49 100 46 33 169 125 181 134 6 5 42 32 80 60 39 28 72 54
75 58 7 8 55 38 57 36 1 -1 -2 -18 -7 -38z m-4468 -54 c-9 -6 -77 -57 -151
-113 -133 -100 -150 -107 -151 -61 0 16 12 26 200 165 l104 77 8 -28 c5 -21 3
-31 -10 -40z m1970 -9 c3 -16 -31 -46 -167 -147 -93 -70 -174 -123 -178 -118
-26 24 4 56 163 174 91 68 168 120 172 117 3 -3 8 -15 10 -26z m2473 -38 c-6
-31 -22 -47 -133 -128 -70 -52 -131 -97 -137 -102 -21 -18 -198 -147 -201
-147 -2 0 5 19 14 43 16 36 47 64 238 208 120 91 220 165 222 163 2 -1 0 -18
-3 -37z m-4415 24 c0 -5 2 -16 5 -23 4 -10 -43 -51 -144 -126 -82 -62 -152
-112 -154 -112 -3 0 -7 12 -10 26 -4 23 6 34 97 101 101 75 134 99 171 127 23
18 35 20 35 7z m1962 -56 c3 -20 -12 -33 -259 -214 -40 -29 -73 -57 -73 -62 0
-12 38 15 211 144 124 93 125 94 136 70 11 -23 4 -29 -160 -153 l-172 -129
-17 47 c-9 26 -17 54 -17 63 -1 9 64 63 156 130 86 63 162 119 167 126 13 13
23 6 28 -22z m-1940 -28 c4 -20 -15 -38 -139 -130 -78 -59 -147 -107 -152
-107 -5 0 -11 9 -14 20 -4 16 22 40 141 130 81 60 150 110 153 110 4 0 9 -10
11 -23z m4368 -26 c0 -39 -38 -74 -252 -233 -128 -96 -239 -177 -246 -182 -7
-4 -2 14 12 41 20 41 45 65 143 136 65 47 165 122 223 166 105 80 120 89 120
72z m-4348 -45 c4 -20 -14 -37 -137 -130 -78 -58 -145 -106 -149 -106 -4 0
-10 10 -15 22 -7 20 6 33 137 130 80 60 148 108 152 108 4 0 10 -11 12 -24z
m1957 -51 c0 -14 -48 -55 -162 -138 -148 -109 -162 -117 -174 -101 -7 10 -12
21 -11 25 2 5 77 64 168 132 162 122 180 130 179 82z m-1936 -17 c3 -12 4 -25
1 -29 -8 -14 -274 -209 -284 -209 -6 0 -10 4 -10 9 0 5 -2 16 -5 23 -5 13 90
91 250 206 38 27 41 27 48 0z m4294 -14 c-6 -20 -25 -47 -42 -60 -89 -71 -510
-381 -513 -379 -2 2 11 25 28 53 22 37 61 73 143 134 62 45 117 87 124 93 6 5
37 28 67 50 31 22 86 63 124 92 37 29 70 52 74 53 3 0 1 -16 -5 -36z m-2335
-14 c0 -11 1 -24 2 -29 1 -8 -232 -187 -306 -235 -25 -16 -26 -16 -33 11 -5
22 -2 31 16 43 12 8 85 63 163 122 77 59 144 107 149 108 4 0 8 -9 9 -20z
m-1929 -40 c4 -17 -19 -39 -135 -125 -77 -58 -143 -105 -148 -105 -10 0 -24
39 -17 46 23 23 283 211 288 208 4 -2 9 -13 12 -24z m1959 -41 c5 -24 -321
-266 -333 -248 -5 8 -8 20 -6 27 3 17 320 252 329 244 3 -4 8 -14 10 -23z
m2262 -25 c-11 -27 -33 -51 -72 -80 -31 -22 -172 -127 -314 -232 -141 -106
-259 -192 -262 -192 -4 0 3 10 15 23 11 12 34 41 51 65 20 29 117 108 311 252
154 115 282 208 284 207 1 -2 -4 -21 -13 -43z m-4195 -28 c-2 -2 -67 -49 -144
-105 l-139 -103 -9 27 c-5 14 -7 27 -6 28 2 2 38 28 79 58 41 31 104 78 140
103 l64 48 9 -27 c5 -14 7 -28 6 -29z m1960 -3 c11 -21 2 -30 -156 -148 -140
-104 -169 -122 -175 -107 -12 31 -8 38 40 73 26 18 54 39 62 46 30 25 215 161
216 160 1 -1 6 -12 13 -24z m-1942 -36 c10 -22 3 -29 -123 -123 -74 -54 -139
-100 -144 -102 -5 -2 -14 6 -19 17 -10 18 2 30 126 125 76 57 141 105 144 105
3 1 11 -9 16 -22z m1968 -28 c4 -12 3 -25 -2 -29 -4 -5 -78 -61 -163 -124
-151 -114 -161 -118 -172 -79 -3 10 306 250 324 252 4 1 10 -8 13 -20z m2165
-21 c-17 -39 -61 -79 -170 -155 -14 -10 -116 -85 -226 -168 -111 -82 -356
-265 -545 -405 -188 -140 -392 -292 -453 -337 -61 -46 -120 -83 -131 -83 -56
1 -39 20 123 140 92 68 226 168 297 221 72 53 164 117 205 142 42 25 107 73
145 106 39 34 212 167 385 297 173 130 329 247 345 260 42 33 47 30 25 -18z
m-4090 -29 c0 -5 -38 -36 -85 -71 -47 -35 -111 -82 -143 -105 -56 -41 -64 -42
-74 -6 -2 6 60 59 137 117 125 94 141 103 153 89 6 -9 12 -20 12 -24z m1968
-43 c-2 -1 -74 -55 -161 -120 -132 -99 -160 -116 -173 -105 -8 7 -14 18 -12
26 2 7 75 67 163 133 l160 119 13 -26 c8 -13 12 -26 10 -27z m-1942 -33 c-3
-3 -65 -50 -138 -104 -119 -88 -134 -96 -146 -81 -7 9 -11 20 -9 25 1 4 63 54
137 110 l135 103 13 -24 c8 -13 11 -26 8 -29z m4013 -21 c-16 -37 -34 -58 -87
-97 -37 -27 -152 -113 -257 -190 -104 -78 -273 -203 -375 -279 -102 -75 -192
-142 -200 -149 -8 -7 -108 -81 -222 -166 -115 -84 -206 -156 -203 -160 2 -5
-18 -4 -45 2 l-49 9 157 116 c86 63 243 179 347 257 105 78 352 262 550 409
198 147 367 273 375 280 27 25 29 17 9 -32z m-2039 4 c0 -11 -319 -252 -323
-245 -2 2 -8 11 -15 21 -14 18 2 32 212 186 77 56 102 70 112 61 8 -6 14 -17
14 -23z m-1948 -48 c-4 -3 -65 -50 -136 -103 -120 -90 -131 -96 -143 -79 -7
10 -13 23 -12 28 0 6 62 55 137 108 134 95 137 97 149 75 6 -12 9 -25 5 -29z
m1996 -27 l30 -48 -160 -119 c-88 -66 -163 -119 -165 -119 -3 0 -12 9 -19 21
-13 19 -9 24 74 84 48 35 92 68 97 72 6 5 38 29 73 54 34 25 62 51 62 56 0 6
-8 4 -19 -3 -76 -55 -187 -136 -243 -178 -65 -49 -68 -50 -79 -30 -6 11 -8 23
-5 26 15 15 312 233 318 233 3 0 20 -22 36 -49z m-1958 -23 c0 -4 -44 -40 -97
-80 -54 -40 -100 -75 -103 -78 -13 -13 -72 -51 -74 -48 -29 35 -26 39 113 143
119 89 138 100 148 86 7 -9 13 -19 13 -23z m3887 -34 c-23 -49 -32 -56 -717
-565 -107 -80 -259 -193 -338 -252 -119 -89 -148 -106 -176 -105 -45 2 -38 13
37 68 34 25 177 130 317 234 458 341 713 530 805 598 50 37 91 68 92 68 2 0
-7 -21 -20 -46z m-3860 -7 c10 -22 3 -29 -115 -116 -69 -51 -131 -95 -138 -98
-7 -2 -17 4 -23 15 -11 21 10 43 119 120 25 18 65 48 90 67 25 19 48 35 51 35
3 0 11 -10 16 -23z m1982 -26 c9 -17 -3 -29 -97 -98 -239 -177 -220 -165 -232
-144 -5 11 -10 22 -10 25 0 2 32 27 70 55 39 28 78 58 88 66 38 32 157 115
164 115 4 0 12 -9 17 -19z m-1941 -52 c-2 -5 -61 -51 -131 -104 -104 -78 -131
-94 -143 -84 -23 19 -17 33 29 66 228 166 221 162 235 145 7 -9 11 -19 10 -23z
m1990 -20 c-2 -5 -282 -218 -311 -236 -10 -6 -37 16 -37 31 0 6 15 21 33 34
17 13 88 65 157 117 116 86 126 92 143 77 10 -8 16 -19 15 -23z m1755 -40
c-30 -54 -35 -58 -683 -539 -129 -96 -237 -177 -240 -180 -22 -25 -76 -50
-116 -55 l-49 -5 30 25 c17 14 158 120 315 236 157 117 374 278 482 359 109
81 208 154 220 164 13 9 32 23 43 31 11 8 21 15 23 15 2 0 -9 -23 -25 -51z
m-3703 -1 c0 -3 -59 -49 -131 -103 -107 -79 -133 -94 -145 -84 -8 7 -14 18
-12 26 2 7 61 56 132 108 118 87 130 93 142 77 7 -9 14 -20 14 -24z m1981 6
c17 -16 9 -24 -148 -140 -161 -120 -167 -123 -181 -103 -8 11 -12 22 -11 24
14 12 314 235 318 235 2 0 13 -7 22 -16z m-1950 -45 c9 -17 7 -23 -8 -34 -10
-8 -70 -52 -133 -98 -102 -75 -116 -83 -127 -68 -7 9 -13 19 -13 23 0 8 250
197 262 198 4 0 12 -9 19 -21z m1982 -47 c-15 -13 -39 -31 -53 -40 -14 -10
-70 -51 -125 -93 -55 -41 -106 -79 -113 -83 -11 -7 -42 14 -42 28 0 3 73 60
162 126 155 115 162 119 181 103 18 -17 18 -18 -10 -41z m-1943 -7 c16 -19 28
-6 -121 -119 -114 -86 -125 -93 -141 -78 -10 8 -18 18 -18 21 1 3 24 23 53 44
29 21 85 63 126 93 41 30 77 54 81 54 4 0 13 -7 20 -15z m2004 -3 c16 -18 13
-22 -56 -74 -40 -30 -89 -65 -108 -78 -19 -13 -37 -27 -40 -30 -21 -24 -112
-78 -124 -74 -36 14 -16 36 142 152 91 67 167 122 168 122 0 0 8 -8 18 -18z
m1515 -79 c-26 -36 -74 -82 -123 -118 -45 -33 -193 -143 -331 -245 -137 -103
-256 -190 -262 -194 -22 -12 -114 -34 -111 -25 3 7 291 224 753 566 60 45 111
80 113 78 2 -2 -16 -29 -39 -62z m-3477 30 c15 -17 7 -25 -108 -111 -69 -51
-132 -92 -141 -90 -33 6 -23 27 32 70 32 23 87 67 123 95 37 29 70 53 73 53 3
0 13 -8 21 -17z m2012 2 c12 -9 16 -18 10 -24 -32 -30 -323 -241 -331 -241 -5
0 -18 9 -28 20 -10 11 -13 20 -7 20 7 0 20 6 29 14 44 36 299 225 303 225 3 0
14 -6 24 -14z m66 -61 c-4 -8 -226 -175 -308 -233 -28 -20 -34 -21 -47 -7 -8
8 -15 17 -15 20 0 3 75 62 167 131 153 114 169 123 188 111 11 -7 18 -17 15
-22z m-2020 -7 c0 -7 -35 -37 -76 -67 -68 -49 -94 -69 -130 -98 -33 -28 -51
-31 -68 -13 -16 18 -11 23 110 114 105 79 130 94 146 86 10 -5 18 -15 18 -22z
m2074 -20 c16 -12 0 -26 -160 -145 -170 -125 -179 -131 -197 -115 -18 17 -17
18 11 43 17 14 55 43 86 65 31 22 67 48 79 57 159 120 151 117 181 95z m-2030
-46 c-5 -4 -62 -46 -126 -94 -113 -83 -117 -85 -137 -68 -20 17 -19 18 52 72
39 30 98 73 131 96 59 42 60 42 74 22 8 -11 10 -24 6 -28z m2090 13 c25 -10
19 -20 -36 -60 -29 -22 -57 -42 -63 -47 -40 -33 -240 -177 -246 -177 -3 0 -12
7 -19 16 -11 12 -11 17 1 29 26 25 330 245 339 245 5 0 15 -3 24 -6z m-2026
-50 c-2 -1 -52 -39 -113 -83 -60 -45 -117 -87 -126 -95 -13 -11 -19 -10 -37 5
-22 17 -22 17 45 65 38 26 70 51 73 54 3 3 32 25 64 48 56 40 60 41 78 25 10
-9 17 -17 16 -19z m2104 12 c15 -11 -3 -28 -170 -153 -183 -137 -188 -139
-211 -124 l-24 15 29 23 c96 75 341 253 349 252 6 0 18 -6 27 -13z m1087 -23
c-134 -150 -292 -276 -439 -348 -66 -32 -100 -46 -100 -41 0 2 33 28 73 57 39
30 77 57 82 62 9 7 173 129 350 259 60 45 66 47 34 11z m-645 -13 c-21 -16
-127 -95 -234 -174 -107 -80 -200 -149 -205 -153 -64 -52 -86 -63 -110 -57
-14 3 -25 9 -25 13 0 4 108 88 241 186 194 145 252 183 298 196 78 23 79 23
35 -11z m-352 12 c13 -5 -23 -37 -150 -132 -243 -182 -230 -174 -260 -161
l-25 12 24 19 c171 134 358 269 374 269 11 0 28 -3 37 -7z m-2152 -17 c16 -19
25 -10 -123 -118 -104 -78 -119 -86 -137 -75 -11 7 -19 17 -17 23 5 13 239
185 253 185 6 0 17 -7 24 -15z m2251 -5 c11 -6 25 -7 32 -3 16 10 100 12 90 2
-8 -7 -157 -118 -370 -274 -94 -70 -103 -74 -127 -64 -29 14 -33 24 -12 32 23
9 397 290 392 295 -3 2 -38 -20 -78 -50 -316 -237 -348 -259 -368 -248 -11 6
-20 14 -19 18 1 16 395 301 417 301 13 1 32 -4 43 -9z m-2192 -34 c23 -13 20
-16 -105 -109 -70 -54 -133 -97 -140 -97 -15 0 -39 28 -31 36 12 13 242 183
247 183 3 0 16 -6 29 -13z m61 -36 c19 -12 21 -9 -124 -118 -107 -80 -122 -89
-143 -79 -13 5 -23 13 -23 16 1 9 252 191 264 191 6 0 18 -5 26 -10z m83 -50
c-10 -10 -244 -183 -259 -193 -6 -3 -21 1 -33 9 -22 16 -20 18 111 114 123 91
134 97 161 87 16 -5 25 -13 20 -17z m55 -11 l32 -11 -133 -97 c-164 -121 -151
-113 -181 -100 -25 12 -23 14 112 115 75 57 137 103 138 104 1 0 15 -5 32 -11z
m122 -26 c0 -1 -66 -52 -147 -113 -144 -109 -165 -118 -195 -91 -4 4 54 53
130 109 121 90 141 102 175 100 20 -1 37 -3 37 -5z m77 -30 c-19 -16 -92 -70
-162 -122 -119 -88 -128 -93 -158 -84 l-32 9 150 112 c137 102 154 111 194
112 l44 0 -36 -27z m76 -1 c15 -16 7 -24 -127 -125 -138 -103 -171 -119 -203
-99 -8 5 41 48 145 125 86 64 160 117 163 117 3 0 13 -8 22 -18z m49 -49 c17
-15 12 -21 -106 -108 -107 -80 -128 -91 -155 -87 -17 2 -31 7 -31 11 1 6 261
200 269 201 3 0 13 -7 23 -17z m56 -49 c22 -15 21 -16 -73 -85 -86 -64 -98
-70 -136 -67 l-42 3 109 82 c60 45 111 82 114 82 3 1 16 -6 28 -15z m61 -48
c16 -19 -79 -82 -139 -91 -52 -8 -51 -6 35 59 63 48 85 55 104 32z m51 -36 c0
-4 -11 -11 -24 -14 -13 -3 -32 -9 -43 -12 -11 -4 -6 4 12 19 27 23 55 26 55 7z"/>
</g>
</svg>
