<?xml version="1.0" standalone="no"?>
<!DOCTYPE svg PUBLIC "-//W3C//DTD SVG 20010904//EN"
 "http://www.w3.org/TR/2001/REC-SVG-20010904/DTD/svg10.dtd">
<svg version="1.0" xmlns="http://www.w3.org/2000/svg"
 width="1001.000000pt" height="1001.000000pt" viewBox="0 0 1001.000000 1001.000000"
 preserveAspectRatio="xMidYMid meet">
<metadata>
Created by potrace 1.14, written by Peter Selinger 2001-2017
</metadata>
<g transform="translate(0.000000,1001.000000) scale(0.100000,-0.100000)"
fill="#000000" stroke="none">
<path d="M5038 9414 c-2 -1 -27 -5 -57 -9 -30 -4 -62 -8 -71 -10 -9 -2 -41 -6
-71 -10 -30 -4 -56 -8 -59 -10 -3 -1 -30 -6 -61 -9 -31 -4 -67 -9 -80 -12 -24
-4 -60 -9 -141 -19 -24 -3 -68 -9 -98 -15 -30 -5 -71 -11 -90 -14 -19 -3 -84
-12 -145 -21 -60 -9 -126 -18 -145 -21 -19 -3 -46 -7 -60 -9 -14 -3 -43 -7
-65 -11 -94 -13 -170 -25 -172 -28 -2 -1 -6 -128 -9 -282 -3 -153 -7 -346 -9
-429 -2 -82 -4 -182 -4 -220 l-1 -71 -87 -39 c-88 -38 -246 -119 -306 -156
-18 -10 -41 -23 -52 -28 -11 -5 -58 -34 -104 -65 -47 -31 -89 -56 -94 -56 -5
0 -193 115 -417 255 -224 140 -414 257 -422 260 -15 6 -74 -58 -380 -408 -9
-10 -46 -51 -81 -91 -35 -39 -86 -96 -112 -126 -27 -30 -54 -60 -59 -66 -6 -6
-38 -42 -71 -79 -33 -38 -65 -73 -70 -79 -6 -6 -41 -46 -78 -88 l-69 -77 123
-153 c68 -84 128 -158 134 -165 5 -7 15 -18 20 -25 88 -110 291 -364 296 -368
3 -3 18 -22 33 -42 l28 -37 -40 -83 c-84 -176 -212 -516 -212 -563 0 -17 -13
-26 -48 -31 -15 -2 -101 -15 -192 -28 -91 -13 -187 -27 -215 -31 -27 -3 -77
-10 -110 -15 -33 -5 -80 -12 -105 -15 -25 -3 -56 -8 -70 -10 -14 -2 -47 -6
-73 -10 -27 -4 -57 -8 -66 -10 -10 -2 -42 -6 -72 -10 -30 -4 -55 -8 -56 -9 -1
-1 -4 -98 -8 -216 -3 -118 -8 -280 -10 -360 -2 -80 -7 -255 -10 -390 -4 -135
-8 -280 -9 -323 -2 -71 -1 -78 18 -82 31 -7 477 -95 511 -100 17 -3 62 -12
100 -20 39 -8 82 -17 98 -20 15 -3 39 -7 55 -10 143 -29 180 -36 199 -40 15
-3 24 -15 28 -37 7 -35 33 -130 67 -243 25 -83 76 -221 119 -322 35 -80 35
-79 -31 -150 -25 -26 -81 -89 -125 -138 -44 -49 -89 -99 -100 -111 -11 -11
-38 -41 -59 -65 -47 -53 -164 -184 -227 -253 -25 -28 -60 -67 -76 -85 l-30
-35 71 -89 c39 -50 117 -149 174 -221 57 -72 113 -142 124 -155 12 -14 49 -61
84 -105 34 -45 127 -162 206 -261 79 -99 153 -194 166 -210 l23 -29 37 19 c20
11 71 38 112 61 130 72 364 200 380 207 8 4 29 15 45 25 17 10 66 38 110 62
44 24 111 61 150 82 43 25 74 37 82 31 178 -126 398 -262 525 -324 l66 -32 -4
-121 c-2 -67 -6 -184 -9 -261 -12 -332 -17 -485 -18 -564 l-2 -85 70 -14 c39
-7 79 -15 90 -17 11 -2 142 -29 290 -60 149 -30 349 -72 445 -91 96 -20 184
-38 195 -40 193 -40 247 -50 249 -45 4 6 70 175 196 501 40 102 87 223 105
270 18 47 41 107 51 133 9 26 20 49 23 52 7 4 55 9 181 21 41 3 82 8 91 9 9 2
40 6 70 10 30 3 108 17 174 31 66 14 134 27 150 30 29 4 39 -7 300 -342 149
-191 275 -352 280 -358 6 -6 23 -29 39 -51 36 -48 47 -56 61 -46 5 4 55 32
110 61 55 29 109 58 120 65 11 7 58 33 105 57 88 47 188 101 275 148 28 15 86
46 130 70 44 23 94 50 110 60 17 10 62 34 100 55 200 106 236 129 229 144 -3
9 -16 48 -29 86 -13 39 -84 250 -159 469 -75 220 -135 403 -134 407 2 5 55 61
119 126 112 115 223 243 304 351 27 35 44 51 55 47 8 -4 58 -15 110 -26 52
-10 125 -26 161 -34 36 -8 77 -16 90 -19 13 -2 35 -7 49 -10 14 -3 36 -8 50
-10 14 -3 138 -29 277 -59 l252 -53 77 195 c42 108 85 215 95 238 11 23 19 47
19 53 0 5 4 18 10 28 10 17 206 510 260 652 15 41 31 82 35 91 6 16 -30 41
-220 152 -11 7 -38 24 -60 38 -22 14 -47 29 -55 32 -8 4 -27 15 -42 25 -15 9
-62 38 -105 64 -314 188 -388 237 -387 254 1 11 4 46 8 79 17 169 22 413 12
561 -4 58 -22 43 179 149 72 37 148 78 170 90 22 12 94 50 160 85 66 35 147
79 180 97 33 18 93 49 133 70 39 21 72 42 72 48 -1 25 -429 1290 -437 1289 -4
-1 -27 -4 -49 -7 -23 -4 -84 -13 -136 -21 -52 -9 -119 -18 -149 -22 -30 -3
-56 -8 -59 -9 -3 -2 -33 -7 -65 -10 -33 -4 -63 -9 -66 -11 -4 -2 -27 -6 -50
-9 -40 -5 -102 -13 -139 -20 -15 -3 -83 -13 -130 -20 -53 -8 -96 -16 -122 -21
-23 -5 -31 2 -67 53 -68 98 -145 205 -156 217 -6 6 -21 24 -33 40 -32 42 -119
142 -174 202 l-48 51 106 264 c58 145 109 273 114 284 14 28 150 368 153 379
2 7 -71 56 -203 135 -8 5 -145 90 -304 188 -158 98 -303 187 -321 198 -19 11
-66 40 -107 65 -40 25 -77 47 -81 49 -5 2 -38 23 -75 47 l-67 44 -35 -37 c-19
-21 -62 -70 -95 -108 -33 -39 -62 -72 -65 -75 -3 -3 -48 -54 -100 -115 -52
-60 -106 -121 -120 -135 -14 -14 -36 -39 -48 -55 -24 -30 -121 -141 -177 -202
l-30 -32 -85 25 c-47 14 -96 28 -110 30 -14 3 -43 10 -65 16 -75 19 -287 56
-370 64 -33 3 -64 6 -70 7 -11 2 -12 4 -180 522 -69 215 -130 399 -134 411 -8
17 -33 28 -43 18z m234 -2198 c44 -6 87 -13 178 -28 73 -12 247 -56 270 -68 8
-4 17 -8 20 -7 20 2 136 -44 270 -107 458 -216 825 -579 1050 -1038 55 -112
140 -336 155 -406 2 -9 13 -60 24 -112 37 -168 48 -295 46 -490 -3 -183 -5
-212 -19 -300 -4 -25 -9 -56 -12 -70 -53 -330 -225 -713 -444 -990 -75 -95
-210 -237 -300 -316 -129 -112 -349 -256 -485 -318 -33 -15 -67 -31 -77 -36
-96 -53 -419 -146 -578 -166 -19 -2 -51 -7 -70 -10 -61 -10 -402 -11 -475 -1
-274 37 -436 78 -645 164 -136 56 -238 111 -382 206 -176 115 -393 313 -505
460 -26 34 -50 64 -53 67 -8 7 -111 165 -137 210 -99 170 -189 394 -239 595
-4 17 -8 35 -10 40 -4 18 -15 79 -19 105 -4 30 -13 83 -21 125 -9 48 -12 414
-4 480 17 131 22 164 42 255 51 241 182 553 320 760 279 417 685 730 1156 890
67 23 135 44 150 46 15 3 45 10 67 16 50 13 69 16 125 24 25 3 47 8 50 9 4 2
51 7 105 11 55 3 101 7 102 9 5 4 309 -4 345 -9z"/>
</g>
</svg>
