<svg xmlns="http://www.w3.org/2000/svg" src="developer.algorand.foundation" id="Layer_1" data-name="Layer 1" width="400" viewBox="0 0 114 51">
              
              <g>
                <path d="M39.29685,12.159h1.92676c1.23437,0,2.23.4414,2.23,1.8042,0,1.31836-1.00684,1.90136-2.19532,1.90136h-.69336v1.90332H39.29685Zm1.88623,2.69922c.69775,0,1.02734-.311,1.02734-.895,0-.58692-.37549-.79737-1.06152-.79737h-.584v1.69239Z" fill="#bcbcbc"></path>
                <path d="M44.64743,14.93923c0-1.833,1.03467-2.88379,2.54737-2.88379s2.54736,1.05811,2.54736,2.88379c0,1.83252-1.03467,2.93213-2.54736,2.93213S44.64743,16.77175,44.64743,14.93923Zm3.79541,0c0-1.125-.48291-1.78857-1.248-1.78857s-1.248.66357-1.248,1.78857c0,1.12451.48291,1.83692,1.248,1.83692S48.44284,16.06374,48.44284,14.93923Z" fill="#bcbcbc"></path>
                <path d="M50.72214,12.159h1.29981l.38867,2.61963c.07373.59131.15478,1.18261.22851,1.77392h.03418c.10938-.59131.22168-1.18945.33448-1.77392l.603-2.61963H54.6865l.603,2.61963c.1128.57031.2251,1.17529.33741,1.77392h.03418c.07421-.59863.15185-1.19677.22607-1.77392l.38818-2.61963h1.21143l-.99609,5.60888H54.89646L54.34812,15.22c-.08936-.4331-.16406-.88281-.22461-1.30175h-.03467c-.06787.41894-.13867.86865-.22754,1.30175l-.53125,2.54785H51.76413Z" fill="#bcbcbc"></path>
                <path d="M58.75,12.159h3.51465v1.06347H60.018v1.126h1.91211v1.06348H60.018v1.29248h2.33252v1.06347H58.75Z" fill="#bcbcbc"></path>
                <path d="M63.9531,12.159h2.02c1.18945,0,2.165.41308,2.165,1.74658,0,1.28906-.97559,1.84375-2.165,1.84375h-.752v2.01855H63.9531Zm1.917,2.58349c.667,0,1.0249-.28515,1.0249-.83691,0-.55469-.35791-.73975-1.0249-.73975h-.64893v1.57666Zm-.12891.67286.877-.81153,1.79,3.16406H66.98923Z" fill="#bcbcbc"></path>
                <path d="M69.71482,12.159h3.51465v1.06347H70.98288v1.126H72.895v1.06348H70.98288v1.29248H73.3154v1.06347H69.71482Z" fill="#bcbcbc"></path>
                <path d="M74.91794,12.159h1.58545a2.50924,2.50924,0,0,1,2.8169,2.78027,2.5247,2.5247,0,0,1-2.74561,2.82861H74.91794Zm1.50879,4.58789c.95117,0,1.59424-.46631,1.59424-1.80762,0-1.3418-.64307-1.75928-1.59424-1.75928H76.186v3.5669Z" fill="#bcbcbc"></path>
                <path d="M85.28855,12.159h1.91992c1.16406,0,2.06836.31982,2.06836,1.39111a1.29686,1.29686,0,0,1-.73877,1.21094v.03418A1.27869,1.27869,0,0,1,89.5532,16.1155c0,1.14111-.96485,1.65234-2.18506,1.65234H85.28855Zm1.86133,2.24658c.61523,0,.8872-.26025.8872-.668,0-.43213-.28711-.60058-.87842-.60058h-.602v1.26855Zm.11523,2.38379c.69141,0,1.04834-.24561,1.04834-.75586,0-.4917-.35107-.69238-1.04834-.69238h-.7085v1.44824Z" fill="#bcbcbc"></path>
                <path d="M91.79,15.76736,90.10007,12.159h1.35645l.501,1.28857c.14991.41992.29639.8086.45655,1.24317h.03418c.16015-.43457.31982-.82325.47363-1.24317l.501-1.28857H94.748l-1.68994,3.6084v2.00048H91.79Z" fill="#bcbcbc"></path>
              </g>
              <path d="M34.4195,22.03688v14.7693H31.42722V22.03688Z" fill="#fff"></path>
              <path d="M46.61423,26.84309v9.98372c0,3.09412-2.398,4.99186-5.32874,4.99186-2.82835,0-4.9394-1.774-5.14439-4.2699l2.97185.02063c.123,1.052,1.04526,1.52644,2.275,1.52644a2.06676,2.06676,0,0,0,2.234-2.2484V35.58916a5.18035,5.18035,0,0,1-2.82835.78384,4.90327,4.90327,0,0,1-4.91887-4.78558,4.80232,4.80232,0,0,1,4.91887-4.97123A5.18035,5.18035,0,0,1,43.622,27.4v-.53631ZM43.622,32.72193v-2.434a2.66642,2.66642,0,0,0-2.29551-1.19639,2.3527,2.3527,0,0,0-2.48,2.49593,2.451,2.451,0,0,0,2.48,2.31028A2.57611,2.57611,0,0,0,43.622,32.72193Z" fill="#fff"></path>
              <path d="M58.54248,31.71118A5.29807,5.29807,0,1,1,53.2547,26.4305,5.10372,5.10372,0,0,1,58.54248,31.71118Zm-2.88983,0a2.41675,2.41675,0,1,0-4.81643,0,2.41522,2.41522,0,1,0,4.81643,0Z" fill="#fff"></path>
              <path d="M77.11122,26.86372v9.92183l-2.9308.02063v-.55694a5.18926,5.18926,0,0,1-2.82834.80447,5.217,5.217,0,0,1,0-10.4169,5.18927,5.18927,0,0,1,2.82834.80448v-.55694ZM74.1599,33.36139V30.32914a2.64867,2.64867,0,0,0-2.33647-1.13451,2.653,2.653,0,0,0,0,5.30127A2.64867,2.64867,0,0,0,74.1599,33.36139Z" fill="#fff"></path>
              <path d="M89.16245,31.4224v5.38378H86.27261V31.77307c0-1.62958-.79932-2.47531-2.234-2.47531a3.14561,3.14561,0,0,0-2.275,1.25828v6.25014H78.81229V26.88435h2.95132v.74258a4.56517,4.56517,0,0,1,7.39884,3.79547Z" fill="#fff"></path>
              <path d="M104.10351,22.40816h-.73783V24.1615h-.4304V22.40816h-.73783v-.39193H104.083v.39193Z" fill="#fff"></path>
              <path d="M106.604,24.18212h-.43039v-1.217l-.55338.887h-.26647l-.5739-.90762v1.217h-.4304V22.01623h.30742l.81985,1.29954.81985-1.29954h.30742Z" fill="#fff"></path>
              <path d="M30.054,36.78555H27.02076l-1.98807-7.40528-4.263,7.40528H17.36745l6.579-11.46892-1.06579-4.00172L14.00622,36.78555H10.604L21.856,17.16877h2.99228l1.29121,4.88873h3.07429l-2.09052,3.67168Z" fill="#fff"></path>
              <path d="M101.07018,22.03688v14.7693H98.0779v-.55694a5.18932,5.18932,0,0,1-2.82835.80447,5.217,5.217,0,0,1,0-10.4169,5.18933,5.18933,0,0,1,2.82835.80448V22.03688ZM98.0779,33.36139V30.30851a2.68285,2.68285,0,0,0-2.357-1.13451,2.6736,2.6736,0,0,0,0,5.34253A2.67661,2.67661,0,0,0,98.0779,33.36139Z" fill="#fff"></path>
              <path d="M65.87983,29.38027A4.10015,4.10015,0,0,0,62.80554,30.783v6.02323H59.85422V26.905h2.95132v.74259a3.93872,3.93872,0,0,1,3.07429-.78384" fill="#fff"></path>
            </svg>