<svg xmlns="http://www.w3.org/2000/svg" xmlns:xlink="http://www.w3.org/1999/xlink" width="279" height="470" viewBox="0 0 279 470" fill="none"><rect x="143" y="143" width="112" height="112" rx="24" fill="#fff"/><path d="M199 176h0c-12.703 0-23 10.297-23 23h0c0 12.703 10.297 23 23 23h0c12.703 0 23-10.297 23-23h0c0-12.703-10.297-23-23-23z" fill="#231f20"/><g fill="#fff"><path d="M212.7 211h-4.2l-2.8-10.1-5.8 10.1h-4.7l9-15.7-1.4-5.5-12.3 21.2h-4.7l15.6-26.8h4.1l1.8 6.6h4.2l-2.9 5.1 4.1 15.1z"/><rect x="143" y="286" width="112" height="112" rx="24"/></g><g fill="#6fcfef"><path d="M224.3 342.3c0-3.3-4.2-6.4-10.5-8.3 1.5-6.5.8-11.6-2-13.2a4.6 4.6 0 0 0-2.3-.6v2.3l1.2.2c1.4.8 2 3.8 1.5 7.7-.1.9-.3 1.9-.5 3a45 45 0 0 0-6.4-1.1 51.7 51.7 0 0 0-4.2-5.1c3.2-3.1 6.3-4.7 8.4-4.7v-2.3h0c-2.7 0-6.4 2-10.1 5.4-3.6-3.4-7.3-5.4-10.1-5.4v2.3c2.1 0 5.2 1.7 8.5 4.7a50.8 50.8 0 0 0-4.1 5.1 49 49 0 0 0-6.5 1.1c-.2-1-.4-2-.5-3-.5-3.8.1-6.8 1.5-7.6a2 2 0 0 1 1.1-.3v-2.2h0a4.4 4.4 0 0 0-2.2.5c-2.9 1.7-3.5 6.8-2.1 13.2-6.2 1.9-10.3 5-10.3 8.3s4.1 6.4 10.4 8.3c-1.5 6.5-.8 11.6 2 13.2a4.6 4.6 0 0 0 2.3.6c2.8 0 6.4-2 10.1-5.4 3.7 3.4 7.3 5.3 10.1 5.3a3.7 3.7 0 0 0 2.3-.5c2.8-1.7 3.5-6.8 2-13.2 6.3-1.9 10.4-5 10.4-8.3zm-13.2-6.7a30.4 30.4 0 0 1-1.4 3.9c-.4-.8-.8-1.6-1.3-2.4s-.9-1.6-1.4-2.3a27 27 0 0 1 4.1.8zm-4.6 10.7a25.9 25.9 0 0 1-2.5 3.9l-4.5.2-4.6-.2-2.4-3.8a31.7 31.7 0 0 1-2.1-4.1 30.5 30.5 0 0 1 2.1-4 41.1 41.1 0 0 1 2.4-3.9l4.6-.2 4.5.2a42.5 42.5 0 0 1 2.5 3.9l2.1 4zm3.2-1.3a31.7 31.7 0 0 1 1.4 4 27 27 0 0 1-4.1.8 9.5 9.5 0 0 0 1.4-2.4c.5-.8.9-1.6 1.3-2.4zm-10.2 10.8c-1-1-1.9-2.1-2.8-3.2h5.6zm-7.5-6a20.7 20.7 0 0 1-4.2-.8c.4-1.3.9-2.6 1.4-4a19.6 19.6 0 0 0 1.3 2.5zm7.4-21c1 1 1.9 2.1 2.8 3.2h-5.5zm-7.4 6l-1.5 2.3-1.3 2.5c-.5-1.3-1-2.6-1.4-4a31 31 0 0 1 4.2-.8zm-9.2 12.6c-3.6-1.5-5.9-3.5-5.9-5.1s2.3-3.6 5.9-5.1l2.8-1a44.9 44.9 0 0 0 2.3 6.1 44.9 44.9 0 0 0-2.3 6.1zm5.4 14.5c-1.3-.8-1.9-3.8-1.5-7.7a15.9 15.9 0 0 1 .6-3 35.7 35.7 0 0 0 6.4 1.1 51.7 51.7 0 0 0 4.2 5.1c-3.3 3.1-6.4 4.7-8.5 4.7zm24-7.7c.5 3.8-.1 6.8-1.5 7.6a2 2 0 0 1-1.1.3c-2.1 0-5.2-1.7-8.5-4.7a51.7 51.7 0 0 0 4.2-5.1 45 45 0 0 0 6.4-1.1c.2 1 .4 2 .5 3zm3.9-6.8l-2.8 1a44.9 44.9 0 0 0-2.3-6.1 46.2 46.2 0 0 0 2.3-6.2l2.8 1.1c3.6 1.5 5.9 3.5 5.9 5.1s-2.3 3.6-5.9 5.1z"/><circle cx="199.5" cy="342.3" r="4.6"/></g><g fill="#fff"><rect y="24" width="112" height="112" rx="24" opacity=".4"/><rect x="143" width="112" height="112" rx="24" opacity=".16"/><rect x="143" y="429" width="112" height="112" rx="24" opacity=".48"/><rect y="453" width="112" height="112" rx="24" opacity=".8"/><rect y="310" width="112" height="112" rx="24"/><rect y="167" width="112" height="112" rx="24"/></g><path d="M55 342.4h0c12.703 0 23 10.297 23 23h0c0 12.703-10.297 23-23 23h0c-12.703 0-23-10.297-23-23h0c0-12.703 10.297-23 23-23z" fill="#3962ae"/><path d="M63.7 358.9l-.2-.8-.5.8-3 5.2-2.5 4.4-2.2 3.9-1.2 2.2h-3.6l3-5.2.7-1.3-.4-1.5-1.1-4.3-.9-3.4-.2-.8-.5.8-3 5.2-2.9 5.3-3 5.2h-3.5l2.9-5.2 3-5.3 2.9-5.2 2.9-5.1h3.2v.5l1.2 4.3v.4l1 3.9.3 1.3h0L59 359l2.9-5.1h3.2v.5l6 20.4h-3.6z" fill="#fff"/><path d="M37 228.5h18.8l-2.6 2.9H37z" fill="#d44927"/><g fill-rule="evenodd"><path d="M64.6 241.9l-5.1-13.6 3.7-4.9 7.3 18.5zm-10.5-27.7l2.8 7.4 3.6-4.8-4.5-11.6a3.4 3.4 0 0 0-2.8-1.9 2.9 2.9 0 0 0-2.7 1.9l-8.8 22.2h5.7l5-13.2a1 1 0 0 1 .8-.5h.1a.8.8 0 0 1 .8.5zm-8.7 18.4l-3.5 9.3H36l3.7-9.3z" fill="#222d60"/><path d="M72.8 202.5a1.8 1.8 0 0 1 2.5-.3 1.6 1.6 0 0 1 .3 2.4h0l-16 21.6q-.2.3-.3.3l-3.2 2c-.2.2-.5 0-.4-.3l.9-3.6c.1-.2.1-.3.2-.4l14.5-19.6-.2-.2c-.1-.1-.3 0-.4.1l-4.7 6.3c.1.2.1.5-.1.6l-.8 1.1a.5.5 0 0 1-.8.2.6.6 0 0 1-.2-.7h.1l.5-.7.3-.5 5.3-7.2a1.1 1.1 0 0 1 1.6-.2h.3z" fill="#d44927"/></g></svg>