<svg alt="Powered by React" class="featureSvg_3LcT" viewBox="0 0 80 80" xmlns="http://www.w3.org/2000/svg">
					<polygon fill="#7D97DE" points="45.233658,48.635071 45.240051,48.640869 45.235153,48.635956      "></polygon>
					<path fill="#7D97DE" d="M45.469955,48.854767c-0.070801-0.077209-0.148895-0.146515-0.229904-0.213898l0.382797,0.381805       C45.572052,48.967072,45.521255,48.911346,45.469955,48.854767z"></path>
					<path fill="#CCCCCC" d="M46.803055,50.024658c-0.222198-0.114288-0.410706-0.257812-0.588898-0.412109l1.814896,1.809601       v-1.243195C47.600357,50.20047,47.136459,50.196564,46.803055,50.024658z"></path>
					<path fill="#D5D5D9" d="M53.704346,41.393768c-0.14209,0.104492-0.072693,0.362305-0.20459,0.44928       c-0.003906,0.002899-0.006805,0.002899-0.011703,0.005798c-0.038605,0.127014-0.076599,0.252899-0.112793,0.368225h-0.445801       c-0.013702-0.233398,0.014206-0.536224,0.039597-0.765625c-0.288605,0.111328-0.596207,0.186523-0.914597,0.212799       c-1.341797,0.115326-2.685013,0.171906-4.025406,0.171906v8.342804l0,0c0.053696,0.001892,0.108398,0.001892,0.163101,0.003906       c0.055206,0.001984,0.110901,0.004913,0.166992,0.004913c0.063507,0,0.126511-0.004913,0.189514-0.007812       c0.045395-0.002014,0.091293-0.002014,0.1362-0.00589c0.072296-0.005798,0.140594-0.020508,0.2099-0.03421       c0.032288-0.004791,0.065994-0.007812,0.097198-0.015594c0.097702-0.023407,0.189987-0.05661,0.273895-0.099609       c0.556198-0.285187,0.929703-0.726593,1.333496-1.169891c0.277405-0.303711,0.647003-0.512695,0.976105-0.761719       c0.182602-0.138702,0.3526-0.287201,0.487305-0.473694c0.1763-0.242188,0.306686-0.521484,0.393097-0.827087       c0.126404-0.450195,0.070297-1.157196,0.410599-1.516602c0.306198-0.326202,0.613297-0.454102,0.833496-0.90332       c0.378906-0.775391,0.501999-1.709991,0.457504-2.566498C54.145752,41.56665,54.017349,41.162354,53.704346,41.393768z"></path>
					<path fill="#FFFFFF" d="M43.013458,41.432861c-0.003403,0.154297-0.002899,0.308594,0.006302,0.480499       c0.003494,0.069305,0.009293,0.183594,0.003494,0.303711h-0.571808c-0.001999-0.098724,0.002899-0.190399,0.005402-0.251007       c0.00531-0.139618,0.004807-0.267609,0.000412-0.392609c-0.015106-0.070282-0.036102-0.137695-0.092209-0.179688       c-0.3125-0.231415-0.441391,0.171906-0.454102,0.412079c-0.043503,0.856506,0.079102,1.7901,0.458908,2.566498       c0.219299,0.449219,0.525894,0.577118,0.833099,0.90332c0.339798,0.359406,0.2836,1.067383,0.410095,1.516602       c0.085907,0.305603,0.216293,0.583984,0.393097,0.827087c0.184097,0.254913,0.434998,0.442413,0.693298,0.623993       c0.18071,0.127014,0.365311,0.251007,0.53421,0.391724c0.082993,0.068298,0.163101,0.139587,0.236298,0.219696       c0.0513,0.05658,0.1026,0.112305,0.152893,0.167908l0,0c0.189407,0.208984,0.382309,0.407288,0.591309,0.589874       c0.178192,0.154297,0.366699,0.297821,0.588898,0.412109c0.333405,0.171906,0.797302,0.175812,1.225998,0.154297v-8.341797       c-1.350098,0-2.702103-0.057587-4.053192-0.174805C43.639954,41.634064,43.314758,41.553955,43.013458,41.432861z"></path>
					<path fill="#818386" d="M52.929459,42.217072h0.445801c0.036194-0.115326,0.074188-0.241211,0.112793-0.368225       c0.090805-0.299774,0.179703-0.605499,0.232407-0.813477c-0.227509,0.168976-0.4785,0.311584-0.751404,0.416077       C52.943665,41.680847,52.915756,41.983673,52.929459,42.217072z"></path>
					<path fill="#8C8E91" d="M43.013947,41.432861c-0.218292-0.088898-0.418991-0.206116-0.607895-0.335907       c0.028305,0.160095,0.046402,0.316406,0.051697,0.476501c0.003906,0.125,0.00441,0.252991-0.0009,0.392609       c-0.001999,0.059601-0.007401,0.151398-0.005402,0.251007h0.571304c0.005798-0.120117,0.000504-0.233398-0.002991-0.303711       C43.010559,41.741455,43.010056,41.587158,43.013947,41.432861z"></path>
					<path fill="#D5D5D9" d="M46.214661,49.612549c-0.210007-0.181702-0.402405-0.38089-0.591309-0.588898l-0.388199-0.387695       l-0.001495-0.000885c-0.1689-0.140717-0.352997-0.264709-0.53421-0.391724v1.0401       c0,0.417023-0.064392,0.831024-0.191391,1.229523c-0.163101,0.510681-0.368103,1.165985-0.341797,1.158203l0.027405,0.052673       c0.875992,1.174805,2.265594,1.942413,3.834,1.973724h0.009186h0.015701l-0.023499-2.275421L46.214661,49.612549z"></path>
					<path fill="#273B81" d="M44.193146,51.723846c-0.000488-0.000977-0.000992-0.001892-0.001495-0.001892l-0.003891-0.004883       c-0.013702-0.012726-0.0224-0.026398-0.031708-0.0401c-0.0401,0.008789-0.093796,0.022491-0.151901,0.044983       c-0.254898,0.07132-0.674805,0.201111-1.193298,0.357391v6.9375h-2.758301V52.91037       c-2.069901,0.622101-4.1353,1.243195-4.193405,1.310577c-2.320297,2.887726-3.138199,9.190399-3.138199,13.661102h5.874008       v-8.163086h0.000504h9.417999h0.000488h0.018112l0.004791-4.649414V55.06665v-1.36908h-0.009186       C46.459259,53.66626,45.069656,52.898651,44.193146,51.723846z"></path>
					<path fill="#B5B5B5" d="M51.61795,49.540253l-0.042496-1.447205c-0.329605,0.248016-0.6987,0.458008-0.975601,0.761719       c-0.404297,0.443298-0.777802,0.884705-1.334,1.169891c-0.083908,0.042999-0.175705,0.076202-0.273895,0.099609       c-0.030701,0.007782-0.064911,0.009796-0.097198,0.015594c-0.069305,0.013702-0.137207,0.028412-0.2099,0.035187       c-0.044907,0.003906-0.090805,0.002899-0.136703,0.004913c-0.0625,0.002899-0.125,0.007812-0.189011,0.007812       c-0.056091,0-0.111786-0.00293-0.167496-0.004913c-0.054199-0.001007-0.10939-0.002014-0.162094-0.003906h-0.000504v1.243195       l2.051804,1.868103c0.811493-0.348602,1.502899-0.910095,2.016602-1.615204l0.001892-0.003876       c0.031311,0.008789-0.241699-0.981506-0.385696-1.5C51.656052,49.965057,51.624252,49.75415,51.61795,49.540253z"></path>
					<path fill="#CCCCCC" d="M48.053055,53.697571h0.028305h0.088791h0.000504c0.120605,0,0.241699-0.00882,0.361801-0.017609       h0.000504c0.545898-0.044891,1.068893-0.178711,1.546387-0.388702l0.001007-0.001007l-2.0513-1.868103L48.053055,53.697571z"></path>
					<path fill="#0E2472" d="M56.288849,52.937775v6.079071h-2.757797v-6.9151       c-0.554703-0.165985-1.001495-0.299774-1.270004-0.379791c-0.066895-0.022491-0.12059-0.036194-0.16069-0.049805       c-0.001007,0.000916-0.001907,0.001923-0.002411,0.002899c-0.513687,0.705109-1.205093,1.266602-2.017593,1.615204       l-0.000504,0.001007c-0.477997,0.209991-1.000992,0.343811-1.546402,0.388702h-0.000992       c-0.120102,0.008789-0.241196,0.017609-0.361801,0.017609h-0.000504H48.08136h-0.028809H48.03685v1.36908v0.002899       l-0.004791,4.649414h0.026794h9.686996h0.000504v8.163086h5.869202c0-5.029297-0.603104-11.265594-3.209503-13.661102       C60.334747,54.158447,58.327454,53.550049,56.288849,52.937775z"></path>
					<path fill="#7683AF" d="M38.595459,59.718964h-0.000504v8.163086h0.000504h1.7202v-4.080994h6.05719v4.080994h1.694305       l-0.053696-8.163086H38.595459z M42.481247,60.723846h-2.142593v-0.615173h2.142593V60.723846z"></path>
					<path fill="#5C6BA0" d="M48.032059,59.718964h-0.018112h-0.000488l0.053696,8.163086h9.678696v-8.163086h-9.686996H48.032059z        M53.855255,60.108673h2.143097v0.615173h-2.143097V60.108673z"></path>
					<path fill="#7683AF" d="M40.052551,52.91037v6.106476h2.758301v-6.9375       c-0.174393,0.048828-0.357498,0.107422-0.554703,0.165009C41.590149,52.45047,40.82106,52.677948,40.052551,52.91037z        M42.481247,58.589172h-2.142593v-0.615326h2.142593V58.589172z"></path>
					<path fill="#5C6BA0" d="M53.530548,52.101746v6.9151h2.758301v-6.079071       c-0.795898-0.241211-1.595703-0.482422-2.284195-0.69342C53.839157,52.195557,53.682846,52.145752,53.530548,52.101746z        M55.998352,58.589172h-2.143097v-0.615326h2.143097V58.589172z"></path>
					<rect x="40.338654" y="60.108673" fill="#273B81" width="2.142593" height="0.615204"></rect>
					<rect x="40.338654" y="57.973846" fill="#273B81" width="2.142593" height="0.615295"></rect>
					<rect x="53.855255" y="60.108673" fill="#0E2472" width="2.143097" height="0.615204"></rect>
					<rect x="53.855255" y="57.973846" fill="#0E2472" width="2.143097" height="0.615295"></rect>
					<rect x="40.315659" y="63.801056" fill="#5C6BA0" width="6.05719" height="4.080994"></rect>
					<g>
						<path fill="#7885B1" d="M56.575958,57.893768l-1.570297,0.302795l-0.007309-0.007812L52.59935,65.12915l1.044998-0.091797        l1.92131-5.560608c0.741699-0.107391,1.39949-0.614197,1.661194-1.370972        c0.199203-0.577209,0.126907-1.179718-0.145996-1.674927L56.575958,57.893768z"></path>
						<path fill="#506099" d="M54.464157,55.526672c-0.520004,0.220673-0.949203,0.650299-1.148499,1.227478        c-0.261703,0.756805-0.057098,1.560516,0.459488,2.103516l-2.198196,6.362305l1.0224-0.09082l2.399002-6.940399        l-1.039093-1.19928L54.464157,55.526672z"></path>
					</g>
					<g>
						<path fill="#88B3FF" d="M57.221954,60.182861l-1.590302,0.164093l-0.006897-0.008789l-2.999496,6.703094h1.048798        l2.402893-5.370087c0.748001-0.042023,1.448196-0.488312,1.774902-1.219727        c0.249496-0.556702,0.229996-1.164093,0.001907-1.680695L57.221954,60.182861z"></path>
						<path fill="#4589FF" d="M55.326447,57.639862c-0.537094,0.174805-1.002899,0.564484-1.251999,1.121094        c-0.327087,0.731506-0.193787,1.550812,0.27301,2.136719L51.59845,67.04126h1.02681l2.999496-6.703094l-0.930099-1.285217        L55.326447,57.639862z"></path>
					</g>
					<rect x="49.597946" y="63.801056" fill="#7683AF" width="6.057098" height="4.080994"></rect>
					<g>
						<g>
							<path fill="#4589FF" d="M52.22345,33.509064c-0.167496-0.123108-0.347198-0.234406-0.52739-0.341797l-0.052704,0.098602         c0.194794,0.156281,0.388199,0.320282,0.568298,0.498993c-0.922302,1.425812-1.771896,3.205109-2.518997,4.677795         c0.914993-2.6651,1.684097-4.571289,1.981903-5.289093c-0.008804-0.00589-0.017502-0.012695-0.026306-0.017609         l0.082504-0.117188c0.047791-0.11322,0.074692-0.176697,0.074692-0.176697s0.001495-0.032227,0.010208-0.087921         c-0.237305-0.236298-1.271912-1.146484-3.783203-1.286102c-0.001404,0-0.002396,0-0.002396,0l-0.001007,8.122009         c0.589401,0,1.178696-0.010712,1.769104-0.032196c0.195297-0.007812,0.390594-0.022491,0.585892-0.032196         c0.395004-0.019592,0.790009-0.037109,1.185608-0.066406c0.234299-0.017609,0.469696-0.041992,0.704102-0.0625         c0.356903-0.031311,0.712799-0.060608,1.068802-0.098694c0.196289-0.021393,0.393097-0.049805,0.588898-0.073212         c0.057602-0.007782,0.115204-0.014679,0.172302-0.021484c0.297394-0.037109,0.5952-0.072296,0.893097-0.114197         c0.000504-0.015717,0.001999-0.031311,0.002396-0.046906C55.102859,36.828369,54.02565,34.784454,52.22345,33.509064z"></path>
							<path fill="#5492FF" d="M55.231247,39.058868c-0.078201,0.011688-0.156799,0.018494-0.234894,0.030304         c-0.297806,0.041901-0.5952,0.077087-0.893097,0.114197c-0.057098,0.006805-0.1147,0.015594-0.171799,0.021484         c-0.195801,0.024414-0.392609,0.051819-0.589401,0.073212c-0.355896,0.038086-0.711899,0.067383-1.068298,0.098694         c-0.234406,0.020508-0.469299,0.045898-0.704102,0.063416c-0.395599,0.028381-0.790604,0.045898-1.185608,0.065491         c-0.195297,0.009705-0.390594,0.024384-0.586395,0.032196c-0.589905,0.021484-1.179199,0.033203-1.7686,0.033203v0.229492         v0.242218v0.333984v0.2724c1.504898,0,3.011703-0.048798,4.516602-0.145508         c0.733398-0.046906,1.388702-0.246094,1.803299-0.521484c-0.053802,0.0625-0.104996,0.125-0.158707,0.186584         c-0.179199,0.207001-0.43309,0.381805-0.725098,0.5224c-0.336487,0.161194-0.726089,0.274414-1.14209,0.3125         c-1.431702,0.13092-2.864304,0.197296-4.294006,0.197296v0.05661v0.558594c1.340805,0,2.683609-0.05658,4.025406-0.171906         c0.31839-0.026276,0.625992-0.101471,0.914093-0.212799c0.273407-0.104492,0.524399-0.247101,0.752396-0.416077         c0.042999-0.031219,0.090805-0.058624,0.132812-0.092712c0.254395-0.028412,0.508286-0.052795,0.762695-0.084991         c0.531799-0.06842,0.9263-0.5,0.8741-0.954102c-0.027405-0.237305-0.054703-0.476593-0.082108-0.717804         C55.340149,39.136963,55.300049,39.108673,55.231247,39.058868z"></path>
							<path fill="#4B8DFF" d="M45.677551,39.526672c-0.395493-0.020599-0.791504-0.038116-1.188004-0.067413         c-0.234894-0.016602-0.4702-0.041992-0.705093-0.0625c-0.356003-0.031311-0.711899-0.060608-1.067902-0.098694         c-0.193802-0.021393-0.386703-0.047791-0.580093-0.07132c-0.058105-0.006775-0.116211-0.015594-0.173798-0.0224         c-0.298813-0.037079-0.59761-0.073273-0.896515-0.115173c-0.07959-0.010803-0.159088-0.018616-0.239197-0.030304         c-0.068893,0.049805-0.108398,0.078094-0.177795,0.126892c-0.026794,0.241211-0.054199,0.480499-0.081497,0.717804         c-0.0513,0.454102,0.341797,0.885681,0.873993,0.953094c0.247101,0.032288,0.494705,0.054688,0.741699,0.083008         c0.069397,0.057678,0.147507,0.105499,0.222702,0.156281c0.188904,0.130798,0.389603,0.248016,0.607407,0.335907         c0.301788,0.122101,0.625992,0.201202,0.962402,0.230499c1.351593,0.116211,2.703094,0.174805,4.053192,0.174805v-0.559601         v-0.05661c-1.442795,0-2.887207-0.067383-4.331497-0.201202c-0.4151-0.038086-0.807098-0.148376-1.142105-0.308594         c-0.313492-0.150391-0.577591-0.343689-0.758789-0.569305c-0.029312-0.035187-0.05661-0.071289-0.085403-0.106476         c0.416489,0.257904,1.057098,0.440491,1.762695,0.485382c1.517502,0.098602,3.037094,0.147522,4.555099,0.147522v-0.271515         v-0.333984v-0.242218v-0.230499c-0.589294,0-1.179199-0.010712-1.768494-0.032196         C46.066147,39.550049,45.871857,39.53537,45.677551,39.526672z"></path>
							<path fill="#4589FF" d="M48.029053,40.668274v0.042877v0.509796c1.430206,0,2.862793-0.066376,4.294006-0.198273         c0.416489-0.038025,0.806091-0.15033,1.14209-0.311523c0.292007-0.139587,0.545898-0.315399,0.72551-0.5224         c0.053299-0.061584,0.104492-0.124084,0.157791-0.186584c-0.413589,0.275391-1.069397,0.474579-1.803299,0.521484         C51.04126,40.620361,49.533951,40.668274,48.029053,40.668274z"></path>
							<path fill="#669EFF" d="M41.711258,40.03537c0.028793,0.035187,0.056595,0.071289,0.085403,0.106476         c0.181198,0.225616,0.445297,0.418915,0.758789,0.569305c0.334503,0.160217,0.727005,0.270508,1.142105,0.308594         c1.443802,0.13382,2.888702,0.201202,4.331497,0.201202v-0.509796v-0.042877c-1.518005,0-3.037598-0.04892-4.554703-0.147522         C42.76886,40.475861,42.127258,40.293274,41.711258,40.03537z"></path>
							<path fill="#88B3FF" d="M48.029053,31.468048c-2.528305,0.140625-3.561493,1.061523-3.786606,1.292023         c-0.029785,0.040985-0.048294,0.059479-0.048294,0.059479l0.008301,0.011719         c0.006302-0.010712,0.018997-0.029297,0.039993-0.069305c0.008301,0.047882,0.009811,0.079102,0.009811,0.079102         s0.030197,0.067383,0.07959,0.180695l0.077606,0.114197c-0.007294,0.004913-0.014694,0.010803-0.0215,0.014709         c0.354004,0.817383,1.310104,3.087891,1.983398,5.291992c-0.752899-1.472687-1.597198-3.251984-2.524902-4.677795         c0.179703-0.178711,0.373505-0.341797,0.567902-0.498993l-0.051804-0.099609         c-0.180191,0.108398-0.360291,0.219696-0.52829,0.342804c-1.8022,1.275391-2.87941,3.319305-2.770004,5.533203         c-0.000504,0.015594,0.001404,0.031189,0.001404,0.046906c0.298889,0.041901,0.598694,0.078094,0.897003,0.115173         c0.05809,0.006805,0.115692,0.014618,0.173798,0.021515c0.192886,0.023407,0.386795,0.050812,0.580093,0.072205         c0.356003,0.038086,0.711899,0.067383,1.067902,0.098694c0.234894,0.020508,0.4702,0.045898,0.705093,0.063416         c0.3965,0.028381,0.792511,0.045898,1.188507,0.065491c0.193802,0.009705,0.388092,0.025391,0.582001,0.032196         c0.589798,0.021484,1.179703,0.033203,1.768997,0.033203l5.083496-0.292999l-5.083496-0.330017V31.468048z"></path>
						</g>
						<path fill="#5492FF" d="M51.69606,33.167267l0.172897-0.325195c0,0-0.004898-0.00882-0.006897-0.011719        c-0.006302-0.01178-0.020004-0.03418-0.046402-0.076202c-0.008713,0.055695-0.010208,0.087921-0.010208,0.087921        s-0.026901,0.063477-0.074692,0.175781c-0.016098,0.039001-0.034698,0.083893-0.056198,0.135712        c-0.297806,0.717804-1.06691,2.623993-1.981903,5.289093c0.747101-1.472687,1.596695-3.251984,2.518997-4.677795        c-0.180099-0.178711-0.373505-0.341797-0.568298-0.498016L51.69606,33.167267z"></path>
						<path fill="#4B8DFF" d="M44.331848,33.021759c-0.049393-0.113312-0.07959-0.179688-0.07959-0.179688        s-0.001511-0.032227-0.009811-0.080109c-0.020996,0.040985-0.033188,0.059601-0.039993,0.069305        c-0.003006,0.002991-0.006897,0.010803-0.006897,0.010803l0.167496,0.324188l0.0513,0.100586        c-0.194794,0.156219-0.388199,0.319305-0.567902,0.498016c0.928207,1.425812,1.772003,3.205109,2.524902,4.677795        c-0.673294-2.205109-1.629395-4.474609-1.983902-5.291992C44.365952,33.099854,44.34845,33.059845,44.331848,33.021759z"></path>
					</g>
				
			
			<g id="_x31_5">
				<g>
					<path fill="#5476D4" d="M33.687256,20.024658c1.163605,4.583008,6.373093,7.3125,12.1548,6.667999V7.256073       c-0.854004,0.069397-1.72261,0.209991-2.594696,0.431702C36.66185,9.359651,32.381653,14.884065,33.687256,20.024658z"></path>
					<path fill="#2E57CB" d="M45.842056,7.256073v19.436584c0.705093-0.079102,1.417999-0.204102,2.133804-0.38681       c0.2314-0.058502,0.459991-0.122986,0.685989-0.191376l3.901901,5.101593l0.236298-7.063507       c1.7827-1.216797,3.17041-2.764587,4.0215-4.461884c0.908203-1.8125,1.204102-3.793914,0.714401-5.721709       C56.403046,9.508058,51.437759,6.802948,45.842056,7.256073z"></path>
					<path fill="#88B3FF" d="M47.479752,16.127167l-0.129395-1.432616l-1.078598-0.0849       c-0.080612-0.232483-0.186508-0.458984-0.317413-0.677795l0.620605-0.879883l-1.019501-1.014618l-0.871597,0.622101       c-0.219696-0.13089-0.450699-0.237305-0.689896-0.320282l-0.088409-1.060608l-1.43309-0.122101l-0.26561,1.028381       c-0.250992,0.040009-0.5,0.106415-0.742188,0.200226l-0.743713-0.749115l-0.033188,0.023499l-1.143005,0.803711       l0.455994,0.955994c-0.169388,0.197296-0.316391,0.410187-0.438492,0.632812l-1.051697-0.095703l-0.368713,1.389679       l0.969711,0.442413c-0.002411,0.253905,0.0215,0.508788,0.072296,0.760711l-0.874496,0.606476l0.611298,1.301697       l1.037598-0.288086c0.162598,0.196289,0.3423,0.373108,0.535706,0.527405l-0.283203,1.038086l1.305099,0.604523       l0.615799-0.895599c0.243607,0.043976,0.491699,0.064484,0.7397,0.059601l0.455093,0.984375l1.387711-0.375l-0.053207-0.55368       l-0.051804-0.533203c0.103516-0.059601,0.205612-0.123993,0.304703-0.192413       c0.104507-0.074188,0.20311-0.152405,0.298309-0.234406l0.98439,0.464905l0.822311-1.180695l-0.778305-0.764709       c0.087402-0.231384,0.149902-0.471588,0.189392-0.714783L47.479752,16.127167z M44.113556,17.696564       c-0.09671,0.067383-0.198196,0.123993-0.300797,0.175781c-0.997101,0.496002-2.233414,0.207001-2.895004-0.732483       c-0.727509-1.035095-0.479507-2.464812,0.556595-3.195312c0.090408-0.063477,0.184601-0.11618,0.280304-0.164978       c1.000504-0.510803,2.249496-0.224609,2.914597,0.72168C45.398254,15.536347,45.149658,16.967072,44.113556,17.696564z"></path>
					<path fill="#4589FF" d="M54.863739,16.195374l0.770508-0.579101l-0.591812-1.145508l-0.913986,0.291016       c-0.151413-0.171906-0.318909-0.326202-0.501007-0.462921l0.216293-0.92868l-1.189392-0.498108l-0.508301,0.804688       c-0.225601-0.03418-0.4561-0.045898-0.688995-0.032196l-0.428207-0.843781l-0.035202,0.010803l-1.195801,0.372101       l0.126999,0.941376c-0.198792,0.121124-0.382401,0.262695-0.547897,0.419922l-0.871094-0.371124l-0.695801,1.0849       l0.7061,0.643616c-0.071808,0.215789-0.121109,0.439483-0.147003,0.667998l-0.912598,0.277283l0.164093,1.27832l0.96431,0.0401       c0.084991,0.211884,0.190002,0.412109,0.3125,0.59668l-0.526306,0.807617l0.947205,0.873993l0.7715-0.595703       c0.195297,0.104523,0.401398,0.190399,0.6147,0.253906l0.117691,0.964813l1.287109,0.061584l0.106491-0.488281       l0.102005-0.468811c0.104507-0.0224,0.209-0.048798,0.3125-0.080017c0.109406-0.035187,0.215408-0.07428,0.318909-0.118195       l0.712387,0.667023l1.025406-0.781311l-0.454102-0.866211c0.138199-0.173798,0.257294-0.361298,0.357895-0.557587       l0.971207,0.051788l0.283203-1.257904l-0.897003-0.368103C54.942841,16.640686,54.915039,16.417969,54.863739,16.195374z        M52.259735,18.902374c-0.101089,0.031311-0.203094,0.051788-0.304688,0.067383       c-0.986801,0.150421-1.962402-0.436493-2.269012-1.418976c-0.336899-1.083008,0.267609-2.23532,1.351608-2.573211       c0.094696-0.029297,0.189392-0.048798,0.284592-0.064484c0.993713-0.161102,1.980499,0.425781,2.288605,1.416076       C53.948746,17.41217,53.343735,18.564484,52.259735,18.902374z"></path>
				</g>
				<g>
					<path fill="#52629A" d="M32.51976,14.486573v17.911102c5.522995-0.220703,10.011292-3.564423,10.388199-8.023407       C43.318665,19.514862,38.69165,15.143769,32.51976,14.486573z"></path>
					<path fill="#7683AF" d="M19.973953,22.436768c-0.156799,1.853485,0.419907,3.637695,1.535599,5.170898       c1.044403,1.435608,2.5625,2.651398,4.393509,3.501984l0.092789,4.571198l4.026398-3.394501       c0.219208,0.02832,0.439407,0.052826,0.662109,0.07132c0.621597,0.052704,1.23439,0.064484,1.835403,0.040009V14.486573       c-0.107407-0.010712-0.213806-0.024414-0.322205-0.033203C25.864548,13.918275,20.391861,17.492462,19.973953,22.436768z"></path>
					<g>
						<path fill="#506099" d="M30.650146,18.898651c-0.323196,0.134796-0.626389,0.300812-0.908691,0.496094l-1.203598-0.750977        l-1.2827,1.445404l0.897507,1.11618c-0.156311,0.303711-0.281311,0.623016-0.372604,0.955017l-1.415512,0.201202        l-0.052292,1.931702l1.419495,0.280182c0.076096,0.334991,0.185501,0.654297,0.3237,0.957092l-0.965302,1.074219        l1.200211,1.51358l1.281189-0.703094c0.265106,0.200195,0.549805,0.375,0.851105,0.517609l-0.049805,1.457001        l1.894012,0.387695l0.269989-0.697205v-1.620178c-1.94429-0.005829-3.644989-1.42572-3.9384-3.407227        c-0.324295-2.184601,1.184006-4.216797,3.368607-4.540985c0.191391-0.02829,0.381393-0.037109,0.569794-0.038116v-2.2724        l-1.857391,0.275299L30.650146,18.898651z"></path>
						<path fill="#2C3F84" d="M38.15065,20.593964l-1.421402,0.219788c-0.184494-0.289093-0.3974-0.557678-0.634689-0.800781        l0.534103-1.326202l-1.646011-1.011719l-0.938904,1.073212c-0.326187-0.103516-0.665588-0.173798-1.012695-0.205994        l-0.439499-1.349609l-0.054703,0.008789v2.271423c1.957108-0.009705,3.675308,1.416077,3.970703,3.407288        c0.323807,2.184509-1.184494,4.217712-3.369095,4.541016c-0.202103,0.030273-0.402298,0.039978-0.601608,0.039001v1.620178        l0.2603-0.671906c0.15921-0.007782,0.319809-0.023376,0.480911-0.046875c0.169998-0.024414,0.335999-0.058624,0.4991-0.100616        l0.901794,1.152405l1.699203-0.920013l-0.47261-1.387573c0.24411-0.225616,0.46431-0.474701,0.658707-0.744202        l1.4272,0.301788l0.710495-1.796906l-1.243698-0.752899c0.042496-0.329102,0.053207-0.665985,0.028305-1.00589        l1.275391-0.680695L38.15065,20.593964z"></path>
						<path fill="#22367E" d="M28.597946,24.052948c0.293915,1.981506,1.995102,3.401398,3.938904,3.407227v-0.819305        c-1.5439-0.005798-2.893997-1.134796-3.127396-2.708008c-0.257797-1.736298,0.941895-3.352509,2.6772-3.609406        c0.151901-0.0224,0.3013-0.030182,0.450195-0.031189V19.47287c-0.1884,0.000977-0.378403,0.010803-0.570297,0.039093        C29.782455,19.835175,28.274155,21.868347,28.597946,24.052948z"></path>
						<path fill="#031A6B" d="M32.53685,19.473846v0.81842c1.557205-0.00882,2.924408,1.123993,3.159698,2.708984        c0.257309,1.735321-0.941895,3.351501-2.677689,3.608398c-0.162109,0.024414-0.3228,0.031219-0.48201,0.031219v0.819305        c0.19931,0.000977,0.399506-0.008728,0.601608-0.038025c2.184601-0.32428,3.692398-2.357483,3.369095-4.541992        C36.212158,20.88797,34.493958,19.463165,32.53685,19.473846z"></path>
					</g>
				</g>
			</g>
			<g>
				<path fill="#FFFFFF" d="M22.844055,46.960175c-0.3013,0.00589-0.1875,0.838898-0.139694,1.000977      c0.2276,0.774414,0.525391,1.704102,1.233887,2.177795c0.190414,0.126923,0.595703,0.199219,0.747604,0.315399      c-0.594803-0.981476-1.552795-1.706085-1.729004-2.872101C22.924057,47.367462,22.885056,47.161346,22.844055,46.960175z"></path>
				<path fill="#D5D5D9" d="M33.562759,49.947571c0.6035-0.657318,0.973694-1.2276,0.998093-2.242218      c-0.1978,0.362305-0.4048,0.720703-0.543503,1.121094C33.908951,49.139862,33.754654,49.53537,33.562759,49.947571z"></path>
				<path fill="#D5D5D9" d="M32.180954,51.961151c-0.137207,0.114319-0.278793,0.210022-0.425293,0.276398      c0.149887-0.06839-0.696304,0.112305-0.612305,0.107422c-0.383301,0.022491-0.757309-0.279297-1.126007-0.219696      c-0.368591,0.05957-0.490692,0.427673-0.815399,0.538086c-0.059601,0.020508-0.134796,0.039001-0.217804,0.054688v3.004822      c0.302307-0.014618,0.604004-0.042908,0.901413-0.103516l2.335388-0.47168l0.001511,0.003998      C32.11116,54.088165,31.927048,52.959259,32.180954,51.961151z"></path>
				<path fill="#FFFFFF" d="M26.836258,52.536346c-0.681198-0.583984-0.189011-0.426697-1.008804-0.125      c-0.109894-0.490173-0.569397-0.998993-0.862305-1.470673c0.284103,0.697296,0.586411,1.899384,0.578598,2.258789      l-0.043488,2.083008l2.061096,0.365204c0.3452,0.060577,0.694794,0.087891,1.0439,0.090881      c0.126495,0.000916,0.252396-0.009796,0.378891-0.015686v-3.004822c-0.112289,0.0224-0.240189,0.042023-0.378891,0.055603      C27.97435,52.837158,27.142853,52.799072,26.836258,52.536346z"></path>
				<path fill="#86888B" d="M31.072556,37.736572c-0.668503-0.099609-1.375504-0.164001-2.088409-0.18161v15.163086      c0.083008-0.015686,0.158203-0.03418,0.217804-0.054688c0.324707-0.110413,0.446808-0.478516,0.815399-0.538086      c0.368698-0.059601,0.742706,0.242188,1.126007,0.219696c-0.084,0.004883,0.762192-0.175812,0.612305-0.107422      c0.1465-0.066376,0.288086-0.162079,0.425293-0.276398c0.558105-0.462891,1.0327-1.264587,1.381805-2.01358      c0.191895-0.412201,0.346191-0.807709,0.45459-1.121124c0.138702-0.400391,0.345703-0.758789,0.543503-1.121094      c0.142105-0.259796,0.279709-0.521484,0.379807-0.80368c0.238297-0.67392,0.203201-1.482513,0.286697-2.186615      C35.606247,41.505157,35.194656,38.348846,31.072556,37.736572z"></path>
				<path fill="#8C8E91" d="M25.208755,38.138947c-1.5112,0.630798-2.432098,2.203125-2.928696,3.690399      c-0.497604,1.491211,0.117188,3.207001,0.422394,4.497101c0.048798,0.205017,0.096603,0.416016,0.141602,0.633728      c0.041,0.201172,0.080002,0.407288,0.112793,0.62207c0.176208,1.166016,1.134201,1.890625,1.729004,2.872101      c0.054703,0.089813,0.110809,0.178711,0.158203,0.273407c0.035095,0.070312,0.076096,0.141602,0.121094,0.212921      c0.292908,0.47168,0.752411,0.980499,0.862305,1.470673c0.819794-0.301697,0.327606-0.458984,1.008804,0.125      c0.306595,0.262726,1.138092,0.300812,1.768997,0.237305c0.138702-0.01358,0.266602-0.033203,0.378891-0.055603V37.554962      c-0.126495-0.002991-0.252396-0.007812-0.378891-0.007812C27.428055,37.550049,26.249252,37.705353,25.208755,38.138947z"></path>
				<path fill="#E1E4ED" d="M32.220947,55.147675l-2.335388,0.47168c-0.297409,0.060608-0.599106,0.088898-0.901413,0.103516      v1.208984l2.591812-0.043884l1.020493-0.017609c0,0,0.039108,0.011688,0.115204,0.033203      c0.041504,0.011688,0.096695,0.027283,0.158691,0.044006l-0.647888-1.795898L32.220947,55.147675z"></path>
				<path fill="#EDEFF5" d="M27.561356,55.647675l-2.061096-0.365204l-0.100601-0.017609l-0.586899,1.821289      c0.061493-0.019501,0.116699-0.037079,0.1577-0.049805c0.073288-0.024384,0.111801-0.037079,0.111801-0.037079      l1.147491-0.019501l2.375504-0.041016l0.378891-0.006897V55.72287c-0.126495,0.00589-0.252396,0.016602-0.378891,0.015686      C28.256149,55.735565,27.906555,55.708252,27.561356,55.647675z"></path>
				<path fill="#273B81" d="M26.229752,56.979767l-1.147491,0.019501c0,0-0.038513,0.012695-0.111801,0.037079      c-0.041,0.012726-0.096207,0.030304-0.1577,0.049805c-0.332001,0.105499-0.944809,0.301819-1.694809,0.541016      c-2.3862,0.768585-6.107391,1.967804-6.206497,2.037079c-0.101105,0.07132-1.332597,2.69931-2.073792,4.292999      c-0.486801,1.046906-0.749512,5.170929-0.365204,7.536102h14.478501l0.033188-14.561493l-0.378891,0.006897L26.229752,56.979767      z"></path>
				<path fill="#1A2F7A" d="M40.856247,59.253174c-0.1035-0.065399-3.863297-1.136719-6.274887-1.822327      c-0.754913-0.213776-1.375504-0.38858-1.711014-0.483276c-0.061996-0.016724-0.117188-0.032318-0.158691-0.044006      c-0.076096-0.021515-0.115204-0.033203-0.115204-0.033203l-1.020493,0.017609l-2.591812,0.043884l-0.033188,14.561493h14.435501      c0.497101-2.259674,0.248596-6.914978-0.308105-8.016602C42.282959,61.908447,40.959747,59.320557,40.856247,59.253174z"></path>
			</g>
			<g>
				<g>
					<path fill="#4589FF" d="M33.985657,38.642853c-0.183105-0.146484-0.384308-0.280304-0.587402-0.410187l-0.075699,0.11908       c0.213898,0.1875,0.423798,0.381927,0.613297,0.592804c-1.243195,1.603516-2.339401,3.439514-3.218796,4.836914       c1.151398-2.608398,2.216293-4.712891,2.657196-5.565399c-0.010193-0.006805-0.019501-0.014618-0.029694-0.020508       l0.1147-0.143585c0.072296-0.137726,0.1138-0.216797,0.1138-0.216797s0.005798-0.040009,0.023895-0.108429       c-0.2603-0.294891-1.448196-1.469696-4.620605-1.655182c-0.001495,0-0.002899,0-0.003891,0l-0.000504,8.730408       c0.600601,0,1.202606-0.009705,1.806107-0.02832c0.199295-0.006805,0.39949-0.019501,0.600098-0.027283       c0.4048-0.016602,0.810089-0.032196,1.2173-0.057617c0.241196-0.015686,0.484894-0.037079,0.727097-0.055695       c0.369095-0.027283,0.737793-0.051788,1.108398-0.085907c0.204102-0.018585,0.410599-0.043976,0.615707-0.063477       c0.060593-0.006927,0.12059-0.012726,0.180191-0.019501c0.313004-0.032318,0.625504-0.063507,0.940399-0.100616       c0.002899-0.013702,0.007309-0.027405,0.010803-0.040985C36.702957,42.244354,35.891357,40.10376,33.985657,38.642853z"></path>
					<path fill="#5492FF" d="M36.414856,44.336151c-0.083008,0.010803-0.165604,0.017609-0.248108,0.027405       c-0.314896,0.037109-0.627396,0.068298-0.939896,0.100616c-0.060104,0.006775-0.120102,0.01358-0.180191,0.019501       c-0.205109,0.020477-0.411102,0.044891-0.616211,0.063477c-0.37059,0.034119-0.739304,0.059509-1.107895,0.085907       c-0.242203,0.018616-0.485397,0.040009-0.727097,0.055695c-0.407211,0.024414-0.8125,0.041016-1.2173,0.057617       c-0.200607,0.007782-0.400803,0.020477-0.600494,0.027283c-0.603104,0.018616-1.205109,0.02832-1.806213,0.02832v0.198303       v0.205994v0.279297v0.225586c1.496597,0,2.998108-0.039978,4.506409-0.120087       c0.737289-0.039093,1.419891-0.204102,1.877899-0.436493c-0.063507,0.052673-0.125,0.105499-0.188004,0.157196       c-0.209503,0.172882-0.487305,0.31839-0.795898,0.433594c-0.3535,0.13089-0.751511,0.223602-1.165497,0.253906       c-1.420914,0.106506-2.8311,0.158203-4.234909,0.158203v0.045898v0.310577c1.302704,0,3.116211-0.021484,4.432602-0.112274       c0.313507-0.021515,2.740295-0.400421,3.122604-1.331116c0.083008-0.202209,0.031189-0.410187,0.047302-0.621094       C36.512451,44.405548,36.476852,44.380157,36.414856,44.336151z"></path>
					<path fill="#4B8DFF" d="M26.568665,44.746368c-0.405304-0.016602-0.811508-0.032196-1.219711-0.057617       c-0.241699-0.015686-0.485397-0.037079-0.728104-0.055695c-0.368591-0.026398-0.737289-0.051788-1.107895-0.085907       c-0.201599-0.018585-0.403809-0.041992-0.6064-0.0625c-0.060608-0.00589-0.121597-0.013702-0.182205-0.019592       c-0.3134-0.032196-0.627396-0.064392-0.943298-0.101501c-0.084-0.009796-0.167999-0.016602-0.252502-0.027405       c-0.0625,0.044006-0.097595,0.069397-0.160095,0.113312c0.016602,0.210907-0.046402,0.420898,0.047806,0.621094       c0.480988,1.021515,2.43219,1.186493,2.655792,1.25589l4.899399,0.1875v-0.310577v-0.045898       c-1.416,0-2.838394-0.053711-4.2715-0.161102c-0.414001-0.031311-0.813904-0.120117-1.166-0.251007       c-0.332001-0.123016-0.623001-0.28421-0.837402-0.472687c-0.034698-0.030212-0.067398-0.060516-0.10199-0.09082       c0.457001,0.217804,1.121994,0.369202,1.831497,0.407318c1.5215,0.080994,3.035599,0.121002,4.545395,0.121002v-0.224609       v-0.279297l0.000504-0.205994v-0.198303c-0.601608,0-1.203598-0.009705-1.806198-0.02832       C26.967056,44.766846,26.767853,44.75415,26.568665,44.746368z"></path>
					<path fill="#4589FF" d="M28.971451,45.710175v0.035187v0.412109c1.404297,0,2.814499-0.051697,4.234909-0.158203       c0.413986-0.031219,0.8125-0.123016,1.165497-0.253906c0.308594-0.115204,0.586395-0.260712,0.796402-0.433594       c0.062988-0.051697,0.123993-0.104523,0.186996-0.157196c-0.457001,0.232391-1.140106,0.3974-1.877899,0.436493       C31.969955,45.671173,30.468048,45.710175,28.971451,45.710175z"></path>
					<path fill="#669EFF" d="M22.594559,45.181854c0.034592,0.030304,0.067291,0.060608,0.10199,0.09082       c0.214905,0.188477,0.505402,0.34967,0.837402,0.472687c0.351608,0.13089,0.751999,0.219696,1.166,0.251007       c1.432602,0.107391,2.855499,0.161102,4.2715,0.161102v-0.412109v-0.035187c-1.509796,0-3.023895-0.040009-4.544891-0.121002       C23.717056,45.551971,23.051056,45.399658,22.594559,45.181854z"></path>
					<path fill="#88B3FF" d="M28.971954,36.072571c-3.193893,0.185486-4.378906,1.375-4.624496,1.662079       c-0.030807,0.05072-0.050797,0.073212-0.050797,0.073212l0.011688,0.014709       c0.006409-0.012726,0.019608-0.036224,0.039597-0.085999c0.016602,0.059601,0.0224,0.097687,0.0224,0.097687       s0.04541,0.083008,0.119705,0.221588l0.108902,0.139709c-0.007904,0.004913-0.016693,0.011688-0.024506,0.016602       c0.518112,0.967804,1.810104,3.4375,2.657806,5.569305c-0.8853-1.3974-1.974701-3.233398-3.224197-4.837891       c0.188995-0.2099,0.399002-0.40332,0.613297-0.591827l-0.075195-0.120087c-0.20311,0.13089-0.4048,0.264709-0.588898,0.411194       c-1.905212,1.460907-2.717209,3.601501-2.186005,5.679718c0.001495,0.01358,0.006805,0.027283,0.009293,0.040985       c0.315903,0.037109,0.630402,0.069305,0.943802,0.101501c0.061096,0.00589,0.121597,0.012695,0.182205,0.018616       c0.202103,0.020477,0.405197,0.044891,0.6064,0.063477c0.370605,0.034119,0.739304,0.059509,1.107391,0.085907       c0.24321,0.018616,0.486908,0.040009,0.729004,0.055695c0.407806,0.024414,0.814011,0.041016,1.219803,0.057617       c0.1987,0.007782,0.397903,0.021484,0.596207,0.027283c0.602997,0.018616,1.204987,0.02832,1.806091,0.02832l5.223206-0.254822       l-5.223206-0.291077L28.971954,36.072571z"></path>
				</g>
				<path fill="#5492FF" d="M33.398254,38.232666l0.251892-0.397491c0,0-0.004395-0.009705-0.00679-0.014618      c-0.005905-0.013702-0.019501-0.041992-0.046402-0.093811c-0.018097,0.06842-0.023895,0.108429-0.023895,0.108429      s-0.041,0.078186-0.1138,0.215881c-0.024399,0.047791-0.052704,0.102509-0.085007,0.165009      c-0.440903,0.852509-1.505798,2.956085-2.657196,5.566406c0.879395-1.398407,1.975601-3.234406,3.218796-4.838898      c-0.189499-0.2099-0.399902-0.40332-0.613297-0.59082L33.398254,38.232666z"></path>
				<path fill="#4B8DFF" d="M24.490051,38.055847c-0.074295-0.13858-0.119705-0.220673-0.119705-0.220673      s-0.005798-0.039001-0.0224-0.098602c-0.019989,0.050781-0.0327,0.073273-0.039597,0.085999      c-0.003403,0.003876-0.007294,0.012604-0.007294,0.012604l0.245605,0.396484l0.074692,0.121094      c-0.214798,0.1875-0.424301,0.381897-0.6138,0.59082c1.250504,1.604492,2.339401,3.440491,3.224701,4.837891      c-0.847702-2.132812-2.139694-4.601501-2.658295-5.569305C24.541748,38.151672,24.515457,38.102753,24.490051,38.055847z"></path>
			</g>
		
	
	<path fill="#88B3FF" d="M52.553757,17.395325c0-0.476288-0.285767-0.639587-0.857315-0.707611   c-0.408234-0.054443-0.489883-0.1633-0.489883-0.353821c0-0.190552,0.136093-0.312988,0.408234-0.312988   c0.244949,0,0.381042,0.081635,0.449066,0.285767c0.013626,0.040833,0.054443,0.068024,0.095276,0.068024h0.217697   c0.054443,0,0.095276-0.040802,0.095276-0.095215v-0.013641c-0.054443-0.299376-0.299393-0.5307-0.612366-0.557921v-0.326569   c0-0.054443-0.040817-0.095276-0.108856-0.108887h-0.204117c-0.054443,0-0.095276,0.040802-0.108887,0.108887v0.312958   c-0.408249,0.054443-0.666779,0.326598-0.666779,0.666808c0,0.449066,0.272156,0.625946,0.843689,0.694   c0.381042,0.068054,0.50351,0.149689,0.50351,0.367432s-0.190536,0.367432-0.449066,0.367432   c-0.353821,0-0.476303-0.149719-0.51712-0.353851c-0.013596-0.054413-0.054413-0.081635-0.095245-0.081635h-0.231354   c-0.054413,0-0.09523,0.040833-0.09523,0.095276v0.013611c0.054413,0.340179,0.272141,0.585114,0.721207,0.653168v0.326599   c0,0.054413,0.040833,0.095245,0.108856,0.108856h0.204132c0.054443,0,0.095261-0.040833,0.108887-0.108856v-0.326599   C52.281601,18.048492,52.553757,17.762726,52.553757,17.395325L52.553757,17.395325z"></path>
	<path fill="#88B3FF" d="M50.961609,18.824158c-1.061432-0.381012-1.605759-1.564911-1.211105-2.612762   c0.204117-0.571532,0.653183-1.006988,1.211105-1.211089c0.054443-0.027222,0.08165-0.068024,0.08165-0.136108v-0.190491   c0-0.054443-0.027206-0.095276-0.08165-0.108856c-0.013626,0-0.040833,0-0.054443,0.01358   c-1.292755,0.408234-2.000397,1.782683-1.592148,3.075438c0.244949,0.762054,0.830109,1.347198,1.592148,1.592163   c0.054443,0.027191,0.108887,0,0.122467-0.054443c0.013626-0.013611,0.013626-0.027222,0.013626-0.054413v-0.190552   C51.043259,18.905792,51.002426,18.85141,50.961609,18.824158z M52.404083,14.578431   c-0.054443-0.027191-0.108887,0-0.122482,0.054443c-0.013611,0.013611-0.013611,0.027222-0.013611,0.054443v0.190521   c0,0.054443,0.040817,0.108826,0.08165,0.136078c1.061417,0.381012,1.605759,1.56491,1.211105,2.612761   c-0.204132,0.571533-0.653198,1.006989-1.211105,1.21109c-0.054443,0.027222-0.08165,0.068024-0.08165,0.136108v0.190491   c0,0.054443,0.027206,0.095276,0.08165,0.108856c0.013611,0,0.040817,0,0.054443-0.01358   c1.292755-0.408234,2.000381-1.782684,1.592133-3.075439C53.751282,15.40854,53.152496,14.823396,52.404083,14.578431   L52.404083,14.578431z"></path>
	<g id="l4aE4oxl6eA0n7HKIqyZQxg_1_">
		<g>
			<path id="paodGWIaM_2_" fill="#2C3F84" d="M31.455612,24.669464c-0.025589-0.020477-0.040939-0.043488-0.033264-0.051147"></path>
		</g>
	</g>
	<path fill="#88B3FF" d="M43.30304,14.465364v0.677429c0,0.058044-0.047058,0.105103-0.105118,0.105103h-0.817566   c-0.058044,0-0.105103-0.047058-0.105103-0.105103v-0.677429c0-0.045135-0.036606-0.081757-0.081757-0.081757h-0.362076   c-0.045151,0-0.081757,0.036621-0.081757,0.081757v2.779723c0,0.045166,0.036606,0.081757,0.081757,0.081757h0.362076   c0.045151,0,0.081757-0.036591,0.081757-0.081757v-1.343139c0-0.058044,0.047058-0.105103,0.105103-0.105103h0.817566   c0.05806,0,0.105118,0.047058,0.105118,0.105103v1.343139c0,0.045166,0.036606,0.081757,0.081757,0.081757h0.362061   c0.045151,0,0.081757-0.036591,0.081757-0.081757v-2.779723c0-0.045135-0.036606-0.081757-0.081757-0.081757h-0.362061   C43.339645,14.383607,43.30304,14.420228,43.30304,14.465364z"></path>
	<path fill="#273B81" d="M35.8815,21.049812c-0.335083-0.493652-0.677856-0.838989-1.174072-1.171509   c-1.069214-0.723877-2.445312-0.902954-3.670532-0.483459s-2.204895,1.39917-2.624329,2.62439   c-0.071655,0.20459-0.179077,0.654785-0.181641,0.744324c0,0.002319,0.004822-0.00061,0.005066,0.001404   c-0.008972,0.052612-0.021179,0.15509-0.033203,0.292725c-0.02301,0.240479-0.02301,0.393921,0,0.631836   c0.023926,0.255981,0.076233,0.580078,0.110229,0.705688l-0.005371,0.007935l0.092102,0.273682   c0.153503,0.460449,0.3479,0.833862,0.647156,1.230347c0.0271,0.036926,0.052063,0.06842,0.074341,0.096008l-0.000183,0.003723   l0.14325,0.163696c0.388794,0.450195,1.012878,0.882507,1.598633,1.112671c0.055054,0.021301,0.096619,0.031128,0.124695,0.034241   c0.0354,0.020447,0.085815,0.041626,0.166931,0.065552c0.258362,0.079285,0.555054,0.138123,0.823608,0.16626   c0.302979,0.030884,0.62915,0.027283,0.748962-0.001526c0.020081,0.006531,0.060242,0.002808,0.141174-0.006165   c0.434875-0.048584,0.918274-0.18927,1.342896-0.391357c0.097778-0.046082,0.156799-0.078186,0.192627-0.103271   c0.031555-0.013794,0.071472-0.035339,0.129639-0.070679c0.547424-0.329956,0.979675-0.74176,1.348022-1.28656   C36.820221,24.295723,36.820221,22.443855,35.8815,21.049812z M32.49234,20.978157   c0.020447-0.549927,0.028137-0.624084,0.069031-0.649658c0.056274-0.035828,0.048584-0.038391,1.335205,0.708496l1.023132,0.593445   v0.084412c0,0.084412-0.007629,0.089539-0.524353,0.388794c-0.301819,0.17395-0.55249,0.304382-0.588318,0.304382   c-0.081848-0.002563-1.22522-0.665039-1.289124-0.749451C32.474396,21.599739,32.471832,21.563911,32.49234,20.978157z    M29.911469,21.597176c0.148315-0.102295,2.225342-1.284058,2.258545-1.284058c0.017944,0,0.056274,0.017944,0.081848,0.043518   c0.040955,0.03833,0.046082,0.092041,0.046082,0.662476c0,0.496216-0.00769,0.626648-0.035828,0.657349   c-0.020447,0.017944-0.17395,0.115112-0.345337,0.212341c-0.098145,0.056519-0.175964,0.10553-0.232971,0.143982l-0.01001-0.003357   l-0.130432,0.074219c-0.069092,0.040894-0.219971,0.125305-0.33252,0.18927s-0.222534,0.117676-0.242981,0.117676   c-0.020508,0-0.227661-0.107422-0.460449-0.240479c-0.213013-0.122498-0.31842-0.180115-0.387878-0.207214   c-0.022095-0.02417-0.062378-0.057495-0.123657-0.094604C29.816803,21.758308,29.793793,21.681587,29.911469,21.597176z    M29.668427,24.738228c-0.006042-0.002136-0.006775-0.000549-0.012085-0.00238   c-0.003296-0.005005-0.000366-0.009644-0.005798-0.015503c-0.033264-0.030701-0.038391-0.15094-0.038391-0.72644   c0-0.295471-0.003601-0.485657-0.010681-0.59082l0.010681-0.005188v-0.672729c0-0.422729-0.000244-0.578796-0.013672-0.637146   c0.009888-0.012268,0.025757-0.022522,0.031616-0.038086c0.02301-0.058838,0.043457-0.074219,0.102295-0.074219   c0.040955,0,0.097229,0.017944,0.127869,0.038391c0.012573,0.009155,0.034546,0.014221,0.058533,0.017639   c0.070007,0.052551,0.221252,0.147705,0.401917,0.250916c0.250671,0.145813,0.475769,0.281372,0.501343,0.301819   c0.035828,0.033264,0.043457,0.084412,0.043457,0.314636v0.19696l-0.005127,0.519226l-0.007629,0.521851l-0.171387,0.102295   c-0.067444,0.039001-0.114014,0.072021-0.142944,0.095703c-0.073242,0.029968-0.176147,0.088074-0.373718,0.200989   C29.763092,24.768929,29.755402,24.771492,29.668427,24.738228z M32.282562,25.758797   c-0.017883,0.608765-0.017883,0.621582-0.074158,0.647156c-0.043457,0.017883-0.076721,0.01532-0.135559-0.015381   c-0.012024-0.006348-0.014526-0.005981-0.025513-0.011292l-1.010437-0.584656   c-0.565308-0.327393-1.066589-0.619019-1.112671-0.647156c-0.071594-0.043457-0.084412-0.066467-0.076721-0.130432   c0.00769-0.074158,0.043457-0.099731,0.526917-0.376038c0.215698-0.12439,0.400452-0.236145,0.477478-0.287537   c0.027344-0.003723,0.056641-0.007202,0.077576-0.011719c0.05481-0.012634,0.139771,0.023621,0.454773,0.202454   c0.002197,0.001953,0.000732,0.002869,0.003113,0.004761c0.033447,0.023682,0.048828,0.031799,0.057129,0.029663   c0.05365,0.030701,0.095764,0.05426,0.162842,0.093079c0.329956,0.191833,0.621521,0.373474,0.647095,0.406738   C32.297943,25.134712,32.300507,25.180733,32.282562,25.758797z M34.702301,25.239571l-0.158508,0.093201l-0.000061-0.001099   l-0.626709,0.360657c-0.248474,0.141724-0.46106,0.269287-0.564941,0.33667c-0.025879,0.008972-0.174866,0.089355-0.355835,0.19281   c-0.19696,0.112488-0.373474,0.20459-0.391357,0.20459c-0.020508,0-0.056274-0.017883-0.081848-0.043457   c-0.040955-0.038391-0.046082-0.092102-0.046082-0.662476c0-0.496277,0.00769-0.626709,0.035828-0.65741   c0.020447-0.017883,0.17395-0.115112,0.345337-0.21228c0.152954-0.087219,0.239685-0.140808,0.279236-0.173218   c0.068237-0.032654,0.16748-0.084412,0.296265-0.156738c0.186707-0.104858,0.35553-0.191833,0.375977-0.191833   c0.020508,0,0.153503,0.069031,0.299316,0.150879c0.1026,0.060486,0.174866,0.097534,0.217346,0.116699   c0.054443,0.03717,0.125183,0.082214,0.209778,0.131409c0.373474,0.212341,0.401611,0.235352,0.391357,0.314636   C34.922272,25.096321,34.876251,25.134712,34.702301,25.239571z M35.137177,24.715218   c-0.046082,0.084412-0.145813,0.053711-0.526978-0.168823c-0.207153-0.120239-0.37854-0.217407-0.383667-0.217407   c-0.001038,0-0.000977,0.003845-0.001831,0.004395c-0.023621-0.018311-0.043335-0.035461-0.085144-0.058105   c-0.235291-0.133057-0.230164-0.122803-0.230164-0.437439c0-0.094971-0.002136-0.15564-0.006226-0.199463h0.006226v-0.511597   v-0.511597l0.097168-0.06134c0.235352-0.15094,1.000122-0.578125,1.03595-0.578125c0.02301,0,0.058838,0.017944,0.079285,0.040955   c0.035828,0.035828,0.040955,0.191833,0.040955,1.342896C35.16275,24.211311,35.152496,24.681953,35.137177,24.715218z"></path>


				
				
			
			
		
	
	
	


				
				
				
				
			
			
			
			
			
			
		
	
	
	
	
	


				
				
			
			
			
		
		
		
	
	
	


				
				
			
			
			
			
		
	
	
	
	
	
	
	

</svg>