<svg xmlns="http://www.w3.org/2000/svg" viewBox="0 0 80 80" class="featureSvg_3LcT" alt="Easy to Use"><path fill="#7D97DE" d="M45.293 38.293c-.047-.051-.1-.094-.15-.14-.062-.058-.12-.118-.184-.172l.55.55.004.003-.132-.145-.088-.096z"></path><path fill="#CCC" d="M48.966 41.977v-1.784c-.614.03-1.28.025-1.76-.221a4.289 4.289 0 01-.841-.589l2.601 2.594z"></path><path fill="#FFF" d="M44.952 37.974l.003.003c.066.055.125.117.187.176.05.046.104.089.15.14l.089.096.132.145c.272.298.547.585.848.847l.004.002c.254.22.524.425.842.589.478.246 1.145.25 1.759.221V28.22c-1.938 0-3.877-.082-5.817-.25a4.793 4.793 0 01-1.38-.33 8.78 8.78 0 00.008.691c.005.1.013.263.004.435h-.82c-.002-.131.003-.25.007-.335v-.024a7.74 7.74 0 00.002-.563c-.022-.102-.051-.199-.133-.259-.45-.332-.634.248-.651.592-.063 1.229.113 2.57.658 3.683.315.645.755.83 1.196 1.296.487.517.406 1.531.588 2.177.124.44.311.839.565 1.189.264.364.624.633.994.893.26.182.523.36.765.56zm-.765-.763l.384.383-.384-.382z"></path><path fill="#D5D5D9" d="M56 28.765c-.02-.333.02-.77.056-1.098-.414.16-.855.267-1.312.306a67.84 67.84 0 01-5.778.246v11.974h.008c.222.01.45.012.675.004.399-.014.785-.068 1.092-.226.798-.41 1.334-1.043 1.914-1.678.398-.437.929-.737 1.4-1.095.263-.197.508-.412.7-.678.254-.349.441-.75.565-1.188.182-.646.101-1.66.588-2.177.441-.468.881-.65 1.197-1.296.544-1.113.72-2.454.658-3.682-.018-.345-.202-.925-.652-.592-.203.15-.104.52-.293.645-.006.004-.01.003-.017.007l-.161.528H56zM55.129 27.052a4.857 4.857 0 010 0z"></path><path fill="#FFF" d="M42.428 26.332a100.846 100.846 0 010 0 7.502 7.502 0 000 0z"></path><path fill="#D5D5D9" d="M48.966 26.544a101.039 101.039 0 000 0zM46.586 23.347l.001.002a52.214 52.214 0 01-.001-.002z"></path><path fill="#CCC" d="M51.354 23.35c.244-.482.498-.991.757-1.507-.259.515-.512 1.023-.756 1.504l-.001.002zM48.983 24.995l-.017.001c.279 0 .557-.012.835-.015-.272.003-.545.014-.818.014z"></path><path fill="#818386" d="M57.438 24.471c-.226.028-.452.06-.678.084l.018.001c.22-.024.44-.058.66-.084zM56.774 24.557l-.05.003-.12.015.17-.018zM56.769 26.604a4.742 4.742 0 000 0 3.908 3.908 0 010 0zM56 28.765h.64l.161-.528c.13-.43.259-.868.334-1.166a4.54 4.54 0 01-1.08.596c-.035.329-.076.765-.055 1.098z"></path><path fill="#8C8E91" d="M40.509 24.474c.274.033.548.071.822.1-.274-.029-.548-.068-.822-.101zM46.219 22.196zM41.794 26.26c-.025-.004-.052-.005-.077-.01.025.005.052.006.077.01zM40.968 28.43c-.004.085-.01.204-.007.335h.82c.009-.172 0-.334-.004-.435a8.78 8.78 0 01-.008-.69 4.603 4.603 0 01-.873-.482c.04.23.067.455.074.685a7.74 7.74 0 01-.002.587z"></path><path fill="#D5D5D9" d="M46.36 41.782l2.606 2.35v-2.155l-2.605-2.596a10.131 10.131 0 01-.847-.847l-.005-.003-.55-.55-.004-.004c-.243-.202-.508-.38-.768-.563v2.407l2.173 1.96z"></path><path fill="#CCC" d="M49.114 44.198a.196.196 0 00.132-.05l.995-.899-1.028-1.026-.247-.246v2.155l.018.016c.037.033.084.05.13.05z"></path><path fill="#B5B5B5" d="M52.655 38.293c-.58.635-1.116 1.268-1.914 1.678-.307.158-.693.212-1.092.226a8.19 8.19 0 01-.675-.004h-.008v1.784l.247.246 1.028 1.026 1.461-1.318 2.354-2.123v-2.61c-.472.358-1.003.658-1.4 1.095z"></path><path fill="#BFC5DA" d="M48.255 47.697a.985.985 0 00-.045-.281c-.018-.06-.028-.123-.058-.18l-.48-.902-.722 1.015-1.249 1.757.804 2.385.553 1.82 1.188-5.39c.016-.074.01-.149.009-.224z"></path><path fill="#A1A9C8" d="M49.969 47.57a1 1 0 00.015.351l1.16 5.271.579-1.7.274-.814.476-1.416.05-.162-1.966-2.766-.48.903a1.001 1.001 0 00-.108.333z"></path><path fill="#36488A" d="M48.966 44.56v15.022l.003.008 2.175-6.398-1.16-5.27a1 1 0 01.093-.686l.48-.903-.488-.686-.773-1.088h-.33z"></path><path fill="#506099" d="M48.966 45.672v-1.113h.33l-.021-.03a.186.186 0 00-.138-.073c-.028-.004-.05.011-.077.02-.033.012-.07.014-.094.043l-.006.006a.01.01 0 00-.005.004l-.022.03-.13.181-.336.474-.575.81-.22.31.48.902c.03.057.04.12.058.18a.985.985 0 01.045.281c0 .075.007.15-.01.224l-1.187 5.39 1.908 6.27v-13.91zM48.966 64.683l-8.74-16.807 2.56-1.082-2.947-1.45c.146-.449.464-1.36.844-2.187-3.528 1.07-9.065 2.7-9.177 2.838-3.335 4.143-3.863 13.191-3.863 19.607h21.33c0-.372-.002-.6-.007-.601v-.318z"></path><path fill="#506099" d="M48.966 64.683h.001v.001h-.001z"></path><path fill="#36488A" d="M56.961 57.064h5.441v.306h-5.441z"></path><path fill="#36488A" d="M66.725 45.995c-.134-.122-5.653-1.768-9.181-2.838.382.826.699 1.738.844 2.187l-2.947 1.45 2.564 1.082-8.957 16.963-.082-.155V65c.005 0 .007.23.008.601H70.699c0-7.217-.227-16.167-3.974-19.607zm-7.84 9.073v-.451c0-.294.282-.533.631-.533h.33c.35 0 .63.239.63.533v1.062c0 .294-.28.534-.63.534h-.33c-.349 0-.63-.24-.63-.534v-.61zm4.407 2.807a1.15 1.15 0 01-1.149 1.153H57.22a1.15 1.15 0 01-1.149-1.153V56c0-.368.177-.692.447-.903h1.993v.483c0 .556.45 1.01 1.005 1.01h.33c.556 0 1.006-.454 1.006-1.01v-.483h1.993c.27.21.447.535.447.903v1.876z"></path><path fill="#36488A" d="M56.961 57.771h5.441v.306h-5.441zM52.523 49.1l-.05.162.053-.158z"></path><path fill="#CACFE0" d="M50.241 43.25l-.995.898a.196.196 0 01-.263 0l-.017-.016v.252c.01-.008.02-.015.027-.023.013-.013.025-.025.04-.036.062-.042.12-.034.175-.01a.46.46 0 01.189.177l.043.067h-.143l.772 1.088.488.686v.001l1.967 2.765.003.004.089-.264.203-.605 1.99-5.9c.051.017.123.038.198.06.012.005.02.007.033.01l-.91-2.664-.074.069-2.354 2.122-1.46 1.318z"></path><path fill="#EDEFF5" d="M43.422 42.335l1.718 5.104.3.89.26.777 1.25-1.757.722-1.015.22-.31.575-.81.337-.474.129-.18.022-.031a.01.01 0 01.005-.004l.007-.007c.024-.029.06-.03.093-.042.027-.009.049-.024.077-.02a.185.185 0 01.138.073l.022.03h.143c-.012-.022-.029-.044-.043-.067a.46.46 0 00-.189-.177c-.055-.024-.113-.032-.175.01-.015.01-.027.023-.04.036l-.026.023v-.251l-2.607-2.351-2.173-1.96v-.001l-.089-.08-.909 2.663.093-.027.14-.042z"></path><path fill="#273B81" d="M42.786 46.794l-2.56 1.082 8.74 16.807v-5.101l-1.908-6.271-.553-1.82-.804-2.385-.262-.777-.3-.89-1.716-5.104h-.001c-.037.01-.09.027-.14.042l-.093.027-2.506.753c-.38.826-.698 1.738-.844 2.187l2.947 1.45z"></path><path fill="#0E2472" d="M54.808 42.335l-1.989 5.9-.203.604-.09.264-.053.159-.476 1.416-.274.813-.579 1.701-2.175 6.398-.002-.008v5.101l.08.156 8.958-16.963-2.564-1.082 2.947-1.45a20.908 20.908 0 00-.844-2.187c-1.105-.333-2.013-.605-2.504-.752l-.033-.01-.199-.06z"></path><path fill="#4589FF" d="M54.467 15.294l.012-.016s-.026-.034-.077-.092l.026.043.04.065z"></path><path fill="#4589FF" d="M48.966 24.14l7.794.415c.226-.024.452-.056.678-.084l.15-.018c.459-.057.918-.112 1.378-.177l.003-.066c.15-3.178-1.396-6.111-3.983-7.941a9.582 9.582 0 00-.757-.492l-.076.143c.28.225.559.46.816.715-1.022 1.58-1.98 3.458-2.858 5.208-.259.516-.513 1.025-.757 1.506v-.002.002c1.313-3.825 2.417-6.56 2.844-7.591-.012-.008-.025-.018-.037-.024l.118-.17.107-.254s.002-.046.015-.125c-.34-.34-1.826-1.646-5.43-1.846h-.005v10.8zM51.499 24.949c.3-.011.6-.034.902-.049.55-.027 1.1-.052 1.651-.092.31-.023.62-.057.931-.083.54-.047 1.08-.091 1.62-.15.041-.004.081-.01.122-.015l-7.742.435c.273 0 .546-.01.818-.014.566-.007 1.131-.011 1.698-.032z"></path><path fill="#5492FF" d="M57.438 24.472c-.22.026-.44.06-.66.084h.003l-.007.001-.17.018c-.54.059-1.08.103-1.621.15-.31.026-.62.06-.93.083-.551.04-1.102.065-1.652.092-.301.015-.602.038-.902.049-.567.02-1.132.025-1.698.032-.278.003-.556.015-.835.015V26.543c2.16 0 4.322-.069 6.482-.207 1.053-.068 1.994-.353 2.588-.748-.076.089-.15.178-.227.267a2.73 2.73 0 01-.529.451c-.158.108-.327.21-.511.299a4.742 4.742 0 01-.657.245 4.79 4.79 0 01-.983.202 67.27 67.27 0 01-6.163.284v.883a67.84 67.84 0 005.778-.246 4.794 4.794 0 001.312-.306 4.54 4.54 0 001.079-.596c.062-.047.13-.085.19-.135.366-.041.73-.075 1.096-.122.763-.097 1.329-.717 1.254-1.367l-.118-1.031c-.098-.072-.155-.112-.254-.183-.112.016-.225.027-.337.043-.46.065-.919.12-1.378.177l-.15.019z"></path><path fill="#4B8DFF" d="M43.149 27.97c1.94.167 3.88.25 5.817.25v-.884c-2.07 0-4.144-.097-6.216-.289a4.858 4.858 0 01-1.64-.442 3.723 3.723 0 01-.567-.34 2.647 2.647 0 01-.522-.477l-.122-.153c.443.274 1.064.488 1.768.607l.023.006c.009.001.019.001.027.003.025.004.052.005.077.009.207.03.417.058.635.072 1.137.074 2.275.126 3.413.16 1.042.033 2.083.052 3.124.052V24.996a70.03 70.03 0 01-2.542-.047c-.249-.01-.498-.029-.747-.04-.6-.03-1.199-.057-1.799-.101-.3-.022-.6-.055-.9-.08-.549-.048-1.098-.093-1.647-.153-.274-.03-.548-.068-.822-.101l-.187-.024c-.45-.056-.9-.104-1.349-.168v-.005c-.114-.017-.229-.028-.343-.044-.1.07-.156.112-.254.183-.04.345-.08.688-.118 1.03-.075.65.49 1.271 1.254 1.368.354.045.71.078 1.064.12.1.082.212.15.32.224.272.187.56.355.873.482.432.174.898.288 1.38.33z"></path><path fill="#4589FF" d="M56.112 26.85c.228-.07.453-.148.657-.246.184-.088.353-.19.511-.298.202-.137.385-.285.53-.452l.226-.266c-.594.395-1.535.68-2.588.748-2.16.138-4.322.208-6.482.208v.792a67.27 67.27 0 006.163-.284c.345-.031.67-.106.983-.202z"></path><path fill="#88B3FF" d="M40.322 24.45l.187.023c.274.033.548.072.822.102.549.06 1.098.105 1.648.152.3.026.6.059.899.08.6.045 1.2.073 1.799.101.249.012.498.032.747.04.849.032 1.696.048 2.542.048h.017l7.742-.436.049-.003h.007-.003l-.018-.002-7.794-.416v-10.8c-3.628.201-5.112 1.524-5.434 1.855a.83.83 0 01-.07.084l.012.017c.01-.014.028-.041.058-.099.012.069.014.114.014.114l.03.069.084.19.001.003.11.16-.03.021c.34.784 1.065 2.506 1.797 4.502.23.628.461 1.277.68 1.941.128.383.252.769.369 1.153v-.002.002c-1.08-2.114-2.291-4.668-3.624-6.714.124-.123.261-.23.392-.344.142-.123.278-.254.423-.37l-.039-.077-.035-.068c-.259.156-.518.316-.758.492-2.587 1.83-4.133 4.765-3.975 7.942-.002.022.001.044.002.067v.005c.45.064.9.112 1.35.168z"></path><path fill="#669EFF" d="M48.966 26.605v-.061c-1.04 0-2.082-.019-3.123-.051a99.867 99.867 0 01-3.415-.16 7.502 7.502 0 01-.634-.073c-.025-.004-.052-.005-.077-.01-.008 0-.018 0-.027-.002l-.023-.006c-.704-.12-1.325-.333-1.768-.607l.122.153c.14.174.32.332.522.477.172.125.36.24.567.34.48.23 1.044.388 1.64.442 2.072.192 4.146.289 6.216.289v-.731z"></path><path fill="#4B8DFF" d="M43.778 15.92c-.145.117-.281.248-.423.371-.13.115-.268.22-.392.344 1.333 2.046 2.543 4.6 3.624 6.714l-.001-.002c-.117-.384-.24-.769-.367-1.151-.22-.664-.45-1.313-.681-1.94a88.295 88.295 0 00-1.798-4.503l-.079-.181v-.003l-.085-.19-.03-.069s-.002-.045-.014-.114c-.03.058-.048.085-.058.1l-.01.014.24.466.035.068.04.076z"></path><path fill="#5492FF" d="M54.386 15.31l-.107.253v.001l-.08.194c-.428 1.03-1.532 3.766-2.845 7.591v-.002c.245-.48.498-.989.757-1.504.878-1.75 1.836-3.628 2.858-5.208a10.43 10.43 0 00-.816-.715l.076-.142v-.001l.248-.467-.01-.016-.04-.065c-.009-.015-.01-.02-.025-.043H54.4v-.001c-.013.08-.015.125-.015.125z"></path><path fill="#F7F7F8" d="M62.845 55.096h-1.993v.483c0 .556-.45 1.01-1.005 1.01h-.33a1.008 1.008 0 01-1.006-1.01v-.483h-1.993c-.27.21-.447.535-.447.903v1.876a1.15 1.15 0 001.149 1.153h4.923a1.15 1.15 0 001.149-1.153V56c0-.368-.178-.692-.447-.903zm-.443 2.981h-5.441v-.306h5.441v.306zm0-.707h-5.441v-.306h5.441v.306z"></path><path fill="#F7F7F8" d="M59.516 56.213h.33c.35 0 .63-.24.63-.534v-1.062c0-.294-.28-.533-.63-.533h-.33c-.349 0-.63.239-.63.533v1.062c0 .294.281.534.63.534z"></path><g><path fill="#88B3FF" d="M25.304 12.404a7.453 7.453 0 00-1.369.747l-1.813-1.131-1.932 2.178 1.352 1.681a7.498 7.498 0 00-.562 1.44l-2.132.3-.079 2.912 2.139.422c.114.504.279.986.488 1.442l-1.455 1.618 1.809 2.281 1.93-1.06c.399.301.828.565 1.282.78l-.076 2.195 2.854.585.406-1.052v-2.44a6.019 6.019 0 01-.858-11.974c.289-.043.575-.057.858-.058V9.846l-2.797.415-.045 2.143z"></path><path fill="#4589FF" d="M36.604 14.957l-2.141.332c-.278-.436-.6-.84-.957-1.207l.805-1.997-2.48-1.524-1.414 1.616a7.349 7.349 0 00-1.526-.31l-.662-2.033-.082.012v3.423a6.02 6.02 0 01.906 11.974c-.305.046-.606.06-.906.059v2.44l.392-1.011a7.385 7.385 0 001.476-.222l1.359 1.735 2.56-1.386-.713-2.09c.368-.34.7-.716.993-1.122l2.15.455 1.07-2.706-1.873-1.135c.064-.496.08-1.002.042-1.516l1.922-1.024-.92-2.763z"></path><path fill="#669EFF" d="M22.212 20.17a6.02 6.02 0 005.935 5.132v-1.234a4.783 4.783 0 01-4.712-4.08 4.788 4.788 0 014.034-5.438c.228-.033.453-.045.678-.046v-1.235c-.284 0-.57.016-.86.06a6.023 6.023 0 00-5.075 6.84z"></path><path fill="#5492FF" d="M28.147 13.27v1.234a4.786 4.786 0 014.76 4.08 4.787 4.787 0 01-4.034 5.437 4.745 4.745 0 01-.726.047v1.234c.3 0 .601-.013.906-.058a6.018 6.018 0 00-.907-11.974z"></path></g><path fill="#88B3FF" d="M17.465 26.144l-.132-1.468-1.106-.087a3.784 3.784 0 00-.325-.695l.636-.901-1.045-1.04-.894.637a3.812 3.812 0 00-.707-.329l-.09-1.086-1.47-.126-.272 1.054c-.257.041-.512.11-.761.206l-.762-.769-.034.025-1.172.824.467.98c-.173.202-.323.42-.449.649l-1.078-.098-.378 1.424.994.453c-.002.26.022.522.075.78l-.897.621.627 1.335 1.063-.294c.167.2.351.381.55.54l-.291 1.063 1.338.62.631-.918c.25.045.504.067.758.061l.467 1.01 1.423-.385-.055-.568-.053-.547a4.014 4.014 0 00.618-.436l1.009.476.843-1.21-.798-.784c.09-.237.154-.484.194-.733l1.076-.284zm-3.45 1.61c-.1.069-.203.127-.309.18a2.35 2.35 0 01-2.397-4.027c.093-.064.19-.12.288-.17a2.349 2.349 0 012.418 4.016z"></path><path fill="#4589FF" d="M40.149 33.85l-.146-1.625-1.225-.096a4.125 4.125 0 00-.36-.77l.705-.997-1.157-1.151-.989.705a4.176 4.176 0 00-.783-.363l-.1-1.204-1.626-.138-.301 1.167a4.208 4.208 0 00-.843.227l-.843-.85-.038.026-1.297.913.517 1.085a4.233 4.233 0 00-.497.717l-1.194-.109-.418 1.578 1.1.502c-.002.288.025.577.082.862l-.992.688.694 1.477 1.177-.326c.184.223.389.424.608.598l-.321 1.178 1.48.687.7-1.017c.276.05.557.073.839.068l.516 1.117 1.575-.426-.06-.63-.06-.604a4.28 4.28 0 00.684-.483l1.117.526.933-1.339-.882-.867a4.28 4.28 0 00.215-.812l1.19-.314zm-3.82 1.782c-.109.077-.224.14-.34.198a2.6 2.6 0 01-2.336-4.643 2.599 2.599 0 013.308.819 2.602 2.602 0 01-.631 3.626z"></path><g><path fill="#36488A" d="M26.835 32.399l-3.293-4.026c-.078-.116-.33-.121-.564-.021l-.216.093 7.98 18.544c.349-.145.655-.297.913-.463L27.11 35.965l-.275-3.566z"></path><path fill="#506099" d="M22.547 28.537c-.235.102-.404.287-.373.425l.659 5.16 2.402 2.65 4.542 10.556c.357-.106.676-.219.965-.34l-7.98-18.543-.215.092z"></path><path fill="#4589FF" d="M38.422 55.858l-.4-.89c-2.475-2.087-3.685-4.9-3.747-8.344a1.577 1.577 0 00-.592-.403 1.843 1.843 0 00-1.416.018s-.194.086-.487.211c-.038.027-.084.05-.125.076a5.863 5.863 0 01-.913.463l9.645 22.41 1.558-.671a1.857 1.857 0 00.97-2.433l-4.493-10.437z"></path><path fill="#88B3FF" d="M29.777 47.328c-.047.014-.09.03-.138.043-.293.126-.488.207-.488.207a1.85 1.85 0 00-.986 1.019c-.089.22-.116.468-.112.709 2.415 2.427 3.625 5.24 3.48 8.456.122.3.246.599.371.9l4.493 10.437a1.856 1.856 0 002.432.97l1.558-.669-9.645-22.411a9.92 9.92 0 01-.965.339z"></path></g><g><path fill="#36488A" d="M27.907 68.42l-2.405-1.742.304-2.955 1.379-.617-11.532-25.773-.017.024-4.023-.414-1.6-3.574a5.213 5.213 0 00.005 4.252 5.232 5.232 0 004.492 3.087l9.615 21.49a5.232 5.232 0 00-.692 5.406 5.235 5.235 0 006.917 2.64l.024-.012-1.088-2.43-1.379.618z"></path><path fill="#1F337D" d="M28.5 60.24l-9.616-21.49a5.233 5.233 0 00.692-5.405 5.22 5.22 0 00-3.167-2.837l1.598 3.574-2.354 3.251 11.532 25.773 1.332-.595 2.406 1.742-.153 1.477.607 1.355-.607-1.355-.152 1.476-1.332.596 1.088 2.43a5.235 5.235 0 002.617-6.905A5.235 5.235 0 0028.5 60.24z"></path></g><g><path fill="#88B3FF" d="M30.89 21.52h-.906l-.604-2.178-1.251 2.179h-1.014l1.941-3.386-.302-1.187-2.653 4.573h-1.014l3.365-5.78h.885l.388 1.423h.906l-.626 1.1.884 3.257z"></path></g><g opacity="0.7"><path fill="#88B3FF" d="M36.29 34.827h-.472l-.314-1.134-.651 1.134h-.528l1.01-1.762-.157-.618-1.38 2.38h-.528l1.751-3.008h.46l.202.74h.472l-.326.573.46 1.695z"></path></g><g opacity="0.7"><path fill="#88B3FF" d="M14.04 27.037h-.471l-.315-1.134-.65 1.134h-.529l1.01-1.762-.156-.618-1.381 2.38h-.528l1.752-3.009h.46l.202.741h.471l-.325.573.46 1.695z"></path></g></svg>
