<svg xmlns:x="http://ns.adobe.com/Extensibility/1.0/" xmlns:i="http://ns.adobe.com/AdobeIllustrator/10.0/" xmlns:graph="http://ns.adobe.com/Graphs/1.0/" xmlns="http://www.w3.org/2000/svg" xmlns:xlink="http://www.w3.org/1999/xlink" version="1.1" id="Layer_1" x="0px" y="0px" viewBox="0 0 80 80" enable-background="new 0 0 80 80" xml:space="preserve">

<g>
	<path fill="#88B3FF" d="M36.407913,17.733595c-0.980297,0.407396-1.901726,0.914373-2.759056,1.505007l-3.655491-2.279686   l-3.894962,4.39086l2.725584,3.388992c-0.47452,0.921232-0.853292,1.891848-1.131878,2.900764l-4.297529,0.608175   l-0.159454,5.867451l4.311241,0.85128c0.230408,1.016781,0.562004,1.987396,0.983311,2.907623l-2.932207,3.261997   l3.645807,4.597481l3.889935-2.136772c0.805115,0.607166,1.670303,1.13773,2.584686,1.573753l-0.151596,4.422508l5.752144,1.179054   l0.819035-2.120037v-4.917595c-5.902733-0.017738-11.069281-4.331795-11.960068-10.347813   c-0.984327-6.634064,3.595615-12.806507,10.23069-13.789825c0.581566-0.086679,1.158489-0.115101,1.729378-0.118122v-6.900763   l-5.639061,0.835561L36.407913,17.733595z"></path>
	<path fill="#4589FF" d="M59.187283,22.880388l-4.316067,0.668446c-0.561001-0.878092-1.207684-1.693089-1.929344-2.433296   l1.623138-4.02479l-4.999237-3.072914l-2.851379,3.257969c-0.99017-0.312859-2.019848-0.526533-3.075935-0.625916   l-1.333672-4.097557l-0.166298,0.025599v6.899755c5.943043-0.029438,11.160786,4.299335,12.058434,10.346796   c0.983311,6.635073-3.59663,12.808523-10.23069,13.790834c-0.615234,0.092533-1.222401,0.120144-1.827744,0.117325v4.919407   l0.790398-2.038399c0.4842-0.023785,0.971424-0.070953,1.460667-0.14373c0.516651-0.074783,1.0196-0.178192,1.514687-0.304184   l2.739296,3.498051l5.160702-2.793324l-1.436066-4.213665c0.74202-0.68417,1.410469-1.44212,2.001102-2.260944l4.333817,0.9174   l2.157528-5.45602l-3.776833-2.288361c0.129002-0.999043,0.162468-2.01985,0.085663-3.054373l3.873199-2.065004   L59.187283,22.880388z"></path>
	<path fill="#669EFF" d="M30.175398,33.386639c0.892803,6.016018,6.06016,10.328259,11.963091,10.346001v-2.487328   c-4.688198-0.016724-8.789787-3.445034-9.497543-8.223736c-0.782339-5.271973,2.85944-10.180498,8.131214-10.96203   c0.459808-0.066923,0.91357-0.091522,1.366329-0.093538v-2.488323c-0.571896,0.001007-1.148819,0.03245-1.731392,0.119129   C33.773029,20.578117,29.193087,26.752575,30.175398,33.386639z"></path>
	<path fill="#5492FF" d="M42.138489,19.478691v2.487316c4.728508-0.027613,8.881092,3.412586,9.595703,8.22576   c0.781536,5.270765-2.860249,10.178484-8.132221,10.959009c-0.492062,0.074783-0.980297,0.095543-1.463482,0.094536v2.48914   c0.605343,0.001007,1.212509-0.026604,1.827744-0.11813c6.633053-0.983318,11.211987-7.156769,10.23069-13.790833   C53.299274,23.774197,48.081532,19.448246,42.138489,19.478691z"></path>
</g>
<g>
	<g>
		<path fill="#BDC3D9" d="M61.443668,56.513279l-49.243904,2.944408l-0.020011-0.256142    c0.130752-0.060719,0.258426-0.128384,0.382242-0.205353c1.898412-1.176125,3.05217-4.157478,2.784526-7.607323    c-0.285372-3.674427-2.111467-6.895073-4.404417-7.98661c-0.399188-0.189991-0.813809-0.316887-1.237636-0.369961    c-0.028448-0.003075-0.055383-0.01387-0.083818-0.016945c-0.036934-0.003773-0.072305,0.000793-0.108457-0.002285    c-0.02387-0.001488-0.046946,0-0.070803-0.000793c-2.967582-0.144608-5.174357,3.444508-4.799049,8.161243    c0.382338,4.805096,3.264528,8.541103,6.275113,8.361137c0,0,11.358008,1.476856,13.567067,5.568951    c4.069118-0.206116,40.645927-5.329758,40.645927-5.329758S64.349716,57.515491,61.443668,56.513279z M10.843646,58.590084    c-2.659135,0.134609-5.189009-3.1745-5.525171-7.402794c-0.336102-4.234352,1.680693-7.465023,4.376761-7.221931    c0.455352,0.041512,0.898409,0.184631,1.323041,0.404621c1.966774,1.019928,3.52287,3.815956,3.771368,7.008099    c0.248426,3.188339-0.875405,5.922062-2.685275,6.861275C11.714399,58.441605,11.292844,58.567005,10.843646,58.590084z"></path>
		<path fill="#EDEFF5" d="M9.406799,43.003071l0.03459,0.009205c0.023857,0.000793,0.046933-0.000694,0.070803,0.000793    L9.406799,43.003071z"></path>
		<path fill="#9EA7C7" d="M14.789645,51.378078c-0.248498-3.192142-1.804594-5.988171-3.771368-7.008099    c-0.424632-0.21999-0.867689-0.36311-1.323041-0.404621c-2.696068-0.243092-4.712864,2.987579-4.376761,7.221931    c0.336163,4.228294,2.866036,7.537403,5.525171,7.402794c0.449198-0.023079,0.870753-0.148479,1.260724-0.350731    C13.91424,57.30014,15.038072,54.566418,14.789645,51.378078z M10.775981,57.729328    c-2.339967,0.098457-4.554458-2.820667-4.849048-6.529655c-0.293797-3.713726,1.467638-6.563553,3.835968-6.369785    c0.457707,0.037716,0.903049,0.190762,1.324604,0.432335c1.668338,0.953781,2.976007,3.360619,3.189062,6.105133    c0.213849,2.742931-0.720784,5.097389-2.242218,5.983505C11.649739,57.574718,11.228965,57.710121,10.775981,57.729328z"></path>
		<path fill="#EDEFF5" d="M14.276567,51.367355c-0.213055-2.744514-1.520724-5.151352-3.189062-6.105133    c-0.421556-0.241573-0.866897-0.394619-1.324604-0.432335c-2.36833-0.193768-4.129765,2.656059-3.835968,6.369785    c0.29459,3.708988,2.509081,6.628113,4.849048,6.529655c0.452984-0.019207,0.873758-0.15461,1.258368-0.378468    C13.555783,56.464745,14.490417,54.110287,14.276567,51.367355z M11.649739,56.108658    c-0.306092,0.176914-0.64068,0.282291-1.000724,0.296162c-1.855241,0.06995-3.605186-2.249153-3.835969-5.183659    c-0.231492-2.935276,1.159191-5.192867,3.032171-5.047466c0.363024,0.028439,0.716133,0.148479,1.050734,0.33847    c1.3253,0.751507,2.367609,2.659832,2.538371,4.842834C13.605804,53.536488,12.860442,55.408665,11.649739,56.108658z"></path>
		<path fill="#BDC3D9" d="M13.434322,51.355c-0.170762-2.183002-1.213071-4.091328-2.538371-4.842834    c-0.3346-0.189991-0.68771-0.310032-1.050734-0.33847c-1.872981-0.145401-3.263663,2.11219-3.032171,5.047466    c0.230783,2.934505,1.980728,5.253609,3.835969,5.183659c0.360044-0.01387,0.694632-0.119247,1.000724-0.296162    C12.860442,55.408665,13.605804,53.536488,13.434322,51.355z"></path>
		<path fill="#EDEFF5" d="M62.675941,52.341927c-0.140835-2.02224-0.73386-3.741367-1.396114-4.133705l-0.004662-0.063099    l-0.230686-0.023075l0,0l0,0L9.704467,43.032299c0.423826,0.053074,0.838448,0.17997,1.237636,0.369961    c2.29295,1.091537,4.119045,4.31139,4.404417,7.98661c0.267644,3.449844-0.886114,6.431198-2.784526,7.607323    c-0.123816,0.076969-0.252284,0.144634-0.382242,0.205353l0.020011,0.256142l49.243904-2.944408l0.184605-0.010796    l0.227634-0.01387l-0.003773-0.063072C62.460522,56.060223,62.816708,54.362579,62.675941,52.341927z"></path>
	</g>
	<g>
		<path fill="#4F72D3" d="M48.528843,42.975426L39.441559,62.57375L73.77388,56.4902l1.461494-0.259216l0.439186-0.07774    l0.92614-0.161552L48.528843,42.975426z M46.147434,57.863937l4.359756-8.8727l13.563999,5.776661L46.147434,57.863937z"></path>
		<g>
			<g>
				<path fill="#F7F7F8" d="M48.226547,44.409904c-0.053795,0.115379-0.022305,0.243069,0.070023,0.286167      c0.092304,0.043076,0.210781-0.015362,0.263859-0.130764l0.600742-1.296097l-0.333881-0.154606L48.226547,44.409904z"></path>
			</g>
			<g>
				<path fill="#F7F7F8" d="M49.563435,45.029949c-0.053867,0.115307-0.022282,0.242996,0.070717,0.286068      c0.092327,0.043102,0.209991-0.016129,0.263092-0.130737l0.601532-1.296097l-0.334599-0.154606L49.563435,45.029949z"></path>
			</g>
			<g>
				<path fill="#F7F7F8" d="M50.900322,45.649921c-0.053101,0.115307-0.021587,0.243065,0.07074,0.286068      c0.092304,0.043076,0.209969-0.016151,0.263859-0.13076l0.600742-1.296074l-0.334599-0.154633L50.900322,45.649921z"></path>
			</g>
			<g>
				<path fill="#F7F7F8" d="M52.237137,46.269871c-0.053101,0.115402-0.021515,0.243088,0.070812,0.286163      c0.092304,0.043003,0.209991-0.016224,0.263786-0.130836l0.600742-1.296093l-0.334599-0.15461L52.237137,46.269871z"></path>
			</g>
			<g>
				<path fill="#F7F7F8" d="M53.574024,46.889843c-0.053101,0.115402-0.021587,0.243065,0.07074,0.286163      c0.092304,0.042282,0.209969-0.016151,0.263859-0.130836l0.600742-1.296093l-0.334599-0.15461L53.574024,46.889843z"></path>
			</g>
			<g>
				<path fill="#F7F7F8" d="M54.910908,47.509815c-0.053097,0.115379-0.021584,0.243065,0.070744,0.28614      c0.092304,0.042305,0.209991-0.016129,0.263859-0.130741l0.600742-1.296165l-0.333881-0.155331L54.910908,47.509815z"></path>
			</g>
			<g>
				<path fill="#F7F7F8" d="M56.247723,48.129761c-0.053097,0.115406-0.021511,0.243092,0.070816,0.286167      c0.092304,0.042305,0.210686-0.016155,0.263786-0.130741l0.600742-1.296093l-0.333809-0.155403L56.247723,48.129761z"></path>
			</g>
			<g>
				<path fill="#F7F7F8" d="M57.585403,48.749733c-0.05389,0.115406-0.022377,0.243065,0.06995,0.285374      c0.093098,0.043076,0.210758-0.015362,0.263859-0.130764l0.600742-1.295303l-0.333809-0.155399L57.585403,48.749733z"></path>
			</g>
			<g>
				<path fill="#F7F7F8" d="M58.922218,49.369705c-0.053795,0.115379-0.022282,0.243065,0.070789,0.285374      c0.092327,0.043072,0.209991-0.015362,0.263088-0.130764l0.600742-1.295303l-0.333878-0.155399L58.922218,49.369705z"></path>
			</g>
			<g>
				<path fill="#F7F7F8" d="M60.259106,49.989655c-0.053101,0.114609-0.021515,0.243088,0.070717,0.28537      c0.092327,0.043098,0.210014-0.015358,0.263088-0.130737l0.601536-1.295303l-0.334599-0.155403L60.259106,49.989655z"></path>
			</g>
			<g>
				<path fill="#F7F7F8" d="M61.595993,50.609627c-0.053101,0.114609-0.021587,0.243065,0.070717,0.28537      c0.092327,0.043076,0.209991-0.015358,0.263882-0.130737l0.600742-1.295303l-0.334599-0.155426L61.595993,50.609627z"></path>
			</g>
			<g>
				<path fill="#F7F7F8" d="M62.932808,51.229599c-0.053101,0.114681-0.021515,0.243065,0.070812,0.285442      c0.092304,0.043003,0.209991-0.01543,0.263786-0.130836l0.600742-1.2953l-0.334599-0.155403L62.932808,51.229599z"></path>
			</g>
			<g>
				<path fill="#F7F7F8" d="M64.269691,51.849644c-0.05307,0.114609-0.021584,0.242992,0.070717,0.28537      c0.092331,0.043003,0.209991-0.015457,0.263885-0.130836l0.600739-1.2953l-0.333801-0.155403L64.269691,51.849644z"></path>
			</g>
			<g>
				<path fill="#F7F7F8" d="M65.606583,52.469612c-0.053101,0.11459-0.021591,0.243069,0.07074,0.285351      c0.0923,0.043098,0.210762-0.015434,0.263855-0.130741l0.600746-1.296165l-0.333878-0.154537L65.606583,52.469612z"></path>
			</g>
			<g>
				<path fill="#F7F7F8" d="M66.944191,53.089561c-0.053894,0.114609-0.022308,0.242298,0.070015,0.285374      c0.092308,0.043072,0.210693-0.015434,0.263786-0.130741l0.600746-1.296097l-0.333809-0.154633L66.944191,53.089561z"></path>
			</g>
			<g>
				<path fill="#F7F7F8" d="M68.281075,53.709534c-0.053894,0.114609-0.022377,0.242271,0.069946,0.28537      c0.092308,0.043076,0.210762-0.015358,0.263863-0.13076l0.601532-1.296074l-0.334602-0.154633L68.281075,53.709534z"></path>
			</g>
			<g>
				<path fill="#F7F7F8" d="M69.617889,54.328712c-0.053795,0.115379-0.022308,0.243065,0.070023,0.28614      c0.093094,0.043098,0.210754-0.015358,0.263855-0.130737l0.601463-1.296097l-0.334602-0.15461L69.617889,54.328712z"></path>
			</g>
			<g>
				<path fill="#F7F7F8" d="M70.954773,54.948685c-0.053093,0.115379-0.021507,0.243065,0.070724,0.28614      c0.092323,0.043098,0.209984-0.015358,0.263878-0.130737l0.600746-1.296097l-0.334602-0.15461L70.954773,54.948685z"></path>
			</g>
			<g>
				<path fill="#F7F7F8" d="M72.291664,55.568634c-0.053101,0.115402-0.021584,0.243065,0.070717,0.286163      c0.092323,0.043076,0.209991-0.015358,0.263885-0.130764l0.600739-1.29607l-0.334602-0.154633L72.291664,55.568634z"></path>
			</g>
			<g>
				<path fill="#F7F7F8" d="M73.628479,56.188606c-0.053101,0.115379-0.021515,0.243065,0.070816,0.286163      c0.0923,0.043076,0.209961-0.015362,0.263779-0.130764l0.600746-1.296093l-0.334602-0.15461L73.628479,56.188606z"></path>
			</g>
			<g>
				<polygon fill="#F7F7F8" points="75.235374,56.230984 75.674561,56.153244 75.900703,55.667091 75.56839,55.513275     "></polygon>
			</g>
		</g>
	</g>
	<g>
		<path fill="#8F99BE" d="M18.13483,64.324394l0.284651,1.032303c0.109179,0.3946,0.527657,0.623817,0.934561,0.510704    l1.037659-0.28614l-0.482286-1.746799L18.13483,64.324394z"></path>
		<path fill="#D9DADB" d="M18.445635,62.578316c-0.406906,0.112301-0.648481,0.523872-0.53923,0.918491l0.228426,0.827587    l1.774584-0.489933l-0.426195-1.54224L18.445635,62.578316z"></path>
		<polygon fill="#2E57CB" points="52.873238,56.614811 53.020226,56.573997 53.007149,56.525558   "></polygon>
		<polygon fill="#5476D4" points="51.96484,53.325706 52.125603,53.334141 52.112526,53.284912   "></polygon>
		<polygon fill="#2E57CB" points="23.97846,62.711433 21.397772,63.42371 21.880058,65.170578 23.723808,64.661346     52.873238,56.614811 52.390953,54.867943   "></polygon>
		<polygon fill="#5476D4" points="22.816181,61.372242 20.972443,61.881474 21.397772,63.42371 23.97846,62.711433     52.390953,54.867943 51.96484,53.325706   "></polygon>
		<polygon fill="#7683AF" points="19.79859,62.20528 19.483219,62.292221 19.909414,63.834461 20.224712,63.747517     21.397772,63.42371 20.972443,61.881474   "></polygon>
		<polygon fill="#5F6EA2" points="20.224712,63.747517 19.909414,63.834461 20.391701,65.581261 20.707069,65.494362     21.880058,65.170578 21.397772,63.42371   "></polygon>
		<polygon fill="#3B4B82" points="54.163177,54.378735 54.482418,55.534836 57.353035,53.608002 57.018433,53.591076   "></polygon>
		<polygon fill="#9EA0A2" points="54.163177,54.378735 57.018433,53.591076 53.900906,53.427238   "></polygon>
		<polygon fill="#5996FF" points="52.537941,54.827919 52.390953,54.867943 52.873238,56.614811 53.007149,56.525558     54.482418,55.534836 54.163177,54.378735   "></polygon>
		<polygon fill="#88B3FF" points="52.125603,53.334141 51.96484,53.325706 52.390953,54.867943 52.537941,54.827919     54.163177,54.378735 53.900906,53.427238   "></polygon>
	</g>
	<g>
		<path fill="#E6E6E7" d="M18.165623,62.4114l0.109959,0.893829c0.042294,0.342316,0.455425,0.573029,0.923059,0.515362    l1.191484-0.146893l-0.186121-1.513008L18.165623,62.4114z"></path>
		<path fill="#8F99BE" d="M18.847107,60.970695c-0.466927,0.056946-0.811527,0.381546-0.769148,0.723068l0.087664,0.717636    l2.038382-0.25071l-0.164619-1.336887L18.847107,60.970695z"></path>
		<polygon fill="#2E57CB" points="57.693859,59.080013 57.86306,59.059292 57.8577,59.01701   "></polygon>
		<polygon fill="#5476D4" points="57.343037,56.23019 57.516872,56.251701 57.511513,56.209396   "></polygon>
		<polygon fill="#8590B8" points="24.876858,61.584515 21.913927,61.949905 22.100048,63.463707 24.216864,63.202927     57.693859,59.080013 57.507668,57.567005   "></polygon>
		<polygon fill="#55649C" points="23.866135,60.35231 21.749308,60.613018 21.913927,61.949905 24.876858,61.584515     57.507668,57.567005 57.343037,56.23019   "></polygon>
		<polygon fill="#0A3ABF" points="20.400919,60.779213 20.039385,60.823803 20.204004,62.16069 20.565538,62.116028     21.913927,61.949905 21.749308,60.613018   "></polygon>
		<polygon fill="#2E57CB" points="20.565538,62.116028 20.204004,62.16069 20.390125,63.673698 20.752441,63.629036     22.100048,63.463707 21.913927,61.949905   "></polygon>
		<polygon fill="#9EA7C7" points="59.542961,57.316296 59.66608,58.317787 63.184383,56.957031 62.822067,56.912464   "></polygon>
		<polygon fill="#9EA0A2" points="59.542961,57.316296 62.822067,56.912464 59.441425,56.491692   "></polygon>
		<polygon fill="#88B3FF" points="57.676144,57.54549 57.507668,57.567005 57.693859,59.080013 57.8577,59.01701     59.66608,58.317787 59.542961,57.316296   "></polygon>
		<polygon fill="#498BFF" points="57.516872,56.251701 57.343037,56.23019 57.507668,57.567005 57.676144,57.54549     59.542961,57.316296 59.441425,56.491692   "></polygon>
	</g>
</g>
<g id="Layer_2_2_">
	<g>
		<path fill="#88B3FF" d="M49.245266,31.792299c0-0.939211-1.176178-1.829306-2.979485-2.381271    c0.416122-1.837971,0.231178-3.300257-0.583763-3.768415c-0.187862-0.109818-0.407471-0.161839-0.647354-0.161839v0.644449    c0.132973,0,0.239883,0.026011,0.329487,0.07514c0.392982,0.225407,0.563488,1.083706,0.430565,2.187649    c-0.031796,0.271643-0.083817,0.557751-0.147362,0.849619c-0.566456-0.138708-1.184879-0.245632-1.835102-0.314999    c-0.390114-0.53462-0.79472-1.020124-1.20219-1.444941c0.942131-0.875631,1.826401-1.355362,2.427521-1.355362v-0.644436l0,0    c-0.79472,0-1.835106,0.566416-2.887012,1.548971c-1.05191-0.976782-2.09227-1.537413-2.88699-1.537413v0.644438    c0.598202,0,1.485416,0.476837,2.427494,1.346695c-0.404602,0.424814-0.809155,0.907427-1.193531,1.442047    c-0.653091,0.069366-1.271545,0.176291-1.837948,0.31789c-0.066486-0.288986-0.115589-0.569309-0.15028-0.838072    c-0.135815-1.10393,0.031796-1.962229,0.421909-2.190529c0.086712-0.052021,0.199409-0.07514,0.332355-0.07514v-0.644449l0,0    c-0.242752,0-0.462383,0.052021-0.653114,0.161839c-0.812077,0.468159-0.994125,1.927551-0.575085,3.75975    c-1.79752,0.554857-2.967937,1.442047-2.967937,2.378378c0,0.939211,1.176205,1.829294,2.979485,2.381269    c-0.416149,1.837975-0.231178,3.300247,0.583763,3.768417c0.187836,0.109818,0.407471,0.161827,0.650223,0.161827    c0.794716,0,1.835102-0.566418,2.887012-1.548985c1.051907,0.976791,2.092243,1.537426,2.887012,1.537426    c0.242752,0,0.46236-0.05201,0.653091-0.161827c0.812073-0.468174,0.994099-1.927563,0.575108-3.75975    C48.074825,33.618713,49.245266,32.728619,49.245266,31.792299z M45.482635,29.864735    c-0.10696,0.372807-0.239883,0.75716-0.390163,1.141514c-0.118484-0.231194-0.242752-0.462387-0.378593-0.693579    c-0.132923-0.231194-0.274498-0.4566-0.416126-0.676235C44.708145,29.697123,45.104042,29.772263,45.482635,29.864735z     M44.159046,32.942478c-0.225395,0.390125-0.456627,0.76004-0.696461,1.103931    c-0.430614,0.037567-0.866962,0.057793-1.306232,0.057793c-0.436398,0-0.872749-0.020226-1.300446-0.054901    c-0.239883-0.343903-0.47393-0.710911-0.699375-1.098156c-0.219608-0.378582-0.419018-0.762936-0.60107-1.150181    c0.179161-0.387245,0.381462-0.77449,0.598202-1.153059c0.225395-0.390139,0.456573-0.76004,0.696461-1.103943    c0.430614-0.037569,0.866962-0.057795,1.306229-0.057795c0.436352,0,0.872753,0.020226,1.300449,0.054903    c0.239883,0.343903,0.47393,0.710911,0.699375,1.098156c0.219608,0.37858,0.418995,0.762934,0.60107,1.150179    C44.575172,32.176651,44.375786,32.5639,44.159046,32.942478z M45.092472,32.566792    c0.156063,0.387245,0.288986,0.77449,0.398815,1.150166c-0.37859,0.092484-0.777409,0.170506-1.190617,0.231194    c0.141579-0.222515,0.283203-0.450813,0.416126-0.684902C44.84972,33.032059,44.973988,32.797985,45.092472,32.566792z     M42.16214,35.650295c-0.268761-0.277431-0.537525-0.586643-0.803421-0.924759    c0.260109,0.011559,0.526005,0.020226,0.794769,0.020226c0.271629,0,0.540394-0.005775,0.803371-0.020226    C42.696747,35.063652,42.427986,35.372864,42.16214,35.650295z M40.012062,33.948151    c-0.410362-0.060688-0.80629-0.135815-1.184856-0.228302c0.106915-0.372791,0.239861-0.757145,0.390141-1.141499    c0.118481,0.231194,0.242725,0.462387,0.378567,0.693565C39.731728,33.503109,39.870438,33.728527,40.012062,33.948151z     M42.147701,27.934292c0.268764,0.277428,0.537525,0.586655,0.803371,0.92477    c-0.260109-0.011559-0.525955-0.020237-0.79472-0.020237c-0.271629,0-0.54039,0.005787-0.803368,0.020237    C41.613045,28.520947,41.881805,28.21172,42.147701,27.934292z M40.009171,29.636435    c-0.141602,0.222528-0.283203,0.450829-0.416149,0.684914c-0.132923,0.23118-0.257195,0.462374-0.375675,0.693565    c-0.156067-0.387245-0.28899-0.77449-0.398819-1.150179C39.197094,29.775156,39.595913,29.697123,40.009171,29.636435z     M37.393814,33.254585c-1.023029-0.436375-1.684799-1.008579-1.684799-1.462286c0-0.45372,0.66177-1.028803,1.684799-1.462286    c0.248535-0.106924,0.520191-0.202288,0.800503-0.29188c0.164719,0.566416,0.381458,1.155952,0.650223,1.759939    c-0.265869,0.601105-0.479717,1.187748-0.641544,1.751274C37.916874,33.459766,37.645245,33.361507,37.393814,33.254585z     M38.948582,37.384235c-0.393032-0.225407-0.563534-1.083706-0.430614-2.187649    c0.031799-0.271656,0.08382-0.557751,0.147388-0.849632c0.566429,0.138721,1.184856,0.245647,1.835102,0.314999    c0.390114,0.534634,0.79472,1.020138,1.20219,1.444954c-0.942131,0.875629-1.826427,1.355347-2.427521,1.355347    C39.1451,37.459373,39.035271,37.433365,38.948582,37.384235z M45.803371,35.182137    c0.135838,1.103943-0.03175,1.962238-0.421913,2.19054c-0.086685,0.05201-0.199383,0.075138-0.332306,0.075138    c-0.598251,0-1.485439-0.476837-2.427517-1.346695c0.404552-0.424816,0.809155-0.907425,1.193531-1.442059    c0.653091-0.069355,1.271519-0.176277,1.837975-0.317879C45.719601,34.633064,45.771622,34.913372,45.803371,35.182137z     M46.916004,33.254585c-0.248539,0.106922-0.520168,0.20229-0.800503,0.291882    c-0.164719-0.566418-0.381462-1.155968-0.650223-1.759954c0.265842-0.601093,0.479717-1.187735,0.641567-1.751272    c0.286072,0.089592,0.557751,0.187849,0.812027,0.294773c1.023029,0.436377,1.684822,1.008566,1.684822,1.462286    C48.600826,32.246006,47.939034,32.821102,46.916004,33.254585z"></path>
		<circle fill="#88B3FF" cx="42.153488" cy="31.792299" r="1.320678"></circle>
	</g>
</g>
</svg>