<svg xmlns="http://www.w3.org/2000/svg" viewBox="0 0 80 80" class="featureSvg_3LcT" alt="Powered by React">
				<path fill="#7D97DE" d="M37.849567,32.11153c-0.044891-0.049301-0.097595-0.090801-0.146484-0.1367      c-0.051697-0.048401-0.101501-0.100101-0.157196-0.1465l0.50589,0.504398l0.000916,0.000999      c-0.036102-0.0396-0.07132-0.078197-0.107422-0.117699C37.914082,32.181328,37.881794,32.146729,37.849567,32.11153z"></path>
				<path fill="#CCCCCC" d="M41.23238,33.861031c-0.566406,0.027798-1.179688,0.023399-1.620087-0.203602      c-0.292999-0.150898-0.542023-0.339397-0.776398-0.542l2.396484,2.388702v-0.000504V33.861031z"></path>
				<path fill="#FFFFFF" d="M37.537067,31.819031l0.002014,0.001999c0.057587,0.048302,0.109314,0.103001,0.164001,0.153801      c0.048889,0.045898,0.101593,0.087399,0.146484,0.1367c0.032227,0.035198,0.064514,0.069798,0.095703,0.1045      c0.036102,0.039501,0.072296,0.079098,0.108398,0.117699v0.0005l0.780304,0.778801c0,0,0.001007,0.0014,0.001923,0.002399      c0.234375,0.202602,0.483398,0.391102,0.776398,0.542c0.440399,0.226601,1.05368,0.2314,1.620087,0.203602V22.837631      c-1.78418,0-3.571289-0.075703-5.356384-0.230503c-0.44342-0.038097-0.873108-0.143097-1.270508-0.303699      c-0.004913,0.204601-0.003906,0.408199,0.007782,0.6357c0.003937,0.0928,0.011719,0.241699,0.003937,0.400402h-0.75592v-0.0005      c-0.001007-0.095703,0.001984-0.179703,0.004913-0.252403c0.001007-0.026398,0.001984-0.056599,0.002869-0.078098      c0.006927-0.1856,0.006927-0.3531,0.001007-0.518101c-0.020508-0.0937-0.047791-0.182598-0.122986-0.2383      c-0.413116-0.306099-0.583008,0.2285-0.599609,0.544903c-0.058594,1.131397,0.104492,2.366299,0.606415,3.390697      c0.289978,0.5947,0.695282,0.764099,1.100586,1.193302c0.449188,0.476597,0.375,1.410198,0.541992,2.005398      c0.114197,0.403801,0.286102,0.7715,0.520508,1.0942c0.243225,0.334999,0.574219,0.5821,0.915009,0.8223v-0.0005      C37.070271,31.469929,37.313496,31.634029,37.537067,31.819031z M36.831989,31.115929l0.353485,0.352501l-0.353485-0.352001      V31.115929z"></path>
				<path fill="#D5D5D9" d="M46.906178,21.762428c0.317413-0.028797,0.617218-0.097698,0.905304-0.1861l0,0      C47.523396,21.66423,47.223591,21.733631,46.906178,21.762428z"></path>
				<path fill="#D5D5D9" d="M47.707996,23.339531c-0.018524-0.307102,0.018585-0.708,0.051788-1.0107      c-0.381897,0.1465-0.788116,0.246098-1.209015,0.2817c-1.772491,0.151897-3.547882,0.226601-5.31839,0.226601v0.0005v11.023399      c0.002014-0.0005,0.003906-0.0005,0.00589-0.0005c0.222626,0.011299,0.451202,0.012699,0.675812,0.001999      c0.347595-0.016102,0.683594-0.066898,0.953125-0.205601c0.733368-0.377399,1.227478-0.9604,1.761688-1.545399      c0.367188-0.401402,0.853485-0.6782,1.289093-1.006802c0.240204-0.182697,0.466797-0.379898,0.644501-0.625      c0.233398-0.321301,0.405304-0.689999,0.519501-1.094799c0.167999-0.5937,0.092804-1.527302,0.541992-2.003899      c0.406311-0.430103,0.810608-0.598103,1.100586-1.193302c0.502014-1.024399,0.664124-2.258801,0.606506-3.390198      c-0.016602-0.316902-0.186584-0.851501-0.600586-0.544403c-0.186615,0.137703-0.094818,0.479-0.269592,0.5933      c-0.004822,0.003902-0.009705,0.003403-0.014618,0.007301c-0.051788,0.167999-0.1026,0.334499-0.148499,0.485802H47.707996z"></path>
				<path fill="#FFFFFF" d="M35.212879,21.099831c1.046906,0.067398,2.094696,0.1157,3.142609,0.1479h-0.001007      c-1.047913-0.0327-2.094696-0.080502-3.141602-0.148899c-0.200195-0.012703-0.393585-0.037601-0.583984-0.066402l0,0      C34.819294,21.061729,35.012684,21.086628,35.212879,21.099831z"></path>
				<path fill="#D5D5D9" d="M41.23238,21.293629c-0.9599,0-1.918884-0.016598-2.877899-0.045898h0.001007      C39.313496,21.277031,40.273396,21.293629,41.23238,21.293629z"></path>
				<path fill="#D5D5D9" d="M39.039997,18.349831l0.000977,0.002899c-0.107391-0.354-0.22168-0.709-0.338898-1.061501l0,0      C38.818378,17.642731,38.932575,17.99683,39.039997,18.349831z"></path>
				<path fill="#CCCCCC" d="M43.431568,18.349831c-0.000885,0.000999-0.000885,0.002399-0.000885,0.003399      c0.327087-0.646999,0.67569-1.3428,1.032196-2.047401l0,0C44.106373,17.00943,43.758778,17.703331,43.431568,18.349831z"></path>
				<path fill="#CCCCCC" d="M41.246082,19.868828l-0.013702,0.001003c0.220703,0,0.441406-0.0103,0.662109-0.012703      C41.678669,19.859531,41.461872,19.868828,41.246082,19.868828z"></path>
				<path fill="#818386" d="M45.082996,13.79753c0.183594-0.479,0.347687-0.8979,0.493195-1.263603      C45.430683,12.899631,45.26659,13.31853,45.082996,13.79753z"></path>
				<path fill="#818386" d="M47.707996,23.339531h0.589783c0.045898-0.151302,0.09671-0.317802,0.148499-0.485802      c0.120117-0.3955,0.237305-0.799301,0.30661-1.0742c-0.301697,0.223598-0.632812,0.411098-0.993103,0.549301      C47.726582,22.631531,47.689472,23.032429,47.707996,23.339531z"></path>
				<path fill="#818386" d="M48.415974,21.349831c-0.1875,0.090298-0.394501,0.161598-0.604492,0.226097v0.000401      c0.209991-0.0644,0.416992-0.1357,0.604492-0.225498c0.169922-0.0816,0.324219-0.1758,0.470703-0.274902v-0.0005      C48.740192,21.17503,48.585896,21.26873,48.415974,21.349831z"></path>
				<path fill="#818386" d="M48.41988,19.46553l-0.044891,0.002399c-0.037109,0.003899-0.074219,0.0098-0.111298,0.013699      C48.315388,19.47583,48.368183,19.471428,48.41988,19.46553z"></path>
				<path fill="#818386" d="M49.032185,19.386429c-0.208008,0.024902-0.416992,0.054199-0.625,0.077602l0.017609,0.000999      c0.202179-0.0229,0.405273-0.053699,0.607391-0.078102V19.386429z"></path>
				<path fill="#818386" d="M44.462879,16.305828c0.131805-0.259197,0.262695-0.518498,0.398407-0.779798      C44.725574,15.78733,44.594685,16.046131,44.462879,16.305828L44.462879,16.305828z"></path>
				<path fill="#8C8E91" d="M38.702076,17.291229c-0.275299-0.832001-0.569305-1.644502-0.855408-2.403302      C38.132771,15.646728,38.426777,16.459229,38.702076,17.291229L38.702076,17.291229z"></path>
				<path fill="#8C8E91" d="M33.445271,19.388428c0.25293,0.030701,0.50592,0.065903,0.75882,0.0937      c-0.252899-0.027798-0.50589-0.063999-0.75882-0.0942V19.388428z"></path>
				<path fill="#8C8E91" d="M34.628895,21.032429c-0.031219-0.004398-0.064423-0.005898-0.095703-0.0107      C34.564472,21.027031,34.597675,21.02803,34.628895,21.032429L34.628895,21.032429z"></path>
				<path fill="#8C8E91" d="M33.866199,23.086628c-0.00293,0.072701-0.00592,0.1567-0.004913,0.252403v0.0005h0.75592      c0.007782-0.158703,0-0.307602-0.003937-0.400402c-0.011688-0.227501-0.012695-0.431099-0.007782-0.6357      c-0.289093-0.116199-0.553711-0.271-0.803711-0.442898c0.037109,0.211899,0.061493,0.418499,0.068298,0.629898      c0.00592,0.165001,0.00592,0.3325-0.001007,0.518101C33.868183,23.030029,33.867207,23.06023,33.866199,23.086628z"></path>
				<path fill="#D5D5D9" d="M40.844685,37.138828l0.387695,0.349201v-1.983898l-2.398407-2.391102l-0.780304-0.778801      l-0.000977-0.0005l-0.000916-0.000999l-0.50589-0.504398l-0.006805-0.007301      c-0.223694-0.1866-0.467804-0.350601-0.929321-0.40699v2.215801l0.222229-0.110611L40.844685,37.138828z"></path>
				<path fill="#CCCCCC" d="M41.368183,37.54903c0.043884,0,0.086884-0.015602,0.121094-0.046402l0.916901-0.827599      l-0.552704-0.5508l-0.621094-0.620098v1.983898l0.015594,0.014599C41.282185,37.533428,41.325184,37.54903,41.368183,37.54903z"></path>
				<path fill="#B5B5B5" d="M42.867207,33.656929c-0.269531,0.138702-0.60553,0.189499-0.953125,0.205601      c-0.224609,0.0107-0.452209,0.009701-0.674805-0.001499c-0.001984,0-0.004883,0-0.006897,0v1.642597l0.621094,0.620602      l0.552704,0.5508l0,0l3.51181-3.1675l0.000885-0.000999v-2.402302c-0.435486,0.329102-0.922791,0.6054-1.289978,1.007301      C44.094685,32.696529,43.600574,33.27953,42.867207,33.656929z"></path>
				<path fill="#BFC5DA" d="M40.48238,40.346428l-0.442383-0.8311l-1.814423,2.551804l0.740204,2.196701l0.508789,1.6744      l1.093811-4.961502C40.616199,40.762932,40.58498,40.53923,40.48238,40.346428z"></path>
				<path fill="#A1A9C8" d="M42.155293,40.653526c-0.014709,0.106903-0.009796,0.216301,0.01358,0.323204l1.06842,4.853096      l0.533203-1.565994l0.690399-2.052704l0.045898-0.148895v0.000496l0.000977-0.000999l-1.810486-2.546402l-0.442413,0.831505      C42.203083,40.443031,42.16988,40.547028,42.155293,40.653526z"></path>
				<path fill="#36488A" d="M41.23238,51.712631l0.002014,0.006798l2.002899-5.889603l-1.06842-4.853096      c-0.023376-0.106903-0.02829-0.216301-0.01358-0.323204c0.014587-0.106499,0.047791-0.210899,0.099579-0.307098      l0.441406-0.831596l-0.449188-0.631805l-0.711884-1.001495H41.23238v1.023895V51.712631v0.001396V51.712631z"></path>
				<path fill="#506099" d="M41.23238,37.881531h0.302826l-0.019623-0.028301c-0.03421-0.048302-0.086914-0.0728-0.139587-0.0742      c-0.021515-0.0005-0.038116,0.019001-0.059601,0.026299c-0.029327,0.010799-0.0625,0.012302-0.084015,0.038601      c-0.001007,0.000999-0.001892,0.000999-0.002899,0.001999c-0.002899,0.002403-0.00589,0.004402-0.007812,0.007301      l-0.020477,0.028301l-0.428711,0.602997l-0.732483,1.030304l0.442383,0.831596c0.1026,0.192802,0.13382,0.417,0.085999,0.630302      l-1.092804,4.961899l1.756805,5.774002V38.905426V37.881531z"></path>
				<path fill="#0E2472" d="M41.23238,56.409828l-8.048798-15.475098l2.358398-0.996101l-2.712891-1.3339      c0.099579-0.3106,0.289978-0.860397,0.526398-1.437099c0.079102-0.191799,0.163086-0.387199,0.250885-0.577099      c-3.248995,0.984898-8.347597,2.485397-8.450197,2.613297c-3.070282,3.813904-3.55661,12.145004-3.55661,18.0522H41.23827      c0-0.342697-0.001984-0.5532-0.00589-0.554199V56.409828z"></path>
				<path fill="#031A6B" d="M57.499653,39.189941c-0.123993-0.112801-5.205109-1.628399-8.454102-2.6133      c0.352509,0.7607,0.644501,1.600101,0.77832,2.014202l-2.713837,1.3339l2.360321,0.996094L41.223255,56.53904      l-0.074219-0.143097v0.292c0.003906,0.000999,0.00592,0.211494,0.00592,0.554199h0.104492h19.898407      C61.157856,50.596642,60.948872,42.356438,57.499653,39.189941z M50.281849,47.543442v-0.415504      c0-0.2705,0.259796-0.490799,0.580109-0.490799h0.304688c0.321289,0,0.580109,0.220299,0.580109,0.490799v0.415504v0.5625      c0,0.2705-0.25882,0.4907-0.580109,0.4907h-0.304688c-0.320312,0-0.580109-0.2202-0.580109-0.4907V47.543442z       M54.338551,50.127441c0,0.587898-0.474609,1.060997-1.057617,1.060997h-4.532288      c-0.5849,0-1.058594-0.473099-1.058594-1.060997v-1.727104c0-0.338799,0.163086-0.637695,0.412109-0.831497h1.833984v0.444298      c0,0.512199,0.4151,0.929703,0.925812,0.929703h0.304688c0.510712,0,0.924805-0.417503,0.924805-0.929703V47.56884h1.835907      c0.248077,0.193802,0.411194,0.492699,0.411194,0.831497V50.127441z"></path>
				<rect x="48.592793" y="50.045631" fill="#031A6B" width="5.009705" height="0.2817"></rect>
				<rect x="48.592793" y="49.39473" fill="#031A6B" width="5.009705" height="0.2817"></rect>
				<polygon fill="#36488A" points="44.506794,42.062233 44.460896,42.211128 44.509785,42.065628 44.506794,42.062729     "></polygon>
				<path fill="#CACFE0" d="M42.406178,36.67503L42.406178,36.67503l-0.916901,0.827599      c-0.03421,0.0308-0.077209,0.046402-0.121094,0.046402c-0.042999,0-0.087006-0.015602-0.121094-0.046402l-0.014709-0.014599      v0.0005v0.000401v0.230999c0.015594-0.014698,0.031311-0.028297,0.047913-0.0415      c0.004913-0.003899,0.008789-0.008801,0.01358-0.012199c0.051819-0.034698,0.099701-0.031799,0.145599-0.016598      c0.093719,0.030697,0.174805,0.134296,0.228516,0.231899h-0.131897l0.710999,1.001495l0.449188,0.631805l0.001007,0.000496      l1.810486,2.546402l0.002014,0.003403l0.269501-0.800301l1.832001-5.431602      c0.054688,0.017601,0.129913,0.039501,0.212891,0.0644l-0.837891-2.453098l-0.067413,0.062l-0.000885,0.000999      L42.406178,36.67503z"></path>
				<path fill="#EDEFF5" d="M37.708973,40.532928l0.275421,0.818802l0.24118,0.714897l1.814423-2.551796l0.732483-1.030701      l0.428711-0.6026l0.020477-0.028301c0.001923-0.002899,0.004913-0.004898,0.007812-0.007301      c0.001007-0.000999,0.001892-0.001499,0.002899-0.002499c0.021515-0.025799,0.054688-0.027802,0.084015-0.038101      c0.021484-0.007298,0.038086-0.026798,0.059601-0.026299c0.052673,0.0014,0.105377,0.025898,0.139587,0.0742l0.020508,0.028301      h0.131897c-0.053711-0.097202-0.134796-0.200703-0.228516-0.231899c-0.045898-0.015202-0.093781-0.018101-0.145599,0.016598      c-0.004791,0.003399-0.008667,0.008301-0.01358,0.012199c-0.017609,0.013702-0.033203,0.027802-0.047913,0.042v-0.0005V37.48893      v-0.000401l-0.387695-0.349701l-4.012695-3.619598v-0.0005l-0.082001-0.0732l-0.836914,2.451199      c0.083008-0.024498,0.158203-0.046898,0.214813-0.063L37.708973,40.532928z"></path>
				<path fill="#273B81" d="M32.82909,38.604729l2.712891,1.3339l-2.358398,0.996101l8.048798,15.475098v-3.017097v-0.219704      v-0.942894v-0.517502l-1.756805-5.774002l-0.001007-0.000397l-0.508789-1.6744l-0.740204-2.196701v-0.000504l-0.24118-0.714897      l-0.275421-0.818802l-1.581085-4.6992c-0.05661,0.016102-0.131805,0.038502-0.214813,0.063c0,0,0,0.000401-0.001007,0.000401      c-0.451172,0.1348-1.285095,0.387199-2.305695,0.693401c-0.087799,0.189899-0.171783,0.3853-0.250885,0.577099      C33.119068,37.744331,32.928669,38.294128,32.82909,38.604729z"></path>
				<path fill="#0E2472" d="M44.779285,41.264832l-0.269501,0.800797l-0.048889,0.1455l-0.690399,2.052704l-0.533203,1.565994      l-2.002014,5.890602l-0.000885-0.000999l-0.002014-0.006798v0.001396v0.516106v0.942894v0.219704v3.017097l0.074188,0.143105      l8.247101-15.618202l-2.360291-0.996101l2.713806-1.3339c-0.133789-0.414101-0.425812-1.253498-0.77829-2.014198      c-1.015625-0.307102-1.852509-0.556602-2.304718-0.692902c-0.082977-0.025398-0.158203-0.047798-0.212891-0.0639      L44.779285,41.264832z"></path>
				<path fill="#4589FF" d="M46.307575,10.92203c0,0-0.024384-0.0317-0.070282-0.0839      c0.033203,0.0532,0.051788,0.0835,0.059601,0.098099L46.307575,10.92203z"></path>
				<path fill="#4589FF" d="M43.566395,19.825928c0.261688-0.0098,0.524384-0.029797,0.786072-0.0425      c0.520508-0.025398,1.041107-0.049297,1.5625-0.087399c0.286224-0.021,0.572327-0.0518,0.858429-0.076698      c0.496094-0.043003,0.993195-0.0835,1.490295-0.137703c0.037079-0.003899,0.074188-0.0098,0.111298-0.013699l-7.128906,0.400898      c0.21579,0,0.432587-0.009296,0.648407-0.0117C42.452076,19.851231,43.008778,19.846428,43.566395,19.825928z"></path>
				<path fill="#4589FF" d="M41.23238,17.377129v0.0005v1.703102l7.174805,0.383301      c0.208008-0.023403,0.416992-0.0527,0.625-0.077602c0.051788-0.006298,0.104492-0.013199,0.157288-0.019501      c0.416901-0.0513,0.833008-0.101597,1.25-0.160198c0-0.0205,0.002899-0.040501,0.002899-0.061501      c0.137695-2.925301-1.286194-5.6265-3.667999-7.311502c-0.220703-0.162598-0.457977-0.309601-0.696289-0.452698      l-0.001007,0.0005l-0.068298,0.131397c0.255798,0.207001,0.512695,0.422802,0.75,0.658203      c-0.664093,1.027298-1.296906,2.191399-1.897491,3.3549c-0.135712,0.261299-0.266602,0.5206-0.398407,0.779798      c-0.356506,0.704601-0.705109,1.400402-1.032196,2.047401c0-0.000999,0-0.002399,0.000885-0.003399      c-0.000885,0.000999-0.000885,0.002399-0.001892,0.003399c0.622101-1.812,1.191406-3.352101,1.65332-4.555699      c0.183594-0.479,0.347687-0.8979,0.493195-1.263603c0.199188-0.501499,0.363281-0.903397,0.473602-1.169998v-0.000401      c-0.012726-0.007401-0.023407-0.015701-0.035217-0.022499l0.109406-0.1563c0.0625-0.148899,0.098694-0.233402,0.098694-0.233402      s0.001892-0.042,0.012604-0.1152c-0.313385-0.312-1.680603-1.515099-5-1.699699c-0.000885,0-0.002899,0-0.002899,0v1.580601      V17.377129z"></path>
				<path fill="#5492FF" d="M49.032185,19.386929c-0.202118,0.024403-0.405212,0.055202-0.607391,0.078102h0.002899      l-0.007812,0.0005c-0.051697,0.005898-0.104492,0.0103-0.156189,0.016098c-0.497101,0.054203-0.994202,0.0947-1.490295,0.137703      c-0.286102,0.024899-0.572205,0.055698-0.858429,0.076698c-0.521393,0.038101-1.041992,0.062-1.5625,0.087399      c-0.261688,0.012703-0.524384,0.0327-0.786072,0.0425c-0.557617,0.0205-1.114319,0.025303-1.671906,0.0312      c-0.220703,0.002403-0.441406,0.012703-0.662109,0.012703v0.303699v0.320297v0.440903v0.358898      c1.988312,0,3.978516-0.063,5.967804-0.190899c0.969696-0.062,1.835022-0.324699,2.382812-0.688499      c-0.07132,0.0811-0.138702,0.164101-0.209015,0.245598c-0.132782,0.152901-0.301697,0.2896-0.487305,0.4161      c-0.146484,0.099102-0.300781,0.193302-0.470703,0.274902c-0.1875,0.089798-0.394501,0.161098-0.604492,0.225498      c-0.288086,0.088402-0.587891,0.157303-0.905304,0.1861c-1.891602,0.174301-3.784088,0.2607-5.673798,0.2607v0.075203v0.0005      v0.7383c1.770508,0,3.545898-0.074703,5.31839-0.226601c0.420898-0.035603,0.827118-0.135201,1.209015-0.2817      c0.360291-0.138203,0.691406-0.325703,0.993103-0.549301c0.057587-0.0425,0.121094-0.078201,0.175781-0.1236      c0.335907-0.038502,0.671906-0.069302,1.007812-0.112301c0.703094-0.090298,1.223724-0.661098,1.155304-1.259701      c-0.036102-0.313999-0.072296-0.630898-0.108398-0.948799c-0.09082-0.065899-0.142609-0.102501-0.234406-0.1684      c-0.102509,0.015102-0.205994,0.025402-0.309509,0.040001c-0.416992,0.058601-0.833099,0.108898-1.25,0.160198      C49.136677,19.37323,49.083973,19.380531,49.032185,19.386929z"></path>
				<path fill="#4B8DFF" d="M35.875996,22.607128c1.785095,0.1548,3.572205,0.230503,5.356384,0.230503v-0.0005v-0.7383v-0.0005      v-0.075203c-1.906189,0-3.815399-0.087898-5.724609-0.265099c-0.547791-0.050301-1.066376-0.195801-1.509796-0.4072      c-0.188385-0.0909-0.359283-0.1968-0.517487-0.310101c-0.1875-0.1348-0.354492-0.2808-0.484406-0.441898      c-0.038086-0.046902-0.074188-0.0947-0.112305-0.142101c0.413116,0.255901,0.992218,0.455601,1.649414,0.564999      c0.031281,0.004803,0.064484,0.006302,0.095703,0.0107c0.190399,0.028801,0.383789,0.053699,0.583984,0.066402      c1.046906,0.068398,2.093689,0.116199,3.141602,0.148899c0.959015,0.029301,1.917999,0.045898,2.877899,0.045898v-0.358898      v-0.440903v-0.320297v-0.303699c-0.780304,0-1.560486-0.015102-2.34079-0.043903      c-0.227509-0.008797-0.454102-0.026398-0.680695-0.037197c-0.554718-0.026302-1.108398-0.0522-1.663116-0.092701      c-0.280182-0.0205-0.560486-0.0508-0.841705-0.075199c-0.5-0.042999-1.000977-0.084499-1.501984-0.138702      c-0.252899-0.027798-0.50589-0.063-0.75882-0.0937c-0.070282-0.008297-0.139587-0.018097-0.208984-0.026897      c-0.402313-0.049301-0.803711-0.0928-1.205109-0.149399c0-0.001503,0-0.003403,0-0.004902      c-0.10541-0.014599-0.210909-0.024899-0.316408-0.040501c-0.09079,0.064899-0.142487,0.103001-0.233398,0.1684      c-0.037079,0.317902-0.073181,0.6343-0.108398,0.948799c-0.068298,0.598103,0.450226,1.169903,1.154299,1.259701      c0.327209,0.0415,0.653412,0.0718,0.979523,0.109402c0.091797,0.076199,0.195282,0.139198,0.294983,0.2075      c0.25,0.171898,0.514618,0.326698,0.803711,0.442898C35.002888,22.464031,35.432575,22.569031,35.875996,22.607128z"></path>
				<path fill="#4589FF" d="M47.811481,21.575928c0.209991-0.064499,0.416992-0.135799,0.604492-0.226097      c0.169922-0.0811,0.324219-0.174801,0.470703-0.274403c0.185608-0.125999,0.354523-0.262699,0.487305-0.4161      c0.070312-0.080997,0.137695-0.163998,0.209015-0.245098c-0.547791,0.3638-1.413116,0.626499-2.382812,0.688499      c-1.989288,0.127899-3.979492,0.190899-5.967804,0.190899v0.056202v0.000999v0.163498v0.0005v0.507801v0.0005      c1.889709,0,3.782196-0.086399,5.673798-0.2607C47.223591,21.733631,47.523396,21.66423,47.811481,21.575928z"></path>
				<path fill="#88B3FF" d="M33.236286,19.36153c0.069397,0.008801,0.138702,0.017601,0.208984,0.026398      c0.25293,0.030201,0.50592,0.066402,0.75882,0.0942c0.501007,0.054203,1.001984,0.095703,1.501984,0.138702      c0.281219,0.024399,0.561523,0.054699,0.841705,0.075199c0.554718,0.040501,1.108398,0.066399,1.663116,0.092701      c0.226593,0.010799,0.453186,0.0284,0.680695,0.037197c0.780304,0.028801,1.560486,0.043903,2.34079,0.043903l0.013702-0.001003      l7.128906-0.400898l0.044891-0.002399l0.007812-0.0005h-0.002899l-0.017609-0.000999L41.23238,19.08073v-1.703102v-0.0005      v-6.6601V9.136928c-3.34079,0.184601-4.705994,1.402302-5.003906,1.707001      c-0.039978,0.054199-0.063477,0.078102-0.063477,0.078102l0.009796,0.015198      c0.009796-0.013199,0.025391-0.037598,0.05368-0.090801c0.010803,0.0634,0.012726,0.1049,0.012726,0.1049      s0.039978,0.088902,0.106476,0.2383c0,0.002003,0.000916,0.004402,0.001892,0.006401l0.098633,0.144501      c-0.008728,0.006298-0.017517,0.013699-0.027313,0.019001c0.277313,0.639198,0.833984,1.959,1.425781,3.528397      c0.286102,0.758801,0.580109,1.571301,0.855408,2.403302c0.117218,0.352501,0.231506,0.7075,0.338898,1.061501      l-0.000977-0.002899c0,0.000999,0,0.0019,0.000977,0.002899c-0.99408-1.946301-2.109406-4.297402-3.335876-6.1816      c0.189392-0.188,0.395477-0.357502,0.600586-0.526402c0.05069-0.042,0.098602-0.090302,0.149414-0.131802l-0.039124-0.077198      l-0.02829-0.055199c-0.239288,0.143597-0.477478,0.2906-0.698212,0.452698      c-2.382904,1.685501-3.805696,4.3872-3.660187,7.312001c-0.001007,0.0205,0.001892,0.041,0.001892,0.062      c0,0.001499,0,0.003399,0,0.004902C32.432575,19.26873,32.833973,19.312229,33.236286,19.36153z"></path>
				<path fill="#669EFF" d="M41.23238,21.514828v-0.0005V21.35083v-0.000999v-0.056202      c-0.958984,0-1.918884-0.016598-2.876892-0.045898c-1.047913-0.0322-2.095703-0.080502-3.142609-0.1479      c-0.200195-0.013203-0.393585-0.038101-0.583984-0.067402c-0.031219-0.004398-0.064423-0.005398-0.095703-0.0107      c-0.657196-0.109398-1.236298-0.309097-1.649414-0.564999c0.038116,0.047401,0.074219,0.0952,0.112305,0.142101      c0.129913,0.161098,0.296906,0.307098,0.484406,0.441898c0.158203,0.1133,0.329102,0.2192,0.517487,0.310101      c0.44342,0.211399,0.962006,0.356899,1.509796,0.4072c1.90921,0.1772,3.81842,0.265099,5.724609,0.265099v-0.0005V21.514828z"></path>
				<path fill="#4B8DFF" d="M36.455097,11.512927c-0.050812,0.0415-0.098724,0.089802-0.149414,0.131802      c-0.205109,0.1689-0.411194,0.338402-0.600586,0.526402c1.226471,1.884197,2.341797,4.235299,3.335876,6.1816      c-0.000977-0.000999-0.000977-0.0019-0.000977-0.002899c-0.107422-0.353001-0.221619-0.7071-0.337921-1.058601l0,0      c-0.275299-0.832001-0.569305-1.644502-0.855408-2.403302c-0.591797-1.569397-1.148468-2.889198-1.425781-3.528397      c-0.02829-0.0634-0.050812-0.1152-0.07132-0.163502c-0.000977-0.001999-0.001892-0.004398-0.001892-0.006401      c-0.066498-0.149399-0.106476-0.2383-0.106476-0.2383s-0.001923-0.0415-0.012726-0.1049      c-0.02829,0.053204-0.043884,0.077602-0.05368,0.090801c-0.002899,0.004902-0.00882,0.014099-0.00882,0.014099l0.22171,0.429203      l0.02829,0.055199L36.455097,11.512927L36.455097,11.512927z"></path>
				<path fill="#5492FF" d="M46.123981,11.18473c-0.021515,0.0508-0.046906,0.110901-0.074188,0.178799v0.000401      c-0.110321,0.266602-0.274414,0.668499-0.473602,1.169998c-0.145508,0.365704-0.309601,0.784603-0.493195,1.263603      c-0.461914,1.203598-1.031219,2.743699-1.65332,4.555699c0.001007-0.000999,0.001007-0.002399,0.001892-0.003399      c0.327209-0.6465,0.674805-1.340401,1.031311-2.044003c0.131805-0.259697,0.262695-0.518498,0.398407-0.779798      c0.600586-1.163502,1.233398-2.327602,1.897491-3.3549c-0.237305-0.235401-0.494202-0.451202-0.75-0.658203l0.068298-0.131397      l0.001007-0.0005l0.228485-0.429703c0,0-0.006775-0.010201-0.009674-0.015099      c-0.007812-0.014599-0.026398-0.044899-0.059601-0.098099c-0.001007-0.000999-0.001007-0.000999-0.002014-0.002003      c-0.010712,0.0732-0.012604,0.1152-0.012604,0.1152S46.186481,11.03583,46.123981,11.18473z"></path>
				<path fill="#F7F7F8" d="M54.01067,47.582733h-1.835876v0.444298c0,0.512199-0.414124,0.929695-0.924805,0.929695h-0.304718      c-0.510681,0-0.925781-0.417496-0.925781-0.929695v-0.444298h-1.834015c-0.248993,0.193794-0.412079,0.492699-0.412079,0.831497      v1.727097c0,0.587906,0.473694,1.061005,1.058594,1.061005h4.532288c0.583008,0,1.057617-0.473099,1.057617-1.061005V48.41423      C54.421894,48.075432,54.258778,47.776527,54.01067,47.582733z M53.602467,50.327332h-5.009674v-0.2817h5.009674V50.327332z       M53.602467,49.67643h-5.009674v-0.2817h5.009674V49.67643z"></path>
				<path fill="#F7F7F8" d="M50.945271,48.610527h0.304718c0.321289,0,0.580078-0.2202,0.580078-0.4907v-0.5625V47.14183      c0-0.2705-0.258789-0.490799-0.580078-0.490799h-0.304718c-0.320282,0-0.580078,0.220299-0.580078,0.490799v0.415497v0.5625      C50.365192,48.390327,50.624989,48.610527,50.945271,48.610527z"></path>
			
			<g>
				<path fill="#5476D4" d="M69.708969,57.522133H9.771472c-1.009796,0-1.836884,0.806198-1.836884,1.7911v3.3125      c0,0.984795,0.827087,1.793396,1.836884,1.793396h59.937496c1.009705,0,1.837921-0.808601,1.837921-1.793396v-3.3125      C71.54689,58.328331,70.718674,57.522133,69.708969,57.522133z"></path>
				<path fill="#1745C5" d="M7.934588,62.625732c0,0.984795,0.827087,1.793396,1.836884,1.793396h59.937496      c1.009705,0,1.837921-0.808601,1.837921-1.793396v-0.703705H7.934588V62.625732z"></path>
			</g>
			<g>
				<path fill="#ABACAE" d="M55.934589,45.109131H29.634783c-0.141602,0-0.260803,0.062897-0.32431,0.159096      c2.190521,0.396004,7.636812,1.669502,13.852602,5.274406l2.555603,1.592796      c2.871094,1.917503,5.828217,4.349098,8.647522,7.425301c0.198273-0.002403,0.373993-0.128899,0.391571-0.283699      l1.549805-13.805603C56.331074,45.271729,56.162067,45.109131,55.934589,45.109131z"></path>
				<path fill="#B7B8BA" d="M45.718678,52.135429l-2.555603-1.592796c-6.21579-3.604904-11.662081-4.878403-13.852602-5.274406      c-0.039001,0.058601-0.057587,0.127502-0.048798,0.203201l1.549805,13.805603      c0.017609,0.1558,0.195312,0.283699,0.395508,0.283699h23.155306c0.000977,0,0.002899,0,0.003906,0      C51.546894,56.484528,48.589771,54.052933,45.718678,52.135429z"></path>
				<path fill="#B7B8BA" d="M39.269489,50.542633c-0.055603,0-0.098602,0.0401-0.091797,0.088898l0.383789,3.425301      c0.004913,0.039101,0.048798,0.070297,0.097717,0.070297h5.745087c0.049805,0,0.093689-0.031197,0.098602-0.070297      l0.21579-1.921402c-0.861298-0.576599-1.71579-1.105896-2.555603-1.592796H39.269489z"></path>
				<path fill="#ABACAE" d="M52.38747,52.431519h-2.631805c0.839813,0.4869,1.694305,1.016197,2.555603,1.592796l0.169006-1.503899      C52.485188,52.471619,52.443165,52.431519,52.38747,52.431519z"></path>
			</g>
			<g>
				<path fill="#E5E5E6" d="M34.861286,59.471832l-0.530212-0.001404l-0.000977,0.6064l0.906189,0.001999v-0.358398      C35.237293,59.583733,35.068378,59.472328,34.861286,59.471832z"></path>
				<path fill="#8F99BE" d="M34.32909,60.612526l0.529297,0.001007c0.208008,0.000397,0.376892-0.110405,0.376892-0.247604      l0.001007-0.287102l-0.906189-0.001999L34.32909,60.612526z"></path>
				<polygon fill="#2E57CB" points="17.674791,59.454826 17.749987,59.438232 17.674791,59.437729     "></polygon>
				<polygon fill="#5476D4" points="17.672777,60.579826 17.747972,60.580231 17.672777,60.562729     "></polygon>
				<polygon fill="#7683AF" points="17.749987,59.438232 17.74898,60.044632 32.252888,60.072929 33.570271,60.075432       33.571278,59.468933 32.629871,59.467529     "></polygon>
				<polygon fill="#5C6BA0" points="17.74898,60.044632 17.747972,60.580231 32.627888,60.609131 33.569294,60.611031       33.570271,60.075432 32.252888,60.072929     "></polygon>
				<polygon fill="#4589FF" points="33.570271,60.075432 33.569294,60.611031 34.167988,60.612526 34.32909,60.612526       34.330097,60.076828 34.168873,60.076828     "></polygon>
				<polygon fill="#88B3FF" points="33.571278,59.468933 33.570271,60.075432 34.168873,60.076828 34.330097,60.076828       34.331074,59.470428 34.16988,59.470428     "></polygon>
				<polygon fill="#3B4B82" points="15.386676,60.039726 16.843676,60.042633 16.844683,59.641327 15.230487,60.004128     "></polygon>
				<polygon fill="#9EA0A2" points="16.843676,60.37323 16.843676,60.042633 15.386676,60.039726     "></polygon>
				<polygon fill="#5996FF" points="16.844683,59.641327 16.843676,60.042633 17.673784,60.044632 17.74898,60.044632       17.749987,59.438232 17.674791,59.454826     "></polygon>
				<polygon fill="#88B3FF" points="16.843676,60.042633 16.843676,60.37323 17.672777,60.562729 17.747972,60.580231       17.74898,60.044632 17.673784,60.044632     "></polygon>
			</g>
		
	
	<g>
		<path fill="#FFFFFF" d="M45.210316,54.756111h-0.905884l-0.603912-2.178429l-1.250977,2.178429H41.43581l1.941162-3.386269    l-0.301941-1.186279l-2.652954,4.572548h-1.013733l3.364716-5.780388h0.884308l0.388245,1.423531h0.905884l-0.625488,1.099998    l0.884308,3.256866V54.756111z"></path>
	</g>





</svg>