<svg alt="Powered by React" class="featureSvg_3LcT" viewBox="0 0 80 80" xmlns="http://www.w3.org/2000/svg">
						<path fill="#EEEFF4" d="M71.0665741,19.2345505H35.1439209c-2.2583885,0-4.0892639,1.8308792-4.0892639,4.0892696v25.6746807        c0,2.2583923,1.8308754,4.0900917,4.0892639,4.0900917h35.9234695c2.2583923,0,4.0884552-1.8316994,4.0884552-4.0900917        V23.3238201C75.1558456,21.0654297,73.3257828,19.2345505,71.0665741,19.2345505z"></path>
						<path fill="#50609A" d="M73.0952606,19.2345505H33.1153145c-1.1384125,0-2.0606575,1.1407948-2.0606575,2.5481796v28.7576828        c0,1.4065628,0.922245,2.5481796,2.0606575,2.5481796h39.9799461c1.1383362,0,2.060585-1.1416168,2.060585-2.5481796        V21.7827301C75.1558456,20.3753452,74.2335968,19.2345505,73.0952606,19.2345505z M73.7028809,48.5077858        c0,1.4073868-0.9222488,2.5481796-2.0606613,2.5481796H34.5683594c-1.1375999,0-2.0606613-1.1407928-2.0606613-2.5481796        V22.8979473c0-1.407383,0.9230614-2.5474396,2.0606613-2.5474396h37.0738602        c1.1384125,0,2.0606613,1.1400566,2.0606613,2.5474396V48.5077858z"></path>
					
					<g>
						<g>
							<g>
								<g>
									<path fill="#5A73B8" d="M52.0752373,35.1338196h1.8681259v-1.5047302c0-0.2929573-0.2641182-0.5304375-0.5899353-0.5304375           h-7.2267342c-0.2443542,0-0.4424515-0.1781197-0.4424515-0.397831c0-0.2197075,0.1980972-0.397831,0.4424515-0.397831           h6.9317665v-0.5304394c0-0.2929592-0.2641182-0.5304413-0.5899391-0.5304413h-9.814415           c-0.651619,0-1.1798744,0.4749851-1.1798744,1.0608807v6.8957291c0,0.5859261,0.5282555,1.0608788,1.1798744,1.0608788           h10.6993217c0.3258171,0,0.5899353-0.2374725,0.5899353-0.5304375v-1.3242989h-1.8681259           c-1.0029831,0-1.8189812-0.7337036-1.8189812-1.6355324S51.0722542,35.1338196,52.0752373,35.1338196z"></path>
									<path fill="#9EA7C7" d="M54.0541267,35.7968712h-2.1109085c-0.6255531,0-1.1326942,0.4353867-1.1326942,0.9724579           c0,0.5370979,0.5071411,0.9724846,1.1326942,0.9724846h2.1109085c0.0853195,0,0.1544571-0.0593834,0.1544571-0.1326103           v-1.6797218C54.2085838,35.8562279,54.1394463,35.7968712,54.0541267,35.7968712z M52.2006416,37.16716           c-0.255909,0-0.4633713-0.1781235-0.4633713-0.397831s0.2074623-0.397831,0.4633713-0.397831           c0.2559013,0,0.4633713,0.1781235,0.4633713,0.397831S52.456543,37.16716,52.2006416,37.16716z"></path>
								</g>
							</g>
						</g>
					</g>
					<path fill="#EEEFF4" d="M47.6528854,35.6128578l-0.0303612-0.1214447l-0.0759048,0.1214447l-0.4554291,0.7894096       l-0.3795242,0.6679649l-0.3339806,0.5920563l-0.1821747,0.3339806h-0.5465126l0.4554291-0.7894096l0.106266-0.1973534       l-0.0607224-0.2277145l-0.1669922-0.6527786l-0.1366272-0.5161514l-0.030365-0.1214447l-0.0759048,0.1214447       l-0.4554253,0.7894135l-0.4402504,0.8045883l-0.4554291,0.7894096h-0.5313339l0.4402504-0.7894096l0.4554291-0.8045883       l0.4402466-0.7894135l0.4402466-0.774231h0.4857941v0.0759048l0.1821709,0.6527824v0.0607224l0.1518097,0.5920563       l0.0455437,0.1973495l0,0l0.4402466-0.7894058l0.4402466-0.774231h0.4857903v0.0759048l0.9108582,3.0969162H48.229763       L47.6528854,35.6128578z"></path>
				
				<g>
					<path fill="#55659D" d="M54.4614372,34.3754921c0.1224747,0.2169952,0.1760864,0.4059525,0.192894,0.5900726       l3.7626762-7.7102013h4.1932907v-0.4026718h-4.4439011L54.4614372,34.3754921z"></path>
				</g>
				<g>
					<rect x="34.6891937" y="44.5458298" fill="#BDC3D9" width="8.9902763" height="0.7060699"></rect>
					<rect x="34.6891937" y="45.7306442" fill="#BDC3D9" width="8.9902763" height="0.7060699"></rect>
					<rect x="34.6891937" y="46.9162827" fill="#BDC3D9" width="8.9902763" height="0.7052498"></rect>
					<rect x="34.6891937" y="48.1010971" fill="#BDC3D9" width="8.9902763" height="0.7053299"></rect>
				</g>
				<g>
					<path fill="#55659D" d="M53.0115852,31.0110645c0.1369019,0.082468,0.2187386,0.313776,0.3171921,0.4114933       l3.3549805-7.0459862h5.9265404v-0.4026718h-6.177063L53.0115852,31.0110645z"></path>
				</g>
				<rect x="63.8167572" y="23.5215492" fill="#5A73B8" width="8.0391769" height="1.307291"></rect>
				<rect x="63.8167572" y="26.4003429" fill="#5A73B8" width="8.0391769" height="1.307291"></rect>
				<rect x="62.980999" y="31.0283642" fill="#808CB5" width="9.7107735" height="0.7621422"></rect>
				<rect x="62.980999" y="32.3085213" fill="#808CB5" width="9.7107735" height="0.7620602"></rect>
				<rect x="62.980999" y="33.5885925" fill="#808CB5" width="9.7107735" height="0.7621422"></rect>
				<rect x="62.980999" y="34.8678474" fill="#808CB5" width="9.7107735" height="0.7621422"></rect>
				<rect x="62.980999" y="36.1479225" fill="#808CB5" width="9.7107735" height="0.7621422"></rect>
				<g>
					<rect x="62.980999" y="29.7491112" fill="#BDC3D9" width="9.7107735" height="0.7621422"></rect>
					<rect x="62.980999" y="31.0283642" fill="#BDC3D9" width="9.7107735" height="0.7621422"></rect>
					<rect x="62.980999" y="32.3085213" fill="#BDC3D9" width="9.7107735" height="0.7620602"></rect>
					<rect x="62.980999" y="33.5885925" fill="#BDC3D9" width="9.7107735" height="0.7621422"></rect>
					<rect x="62.980999" y="34.8678474" fill="#BDC3D9" width="9.7107735" height="0.7621422"></rect>
					<rect x="62.980999" y="36.1479225" fill="#BDC3D9" width="9.7107735" height="0.7621422"></rect>
					<rect x="62.980999" y="37.4272575" fill="#BDC3D9" width="9.7107735" height="0.7621422"></rect>
				</g>
				<path fill="#BDC3D9" d="M45.7497215,22.7738342c0.0336113-0.0200024,0.0520554-0.0560722,0.0792694-0.0840263      c-0.0127869-0.0024586-0.022377-0.0104103-0.0344276-0.0112305      C45.7794037,22.7105484,45.7641487,22.7417812,45.7497215,22.7738342z"></path>
				<g>
					<path fill="#9EA7C7" d="M57.4699173,42.166523h-3.3054848v6.759922h3.3054848h3.2454796H61.33424v-3.17342h1.8997459v3.17342       h0.784523v-6.759922h-3.303112H57.4699173z M55.9000549,47.7320366h-0.8469887v-0.9101944h0.8469887V47.7320366z        M55.9000549,46.5880432h-0.8469887v-0.8765793h0.8469887V46.5880432z M55.9072685,44.7691345h-0.8542023v-0.8277245h0.8542023       V44.7691345z M55.9072685,43.7067909h-0.8542023v-0.9582291h0.8542023V43.7067909z M56.9527245,47.7320366h-0.8189507       v-0.9101944h0.8189507V47.7320366z M56.9527245,46.5880432h-0.8189507v-0.8765793h0.8189507V46.5880432z        M56.9527245,44.7691345h-0.8117371v-0.8277245h0.8117371V44.7691345z M56.9527245,43.7067909h-0.8117371v-0.9582291h0.8117371       V43.7067909z M59.019043,47.7320366h-0.8254318v-0.9101944h0.8254318V47.7320366z M59.019043,46.5880432h-0.8254318v-0.8765793       h0.8254318V46.5880432z M59.0261726,44.7691345h-0.8325615v-0.8277245h0.8325615V44.7691345z M59.0261726,43.7067909       h-0.8325615v-0.9582291h0.8325615V43.7067909z M60.0933533,47.7320366h-0.8397751v-0.9101944h0.8397751V47.7320366z        M60.0933533,46.5880432h-0.8397751v-0.8765793h0.8397751V46.5880432z M60.0933533,44.7691345h-0.8325615v-0.8277245h0.8325615       V44.7691345z M60.0933533,43.7067909h-0.8325615v-0.9582291h0.8325615V43.7067909z M62.3797836,42.7485619h0.8542023v0.9582291       h-0.8542023V42.7485619z M62.3797836,43.9414101h0.8542023v0.8277245h-0.8542023V43.9414101z M61.33424,42.7485619h0.8117409       v0.9582291H61.33424V42.7485619z M61.33424,43.9414101h0.8117409v0.8277245H61.33424V43.9414101z"></path>
					<polygon fill="#9EA7C7" points="57.4699173,49.1058121 53.680851,49.1058121 53.680851,49.9487839 57.4699173,49.9487839        60.7153969,49.9487839 64.6061172,49.9487839 64.6061172,49.1058121 60.7153969,49.1058121      "></polygon>
					<polygon fill="#9EA7C7" points="62.7888527,40.1115189 62.7888527,41.0233498 61.3278465,41.0233498 61.3278465,40.1115189        60.7153969,40.1115189 57.4699173,40.1115189 54.6919632,40.1115189 53.6888847,41.7334366 57.4699173,41.7334366        60.7153969,41.7334366 64.6020966,41.7334366 63.5990257,40.1115189      "></polygon>
					<rect x="61.5559883" y="39.4022522" fill="#9EA7C7" width="1.0047112" height="1.4746056"></rect>
					<rect x="61.5199203" y="45.913208" fill="#9EA7C7" width="1.4922295" height="3.0276642"></rect>
					<polygon fill="#9EA7C7" points="64.5436478,41.8046761 60.7153969,41.8046761 57.4699173,41.8046761 53.7721786,41.8046761        53.7721786,42.0312614 57.4699173,42.0312614 60.7153969,42.0312614 64.2794342,42.0312614 64.2794342,48.8207741        64.9214783,48.8207741 64.9214783,48.5398407 64.5460281,48.5398407      "></polygon>
				</g>
				<path fill="#BDC3D9" d="M51.35606,43.6948242c0.17453-0.1169014,0.196907-0.403492,0.0432014-0.5467873      c-0.1537094-0.1432991-0.4378395-0.1000938-0.5419502,0.0816498c-0.0136108-0.2305222-0.0040169-0.4371033-0.2369995-0.5612183      c-0.1192741-0.0640221-0.2369118-0.0608253-0.3386459-0.0168037c-0.1616592,0.0704994-0.2857742,0.2442093-0.3202019,0.4251328      c-0.0840225-0.072876-0.1937141-0.1088638-0.3042183-0.1105042c-0.1528893-0.0015602-0.3081512,0.0624657-0.4010315,0.1849403      c-0.1657524,0.2201881-0.0864868,0.5276031,0.1080513,0.696476c-0.3714447,0.1217384-0.6044235,0.1281319-0.6764832,0.5603981      c-0.0272141,0.1689529-0.0080261,0.7725525,0.3162689,0.5948257c-0.1873932,0.1024704-0.306675,0.3226624-0.2418327,0.5347366      c0.0664825,0.2121582,0.312252,0.3515205,0.5284233,0.2970848c0.0247574,0.4586639,0.5067024,0.4930954,0.843792,0.381031      c0.0039368-0.0016403,0.0079536-0.0031967,0.0127907-0.004837v2.1871529h-0.637291      c-0.1841202,0-0.2761803,0.1424751-0.2761803,0.2850342h1.0479126h1.1032486      c0-0.1425591-0.0921402-0.2850342-0.2762642-0.2850342h-0.6852417v-2.2943764      c0.0520515,0.0183601,0.0672226,0.0872231,0.1296844,0.0992737c0.1624794,0.0327911,0.2938042,0.0984535,0.4443169-0.0288582      c0.1664963-0.1409187,0.169693-0.430706,0.0072174-0.5755615c0.2353516,0.0383644,0.4859581-0.1209145,0.5515366-0.3490562      c0.0784531-0.2161751-0.045578-0.3466835-0.1848564-0.4827652c-0.0024605-0.036808-0.0040169-0.073616-0.0056572-0.110424      c0.2201958-0.0456619,0.3922615-0.2601967,0.3898888-0.4844017      C51.7531548,43.9469872,51.5769882,43.7364693,51.35606,43.6948242z"></path>
				<path fill="#9EA7C7" d="M47.540596,43.5018501c0.2233849-0.1504288,0.2529869-0.5179329,0.0560722-0.7012329      c-0.1978111-0.1841202-0.5620384-0.1288681-0.6965599,0.104847c-0.0168076-0.2961807-0.0047569-0.5619507-0.3033943-0.7213173      c-0.1537132-0.0816498-0.3042221-0.0776329-0.4346466-0.0208206c-0.2081413,0.0905037-0.366684,0.3138084-0.4115257,0.5452309      c-0.1073112-0.0928802-0.2481461-0.1392784-0.3898849-0.1409187c-0.1960831-0.0031967-0.3954582,0.0792694-0.5147362,0.2369957      c-0.2129745,0.2825737-0.1113243,0.6772118,0.1392822,0.8933868c-0.477108,0.156086-0.7765732,0.1649399-0.8686333,0.719677      c-0.0351677,0.2153549-0.0104103,0.9911041,0.4059525,0.7629623c-0.2401924,0.1313286-0.3939018,0.4130821-0.3098755,0.6852493      c0.0841103,0.2729836,0.4002953,0.4515305,0.6773033,0.3811111c0.0320473,0.5899887,0.6508102,0.6331902,1.0823402,0.4898949      c0.0055733-0.0015564,0.0112343-0.0047531,0.0168037-0.0063934v2.8059959h-0.8173141      c-0.2361755,0-0.3547134,0.1833-0.3547134,0.3666039h1.3450012h1.416153c0-0.1833038-0.118454-0.3666039-0.3546333-0.3666039      h-0.8798599v-2.9436378c0.0673027,0.0240211,0.0864868,0.1120644,0.1657562,0.1272316      c0.2089615,0.0424614,0.3778343,0.1264877,0.5708084-0.036808c0.2137146-0.1801071,0.2177315-0.5523643,0.0095901-0.7381248      c0.3018417,0.0488586,0.6228638-0.1552658,0.7077103-0.4483337c0.1008339-0.2777367-0.059269-0.4450531-0.2378159-0.6195831      c-0.0023766-0.0472183-0.0047493-0.0945206-0.007206-0.1417389c0.28265-0.059185,0.5035782-0.3338089,0.5003815-0.6220436      C48.0497551,43.8253326,47.8239899,43.5555458,47.540596,43.5018501z"></path>
				<path fill="#BDC3D9" d="M69.2477493,41.9960098l0.3378296-0.2545395l-0.2593842-0.5019455l-0.4002914,0.1280479      c-0.0663986-0.0752563-0.1400986-0.1432953-0.219368-0.2033043l0.0945206-0.4066887l-0.5212173-0.2185516l-0.2233047,0.3530769      c-0.0985336-0.0152473-0.1993637-0.0200844-0.3018417-0.0144272l-0.1873169-0.3698807l-0.0159836,0.004837L67.0278015,40.67593      l0.0552521,0.4122658c-0.0873032,0.0536118-0.1673126,0.1152573-0.2401886,0.1841202l-0.3818512-0.1624794l-0.3050385,0.4755516      l0.3097916,0.2817535c-0.0311508,0.0944366-0.0527954,0.1929741-0.0648422,0.2929878l-0.3994751,0.1217346l0.0720596,0.5603981      l0.4226685,0.01754c0.0368958,0.0928802,0.0832977,0.1801872,0.1369019,0.2610168l-0.2305145,0.3538132l0.4146423,0.3834915      l0.3386459-0.2609367c0.0848465,0.0455818,0.175354,0.08321,0.2690506,0.1112442l0.0512314,0.4226761l0.5643311,0.0272141      l0.0473022-0.2137146l0.0440216-0.205761c0.046402-0.0095901,0.0920639-0.0216408,0.1376419-0.0352516      c0.0480347-0.0151634,0.0936966-0.031971,0.1393585-0.0512352l0.3121719,0.2922478l0.4491501-0.3426628l-0.1985397-0.3802109      c0.0599976-0.0752563,0.1128769-0.1577225,0.1568985-0.2442093l0.4258728,0.0223808l0.1241074-0.550724l-0.393898-0.1617432      C69.2829971,42.1913605,69.2701263,42.0937271,69.2477493,41.9960098z M68.1069489,43.1824646      c-0.044838,0.0136108-0.0896835,0.0223808-0.1337051,0.0295944c-0.4330826,0.0656662-0.8605957-0.1913338-0.9943008-0.6220436      c-0.1481323-0.4747276,0.1169052-0.9798737,0.5916367-1.1279221c0.0416412-0.0128708,0.0832825-0.0216408,0.1248474-0.028038      c0.4363632-0.0704155,0.8686295,0.1865005,1.0031586,0.6204033      C68.8466339,42.5291901,68.5816803,43.0343323,68.1069489,43.1824646z"></path>
				<path fill="#BDC3D9" d="M48.5869522,27.7188625l0.3706169-0.279377l-0.284214-0.550806l-0.4403,0.1401005      c-0.0727959-0.0832081-0.1537056-0.1577244-0.2409286-0.2225685l0.1040268-0.4475136l-0.5723648-0.2393742l-0.2449455,0.3866863      c-0.1081314-0.0159855-0.2193718-0.0215588-0.3314362-0.0151653l-0.205761-0.4058685l-0.0168076,0.0055733l-0.5756416,0.1785469      l0.0609093,0.4530888c-0.0953407,0.0584488-0.1842041,0.1264896-0.2633934,0.201746l-0.4195595-0.1785469l-0.3346329,0.5219479      l0.3394699,0.3098755c-0.0344315,0.1040287-0.0576324,0.2113361-0.0704193,0.3217602l-0.4395599,0.1337051l0.0792694,0.6148281      l0.4643211,0.0192642c0.0408287,0.1016521,0.0912399,0.1985493,0.1496887,0.2874126l-0.2529831,0.3882446l0.4555473,0.4211159      l0.3714447-0.2865925c0.0945168,0.0504169,0.1937904,0.0912418,0.2962608,0.1224747l0.0559921,0.4643192l0.6196632,0.0287743      l0.0512352-0.2345371l0.0495987-0.2257652c0.0496788-0.0104122,0.1000938-0.023201,0.1505089-0.0384483      c0.0520554-0.0168056,0.1032906-0.0359879,0.1528893-0.0568104l0.343483,0.3210239l0.4931755-0.376276l-0.2186356-0.417099      c0.0664864-0.0832081,0.1241226-0.1737099,0.1721535-0.2681484l0.4675179,0.0247574l0.1360817-0.6051559l-0.4314461-0.1769886      C48.6253166,27.9326591,48.6117134,27.8253517,48.5869522,27.7188625z M47.3340111,29.0213985      c-0.0487747,0.0151653-0.0976334,0.0248394-0.1472321,0.031971c-0.4747276,0.0728779-0.943882-0.2096977-1.091198-0.682869      c-0.1624794-0.5211296,0.1281357-1.0751324,0.6500816-1.23843c0.045578-0.0136089,0.0912437-0.0231991,0.1369019-0.0304127      c0.4786644-0.0776329,0.953476,0.2049427,1.1015282,0.6812305      C48.1466522,28.3040981,47.8552246,28.8581009,47.3340111,29.0213985z"></path>
				<path fill="#9EA7C7" d="M71.0601807,45.6817856l0.3314362-0.2497826l-0.2545395-0.4922752l-0.3930817,0.1248512      c-0.0648422-0.0736122-0.1369019-0.1400986-0.2153549-0.1985474l0.0928802-0.3994751l-0.5116196-0.2145348l-0.218544,0.3458633      c-0.0968246-0.0144272-0.1960983-0.0192642-0.2961884-0.013607l-0.1841278-0.3626671l-0.0151596,0.0047531l-0.5148163,0.160183      l0.0544357,0.4042282c-0.0848541,0.0520554-0.1641235,0.1128845-0.2353592,0.1809235l-0.3746414-0.1592789l-0.2993774,0.4658737      l0.3042145,0.2770042c-0.0312347,0.0928802-0.0520554,0.1889572-0.0632858,0.2874107l-0.3922577,0.119278l0.0704193,0.549984      l0.4147186,0.0168037c0.0359879,0.0913239,0.0816498,0.1769905,0.1344452,0.2561798l-0.2265015,0.3474998l0.4074249,0.376194      l0.3314362-0.256176c0.0841064,0.044838,0.172966,0.0817299,0.2642059,0.109684l0.050415,0.4147224l0.5540085,0.0263977      l0.0456619-0.2096977l0.0440216-0.2017479c0.044838-0.0096741,0.090416-0.0208206,0.1345291-0.0352478      c0.0472107-0.014431,0.0927887-0.0312347,0.1368103-0.0504189l0.3066864,0.2874146l0.4411087-0.3362732l-0.1953506-0.3730774      c0.0591965-0.0744362,0.1104279-0.1552658,0.1537094-0.2393723l0.4178467,0.0224609l0.121727-0.541214l-0.3858643-0.1584625      C71.0937881,45.8731232,71.0818253,45.7770462,71.0601807,45.6817856z M69.9402084,46.8458633      c-0.0432053,0.013607-0.0872269,0.0215607-0.1312485,0.0287743c-0.4243088,0.0648422-0.8437881-0.1881371-0.9759293-0.609993      c-0.1448593-0.4659576,0.1153336-0.9615097,0.5812149-1.1071854c0.0408173-0.0127869,0.0816422-0.0208206,0.122467-0.0272141      c0.4275131-0.0696831,0.8518295,0.1824799,0.9847107,0.6084328      C70.6663589,46.2045555,70.4061737,46.7001076,69.9402084,46.8458633z"></path>
			
			<g>
				<g>
					<g>
						<path fill="#8096CC" d="M15.5062838,38.4239349l0.3338108,0.3330727        c-0.0432844-0.0480385-0.0873003-0.0952568-0.1313276-0.1441154        C15.6463003,38.5448532,15.5775213,38.4832039,15.5062838,38.4239349z"></path>
						<path fill="#CCCCCB" d="M16.8527584,39.616787c-0.1905155-0.0976372-0.3522549-0.2209282-0.5051422-0.3538132        l1.5570793,1.5530548v-1.0671768C17.5372677,39.7672958,17.1393509,39.7640991,16.8527584,39.616787z"></path>
						<path fill="#FFFFFF" d="M15.0475388,38.0877457c0.1552649,0.1088676,0.3138084,0.216095,0.458745,0.3361893        l-0.458745-0.4571037V38.0877457z"></path>
						<path fill="#FFFFFF" d="M16.3476162,39.2629738l-0.5067015-0.5052261        C16.002573,38.9354744,16.1683311,39.1068077,16.3476162,39.2629738z"></path>
						<g>
							<path fill="#D5D5D9" d="M22.7752838,32.2099838c-0.1216488,0.0905037-0.0623856,0.3114281-0.1752682,0.3858643         c-0.0040169,0.0024605-0.0063934,0.0024605-0.0104103,0.004837c-0.0328732,0.1088676-0.0656643,0.2169113-0.096077,0.3154488         h-0.3834896c-0.0200024-0.3298759,0.0600891-0.8310013,0.0624657-0.9238815         c0.0040226-0.1632977,0.0087719-0.3274174,0.0119686-0.4915352         c-1.7316036,0.2137146-3.1381683,0.2681484-4.2797775,0.2306023v8.0175323c0.0016403,0,0.003191,0,0.0048313,0         c0.3690605,0.0184441,0.7700939,0.0160675,1.0567741-0.1320648c0.4771061-0.2449493,0.7973042-0.6236839,1.1447239-1.0038948         c0.2378159-0.261013,0.554821-0.4403,0.8373966-0.6540947c0.1561661-0.1184578,0.30266-0.2465858,0.4179192-0.4058685         c0.1513309-0.2089615,0.2642193-0.4475136,0.3378277-0.7100868c0.1080475-0.3858681,0.0600128-0.9926605,0.3522568-1.3017159         c0.2633934-0.279377,0.5259666-0.3890648,0.7149239-0.7749329c0.3249626-0.6660614,0.4306259-1.4673882,0.3930035-2.2023163         C23.1540184,32.3581161,23.0435123,32.0114326,22.7752838,32.2099838z"></path>
							<path fill="#FFFFFF" d="M13.6169548,31.8705978c-0.0152426,0.2809372-0.0256586,0.5043221-0.0104113,0.7861595         c0.0031977,0.060009,0.0079517,0.1569061,0.0023775,0.2593765h-0.4899778         c-0.0015574-0.0849266,0.0024595-0.1633797,0.0048418-0.2146149c0.0040121-0.120018,0.0040121-0.229702,0-0.3370094         c-0.0127935-0.0600052-0.0304184-0.1184578-0.079277-0.1545258c-0.2681475-0.1985512-0.3786526,0.1481323-0.389883,0.3538933         c-0.036808,0.7349281,0.0680408,1.5362549,0.3938999,2.2023163c0.1889572,0.3858681,0.4515352,0.4955559,0.7149229,0.7749329         c0.2913475,0.3090553,0.243309,0.9158478,0.3522615,1.3017159c0.0736103,0.2625732,0.1856728,0.5011253,0.3370028,0.7100868         c0.1585445,0.2185516,0.3738165,0.3794708,0.5948267,0.5348167v-0.1209145l0.458745,0.4571037l0,0         c0.0712376,0.059269,0.1400166,0.1209183,0.2024832,0.1889572c0.0440273,0.0488586,0.0880432,0.096077,0.1313276,0.1441154         h0.0008202l0.5067015,0.5059662l0,0c0.1528873,0.132885,0.3146267,0.256176,0.5051422,0.3538132         c0.2865925,0.1473122,0.6845093,0.1505089,1.0519371,0.1320648v-8.0175323         c-2.5962181-0.0856667-3.8098135-0.655735-4.2789688-0.9638882         C13.5936737,31.1308365,13.6353226,31.5055542,13.6169548,31.8705978z"></path>
							<path fill="#D5D5D9" d="M15.5022669,28.982132c-0.9351139,0.0728779-1.7764463,0.7669792-1.8749008,1.7508698         c-0.0008202,0.0111485-0.0008202,0.0231991-0.0016394,0.0344296         c0.4691553,0.3081532,1.6827507,0.8782215,4.2789688,0.9638882v-2.6867218         c-0.1056747,0.0159874-0.216917,0.0263977-0.3410244,0.0263977         C16.8759575,29.069437,16.1883335,28.9285183,15.5022669,28.982132z"></path>
							<path fill="#CCCCCB" d="M20.1110249,28.4289494c-0.105669-0.0648441-0.2617531-0.2305202-0.3834076-0.2617531         c-0.1874008-0.0472183-0.0800858-0.0336094-0.2601967,0.0784531         c-0.5724411,0.3570099-0.9382286,0.7052498-1.5627251,0.7989483v2.6867218         c1.1416092,0.0375462,2.5481739-0.0168877,4.2797775-0.2306023c0.0088539-0.4939117-0.0007362-0.9870872-0.109684-1.4730473         C21.8914871,29.2055206,20.7474957,28.8188343,20.1110249,28.4289494z"></path>
							<path fill="#818386" d="M19.6923676,24.983366c-0.0376282,0.004837-0.4827652,0.0448418-0.4258728,0.0952568         c-0.2346134-0.2113361-0.6452427-0.2257652-0.9351139-0.2946243         c-0.1392784-0.0336113-0.2817554-0.0519753-0.4266853-0.0648441v4.3254433         c0.6244965-0.0936985,0.990284-0.4419384,1.5627251-0.7989483c0.1801109-0.1120625,0.0727959-0.1256714,0.2601967-0.0784531         c0.1216545,0.0312328,0.2777386,0.196909,0.3834076,0.2617531c0.6364708,0.3898849,1.7804623,0.7765713,1.9637642,1.5987206         c0.1089478,0.48596,0.1185379,0.9791355,0.109684,1.4730473c-0.0031967,0.1641178-0.007946,0.3282375-0.0119686,0.4915352         c-0.0023766,0.0928802-0.082468,0.5940056-0.0624657,0.9238815h0.3834896         c0.0304127-0.0985374,0.0632038-0.2065811,0.096077-0.3154488c0.1000118-0.3290558,0.1992912-0.6724567,0.2297001-0.829361         c0.1617413-0.8350201,0.1232929-1.201622,0.1625595-1.5578938c0.1384602-1.2592525,0.2081413-2.4657116-0.5684242-3.5216599         C21.5816956,25.5605679,20.3503971,24.8993397,19.6923676,24.983366z"></path>
							<path fill="#8C8E91" d="M13.7122126,26.4011612c-1.1840792,1.082346-1.0087299,2.4753017-0.8742046,3.8130875         c0.0464039,0.4666977,0.0423822,0.9822521,0.1713324,1.4282074c0.0768118,0.2649498,0.1072254,0.4850578,0.1144447,0.7220535         c0.0040121,0.1073074,0.0040121,0.2169914,0,0.3370094c-0.0023823,0.0512352-0.0063992,0.1296883-0.0048418,0.2146149         h0.4899778c0.0055742-0.1024704,0.0008202-0.1993675-0.0023775-0.2593765         c-0.0152473-0.2818375-0.0048313-0.5052223,0.0104113-0.7861595         c0.0183678-0.3650436-0.0232811-0.7397614,0.0087719-1.1031666c0.0008192-0.0112305,0.0008192-0.0232811,0.0016394-0.0344296         c0.0984545-0.9838905,0.9397869-1.6779919,1.8749008-1.7508698c0.6860666-0.0536137,1.3736906,0.0873051,2.0614042,0.0888634         c0.1241074,0,0.2353497-0.0104103,0.3410244-0.0263977v-4.3254433         C16.4421349,24.5919247,14.7337303,25.4676876,13.7122126,26.4011612z"></path>
						</g>
						<g>
							<path fill="#D5D5D9" d="M15.8409147,38.7577477l-0.334631-0.3338127         c-0.1449366-0.1200943-0.3034801-0.2273216-0.458745-0.3361893v1.4393578l2.8571568,2.577774v-1.2888489         l-1.5570793-1.5530548C16.167511,39.1068077,16.002573,38.9354744,15.8409147,38.7577477z"></path>
							<path fill="#CCCCCB" d="M17.9046955,42.1048775l0.0104065,0.0088539c0.0448399,0.0400047,0.1120625,0.0400047,0.1569042,0         l0.5956459-0.5371971l-0.7629566-0.7605057V42.1048775z"></path>
							<path fill="#B5B5B6" d="M18.966301,39.616787c-0.2866802,0.1481323-0.6877136,0.1505089-1.0567741,0.1320648         c-0.0016403,0-0.003191,0-0.0048313,0v1.0671768l0.7629566,0.7605057l2.2807693-2.0573845v-1.5603523         c-0.2825756,0.2137947-0.5995808,0.3930817-0.8373966,0.6540947         C19.7636051,38.993103,19.4434071,39.3718376,18.966301,39.616787z"></path>
							<path fill="#BFC5D9" d="M17.130579,43.4210205l-1.1776018,1.6571693l0.4803038,1.4265671l0.3306141,1.0880013         l0.7100868-3.2230988c0.0304947-0.1384583,0.0112305-0.2833939-0.0559902-0.4090652L17.130579,43.4210205z"></path>
							<path fill="#A2AAC9" d="M18.5691967,43.9605942c-0.0673027,0.1256714-0.0864849,0.270607-0.0560722,0.4090652         l0.6941013,3.1518593l0.3458614-1.0167618l0.4490719-1.3328667l0.0296745-0.0968971l-1.1752243-1.6539726         L18.5691967,43.9605942z"></path>
							<path fill="#36498B" d="M18.5691967,43.9605942l0.2874126-0.5395737l-0.2922478-0.4107056l-0.4619427-0.6499977h-0.1977234         v0.6644249v8.3169975l0.0016403,0.0056572l1.30089-3.8258781l-0.6941013-3.1518593         C18.4827118,44.2312012,18.501894,44.0862656,18.5691967,43.9605942z"></path>
							<path fill="#50609A" d="M17.9046955,42.3354797c-0.0015621,0.0023766-0.0047607,0.0031967-0.0072193,0.0063934         l-0.0127888,0.0184441l-0.2777386,0.3906212l-0.4763699,0.6700821l0.2874126,0.5395737         c0.0672207,0.1256714,0.0864849,0.270607,0.0559902,0.4090652l-0.7100868,3.2230988l1.1408005,3.7489815v-8.3169975         v-0.6644249h0.1977234l-0.0127888-0.0184441C18.0447884,42.2786674,17.9535484,42.2778473,17.9046955,42.3354797z"></path>
							<path fill="#272F6D" d="M12.6786489,44.3424454l1.5314932-0.646801l-1.7620182-0.8662529         c0.0864859-0.2681503,0.2777386-0.8141174,0.5043287-1.3081093         c-2.1094418,0.6396675-5.4205832,1.6147842-5.4869847,1.6971703         C5.5016222,45.6570282,5.1654387,56.7831383,5.1558423,60.785923h12.8193531l-0.0704994-6.3940582L12.6786489,44.3424454z"></path>
							<path fill="#252965" d="M30.3141518,54.3918648c-0.164856-5.0315132-0.1769066-9.6915092-1.7907906-11.1734123         c-0.0800934-0.0727921-3.380003-1.0575027-5.489439-1.6971703c0.2289619,0.4939919,0.4178371,1.039959,0.5043221,1.3081093         l-1.7620163,0.8662529l1.5330544,0.646801l-5.3557339,10.1431198l-0.0488529-0.0937004v0.1897774         c0.003191,0.0008202,0.0040112,5.1435776,0.0048313,6.2042809h9.9397354h2.1806812l10.2944431-8.3802032         l-2.8251801-4.4702988L30.3141518,54.3918648z"></path>
							<polygon fill="#36498B" points="20.0021591,45.1718903 20.033392,45.0773697 20.0318336,45.0749931        "></polygon>
							<path fill="#CBD0E0" d="M20.9484215,39.5191498l-2.2807693,2.0573845l-0.5956459,0.5371971         c-0.0448418,0.0400047-0.1120644,0.0400047-0.1569042,0l-0.0104065-0.0088539v0.1505089         c0.0136032-0.0119705,0.0248337-0.0247574,0.040081-0.0351677c0.1016521-0.0680428,0.1913357,0.045578,0.243309,0.1400986         h-0.0856667l0.4619427,0.6499977l0.2922478,0.4107056l1.1752243,1.6539726l0.0015583,0.0023766l0.1753502-0.5203094         l1.1896515-3.527317c0.0359879,0.0112343,0.0840282,0.0256615,0.1384602,0.0416451l-0.5444107-1.5923233         L20.9484215,39.5191498z"></path>
							<path fill="#EEEFF4" d="M17.9447765,42.2202187c-0.0152473,0.0104103-0.0264778,0.0231972-0.040081,0.0351677v-0.1505089         l-2.8571568-2.577774l-0.0528755-0.0480385l-0.5443277,1.5923233         c0.0544329-0.0159836,0.1032085-0.0312309,0.1400986-0.0416451l1.0262775,3.0517654l0.1793613,0.5323601l0.1569042,0.4643211         l1.1776018-1.6571693l0.4763699-0.6700821l0.2777386-0.3906212l0.0127888-0.0184441         c0.0024586-0.0031967,0.0056572-0.0040169,0.0072193-0.0063934c0.0488529-0.0576324,0.1400928-0.0568123,0.1849346,0.0063934         l0.0127888,0.0184441h0.0856667C18.1361122,42.2657967,18.0464287,42.1521759,17.9447765,42.2202187z"></path>
							<path fill="#252965" d="M16.4332809,46.5047569l-0.4803038-1.4265671l-0.1569042-0.4643211l-0.1793613-0.5323601         l-1.0262775-3.0517654c-0.03689,0.0104141-0.0856657,0.0256615-0.1400986,0.0416451         c-0.2930689,0.087307-0.8350201,0.2513428-1.4978828,0.449894c-0.2265902,0.4939919-0.4178429,1.039959-0.5043287,1.3081093         l1.7620182,0.8670731l-1.5314932,0.6459808l5.2260466,10.0494194v-1.9589272v-0.1424751V51.678009v-0.3362694         l-1.1408005-3.7489815L16.4332809,46.5047569z"></path>
							<path fill="#272F6D" d="M23.0339222,41.5212822c-0.6604919-0.1992874-1.2032623-0.3618507-1.4970684-0.449894         c-0.0544319-0.0159836-0.1024723-0.0304108-0.1384602-0.0416451l-1.1896515,3.527317l-0.1753502,0.5203094         l-0.0312328,0.0945206l-0.4490719,1.3328667l-0.3458614,1.0167618l-1.30089,3.8258781l-0.0016403-0.0056572v0.3362694         v0.6124535v0.1424751v1.9589272l0.0488529,0.0937004l5.3557339-10.1431198l-1.5330544-0.6459808l1.7620163-0.8670731         C23.4517593,42.5612411,23.2628841,42.015274,23.0339222,41.5212822z"></path>
						</g>
						<polygon fill="#36498B" points="9.8631372,60.9732399 10.3009777,60.9732399 9.8631372,52.14151       "></polygon>
					</g>
					<polygon fill="#272F6D" points="25.541275,60.785923 25.9703445,60.785923 25.541275,52.14151      "></polygon>
					<path fill="#263C81" d="M22.4263058,32.3525429l-0.3994751,0.5883484       c-0.0376263-0.064846-0.0809097-0.1272278-0.1337032-0.1841202c-0.3146286-0.3402061-0.9094563-0.5347366-1.6323299-0.5347366       c-1.0952168,0-1.9277763,0.6299934-1.9277763,0.6299934c-0.2041225,0.1032906-1.0455379,0.0192642-1.0455379,0.0192642       c-0.3602886-0.4475136-1.2096539-0.6492577-1.9173641-0.6492577c-0.7236948,0-1.3185215,0.1945305-1.6331444,0.5347366       c-0.0527983,0.0568924-0.0960007,0.1192741-0.1336231,0.1841202l-0.4163675-0.7645187l-0.082387,0.3986549l0.376194,0.7437782       c-0.0063944,0.0632057-0.0087719,0.1288681-0.0039349,0.1960907c0.0744352,0.9783134,1.0143089,1.4898529,1.9044943,1.4898529       c0.0240192,0,0.0488577-0.0008202,0.0728769-0.0015564c0.1656761-0.004837,0.3297949-0.0288582,0.4875183-0.0705032       c0.6700821-0.1752663,1.2032623-0.6580315,1.4634571-1.3232765c0.0359879-0.0928802,0.0536137-0.1841202,0.0544338-0.2746201       c0.1288681,0.036068,0.2481441,0.0528717,0.3554516,0.0528717c0.1080475,0,0.2265091-0.0168037,0.3554535-0.0528717       c0.0007381,0.0904999,0.018364,0.1817398,0.0544338,0.2746201c0.2601185,0.6652451,0.793293,1.1480103,1.4633751,1.3232765       c0.1577244,0.0416451,0.3218422,0.0656662,0.4875183,0.0705032c0.0240192,0.0007362,0.0488586,0.0015564,0.0728779,0.0015564       c0.8901901,0,1.8300591-0.5115395,1.9044933-1.4898529c0.004837-0.0672226,0.0024586-0.132885-0.0039349-0.1960907       l0.4282494-0.5676117L22.4263058,32.3525429z M17.0393391,33.4661179       c-0.2137966,0.5467873-0.6500797,0.9430656-1.1976871,1.087101c-0.1288681,0.0336113-0.2641306,0.0528755-0.4002943,0.0576286       l-0.0600071,0.0008202c-0.7092667,0-1.4562435-0.3866844-1.5122337-1.1263657       c-0.013608-0.1825638,0.036808-0.3330727,0.156085-0.4619408c0.2369957-0.2553596,0.7397671-0.4082489,1.3449173-0.4082489       c0.7365665,0,1.4250088,0.2241287,1.6356087,0.5323601C17.0737686,33.2475662,17.0849228,33.3492203,17.0393391,33.4661179z        M20.2487469,34.6116676l-0.060009-0.0008202c-0.1361637-0.0047531-0.2714252-0.0240173-0.4002934-0.0576286       c-0.5476074-0.1440353-0.9838905-0.5403137-1.1976871-1.087101c-0.0455799-0.1168976-0.0343437-0.2185516,0.0336971-0.3186455       c0.2105122-0.3082314,0.8989582-0.5323601,1.636343-0.5323601c0.6044178,0,1.1071014,0.1528893,1.3440971,0.4082489       c0.119278,0.1288681,0.169693,0.279377,0.1560841,0.4619408       C21.7049885,34.2249832,20.9580135,34.6116676,20.2487469,34.6116676z"></path>
					<g>
						<path fill="#5880C1" d="M21.1941891,24.8617115l0.0063934-0.0096722c0,0-0.0151596-0.0200024-0.0463982-0.055172        C21.1773834,24.832037,21.1886139,24.8520393,21.1941891,24.8617115z"></path>
						<path fill="#5880C1" d="M21.5040627,25.4444885c-0.1432953-0.105669-0.297823-0.2009258-0.4523506-0.2938061        l-0.0448399,0.0848465c0.1664944,0.1345234,0.3330727,0.2754421,0.4875183,0.4283295        c-0.7917366,1.2232647-1.5210056,2.7499256-2.1614933,4.0140133c0.7853413-2.2872448,1.4450111-3.9219532,1.7003708-4.5391579        c-0.0072136-0.0040169-0.0143452-0.0096741-0.0223789-0.0144291l0.0712433-0.1016521        c0.039999-0.096077,0.0632801-0.151329,0.0632801-0.151329s0.0015583-0.027216,0.0087719-0.0744362        c-0.2033043-0.2033844-1.091198-0.9847088-3.2462978-1.1039867c-0.0015507,0-0.0015507,0-0.003191,0v6.9704399        c1.9885979,0,3.9835949-0.1456738,5.9794159-0.4275112c0-0.0143452,0.0023727-0.0287743,0.0023727-0.0432014        C23.9753475,28.2928677,23.0507259,26.5388832,21.5040627,25.4444885z"></path>
						<path fill="#6589C6" d="M24.0850334,30.2062149c-2.0622196,0.3018398-4.1252575,0.4571056-6.1803379,0.4571056v0.196991        v0.2081394v0.2865925v0.2328968c1.29212,0,2.5850639-0.040823,3.8755493-0.1240311        c0.6299934-0.0400047,1.1927681-0.2113361,1.5474834-0.4475136c-0.0456619,0.0527935-0.0896835,0.1064892-0.1353455,0.1592827        c-0.1537075,0.1777267-0.371439,0.3290558-0.6227798,0.449152c-0.2882328,0.13764-0.6228638,0.2345371-0.9799557,0.2673283        c-1.2280178,0.1128807-2.4576759,0.1689529-3.6849518,0.1689529v0.0495987v0.4795647        c1.1512012,0,2.3032265-0.0488586,3.4552517-0.1473122c0.5803986-0.0495987,1.1239948-0.2729836,1.5434666-0.6204033        c0.2177315-0.0240192,0.4362831-0.0448418,0.6548328-0.0728779c0.4563675-0.0584488,0.7941952-0.4290676,0.7493553-0.8181324        c-0.023201-0.2042046-0.0464821-0.4091473-0.0696812-0.6156483        C24.1787338,30.2734375,24.1443024,30.2486801,24.0850334,30.2062149z"></path>
						<path fill="#5E84C3" d="M11.5722799,30.3159008c-0.0232,0.206501-0.0463991,0.4114437-0.0695992,0.6156483        c-0.0448408,0.3890648,0.2929869,0.7596836,0.7492714,0.8181324c0.2121572,0.0272179,0.4243145,0.0472202,0.6364717,0.0712395        c0.4171,0.3458614,0.958231,0.5699863,1.5386295,0.6204815c1.1592398,0.0992775,2.3192177,0.1488724,3.4776421,0.1488724        v-0.4795647v-0.0495987c-1.2376156,0-2.477684-0.0568085-3.7169333-0.1721497        c-0.3554535-0.0327911-0.692543-0.1264915-0.9799557-0.2641315c-0.2689667-0.1289501-0.4955473-0.2954445-0.6516371-0.4883385        c-0.0240192-0.0304127-0.0480328-0.0616455-0.0727949-0.0920601c0.35783,0.2209301,0.907815,0.3778343,1.5130529,0.4170189        c1.3016338,0.0849285,2.6058083,0.1264896,3.908268,0.1264896v-0.2328968v-0.2865925v-0.2081394v-0.196991        c-2.0541897,0-4.1172285-0.1552658-6.1795282-0.4571056C11.6651602,30.2486801,11.6315489,30.2734375,11.5722799,30.3159008z"></path>
						<path fill="#5880C1" d="M17.9046955,31.5879402v0.03689v0.4362812c1.2272758,0,2.456934-0.0560722,3.6849518-0.1689529        c0.3570919-0.0327911,0.6917229-0.1296883,0.9799557-0.2673283c0.2513409-0.1200962,0.4690723-0.2714252,0.6227798-0.449152        c0.0456619-0.0527935,0.0896835-0.1064892,0.1353455-0.1592827c-0.3547153,0.2361774-0.91749,0.4075089-1.5474834,0.4475136        C20.4897594,31.5471172,19.1968155,31.5879402,17.9046955,31.5879402z"></path>
						<path fill="#91B0DC" d="M17.9046955,23.6928806c-2.1695318,0.1200962-3.0557051,0.9110126-3.2486801,1.1087418        c-0.0263958,0.0352497-0.0415621,0.0504169-0.0415621,0.0504169l0.0071325,0.0104103        c0.005661-0.0087719,0.0160675-0.0247574,0.0344296-0.0591869c0.0064821,0.0408249,0.0080338,0.0680408,0.0080338,0.0680408        s0.0256596,0.0576305,0.0680418,0.1545277l0.0664883,0.0984535c-0.0063992,0.0040169-0.0120554,0.0079517-0.0184498,0.0119686        c0.3042173,0.7013149,1.1248093,2.6499138,1.7020102,4.5416183c-0.6460619-1.2640877-1.3697567-2.7907486-2.1663294-4.0140133        c0.1545277-0.1528873,0.3202028-0.2938061,0.4875183-0.4283295l-0.0440216-0.0856667        c-0.1552649,0.0928802-0.3097916,0.1889572-0.453908,0.2946262c-1.5466633,1.0943947-2.4705467,2.8483791-2.3768415,4.7481194        c-0.0008192,0.0144272,0.0015526,0.0288563,0.0015526,0.0432014c1.9942598,0.2818375,3.9876165,0.4275112,5.9745855,0.4275112        l4.6728592-0.2633934l-4.6728592-0.2497845V23.6928806z"></path>
						<path fill="#7397CE" d="M12.4833746,31.0444317c0.0247622,0.0304146,0.0487757,0.0616474,0.0727949,0.0920601        c0.1560898,0.192894,0.3826704,0.3593884,0.6516371,0.4883385c0.2874126,0.13764,0.6245022,0.2313404,0.9799557,0.2641315        c1.2392492,0.1153412,2.4793177,0.1721497,3.7169333,0.1721497v-0.4362812v-0.03689        c-1.3024597,0-2.6066341-0.0415611-3.908268-0.1264896C13.3911896,31.422266,12.8412046,31.2653618,12.4833746,31.0444317z"></path>
						<path fill="#5E84C3" d="M14.732091,25.0258312c-0.0423822-0.0968971-0.0680418-0.1545277-0.0680418-0.1545277        s-0.0015516-0.027216-0.0080338-0.0680408c-0.018362,0.0344296-0.0287685,0.050415-0.0344296,0.0591869        c-0.0023775,0.0032787-0.0063944,0.0088539-0.0063944,0.0088539l0.1441154,0.2785587l0.0440216,0.0856667        c-0.1673155,0.1345234-0.3329906,0.2754421-0.4875183,0.4283295c0.7965727,1.2232647,1.5202675,2.7499256,2.1663294,4.0140133        c-0.5772009-1.8917046-1.3977928-3.8403034-1.7020102-4.5416183        C14.7616892,25.0930519,14.7465191,25.0594406,14.732091,25.0258312z"></path>
						<path fill="#6589C6" d="M21.051712,25.1506824l0.1481342-0.2793789c0,0-0.0031986-0.0063953-0.0056572-0.0095921        c-0.0055752-0.0096722-0.0168056-0.0296745-0.0400047-0.0648441        c-0.0072136,0.0472202-0.0087719,0.0744362-0.0087719,0.0744362s-0.0232811,0.0552521-0.0632801,0.151329        c-0.0144348,0.0336113-0.0304203,0.0719757-0.0488644,0.1160812        c-0.2553596,0.6172047-0.9150295,2.2519131-1.7003708,4.5391579c0.6404877-1.2640877,1.3697567-2.7907486,2.1614933-4.0140133        c-0.1544456-0.1528873-0.3210239-0.2938061-0.4875183-0.4283295L21.051712,25.1506824z"></path>
					</g>
					<g>
						<path fill="#F7F7F8" d="M25.0121193,48.6598549v0.2882309c0,0.3322525-0.2697926,0.6035995-0.6012268,0.6035995h-0.1978111        c-0.3321724,0-0.6012211-0.271347-0.6012211-0.6035995v-0.2882309h-1.1912098        c-0.1616592,0.1257515-0.2674103,0.3194656-0.2674103,0.5395737v1.1224327c0,0.381031,0.307415,0.6884422,0.6868877,0.6884422        h2.943718c0.3786526,0,0.6860676-0.3074112,0.6860676-0.6884422v-1.1224327        c0-0.220108-0.1049309-0.4138222-0.2665901-0.5395737H25.0121193z M25.9382915,50.4419556h-3.2534294v-0.18256h3.2534294        V50.4419556z M25.9382915,50.0191994h-3.2534294v-0.1824799h3.2534294V50.0191994z"></path>
						<path fill="#F7F7F8" d="M24.4108925,48.0546989h-0.1978111c-0.2088776,0-0.3770123,0.1432953-0.3770123,0.3185654v0.2697868        v0.3658638c0,0.1753464,0.1681347,0.3186455,0.3770123,0.3186455h0.1978111        c0.2081394,0,0.3770123-0.1432991,0.3770123-0.3186455v-0.3658638v-0.2697868        C24.7879047,48.1979942,24.6190319,48.0546989,24.4108925,48.0546989z"></path>
					</g>
				</g>
				<g>
					<g>
						<path fill="#FFFFFF" d="M42.7364082,46.4463081c-0.1128044-0.1880569-0.1192818-0.4403-0.3049545-0.5683479        c-0.198555-0.137722-0.5348244-0.1209183-0.7517319-0.0520554c-0.5780258,0.1833-1.2496643,0.3954544-1.3681984,0.4691544        c-0.6964836,0.4275093-1.3321304,1.1559601-1.8412971,1.8164482c-0.907814,1.1776047-0.9630661,3.6593819,1.0816078,3.3095016        c0.3834915-0.0648422,0.7645187-0.1528854,1.1335793-0.2753601c1.0166817-0.3346291,1.977375-0.9615097,2.35923-2.0045891        c0.1513252-0.4139023,0.2025604-0.8582191,0.181736-1.2969589c-0.0095863-0.2209282-0.0344276-0.4443169-0.0808296-0.660408        C43.0758705,46.8594704,42.8997841,46.7185516,42.7364082,46.4463081z"></path>
					</g>
					<path fill="#272F6D" d="M64.5972672,28.5434723c-0.2577438,0.1945324-0.51474,0.389883-0.77174,0.5844154       c-2.0125389,1.5234642-3.9562988,3.1389885-5.9097366,4.7352486c-2.7634506,2.2600288-5.5150146,4.5344048-8.2641182,6.8119736       c-1.2760506,1.0567703-2.5513763,2.115097-3.8258781,3.1725998c-0.5435905,0.4507141-1.0863609,0.9014244-1.6299515,1.3521347       c-0.2385521,0.1985474-0.4843216,0.3907013-0.7173004,0.5956459c-0.3858681,0.3386459-0.0720596,0.586792-0.2874107,0.9774971       c-0.1816635,0.3306122-0.9294586,0.1152573-1.2232666,0.2721634c-0.081646,0.0432014-0.9870872,0.7045097-0.9750366,0.7965698       c0,0.0008202,0.1881409,1.4329643,0.1881409,1.4329643c0.4547272-0.1448555,0.7933731-0.3666039,1.1319389-0.7220573       c2.2351952-2.3488922,19.6585426-17.0574837,22.7367058-19.7346134       C65.3970337,28.5162563,64.9743652,28.2584381,64.5972672,28.5434723z"></path>
				</g>
			</g>
		
	
	<path fill="#BDC3D9" d="M37.1637421,41.2411652l0.262516-0.1977882l-0.2015533-0.3900414l-0.3110504,0.0995026   c-0.0515976-0.0584793-0.1088638-0.111351-0.1704636-0.1579781l0.073452-0.316021l-0.405014-0.1698265l-0.1735229,0.2743607   c-0.0765648-0.0118484-0.1549187-0.0156059-0.2345428-0.0112114l-0.1455574-0.2874184l-0.0124207,0.0037575l-0.4068565,0.1268921   l0.0429344,0.3203506c-0.0678444,0.0416603-0.1300163,0.0895653-0.1866455,0.143074l-0.2967186-0.126255l-0.23703,0.3695259   l0.2407265,0.2189407c-0.0242081,0.0733833-0.0410233,0.1499519-0.0503883,0.2276649l-0.3104134,0.0945969l0.0559921,0.4354591   l0.3284416,0.0136299c0.0286674,0.0721741,0.064724,0.1400146,0.1063805,0.2028236l-0.1791267,0.2749329l0.3222046,0.2979927   l0.2631416-0.2027588c0.0659294,0.0354156,0.136261,0.0646553,0.2090645,0.086441l0.039814,0.3284416l0.4385185,0.0211487   l0.0367546-0.166069l0.0342064-0.1598892c0.0360527-0.0074539,0.071537-0.0168152,0.1069527-0.0273895   c0.0373306-0.0117874,0.0728111-0.0248451,0.1082916-0.039814l0.2425728,0.2270927l0.3490181-0.2662697l-0.1542816-0.2954445   c0.046627-0.0584755,0.0877113-0.1225586,0.1219215-0.1897621l0.330925,0.0173912l0.0964432-0.4279442l-0.3060837-0.125679   C37.1911354,41.3929672,37.1811333,41.3170967,37.1637421,41.2411652z M36.2772827,42.1631088   c-0.0348434,0.0105743-0.0696869,0.0173874-0.1038933,0.022995c-0.3365326,0.0510254-0.6687317-0.1486778-0.7726288-0.4833603   c-0.1151085-0.3688927,0.0908394-0.7614174,0.4597321-0.876461c0.0323563-0.0099983,0.0647163-0.0168152,0.0970116-0.0217857   c0.3390808-0.054718,0.6749763,0.1449203,0.7795143,0.48209C36.8520546,41.6554756,36.6461754,42.0480003,36.2772827,42.1631088z"></path>

<g id="Layer_1_1_">
	<path fill="#9EA7C7" d="M36.7416153,27.1116371L36.7416153,27.1116371c-1.116993,0-2.0224266,0.9054317-2.0224266,2.0224285l0,0   c0,1.1169968,0.9054337,2.0224285,2.0224266,2.0224285l0,0c1.1169968,0,2.0224304-0.9054317,2.0224304-2.0224285l0,0   C38.7640457,28.0170689,37.8586121,27.1116371,36.7416153,27.1116371z"></path>
	<g opacity="0.4">
		<path fill="#FFFFFF" d="M37.9462814,30.1892452h-0.3693123l-0.246212-0.8881092l-0.5100021,0.8881092h-0.4132767    l0.7913818-1.3805256l-0.1231041-0.4836254l-1.0815582,1.864151h-0.4132767l1.3717308-2.3565674h0.3605232l0.1582756,0.580349    h0.3693123l-0.2550011,0.448452l0.3605194,1.3277683V30.1892452z"></path>
	</g>
	<path fill="#BDC3D9" d="M36.538578,27.1116371L36.538578,27.1116371c-1.1169968,0-2.0224266,0.9054317-2.0224266,2.0224285l0,0   c0,1.1169968,0.9054298,2.0224285,2.0224266,2.0224285l0,0c1.1169968,0,2.0224266-0.9054317,2.0224266-2.0224285l0,0   C38.5610046,28.0170689,37.6555748,27.1116371,36.538578,27.1116371z"></path>
	<g>
		<path fill="#EEEFF4" d="M37.7432404,30.1892452h-0.3693123l-0.2462082-0.8881092l-0.5100021,0.8881092h-0.4132805    l0.7913857-1.3805256l-0.1231041-0.4836254l-1.0815582,1.864151h-0.4132805l1.3717346-2.3565674h0.3605194l0.1582794,0.580349    h0.3693123l-0.2550011,0.448452l0.3605194,1.3277683L37.7432404,30.1892452z"></path>
	</g>
	<g>
		<path fill="#9EA7C7" d="M43.8022346,33.6734428c0-0.2996063-0.381321-0.5810585-0.9532967-0.7535591    c0.1361847-0.5901337,0.0726318-1.0531654-0.1815834-1.198431c-0.0636292-0.0361385-0.1356392-0.0549221-0.2088165-0.0544739    v0.2088165l0.1089478,0.018158c0.1271057,0.0726318,0.1815796,0.3450031,0.1361847,0.6990833    c-0.009079,0.0817108-0.0272369,0.1725044-0.0453949,0.2723732c-0.1910248-0.0472412-0.3852196-0.080616-0.5810547-0.0998688    c-0.1171074-0.1623192-0.2444725-0.3169785-0.381321-0.4630318c0.2905273-0.2814484,0.5719795-0.4267139,0.7626381-0.4267139    v-0.2088165l0,0c-0.2451324,0-0.5810585,0.1815796-0.9169807,0.4902668    c-0.3268471-0.3086872-0.6627693-0.4902668-0.9169846-0.4902668v0.2088165c0.1906624,0,0.4721107,0.1543446,0.7717171,0.4267139    c-0.1338997,0.146183-0.2582397,0.3008461-0.3722382,0.4630318c-0.1987343,0.0200043-0.3958931,0.0533676-0.5901375,0.0998688    c-0.018158-0.0907898-0.0363159-0.1815796-0.0453949-0.2723732c-0.0453949-0.3449974,0.009079-0.6173687,0.1361847-0.6900024    c0.0299416-0.0185776,0.06464-0.0280399,0.0998688-0.0272369v-0.1997395l0,0    c-0.0693932-0.0024853-0.1382332,0.0131607-0.1997375,0.0453949c-0.2632904,0.1543446-0.3177643,0.6173725-0.1906586,1.198431    c-0.5629005,0.1725006-0.9351425,0.4539528-0.9351425,0.7535591s0.372242,0.5810547,0.9442177,0.7535591    c-0.1361847,0.5901337-0.0726318,1.0531654,0.1815834,1.1984291c0.0636292,0.0361404,0.1356392,0.054924,0.2088165,0.0544777    c0.2542114,0,0.5810585-0.1815834,0.9169807-0.4902687c0.3359261,0.3086853,0.6627693,0.4811859,0.9169846,0.4811859    c0.0726929,0.0080032,0.1460075-0.0079346,0.2088165-0.0453949c0.2542152-0.1543427,0.3177681-0.6173706,0.1815796-1.1984291    C43.4299927,34.2544975,43.8022346,33.9730492,43.8022346,33.6734428L43.8022346,33.6734428z M42.6038017,33.0651474    c-0.0342636,0.1207809-0.0767326,0.2390823-0.1271057,0.3540802c-0.0363159-0.0726318-0.0726318-0.1452637-0.1180267-0.2178955    s-0.0817108-0.1452637-0.1271057-0.2088165c0.1257706,0.0145607,0.2502213,0.0388451,0.372242,0.0726318H42.6038017z     M42.1861687,34.036602c-0.06493,0.1245728-0.1408958,0.2430725-0.2269783,0.354084l-0.4085541,0.018158l-0.4176369-0.018158    l-0.2178955-0.345005c-0.0724983-0.1192894-0.136219-0.2436981-0.1906624-0.3722382    c0.0544891-0.1256027,0.1182175-0.2469902,0.1906624-0.363163c0.0659943-0.1219826,0.1387405-0.2401924,0.2178955-0.3540802    l0.4176369-0.018158l0.4085541,0.018158c0.0820389,0.1138115,0.1578102,0.2320137,0.2269783,0.3540802l0.1906586,0.363163    L42.1861687,34.036602z M42.476696,33.9185753c0.0504227,0.118084,0.0928841,0.2394104,0.1271057,0.363163    c-0.1220207,0.0337868-0.2464714,0.0580711-0.372242,0.0726318c0.0528183-0.0660095,0.0956459-0.1394272,0.1271057-0.2178955    C42.4040604,34.0638428,42.4403763,33.9912071,42.476696,33.9185753L42.476696,33.9185753z M41.5506363,34.8991089    c-0.0907898-0.0907898-0.1725006-0.1906586-0.2542152-0.2905273h0.5084267L41.5506363,34.8991089z M40.869709,34.3543701    c-0.1292725-0.0109825-0.257061-0.0353241-0.381321-0.0726318c0.0363159-0.1180267,0.0817108-0.2360573,0.1271057-0.363163    c0.0338478,0.078392,0.0732918,0.1542473,0.1180305,0.2269783L40.869709,34.3543701z M41.5415573,32.447773    c0.0907898,0.0907898,0.1725006,0.1906624,0.2542114,0.2905312h-0.4993477L41.5415573,32.447773z M40.869709,32.9925156    l-0.1361847,0.2088165l-0.1180305,0.2269745c-0.0453949-0.1180267-0.0907898-0.2360535-0.1271057-0.3631592    C40.6136703,33.0321884,40.7410812,33.0079193,40.869709,32.9925156z M40.0344391,34.1364746    c-0.3268471-0.1361885-0.5356636-0.3177681-0.5356636-0.4630318c0-0.1452675,0.2088203-0.3268471,0.5356636-0.4630318    l0.2542114-0.0907898c0.0560951,0.1894226,0.125885,0.3745193,0.2088203,0.5538216    c-0.0829353,0.1793022-0.1527252,0.3643951-0.2088203,0.5538216L40.0344391,34.1364746z M40.524704,35.4529305    c-0.1180267-0.072628-0.1725006-0.3450012-0.1361847-0.6990852c0.0093613-0.0923309,0.0276031-0.1835403,0.0544739-0.2723694    c0.1902504,0.0508728,0.3847389,0.084301,0.5810585,0.0998688c0.1171036,0.1623154,0.2444725,0.3169746,0.3813171,0.4630318    c-0.2996063,0.2814484-0.5810547,0.4267159-0.7717171,0.4267159L40.524704,35.4529305z M42.7036705,34.7538452    c0.0453949,0.3450012-0.009079,0.6173744-0.1361847,0.6900063c-0.0299416,0.0185776-0.06464,0.0280418-0.0998688,0.0272369    c-0.1906624,0-0.4721107-0.1543465-0.7717171-0.4267159c0.1368484-0.1460533,0.2642136-0.3007164,0.3813171-0.4630318    c0.1958389-0.0192528,0.3900299-0.0526276,0.5810585-0.0998688c0.018158,0.0907898,0.0363159,0.1815796,0.0453949,0.2723694    V34.7538452z M43.0577545,34.1364746l-0.2542152,0.0907898c-0.0560951-0.1894264-0.125885-0.3745193-0.2088165-0.5538216    c0.082962-0.1824036,0.1527481-0.3705215,0.2088165-0.5629005l0.2542152,0.0998688    c0.3268433,0.1361847,0.5356598,0.3177643,0.5356598,0.4630318    C43.5934143,33.8187065,43.3845978,34.0002861,43.0577545,34.1364746z"></path>
		<circle fill="#9EA7C7" cx="41.5506363" cy="33.6734428" r="0.4176369"></circle>
	</g>
	<g>
		<path fill="#BDC3D9" d="M43.7297134,33.6895599c0-0.2996101-0.381321-0.5810585-0.9533005-0.7535591    c0.1361847-0.5901375,0.0726318-1.0531673-0.1815796-1.198431c-0.063633-0.0361385-0.1356392-0.054924-0.2088165-0.0544758    v0.2088165l0.1089478,0.0181599c0.1271057,0.0726318,0.1815796,0.3449993,0.1361847,0.6990833    c-0.009079,0.0817108-0.0272369,0.1725006-0.0453949,0.2723732c-0.1910286-0.0472412-0.3852196-0.0806198-0.5810585-0.0998726    c-0.1171036-0.1623154-0.2444687-0.3169746-0.3813171-0.463028c0.2905273-0.2814522,0.5719795-0.4267159,0.7626381-0.4267159    V31.683094l0,0c-0.2451363,0-0.5810585,0.1815815-0.9169846,0.4902649    c-0.3268433-0.3086834-0.6627693-0.4902649-0.9169807-0.4902649v0.2088165c0.1906586,0,0.4721069,0.1543427,0.7717171,0.4267159    c-0.1339035,0.1461792-0.2582397,0.3008461-0.372242,0.463028c-0.1987305,0.0200043-0.3958893,0.0533714-0.5901337,0.0998726    c-0.018158-0.0907936-0.0363159-0.1815834-0.0453987-0.2723732c-0.0453949-0.3450012,0.0090828-0.6173706,0.1361885-0.6900043    c0.0299416-0.0185776,0.06464-0.0280399,0.0998688-0.027235v-0.1997395l0,0    c-0.0693932-0.0024853-0.138237,0.0131607-0.1997375,0.0453949c-0.2632904,0.1543446-0.3177681,0.6173725-0.1906624,1.198431    c-0.5628967,0.1725006-0.9351387,0.453949-0.9351387,0.7535591c0,0.2996063,0.372242,0.5810547,0.9442177,0.7535553    c-0.1361847,0.5901375-0.0726318,1.0531693,0.1815796,1.1984329c0.063633,0.0361404,0.135643,0.054924,0.2088203,0.0544739    c0.2542114,0,0.5810547-0.1815796,0.9169807-0.4902649c0.3359222,0.3086853,0.6627693,0.4811859,0.9169807,0.4811859    c0.0726929,0.0080032,0.1460114-0.0079384,0.2088203-0.0453949c0.2542114-0.1543427,0.3177643-0.6173706,0.1815796-1.1984329    c0.5719795-0.1725006,0.9442177-0.453949,0.9442177-0.7535553H43.7297134z M42.5312805,33.0812607    c-0.0342674,0.1207809-0.0767326,0.2390862-0.1271057,0.354084c-0.0363159-0.0726318-0.0726318-0.1452675-0.1180267-0.2178955    c-0.0453949-0.0726318-0.0817108-0.1452675-0.1271057-0.2088165    C42.2848129,33.0231895,42.4092636,33.0474777,42.5312805,33.0812607L42.5312805,33.0812607z M42.1136436,34.0527191    c-0.06493,0.1245689-0.140892,0.2430725-0.2269745,0.3540802l-0.4085579,0.0181618l-0.4176331-0.0181618l-0.2178955-0.3450012    c-0.0724983-0.1192932-0.136219-0.2436981-0.1906624-0.3722382c0.0544891-0.1256027,0.1182175-0.2469902,0.1906624-0.363163    c0.0659943-0.1219864,0.1387367-0.2401962,0.2178955-0.3540802l0.4176331-0.0181618l0.4085579,0.0181618    c0.0820389,0.1138115,0.1578102,0.2320137,0.2269745,0.3540802l0.1906624,0.363163L42.1136436,34.0527191z M42.4041748,33.9346924    c0.0504227,0.118084,0.0928841,0.2394066,0.1271057,0.363163c-0.1220207,0.033783-0.2464714,0.0580711-0.372242,0.072628    c0.0528183-0.0660057,0.0956459-0.1394272,0.1271057-0.2178955c0.0453949-0.0726318,0.0817108-0.1452637,0.1180267-0.2178955    H42.4041748z M41.4781113,34.915226c-0.0907898-0.0907898-0.1725006-0.1906586-0.2542114-0.2905312h0.5084267    L41.4781113,34.915226z M40.7971878,34.3704834c-0.1292725-0.0109825-0.257061-0.0353203-0.381321-0.072628    c0.0363159-0.1180267,0.0817108-0.2360573,0.1271057-0.363163c0.0338478,0.078392,0.0732918,0.1542473,0.1180267,0.2269745    L40.7971878,34.3704834z M41.4690323,32.4638901c0.0907898,0.0907898,0.1725006,0.1906586,0.2542152,0.2905312h-0.4993477    L41.4690323,32.4638901z M40.7971878,33.0086327l-0.1361885,0.2088165l-0.1180267,0.2269745    c-0.0453949-0.1180267-0.0907898-0.2360573-0.1271057-0.363163C40.5411491,33.0483055,40.66856,33.0240364,40.7971878,33.0086327z     M39.9619141,34.1525879c-0.3268433-0.1361847-0.5356598-0.3177643-0.5356598-0.463028    c0-0.1452675,0.2088165-0.3268471,0.5356598-0.4630318l0.2542152-0.0907898    c0.0560951,0.1894226,0.125885,0.3745155,0.2088165,0.5538216c-0.0829315,0.1793022-0.1527214,0.3643951-0.2088165,0.5538177    L39.9619141,34.1525879z M40.4521828,35.4690475c-0.1180267-0.0726318-0.1725006-0.3450012-0.1361847-0.6990852    c0.0093613-0.0923309,0.0276031-0.1835442,0.0544739-0.2723732c0.1902504,0.0508728,0.3847389,0.0843048,0.5810585,0.0998726    c0.1171036,0.1623154,0.2444687,0.3169746,0.3813171,0.4630318c-0.2996063,0.2814484-0.5810585,0.426712-0.7717171,0.426712    L40.4521828,35.4690475z M42.6311493,34.7699623c0.0453949,0.3450012-0.009079,0.6173706-0.1361847,0.6900063    c-0.0299416,0.0185776-0.0646439,0.028038-0.0998726,0.0272369c-0.1906586,0-0.4721069-0.1543465-0.7717171-0.4267159    c0.1368484-0.1460571,0.2642174-0.3007164,0.381321-0.4630318c0.1958389-0.0192528,0.3900299-0.0526276,0.5810585-0.0998688    c0.0181541,0.0907898,0.0363121,0.1815796,0.0453949,0.2723694V34.7699623z M42.9852295,34.1525879l-0.2542114,0.0907898    c-0.0560951-0.1894226-0.125885-0.3745155-0.2088165-0.5538177c0.082962-0.1824036,0.1527443-0.3705215,0.2088165-0.5629044    l0.2542114,0.0998726c0.3268471,0.1361847,0.5356636,0.3177643,0.5356636,0.4630318    C43.5208931,33.8348236,43.3120766,34.0164032,42.9852295,34.1525879z"></path>
		<circle fill="#BDC3D9" cx="41.4781113" cy="33.6895599" r="0.4176369"></circle>
	</g>
</g>
<g id="_1">
	<ellipse fill="#9EA7C7" cx="36.9759216" cy="36.7577362" rx="2.7824287" ry="1.2032852"></ellipse>
	<g>
		<path fill="#BDC3D9" d="M38.7505989,36.2444992c0,0.6541748-0.9359283,1.1844902-2.0904579,1.1844902    c-1.1545258,0-2.0904541-0.5303154-2.0904541-1.1844902c0-0.2453156,0.4032288-0.657547,0.6286316-0.8465919    c0.3756676-0.3150749,0.7402458-0.3378983,1.4618225-0.3378983c0.7031174,0,1.0022621,0.0363312,1.3811951,0.3378983    C38.2846222,35.5915222,38.7505989,35.9887238,38.7505989,36.2444992z"></path>
		<ellipse fill="#9EA7C7" cx="36.660141" cy="35.6706924" rx="1.4623985" ry="0.8286209"></ellipse>
		
			<ellipse opacity="0.32" fill="#1A1A4E" enable-background="new    " cx="36.660141" cy="35.5764542" rx="0.7460938" ry="0.3251305"></ellipse>
	</g>
	<ellipse fill="#9EA7C7" cx="41.8937531" cy="40.4390259" rx="2.8635902" ry="1.2383842"></ellipse>
	<g>
		<path fill="#BDC3D9" d="M43.7201958,39.91082c0,0.6732559-0.9632301,1.2190399-2.1514359,1.2190399    s-2.1514359-0.545784-2.1514359-1.2190399c0-0.2524719,0.4149933-0.6767273,0.6469688-0.8712883    c0.386631-0.3242645,0.7618408-0.3477554,1.504467-0.3477554c0.7236252,0,1.0314941,0.0373917,1.4214859,0.3477554    C43.2406235,39.2387924,43.7201958,39.647583,43.7201958,39.91082z"></path>
		<ellipse fill="#9EA7C7" cx="41.5687599" cy="39.3202744" rx="1.5050583" ry="0.8527908"></ellipse>
		
			<ellipse opacity="0.32" fill="#1A1A4E" enable-background="new    " cx="41.5687599" cy="39.2232857" rx="0.7678566" ry="0.3346138"></ellipse>
	</g>
</g>

</svg>