<svg xmlns="http://www.w3.org/2000/svg" viewBox="0 0 80 80" class="featureSvg_3LcT" alt="Powered by React">
				<path fill="#2C3F84" d="M50.783035,56.046787H50.19854c-0.189903-0.98819-0.8535-1.699692-1.6455-1.558594h-6.841301V19.082996      h9.428696c0.009804-0.082108,0.015602-0.1651,0.015602-0.249008l0,0c0-0.713394-0.367599-1.351105-0.944298-1.743698      l0.061501-0.070801L39.206337,7.398883V6.636692c0-0.960999-0.778801-1.740204-1.7397-1.740204h-0.069298      c-0.878502,0-1.597702,0.653305-1.7159,1.499496L10.300135,16.698689h-0.5c-1.439499-0.166992-2.605999,0.8638-2.605999,2.1353      l0,0c0,0.083908,0.005901,0.166901,0.015701,0.249008h0.711399v16.975098h-0.209v2.286591h1.431598l0.0205,0.803711      c0,0,0.716801,0.175797,0.719799,0.712402c0.005302,0.994095-0.495098,1.233398-0.993198,1.21579      c-0.2822-0.009689-0.794399-0.1577-0.900901-0.503403c-0.007298-0.023392-0.046398-0.17189-0.024399-0.186996      c-0.123501,0.083008-0.181099,0.223602-0.163101,0.389206c0.089901,0.8125,0.975101,0.984299,1.564003,0.92569      c0.599598-0.059494,1.183598-0.488693,1.336899-1.176697c0.192398-0.866196-0.393501-1.453598-0.982899-1.9151      c-0.008801-0.006302-0.0005-0.111298,0.015598-0.264603h1.006901v-2.286591h-0.316402V19.082996h22.377405v35.405197h-9.543505      c-0.792-0.141098-1.455498,0.570404-1.645,1.558594h-1.084c-1.123997-0.166901-2.035099,0.8638-2.035099,2.1353l0,0      c0,0.084,0.004902,0.167007,0.012699,0.249008h34.296402c0.007805-0.082001,0.012207-0.165009,0.012207-0.249008l0,0      C52.817741,56.910587,51.907036,55.879887,50.783035,56.046787z M34.891937,21.191898h3.515602l-3.515602,3.593185V21.191898z       M39.62384,36.039494h-4.472603l4.472603-4.571304V36.039494z M39.62384,27.610798h-4.731903v-1.015106l4.731903-4.836502      V27.610798z M34.891937,28.891087h4.731903v0.766602l-4.731903,4.836395V28.891087z M34.891937,37.319798h4.731903v0.659698      l-4.731903,4.836899V37.319798z M34.891937,46.922291h4.194298l-4.194298,4.287094V46.922291z M34.891937,45.642094v-1.015198      l4.731903-4.836899v5.852097H34.891937z M49.292839,16.720188c-0.235405-0.041504-0.484398-0.0513-0.743202-0.0215h-7.533699      v-1.3965h-1.809601V7.952091L49.292839,16.720188z M35.657036,6.856388v8.445801h-1.809097v1.3965H11.409536L35.657036,6.856388      z M10.009134,36.058094H8.338736V19.082996h1.670399V36.058094z M39.62384,19.082996v0.828598h-4.731903v-0.828598H39.62384z       M34.891937,53.019993l4.731903-4.836899v6.305099h-4.731903V53.019993z"></path>
				<rect x="43.521339" y="19.793888" fill="#2C3F84" width="7.634697" height="7.311996"></rect>
			
			<g>
				<path fill="#88B3FF" d="M18.044737,29.076588c0.213398-0.031693,0.424797-0.042892,0.6348-0.043396v-2.530807l-2.068401,0.30661      l-0.033199,1.584503c-0.359402,0.149399-0.697201,0.334991-1.0117,0.551788l-1.340801-0.835999l-1.428699,1.610397l1,1.242706      c-0.173901,0.338303-0.313,0.693802-0.4151,1.063904l-1.576599,0.22319l-0.058601,2.15181l1.581501,0.3125      c0.084499,0.372589,0.2061,0.728989,0.360401,1.065994l-1.075203,1.196701l1.336903,1.686096l1.426701-0.783691      c0.295498,0.222595,0.612797,0.417496,0.948299,0.577103l-0.055202,1.622101l2.109402,0.432098l0.300301-0.777313v-1.803696      c-1.480499-0.004395-2.820801-0.75589-3.633301-1.929703c-0.376499-0.542999-0.650402-1.167496-0.753899-1.865295      C13.932436,31.701084,15.611635,29.436497,18.044737,29.076588z"></path>
				<path fill="#4589FF" d="M24.192736,33.080494l1.420399-0.757309l-0.680698-2.042496l-1.583,0.245102      c-0.205601-0.321701-0.442902-0.620605-0.707001-0.891998l0.5947-1.476105l-1.833-1.126999l-1.045898,1.194901      c-0.3633-0.114792-0.741199-0.193405-1.127899-0.229492l-0.489803-1.503006l-0.060497,0.009293v2.530807      c0.6357-0.003403,1.241699,0.143005,1.799297,0.388199c1.056103,0.462799,1.908703,1.320297,2.346203,2.423798      c0.123501,0.311996,0.225597,0.6362,0.276798,0.982407c0.225601,1.522491-0.348099,2.9785-1.4048,3.943893      c-0.631798,0.577606-1.436501,0.979401-2.347599,1.1147c-0.225601,0.033203-0.4482,0.043503-0.669899,0.042999v1.803696      l0.290001-0.747589c0.177299-0.008804,0.355999-0.025909,0.535198-0.052704c0.1894-0.027405,0.3745-0.065399,0.556099-0.111801      l1.004402,1.283203l1.892597-1.024399l-0.526897-1.545502c0.272499-0.2509,0.517601-0.528809,0.733898-0.829102      l1.589901,0.335999l0.791-2.000992l-1.3853-0.838913C24.208334,33.834888,24.220537,33.459888,24.192736,33.080494z"></path>
				<path fill="#5996FF" d="M15.196634,33.999989c-0.287098-1.933594,1.048801-3.733398,2.981903-4.020096      c0.168999-0.024902,0.335499-0.0336,0.501499-0.034103v-0.912094v-0.000504h-0.0005      c-0.210003,0.000504-0.421402,0.011703-0.6348,0.043396c-2.433102,0.359909-4.112301,2.624496-3.752399,5.057602      c0.103497,0.6978,0.377399,1.322296,0.753899,1.865295c0.813,1.173309,2.153301,1.924805,3.633801,1.929199v-0.912598      C16.960238,37.010197,15.456335,35.752888,15.196634,33.999989z"></path>
				<path fill="#5492FF" d="M21.697535,36.771488c1.056702-0.965393,1.629902-2.420898,1.4048-3.94339      c-0.051201-0.34671-0.153297-0.670914-0.276798-0.98291c-0.4375-1.1035-1.2901-1.960999-2.346203-2.423798      c-0.557598-0.244705-1.163597-0.391205-1.799297-0.387695v0.912094c1.733898-0.0103,3.257298,1.251404,3.519001,3.016602      c0.286598,1.933105-1.049301,3.733398-2.982403,4.019501c-0.180698,0.027298-0.359398,0.034698-0.536598,0.034195v0.912598      v0.000504c0.221699,0.000504,0.444298-0.009796,0.669899-0.042999C20.261034,37.750889,21.065737,37.349094,21.697535,36.771488      z"></path>
			</g>
			<g>
				<path fill="#4589FF" d="M30.103834,46.708485l0.880402-0.232498l-0.108398-1.201599l-0.9053-0.071289      c-0.067402-0.194809-0.1563-0.385315-0.265602-0.568909l0.5205-0.737305l-0.855499-0.850998l-0.7309,0.521896      c-0.184101-0.109787-0.378002-0.199692-0.579102-0.268997l-0.073799-0.889694l-1.202099-0.102509l-0.222702,0.862808      c-0.210899,0.033707-0.419399,0.089798-0.622997,0.167999l-0.6236-0.628403l-0.028301,0.019501l-0.9585,0.674805      l0.382301,0.801697c-0.142002,0.165604-0.265102,0.344299-0.367603,0.530807l-0.882397-0.080612l-0.309002,1.166504      l0.8134,0.370697c-0.0019,0.212799,0.018101,0.426697,0.0606,0.637604l-0.733902,0.508804l0.512703,1.0923l0.871098-0.241211      c0.1362,0.164612,0.287102,0.313004,0.4487,0.44191l-0.237297,0.87059l1.0947,0.507812l0.517097-0.751907      c0.204102,0.037094,0.412102,0.054703,0.620102,0.050705l0.381397,0.825699l1.164501-0.314896l-0.044399-0.465302      l-0.0434-0.446808c0.086399-0.049805,0.171799-0.1035,0.254799-0.161591c0.087902-0.062103,0.170902-0.127014,0.2505-0.195404      l0.826202,0.389191l0.689499-0.990189l-0.652901-0.641602C30.017935,47.114185,30.070635,46.912586,30.103834,46.708485z       M28.160437,47.793385c-0.081001,0.056702-0.1665,0.1035-0.252399,0.1465c-0.835903,0.417007-1.873001,0.174301-2.4282-0.6138      c-0.610401-0.868088-0.402401-2.068298,0.466297-2.680588c0.076202-0.052811,0.1553-0.097702,0.235802-0.138702      c0.839401-0.428207,1.8867-0.188507,2.444401,0.605499C29.238134,45.980885,29.029634,47.180592,28.160437,47.793385z"></path>
			</g>
		
		<g>
			<g>
				<path fill="#506099" d="M66.911934,57.800297c0.050804,0.001389,0.100105,0.007294,0.150902,0.007294      c3.012703-0.0103,5.4468-2.460999,5.436996-5.473602c-0.007294-2.111893-1.217293-4.304199-2.976097-5.20459      l-0.080994-24.161713c1.752899-0.912598,2.949196-2.744095,2.941895-4.8564      c-0.005402-1.607391-0.814995-3.045395-1.9244-4.039993l0.013702,4.079498l-3.536598,2.223694l-0.151405-0.093292      l-3.399895-2.1064l-0.013603-4.079605c-1.103096,1.001907-1.902901,2.445297-1.897499,4.052704      c0.006798,2.112305,1.215797,3.936096,2.974602,4.836395l0.080597,24.161697      c-1.752495,0.912109-2.9478,3.112808-2.940498,5.224609C61.599434,55.332493,63.969536,57.729496,66.911934,57.800297z       M65.132141,49.222584l1.750496-0.078598l2.052704-0.091797l1.912598,3.287598l-1.890602,3.300308l-2.052696,0.00679      l-1.750504,0.005905l-0.421402-0.689499l-1.491196-2.440399L65.132141,49.222584z"></path>
				<path fill="#394B8C" d="M69.96714,31.240696l0.080994,24.161591c-1.711395,0.89061-2.883797,2.660202-2.932098,4.709h2.072304      l3.365196-2.116196l0.151405,0.093704l3.264595,2.022491h2.038597c-0.048798-2.063995-1.2388-3.841293-2.966797-4.725601      l-0.080605-24.161591c1.752502-0.912598,2.9478-3.112808,2.940506-5.225098      c-0.009804-2.961411-2.379906-5.358902-5.322296-5.429703c-0.050308-0.001007-0.100105-0.006805-0.150909-0.006805      c-3.012695,0.010208-5.446793,2.460403-5.436493,5.473099C66.998337,28.147892,68.208336,30.34029,69.96714,31.240696z       M70.533539,22.729893l2.052696-0.006805l1.750999-0.005798l0.420898,0.689407l1.491203,2.439896l-1.890602,3.300293      l-1.750496,0.078705l-2.052704,0.092194l-1.912598-3.287598L70.533539,22.729893z"></path>
			</g>
			<g>
				<path fill="#7D97DE" d="M51.162437,38.477497c-0.084-0.092804-0.177696-0.175812-0.273903-0.255905l0.001404,0.001495      l0.450699,0.449707C51.28154,38.607395,51.222534,38.542896,51.162437,38.477497z"></path>
				<path fill="#CCCCCC" d="M52.711235,39.835896c-0.258301-0.132797-0.477501-0.299301-0.683594-0.4785l2.107399,2.101593      v-1.443893C53.637535,40.039494,53.098434,40.035084,52.711235,39.835896z"></path>
				<path fill="#D5D5D9" d="M59.826538,30.76749c-0.016197-0.270004,0.016602-0.622498,0.045898-0.888596      c-0.335503,0.128403-0.691902,0.216293-1.0616,0.248001c-1.559097,0.133301-3.118599,0.199188-4.675797,0.199188v9.689011      l0.000496-0.000504c0.062004,0.002899,0.125999,0.003403,0.189003,0.005402      c0.064499,0.001892,0.128899,0.005402,0.193802,0.005402c0.074295,0,0.146996-0.005402,0.220299-0.009308      c0.052696-0.002502,0.1064-0.001495,0.1577-0.006393c0.084496-0.007797,0.164001-0.024399,0.244598-0.039505      c0.037102-0.006897,0.076698-0.009293,0.112801-0.018097c0.1138-0.028305,0.220695-0.065903,0.317902-0.116196      c0.6455-0.331497,1.079597-0.844208,1.548798-1.358398c0.322304-0.353012,0.750999-0.59671,1.133301-0.885208      c0.211899-0.160202,0.410202-0.334,0.565903-0.549393c0.205597-0.2827,0.357399-0.6064,0.4571-0.961411      c0.146896-0.522491,0.081993-1.343689,0.476494-1.761688c0.356506-0.377899,0.712402-0.526901,0.967804-1.048813      c0.440399-0.900894,0.583-1.985901,0.532196-2.980499c-0.014099-0.278793-0.163597-0.748093-0.526794-0.478989      c-0.164604,0.122101-0.084,0.42189-0.2369,0.522491c-0.005302,0.003403-0.009201,0.002899-0.014099,0.006302      c-0.044502,0.147507-0.089401,0.293503-0.130402,0.4272H59.826538z"></path>
				<path fill="#FFFFFF" d="M50.888535,38.221592c0.096207,0.080093,0.189903,0.163101,0.273903,0.255905      c0.060097,0.065399,0.119102,0.129898,0.1782,0.195297h0.000504c0.2192,0.241196,0.442894,0.47319,0.686501,0.684601l0,0      c0.206093,0.179199,0.425293,0.345703,0.683594,0.4785c0.387199,0.199188,0.9263,0.203598,1.423805,0.179199v-9.689011l0,0      c-1.567802,0-3.1381-0.066895-4.707504-0.202087c-0.390099-0.033707-0.767097-0.126007-1.117195-0.267609      c-0.003906,0.179703-0.003403,0.359406,0.006897,0.559097c0.004402,0.081512,0.010696,0.212402,0.003899,0.352005h-0.663597      c-0.002403-0.1147,0.003395-0.2211,0.005898-0.290497c0.006302-0.163101,0.005798-0.311508,0.0009-0.456497      c-0.017998-0.0811-0.041901-0.160202-0.107399-0.209c-0.363701-0.269104-0.513199,0.200195-0.527298,0.478989      c-0.050804,0.994598,0.091797,2.079605,0.5327,2.980499c0.254898,0.521912,0.611298,0.670914,0.9673,1.048813      c0.394997,0.417999,0.329597,1.239197,0.476494,1.761688c0.100105,0.355011,0.252007,0.678711,0.4571,0.961411      c0.213806,0.294998,0.504906,0.513199,0.804703,0.72319C50.47834,37.91399,50.692238,38.058598,50.888535,38.221592      L50.888535,38.221592z"></path>
				<path fill="#818386" d="M59.826538,30.76749h0.518501c0.041-0.133698,0.085899-0.279694,0.130402-0.4272      c0.1054-0.347702,0.209-0.702606,0.269997-0.944305c-0.264603,0.196304-0.556198,0.361313-0.873001,0.48291      C59.84314,30.144993,59.810341,30.497486,59.826538,30.76749z"></path>
				<path fill="#818386" d="M60.99054,27.292393c-0.228004,0.027893-0.456001,0.060104-0.684105,0.084991      c0.228104-0.024887,0.4561-0.056595,0.684105-0.084V27.292393z"></path>
				<path fill="#8C8E91" d="M47.657539,30.76749h0.663597c0.006798-0.139603,0.000504-0.270493-0.003899-0.352005      c-0.0103-0.199692-0.010803-0.379395-0.006897-0.559097c-0.253403-0.10199-0.486305-0.238297-0.706001-0.389603      c0.0327,0.186508,0.054199,0.368103,0.059998,0.553711c0.004898,0.144989,0.005402,0.293396-0.0009,0.456497      C47.660934,30.546391,47.655136,30.65279,47.657539,30.76749z"></path>
				<path fill="#8C8E91" d="M47.29184,27.294895c0.224098,0.026794,0.4487,0.05809,0.673302,0.082489      c-0.224602-0.024399-0.449203-0.056595-0.673805-0.083496L47.29184,27.294895z"></path>
				<path fill="#D5D5D9" d="M54.133636,44.10149h0.010201h0.0186l-0.027397-2.642502l-2.107399-2.101593l0,0      c-0.243607-0.211411-0.4673-0.443405-0.686501-0.684601l-0.451202-0.449707l-0.001404-0.001495l0,0      c-0.196297-0.162994-0.410194-0.307602-0.620598-0.455505v1.209c0,0.483902-0.074699,0.965805-0.221703,1.4272      c-0.189995,0.593307-0.427795,1.355011-0.397499,1.346207l0.031799,0.060501      C50.698036,43.173298,52.311836,44.065388,54.133636,44.10149z"></path>
				<path fill="#273B81" d="M43.178535,51.095188h10.939003h0.000496h0.0205l0.005302-5.399399v-0.004395V44.10149h-0.010201      c-1.8218-0.036102-3.4356-0.928192-4.453102-2.292496l-0.001999-0.002411l-0.004898-0.004898      c-0.015602-0.015594-0.025902-0.031189-0.036598-0.046799c-0.046402,0.010208-0.108902,0.025803-0.1763,0.051697      c-0.295898,0.083511-0.784103,0.233902-1.3862,0.415512v8.05809h-3.203598v-7.092194      c-2.403801,0.721603-4.802704,1.443298-4.870102,1.520996c-2.694405,3.354401-3.6446,10.674805-3.6446,15.866699h6.8218      v-9.480499H43.178535z"></path>
				<path fill="#4589FF" d="M58.596039,19.853489c0,0-0.021004-0.027405-0.063004-0.075699      c0.0308,0.048294,0.046402,0.074707,0.054199,0.087906L58.596039,19.853489z"></path>
				<path fill="#4589FF" d="M56.189735,27.679188c0.226601-0.008301,0.453606-0.025894,0.680702-0.037094      c0.459-0.022507,0.917503-0.042999,1.376999-0.076706c0.2724-0.020004,0.545403-0.049301,0.818298-0.073196      c0.413605-0.036194,0.827202-0.069397,1.2407-0.114807c0.228104-0.024887,0.4561-0.057098,0.684105-0.084991      c0.066399-0.007797,0.132797-0.016602,0.199196-0.024902c0.345703-0.042404,0.691902-0.083893,1.037605-0.132797      c0.000496-0.018005,0.002998-0.035599,0.002998-0.053696c0.120598-2.571304-1.130402-4.944809-3.223701-6.426208      c-0.194298-0.142593-0.403297-0.272003-0.612801-0.397491l-0.060997,0.115189      c0.226097,0.181702,0.451195,0.371597,0.659698,0.579102c-1.070801,1.655807-2.058098,3.722198-2.925301,5.432602      c1.063004-3.094696,1.956001-5.308502,2.3022-6.143005c-0.010704-0.00589-0.0205-0.013687-0.030701-0.019592l0.096199-0.137604      c0.054604-0.13089,0.086403-0.205093,0.086403-0.205093s0.001396-0.036606,0.011696-0.101105      c-0.275894-0.274399-1.477501-1.332001-4.394501-1.493698c-0.000999,0-0.001999,0-0.003494,0v9.433594      C54.819138,27.717686,55.504234,27.70409,56.189735,27.679188z"></path>
				<path fill="#5492FF" d="M60.99054,27.293385c-0.228004,0.027405-0.456001,0.059113-0.684105,0.084      c-0.413498,0.04541-0.827095,0.078613-1.2407,0.114807c-0.272896,0.023895-0.545898,0.053192-0.818298,0.073196      c-0.459496,0.033707-0.917999,0.054199-1.376999,0.076706c-0.227097,0.0112-0.454102,0.028793-0.680702,0.037094      c-0.685501,0.024902-1.370598,0.038498-2.054695,0.038498v0.267105v0.281296v0.387711v0.315887      c1.7481,0,3.4981-0.055695,5.245201-0.168488c0.851997-0.054199,1.613693-0.285599,2.094696-0.605408      c-0.061996,0.071701-0.121597,0.144501-0.184097,0.216309c-0.208,0.240189-0.502403,0.44429-0.8423,0.606888      c-0.390099,0.187012-0.843201,0.318405-1.325699,0.362305c-1.663002,0.153305-3.326607,0.229004-4.987801,0.229004v0.066391      v0.649399l0,0c1.557198,0,3.116699-0.065887,4.675797-0.199188c0.369698-0.031708,0.726097-0.119598,1.0616-0.248001      c0.316803-0.121597,0.608398-0.286606,0.873001-0.48291c0.050301-0.037094,0.1064-0.068893,0.154297-0.108398      c0.295403-0.033691,0.590805-0.0616,0.8862-0.099197c0.618202-0.078598,1.075203-0.580505,1.015205-1.106903      c-0.031799-0.276398-0.063499-0.554199-0.095299-0.833496c-0.080002-0.057602-0.1259-0.090805-0.206001-0.148392      c-0.090805,0.013199-0.181602,0.0224-0.272499,0.035095c-0.345703,0.048904-0.691902,0.090393-1.037605,0.132797      C61.123337,27.275791,61.056938,27.285587,60.99054,27.293385z"></path>
				<path fill="#4B8DFF" d="M49.427536,30.123997c1.569405,0.135193,3.139702,0.202087,4.707504,0.202087v-0.649399v-0.066391      c-1.675201,0-3.3535-0.077103-5.030701-0.23291c-0.481903-0.044388-0.9375-0.172394-1.326698-0.358398      c-0.363701-0.174301-0.670403-0.399399-0.881302-0.660599c-0.033203-0.041-0.065002-0.082993-0.098701-0.1241      c0.483398,0.299408,1.2276,0.511307,2.046898,0.564011c1.762703,0.114288,3.527405,0.171387,5.290504,0.171387v-0.315887      v-0.387711v-0.281296v-0.267105c-0.684006,0-1.369102-0.013596-2.054604-0.038498      c-0.225098-0.008301-0.450699-0.025894-0.6763-0.036697c-0.459496-0.0224-0.919395-0.043396-1.379402-0.077103      c-0.273399-0.020004-0.546394-0.049301-0.819298-0.073196c-0.413597-0.036194-0.826698-0.069397-1.240295-0.114807      c-0.224602-0.024399-0.449203-0.055695-0.673302-0.082489c-0.067406-0.008301-0.134804-0.017609-0.202202-0.025909      c-0.347099-0.042999-0.694298-0.084488-1.041504-0.133789c-0.092293-0.013199-0.184998-0.022003-0.277298-0.035599      c-0.080101,0.057587-0.125999,0.09079-0.2061,0.148392c-0.032196,0.279297-0.063896,0.557098-0.0952,0.833496      c-0.059998,0.526398,0.397003,1.028305,1.014702,1.106903c0.287102,0.036697,0.574699,0.063507,0.861298,0.096207      c0.080605,0.066895,0.171906,0.122101,0.258804,0.18219c0.219696,0.151306,0.452599,0.287613,0.706001,0.389603      C48.660439,29.99799,49.037437,30.09029,49.427536,30.123997z"></path>
				<path fill="#B5B5B5" d="M55.57164,39.835896c-0.097206,0.050293-0.204102,0.087891-0.317902,0.116196      c-0.036102,0.008804-0.075699,0.0112-0.112801,0.018097c-0.080597,0.015106-0.160103,0.031708-0.244598,0.039505      c-0.0513,0.004898-0.105003,0.003891-0.1577,0.006393c-0.073303,0.003906-0.146004,0.009308-0.220299,0.009308      c-0.064903,0-0.129303-0.00351-0.193802-0.005402c-0.063004-0.001999-0.126999-0.002502-0.189003-0.005402v0.000504      l-0.000496,1.443893l2.382401,2.169403c0.943298-0.404297,1.746597-1.057098,2.343193-1.875504l0.002007-0.004395      c0.036095,0.010696-0.280304-1.14061-0.448303-1.742203c-0.066803-0.2397-0.1035-0.484406-0.111298-0.732895l-0.049301-1.681107      c-0.382301,0.288498-0.810997,0.532196-1.133301,0.885208C56.651237,38.991688,56.21714,39.504398,55.57164,39.835896z"></path>
				<path fill="#CCCCCC" d="M54.162437,44.10149h0.033203h0.1035h0.000496c0.140099,0,0.280304-0.010193,0.420403-0.020493h0.000999      c0.633301-0.0522,1.240196-0.208008,1.795403-0.451599l0.000999-0.000504l-2.382401-2.169907L54.162437,44.10149z"></path>
				<path fill="#0E2472" d="M72.237633,60.575687c0-5.840897-0.700699-13.083496-3.727592-15.866699      c-0.083-0.0728-2.414505-0.7789-4.7817-1.489792v7.060989h-3.203606V42.24799      c-0.6436-0.191895-1.163094-0.347595-1.474594-0.441406c-0.077606-0.025894-0.140106-0.041489-0.187004-0.057098      c-0.000496,0.001404-0.001495,0.002411-0.002502,0.003403c-0.596596,0.818405-1.399895,1.471207-2.343193,1.875504      l-0.000999,0.001007c-0.555206,0.243591-1.162102,0.399399-1.795403,0.451096l-0.000999,0.000504      c-0.140099,0.0103-0.280304,0.020493-0.420403,0.020493h-0.000496h-0.1035h-0.033203h-0.0186v1.589905v0.004395      l-0.005302,5.399399h0.031204h11.250496h0.000504v9.480499H72.237633z"></path>
				<path fill="#4589FF" d="M60.44854,29.018986c0.339897-0.162598,0.6343-0.366699,0.8423-0.606888      c0.0625-0.071808,0.122101-0.144608,0.184097-0.216309c-0.481003,0.319809-1.242699,0.551208-2.094696,0.605408      c-1.747101,0.112793-3.497101,0.168488-5.245201,0.168488v0.049301v0.591309c1.661194,0,3.324799-0.075699,4.987801-0.229004      C59.605339,29.337391,60.058441,29.205997,60.44854,29.018986z"></path>
				<path fill="#669EFF" d="M54.13504,28.969685c-1.7631,0-3.527802-0.057098-5.290504-0.171387      c-0.819298-0.052704-1.563499-0.264603-2.046898-0.564011c0.033699,0.041107,0.065498,0.083099,0.098701,0.1241      c0.210899,0.2612,0.517601,0.486298,0.881302,0.660599c0.389198,0.186005,0.844795,0.314011,1.326698,0.358398      c1.6772,0.155807,3.355499,0.23291,5.030701,0.23291v-0.591309V28.969685z"></path>
				<path fill="#4B8DFF" d="M49.277138,20.951588c1.078201,1.655807,2.058098,3.722198,2.932701,5.432602      c-0.782303-2.560501-1.892097-5.196701-2.303802-6.146393c-0.024902-0.058105-0.045403-0.104507-0.064896-0.149506      c-0.057602-0.131302-0.0923-0.209396-0.0923-0.209396s-0.0019-0.036606-0.0112-0.091797      c-0.024902,0.046387-0.039101,0.068298-0.046906,0.07959c-0.002899,0.004807-0.008301,0.012207-0.008301,0.012207      l0.194801,0.377396l0.060104,0.116196C49.711235,20.554188,49.486137,20.744083,49.277138,20.951588z"></path>
				<path fill="#5492FF" d="M58.434937,20.083988c-0.019096,0.044907-0.0411,0.097595-0.065498,0.157196      c-0.346199,0.834503-1.239197,3.048309-2.3022,6.143005c0.867203-1.710403,1.8545-3.776794,2.925301-5.432602      c-0.208504-0.207504-0.433601-0.3974-0.659698-0.579102l0.060997-0.115189l0.200699-0.378403      c0,0-0.004898-0.008804-0.007301-0.013199c-0.007797-0.013199-0.023399-0.039612-0.054199-0.087906      c-0.0103,0.064499-0.011696,0.101105-0.011696,0.101105S58.48954,19.953098,58.434937,20.083988z"></path>
				<path fill="#4F72D3" d="M43.178535,51.095188H43.17804v9.480499h0.000496h1.9981v-4.740295h7.035103v4.740295h1.967796      l-0.061996-9.480499H43.178535z M47.692238,52.261692h-2.4888v-0.713898h2.4888V52.261692z"></path>
				<path fill="#2953C9" d="M54.138535,51.095188h-0.0205h-0.000496l0.061996,9.480499h11.2407v-9.480499H54.169739H54.138535z       M60.901741,51.547794h2.489197v0.713898h-2.489197V51.547794z"></path>
				<path fill="#4F72D3" d="M48.074539,50.280186v-8.05809c-0.202599,0.05719-0.415504,0.124496-0.644005,0.192398      c-0.773499,0.2388-1.666496,0.503403-2.559593,0.773499v7.092194H48.074539z M45.203438,49.06879h2.4888v0.713898h-2.4888      V49.06879z"></path>
				<path fill="#2953C9" d="M63.72834,50.280186v-7.060989c-0.924301-0.280304-1.8535-0.561005-2.653305-0.804703      c-0.191895-0.057602-0.373497-0.114197-0.550301-0.166504v8.032196H63.72834z M60.901741,49.06879h2.489197v0.713898h-2.489197      V49.06879z"></path>
				<rect x="45.203438" y="51.547794" fill="#273B81" width="2.4888" height="0.713898"></rect>
				<rect x="45.203438" y="49.06879" fill="#273B81" width="2.4888" height="0.713898"></rect>
				<rect x="60.901741" y="51.547794" fill="#0E2472" width="2.489197" height="0.713898"></rect>
				<rect x="60.901741" y="49.06879" fill="#0E2472" width="2.489197" height="0.713898"></rect>
				<g>
					<path fill="#6472A5" d="M47.515434,59.595692h1.175301l-1.173798-7.0923c0.783203-0.583496,1.221703-1.571808,1.0513-2.601593       c-0.129402-0.78421-0.638199-1.421402-1.258301-1.819305l0.329102,1.9897l-1.483398,1.306198L47.515434,59.595692z"></path>
					<path fill="#808CB5" d="M45.081841,52.906696l1.107399,6.688995h1.326195l-1.359795-8.2173l-0.066002,0.058105       l-1.9067-0.792511l-0.329102-1.989197c-0.459,0.576096-0.735397,1.343201-0.605499,2.127396       C43.418739,51.811985,44.152641,52.606388,45.081841,52.906696z"></path>
				</g>
				<rect x="44.870941" y="55.835392" fill="#2953C9" width="7.340797" height="4.740295"></rect>
				<path fill="#88B3FF" d="M47.291336,27.293888c0.224602,0.026901,0.449203,0.059097,0.673805,0.083496      c0.413597,0.04541,0.826698,0.078613,1.240295,0.114807c0.272903,0.023895,0.545898,0.053192,0.819298,0.073196      c0.460007,0.033707,0.919907,0.054703,1.379402,0.077103c0.225601,0.010803,0.451202,0.028397,0.6763,0.036697      c0.685501,0.024902,1.370598,0.038498,2.054604,0.038498l5.904297-0.340302l-5.904297-0.382797v-8.710495      c-2.936501,0.162598-4.1362,1.233002-4.397903,1.500992c-0.034698,0.047913-0.055702,0.068405-0.055702,0.068405      l0.0093,0.013199c0.007805-0.011292,0.022003-0.033203,0.046906-0.07959c0.0093,0.055191,0.0112,0.091797,0.0112,0.091797      s0.034698,0.078094,0.0923,0.209396l0.090294,0.133301c-0.008797,0.004898-0.017097,0.011292-0.025398,0.016205      c0.411705,0.949692,1.5215,3.585892,2.303802,6.146393c-0.874603-1.710403-1.8545-3.776794-2.932701-5.432602      c0.209-0.207504,0.434097-0.3974,0.660202-0.579102l-0.060104-0.116196c-0.2099,0.126007-0.4189,0.255402-0.613701,0.398499      c-2.093796,1.4814-3.344299,3.854904-3.216797,6.426208c-0.001503,0.018097,0.001396,0.036194,0.001396,0.054199      c0.347206,0.049301,0.694405,0.09079,1.041504,0.133789C47.157036,27.277287,47.224434,27.286091,47.291336,27.293888z"></path>
			</g>
		</g>
		<g>
			<g>
				<g>
					<path fill="#BDC3D9" d="M52.187836,66.680588l-42.6577,2.550797l-0.017597-0.221695       c0.1133-0.053207,0.224098-0.111298,0.331497-0.178207c1.6441-1.018494,2.6441-3.601593,2.412102-6.589794       c-0.247501-3.183594-1.829102-5.973694-3.815399-6.918503c-0.346203-0.16449-0.705101-0.274399-1.072299-0.320297       c-0.024403-0.003403-0.048302-0.012695-0.072701-0.015091c-0.0322-0.003006-0.0625,0.000397-0.0942-0.001511       c-0.020599-0.001495-0.0406-0.000488-0.0611-0.001495c-2.570801-0.125-4.481901,2.984406-4.1572,7.070297       c0.330999,4.162594,2.828099,7.398998,5.436001,7.242702c0,0,9.838398,1.279297,11.752499,4.824203       c3.524899-0.178711,35.210403-4.616714,35.210403-4.616714S54.705841,67.548782,52.187836,66.680588z M8.355337,68.479492       c-2.303703,0.116699-4.495602-2.75-4.786201-6.412594c-0.2915-3.668503,1.455601-6.466812,3.791001-6.255905       c0.3946,0.035599,0.7784,0.159698,1.145999,0.350098c1.704601,0.883804,3.052299,3.306198,3.267601,6.070801       c0.214897,2.762188-0.758301,5.129894-2.326603,5.943798C9.109236,68.350983,8.744436,68.459885,8.355337,68.479492z"></path>
					<path fill="#EDEFF5" d="M7.110137,54.976994l0.0303,0.007797c0.0205,0.001007,0.040501,0,0.0611,0.001495L7.110137,54.976994z"></path>
					<path fill="#9EA7C7" d="M11.773737,62.231892c-0.215302-2.764603-1.563-5.186996-3.267601-6.070801       c-0.367599-0.190399-0.7514-0.314499-1.145999-0.350098c-2.3354-0.210907-4.0825,2.587402-3.791001,6.255905       c0.2906,3.662594,2.482498,6.529293,4.786201,6.412594c0.389099-0.019608,0.753899-0.12851,1.091797-0.303802       C11.015436,67.361786,11.988634,64.99408,11.773737,62.231892z M8.296736,67.733887       c-2.0274,0.085403-3.9458-2.443405-4.200199-5.656292c-0.255402-3.216797,1.2705-5.686005,3.322701-5.517609       c0.3965,0.0327,0.782299,0.1651,1.147499,0.374512c1.444801,0.826187,2.577599,2.91069,2.762699,5.288589       c0.185001,2.3755-0.625,4.415493-1.942398,5.183102C9.054037,67.600586,8.688837,67.717285,8.296736,67.733887z"></path>
					<path fill="#EDEFF5" d="M11.329435,62.223087c-0.185101-2.377899-1.317898-4.462402-2.762699-5.288589       c-0.3652-0.209412-0.750999-0.341812-1.147499-0.374512c-2.0522-0.168396-3.578102,2.300812-3.322701,5.517609       c0.254398,3.212887,2.172798,5.741695,4.200199,5.656292c0.392101-0.016602,0.757301-0.133301,1.090302-0.327698       C10.704435,66.63858,11.514437,64.598587,11.329435,62.223087z M9.053537,66.329987       c-0.265102,0.152893-0.555202,0.244705-0.866703,0.256393c-1.607399,0.061005-3.122997-1.9478-3.3232-4.489788       c-0.200199-2.542908,1.003902-4.498505,2.6269-4.372498c0.314503,0.024399,0.620101,0.127899,0.910202,0.292496       c1.148399,0.651306,2.0508,2.304703,2.1987,4.195297C10.747835,64.10199,10.102335,65.723587,9.053537,66.329987z"></path>
					<path fill="#BDC3D9" d="M10.599436,62.211887c-0.1479-1.890594-1.050301-3.543991-2.1987-4.195297       c-0.2901-0.164597-0.595699-0.268097-0.910202-0.292496c-1.622997-0.126007-2.827099,1.82959-2.6269,4.372498       c0.200203,2.541988,1.715801,4.550793,3.3232,4.489788c0.311501-0.011688,0.601601-0.1035,0.866703-0.256393       C10.102335,65.723587,10.747835,64.10199,10.599436,62.211887z"></path>
					<path fill="#EDEFF5" d="M53.255737,63.067387c-0.121597-1.751999-0.635803-3.241699-1.209999-3.581589l-0.003403-0.054703       l-0.199699-0.019501l0,0H51.84214L7.368437,55.002888c0.367199,0.045898,0.726097,0.155807,1.072299,0.320297       c1.986298,0.944809,3.567898,3.734909,3.815399,6.918503c0.231998,2.988201-0.768002,5.570797-2.412102,6.589794       c-0.107899,0.06691-0.218197,0.125-0.331497,0.178207l0.017597,0.221695l42.6577-2.550797l0.160103-0.009705l0.197296-0.011795       l-0.003395-0.054596C53.069138,66.287582,53.377235,64.81778,53.255737,63.067387z"></path>
				</g>
				<g>
					<path fill="#8590B8" d="M41.000336,54.953098l-7.872097,16.977489l29.741199-5.269501l1.266098-0.225098l0.380402-0.06691       l0.802299-0.140091L41.000336,54.953098z M38.937836,67.850586l3.776802-7.685589l11.749603,5.003887L38.937836,67.850586z"></path>
					<g>
						<g>
							<path fill="#F7F7F8" d="M40.73864,56.196293c-0.046402,0.099594-0.019104,0.210403,0.060997,0.247498         s0.182098-0.013702,0.2285-0.113297l0.5205-1.122498l-0.289497-0.134308L40.73864,56.196293z"></path>
						</g>
						<g>
							<path fill="#F7F7F8" d="M41.896835,56.732883c-0.046394,0.100113-0.019096,0.210907,0.061005,0.248001         c0.080101,0.037109,0.182098-0.013596,0.2285-0.113297l0.5205-1.123001l-0.289505-0.133789L41.896835,56.732883z"></path>
						</g>
						<g>
							<path fill="#F7F7F8" d="M43.055038,57.269993c-0.046402,0.100098-0.019104,0.210892,0.060997,0.247498         c0.080101,0.037201,0.182098-0.013092,0.2285-0.113205l0.5205-1.122589l-0.289497-0.133804L43.055038,57.269993z"></path>
						</g>
						<g>
							<path fill="#F7F7F8" d="M44.213234,57.807087c-0.046394,0.100098-0.019096,0.210403,0.061005,0.247604         c0.079597,0.037094,0.182098-0.013702,0.2285-0.113297l0.5205-1.122604l-0.289505-0.134293L44.213234,57.807087z"></path>
						</g>
						<g>
							<path fill="#F7F7F8" d="M45.370941,58.344196c-0.045906,0.099594-0.0186,0.210495,0.061493,0.247589         c0.079605,0.037109,0.182106-0.013687,0.2285-0.113297l0.5205-1.122604l-0.289993-0.134293L45.370941,58.344196z"></path>
						</g>
						<g>
							<path fill="#F7F7F8" d="M46.529137,58.88129c-0.045898,0.099594-0.0186,0.210495,0.061501,0.247604         c0.079597,0.037094,0.182098-0.013702,0.227997-0.113297l0.521004-1.122604l-0.290001-0.134201L46.529137,58.88129z"></path>
						</g>
						<g>
							<path fill="#F7F7F8" d="M47.68734,59.418385c-0.045898,0.099609-0.019005,0.21051,0.061501,0.247604         c0.079597,0.037109,0.182098-0.013702,0.227997-0.113297l0.520599-1.122604l-0.289597-0.134201L47.68734,59.418385z"></path>
						</g>
						<g>
							<path fill="#F7F7F8" d="M48.845535,59.95499c-0.046394,0.100098-0.018997,0.210999,0.061005,0.248108         c0.080101,0.037094,0.182198-0.013702,0.2285-0.113312l0.520599-1.123001l-0.289604-0.134293L48.845535,59.95499z"></path>
						</g>
						<g>
							<path fill="#F7F7F8" d="M50.003738,60.492191c-0.046402,0.100098-0.018997,0.210907,0.060997,0.247498         c0.080101,0.037109,0.182205-0.013199,0.2286-0.113297l0.5205-1.122498l-0.289597-0.134308L50.003738,60.492191z"></path>
						</g>
						<g>
							<path fill="#F7F7F8" d="M51.161934,61.029285c-0.046394,0.099609-0.018997,0.210403,0.061005,0.247513         c0.080101,0.037094,0.182198-0.013611,0.2286-0.113312l0.5205-1.122498l-0.289604-0.134293L51.161934,61.029285z"></path>
						</g>
						<g>
							<path fill="#F7F7F8" d="M52.320137,61.566395c-0.046402,0.099594-0.018997,0.210403,0.060997,0.247498         c0.080101,0.037094,0.182205-0.013596,0.228607-0.113205l0.5205-1.122589l-0.289604-0.134308L52.320137,61.566395z"></path>
						</g>
						<g>
							<path fill="#F7F7F8" d="M53.47834,62.103489c-0.046402,0.099609-0.019005,0.210403,0.060997,0.247498         c0.080101,0.037201,0.182198-0.013596,0.2286-0.11319l0.5205-1.122604l-0.289597-0.134308L53.47834,62.103489z"></path>
						</g>
						<g>
							<path fill="#F7F7F8" d="M54.636536,62.640598c-0.046394,0.099594-0.018997,0.210388,0.061005,0.247589         c0.080101,0.037109,0.182198-0.013702,0.2286-0.113297l0.5205-1.122604l-0.289604-0.134796L54.636536,62.640598z"></path>
						</g>
						<g>
							<path fill="#F7F7F8" d="M55.794739,63.177189c-0.046402,0.100098-0.019005,0.210495,0.061096,0.248108         c0.080002,0.037094,0.182106-0.013702,0.228004-0.113312l0.520996-1.123093l-0.289597-0.134201L55.794739,63.177189z"></path>
						</g>
						<g>
							<path fill="#F7F7F8" d="M56.952934,63.714298c-0.046394,0.100098-0.018997,0.210495,0.061104,0.247589         c0.080002,0.037109,0.182098-0.013199,0.2285-0.113297l0.5205-1.122604l-0.289604-0.134201L56.952934,63.714298z"></path>
						</g>
						<g>
							<path fill="#F7F7F8" d="M58.111137,64.251389c-0.046402,0.100098-0.018997,0.210495,0.0606,0.247604         c0.080498,0.037094,0.182602-0.013702,0.2285-0.113312l0.5205-1.122494l-0.289101-0.134293L58.111137,64.251389z"></path>
						</g>
						<g>
							<path fill="#F7F7F8" d="M59.269341,64.788483c-0.046402,0.099701-0.019005,0.21051,0.0606,0.247604         c0.080498,0.037094,0.182594-0.013702,0.2285-0.113297l0.5205-1.122494l-0.289101-0.134308L59.269341,64.788483z"></path>
						</g>
						<g>
							<path fill="#F7F7F8" d="M60.42704,65.325684c-0.045906,0.099609-0.018501,0.210403,0.061096,0.247498         c0.080498,0.037109,0.182602-0.013687,0.2285-0.113297l0.5205-1.122498l-0.289101-0.134293L60.42704,65.325684z"></path>
						</g>
						<g>
							<path fill="#F7F7F8" d="M61.585236,65.862793c-0.045898,0.099594-0.018997,0.210388,0.061104,0.247498         c0.080101,0.037094,0.182602-0.013702,0.2285-0.113297l0.5205-1.123001l-0.289505-0.134308L61.585236,65.862793z"></path>
						</g>
						<g>
							<path fill="#F7F7F8" d="M62.743439,66.399384c-0.046303,0.100098-0.018501,0.210907,0.061096,0.248001         c0.080101,0.037109,0.182106-0.013596,0.2285-0.113297l0.5205-1.123001l-0.289497-0.134293L62.743439,66.399384z"></path>
						</g>
						<g>
							<polygon fill="#F7F7F8" points="64.13504,66.435989 64.515938,66.36908 64.711235,65.947693 64.423637,65.813889        "></polygon>
						</g>
					</g>
				</g>
				<g>
					<path fill="#8F99BE" d="M14.671236,73.447189l0.246601,0.8936c0.0947,0.3423,0.456997,0.540497,0.809498,0.443298       l0.899002-0.248001l-0.4175-1.513199L14.671236,73.447189z"></path>
					<path fill="#D9DADB" d="M14.940737,71.934494c-0.352501,0.097687-0.562,0.45369-0.4673,0.795898l0.1978,0.716797       l1.537601-0.424301l-0.369202-1.336395L14.940737,71.934494z"></path>
					<polygon fill="#2E57CB" points="44.764038,66.768494 44.891441,66.733383 44.879738,66.690887      "></polygon>
					<polygon fill="#5476D4" points="43.977341,63.919392 44.116539,63.926685 44.104836,63.88419      "></polygon>
					<polygon fill="#2E57CB" points="19.733736,72.049789 17.498335,72.666992 17.915834,74.179688 19.513037,73.739182        44.764038,66.768494 44.346039,65.25528      "></polygon>
					<polygon fill="#5476D4" points="18.726435,70.889587 17.129236,71.33049 17.498335,72.666992 19.733736,72.049789        44.346039,65.25528 43.977341,63.919392      "></polygon>
					<polygon fill="#7683AF" points="16.112635,71.611282 15.839636,71.686493 16.208838,73.022888 16.481737,72.947693        17.498335,72.666992 17.129236,71.33049      "></polygon>
					<polygon fill="#5F6EA2" points="16.481737,72.947693 16.208838,73.022888 16.626337,74.536087 16.899237,74.460388        17.915834,74.179688 17.498335,72.666992      "></polygon>
					<polygon fill="#3B4B82" points="45.881638,64.831482 46.158035,65.832993 48.644836,64.163986 48.354836,64.14888      "></polygon>
					<polygon fill="#9EA0A2" points="45.881638,64.831482 48.354836,64.14888 45.654137,64.007294      "></polygon>
					<polygon fill="#5996FF" points="44.473434,65.220184 44.346039,65.25528 44.764038,66.768494 44.879738,66.690887        46.158035,65.832993 45.881638,64.831482      "></polygon>
					<polygon fill="#88B3FF" points="44.116539,63.926685 43.977341,63.919392 44.346039,65.25528 44.473434,65.220184        45.881638,64.831482 45.654137,64.007294      "></polygon>
				</g>
				<g>
					<path fill="#E6E6E7" d="M14.698034,71.789993l0.095703,0.774399c0.036198,0.296402,0.3941,0.496094,0.798897,0.446289       l1.032703-0.126892l-0.161602-1.3116L14.698034,71.789993z"></path>
					<path fill="#8F99BE" d="M15.288935,70.541489c-0.4053,0.049805-0.703697,0.330505-0.6675,0.626892l0.076599,0.621613       l1.765701-0.217804l-0.142601-1.1577L15.288935,70.541489z"></path>
					<polygon fill="#2E57CB" points="48.939735,68.904282 49.086235,68.886185 49.081841,68.849594      "></polygon>
					<polygon fill="#5476D4" points="48.635536,66.435486 48.786438,66.454086 48.782036,66.416992      "></polygon>
					<polygon fill="#8590B8" points="20.512037,71.073685 17.944635,71.390091 18.106237,72.70108 19.940237,72.475082        48.939735,68.904282 48.778137,67.593185      "></polygon>
					<polygon fill="#55649C" points="19.636034,70.006287 17.802034,70.232391 17.944635,71.390091 20.512037,71.073685        48.778137,67.593185 48.635536,66.435486      "></polygon>
					<polygon fill="#0A3ABF" points="16.634634,70.375885 16.321135,70.41449 16.463736,71.572189 16.777136,71.533691        17.944635,71.390091 17.802034,70.232391      "></polygon>
					<polygon fill="#2E57CB" points="16.777136,71.533691 16.463736,71.572189 16.625338,72.883789 16.938837,72.845184        18.106237,72.70108 17.944635,71.390091      "></polygon>
					<polygon fill="#9EA7C7" points="50.54184,67.375885 50.648239,68.243591 53.696136,67.065384 53.382141,67.026291      "></polygon>
					<polygon fill="#9EA0A2" points="50.54184,67.375885 53.382141,67.026291 50.453438,66.661591      "></polygon>
					<polygon fill="#88B3FF" points="48.924637,67.57518 48.778137,67.593185 48.939735,68.904282 49.081841,68.849594        50.648239,68.243591 50.54184,67.375885      "></polygon>
					<polygon fill="#498BFF" points="48.786438,66.454086 48.635536,66.435486 48.778137,67.593185 48.924637,67.57518        50.54184,67.375885 50.453438,66.661591      "></polygon>
				</g>
			</g>
		</g>
	
	<g>
		<path fill="#88B3FF" d="M20.489229,35.274723H19.86157l-0.418438-1.509369l-0.866768,1.509369h-0.702377l1.344982-2.346237    l-0.209221-0.82193l-1.838139,3.168167h-0.702377l2.331299-4.005051h0.612713l0.268997,0.986328H20.3099l-0.433384,0.762146    l0.612717,2.256577H20.489229z"></path>
	</g>
	<g>
		<path fill="#88B3FF" d="M27.859602,46.945118H27.54421l-0.210262-0.758438l-0.435535,0.758438h-0.35294l0.675838-1.17897    l-0.105129-0.41301l-0.923645,1.59198h-0.352936l1.171452-2.012497h0.30788l0.135166,0.495621h0.315392l-0.21777,0.382965    L27.859602,46.945118L27.859602,46.945118z"></path>
	</g>


				
				
			
			
			
			
		
	
	
	
	
	
	
	

</svg>