<svg xmlns="http://www.w3.org/2000/svg" viewBox="0 0 80 80" class="featureSvg_3LcT" alt="Focus on What Matters">
<g id="Layer_1">
	<g id="_x39__1_">
		<g id="_x39_">
			<g>
				<g>
					<g>
						<g>
							<path fill="#506099" d="M52.304497,45.072857H17.249887c-0.419237,0-0.692495-0.077953-0.608686-0.172543l3.606461-4.065102         c0.053488-0.060535,0.367434-0.109463,0.698275-0.109463h27.667875c0.33049,0,0.644344,0.048927,0.869972,0.109463         l3.606461,4.065102C52.997005,44.994904,52.723316,45.072857,52.304497,45.072857z"></path>
						</g>
						<path fill="#273B81" d="M48.349285,40.878361H21.553768c-0.320047,0-0.616501,0.039833-0.658443,0.088734l-2.71542,3.142975        c-0.060537,0.069633,0.2061,0.127708,0.592905,0.127708h32.357445c0.386883,0,0.653534-0.058075,0.592983-0.127708        l-2.715496-3.142975C48.965878,40.918194,48.669426,40.878361,48.349285,40.878361z"></path>
						<g>
							<g>
								<g>
									<g>
										<polygon fill="#EDEFF5" points="49.132988,39.368279 49.504501,33.773972 49.132145,39.36911           "></polygon>
										<polygon fill="#EDEFF5" points="21.682758,40.747337 48.112114,40.747337 48.113384,40.745705 21.68149,40.745705                       "></polygon>
										<polygon fill="#EDEFF5" points="19.487644,21.697239 19.643976,24.041636 19.488071,21.695631           "></polygon>
										<path fill="#EDEFF5" d="M48.468689,19.888578h-27.1413c-0.832966,0-1.456594,0.837631-1.39274,1.862589            l1.071409,17.243111c0.054344,0.876541,0.716105,1.581425,1.478584,1.581425h24.82687            c0.762466,0,1.42424-0.704884,1.478584-1.581425l1.071411-17.243111            C49.925362,20.72621,49.30172,19.888578,48.468689,19.888578z"></path>
										<path fill="#506099" d="M48.999851,19.502966H48.97496H20.819925h-0.023699            c-0.803152,0-1.400204,0.809437-1.334225,1.800341l0.02607,0.392324l0.155905,2.346004l1.052387,15.81423            c0.021912,0.335003,0.141392,0.641029,0.320047,0.889839h0.665079h26.431894h0.666348            c0.178669-0.24881,0.297642-0.554836,0.320061-0.889839l0.032352-0.486755l0.372356-5.595139l0.829651-12.470665            C50.400146,20.312403,49.80299,19.502966,48.999851,19.502966z M48.790096,38.994278            c-0.054344,0.876541-0.716118,1.581425-1.478584,1.581425h-24.82687c-0.76248,0-1.42424-0.704884-1.478584-1.581425            l-1.071409-17.243111c-0.063854-1.024958,0.559774-1.862589,1.39274-1.862589h27.1413            c0.833031,0,1.456673,0.837631,1.392818,1.862589L48.790096,38.994278z"></path>
									</g>
								</g>
							</g>
							<g>
								<polygon fill="#BDC3D9" points="28.482807,36.94014 22.363205,36.94014 22.338326,36.489819 28.469978,36.489819                   "></polygon>
								<polygon fill="#BDC3D9" points="28.503941,37.692341 22.405069,37.692341 22.380192,37.244484 28.491125,37.244484                   "></polygon>
								<polygon fill="#BDC3D9" points="28.525087,38.438663 22.446508,38.438663 22.422056,37.994976 28.512686,37.994976                   "></polygon>
								<polygon fill="#BDC3D9" points="28.546232,39.180862 22.487959,39.180862 22.463495,38.739716 28.533846,38.739716                   "></polygon>
							</g>
							<g>
								<path fill="#55649C" d="M37.307953,22.529013l-2.817909,5.588505c0.096634,0.056391,0.254292-0.100609,0.324337-0.034292          l2.671818-5.264822h4.286129l0.008331-0.289391H37.307953z"></path>
							</g>
							<g>
								<path fill="#55649C" d="M38.531536,24.58564l-2.681446,5.211132c0.085842,0.146832,0.12228,0.274464,0.133488,0.398853          l2.723309-5.325598h3.006599l0.008228-0.284388H38.531536z"></path>
							</g>
							<polygon fill="#5476D4" points="48.441334,23.143467 42.633995,23.143467 42.66465,22.20224 48.494408,22.20224        "></polygon>
							<polygon fill="#5476D4" points="48.325264,25.189299 42.568016,25.189299 42.597908,24.264736 48.377907,24.264736                 "></polygon>
							<polygon fill="#808CB5" points="48.755615,28.032103 41.885521,28.032103 41.900902,27.50629 48.786366,27.50629        "></polygon>
							<polygon fill="#808CB5" points="48.703827,28.909473 41.859375,28.909473 41.874741,28.38781 48.73447,28.38781        "></polygon>
							<polygon fill="#808CB5" points="48.652023,29.779358 41.833302,29.779358 41.848595,29.261864 48.682678,29.261864                 "></polygon>
							<polygon fill="#808CB5" points="48.600983,30.643486 41.807571,30.643486 41.822937,30.130165 48.631641,30.130165                 "></polygon>
							<polygon fill="#808CB5" points="48.550373,31.501759 41.781849,31.501759 41.797218,30.99173 48.580692,30.99173        "></polygon>
							<g>
								<polygon fill="#BDC3D9" points="48.807499,27.148096 41.911682,27.148096 41.927387,26.618994 48.839012,26.618994                   "></polygon>
								<polygon fill="#BDC3D9" points="48.755615,28.032103 41.885521,28.032103 41.900902,27.50629 48.786366,27.50629                   "></polygon>
								<polygon fill="#BDC3D9" points="48.703827,28.909473 41.859375,28.909473 41.874741,28.38781 48.73447,28.38781         "></polygon>
								<polygon fill="#BDC3D9" points="48.652023,29.779358 41.833302,29.779358 41.848595,29.261864 48.682678,29.261864                   "></polygon>
								<polygon fill="#BDC3D9" points="48.600983,30.643486 41.807571,30.643486 41.822937,30.130165 48.631641,30.130165                   "></polygon>
								<polygon fill="#BDC3D9" points="48.550373,31.501759 41.781849,31.501759 41.797218,30.99173 48.580692,30.99173                   "></polygon>
								<polygon fill="#BDC3D9" points="48.500278,32.352619 41.756622,32.352619 41.771912,31.846764 48.530079,31.846764                   "></polygon>
							</g>
							<g>
								<g>
									<g>
										<g>
											<path fill="#5476D4" d="M35.349277,30.261868h1.375652l-0.002785-1.082191             c-0.000546-0.210711-0.195469-0.381495-0.435402-0.381495h-5.321621c-0.179928,0-0.326145-0.128105-0.326553-0.286114             c-0.000404-0.15801,0.145153-0.286118,0.325081-0.286118h5.104404l-0.00098-0.381493             c-0.000542-0.210693-0.195465-0.381495-0.435398-0.381495h-7.227118c-0.479847,0-0.867954,0.341604-0.866871,0.762987             l0.012762,4.959364c0.001083,0.421402,0.390951,0.762989,0.870796,0.762989h7.87875             c0.239933,0,0.433979-0.170803,0.433437-0.381496l-0.002453-0.952431h-1.375648             c-0.738571,0-1.340828-0.527679-1.342495-1.17627C34.011166,30.789532,34.610706,30.261868,35.349277,30.261868z"></path>
											<path fill="#9EA7C7" d="M36.819206,30.554686h-1.55442c-0.460651,0-0.832184,0.389887-0.829834,0.870787             c0.00235,0.480944,0.377693,0.870823,0.838345,0.870823h1.55442c0.062836,0,0.11348-0.053181,0.113159-0.118752             l-0.007351-1.504107C36.933205,30.607845,36.882046,30.554686,36.819206,30.554686z M35.460346,31.781727             c-0.188461,0-0.341999-0.159502-0.342957-0.356255c-0.000961-0.196732,0.151016-0.356234,0.339478-0.356234             c0.188442,0,0.341995,0.159502,0.342957,0.356234C35.800785,31.622225,35.648788,31.781727,35.460346,31.781727z"></path>
										</g>
									</g>
								</g>
							</g>
							<g>
								<path fill="#9EA7C7" d="M42.249573,39.208382l0.14138-4.615692h-2.268066h-2.227806h-2.269764l-0.01368,4.615692h2.226639          h2.18594h0.41711l0.04977-2.144848h1.291168l-0.060966,2.144848H42.249573z M36.786728,38.40583h-0.57217l0.003304-0.615452          h0.573883L36.786728,38.40583z M36.792938,37.631832h-0.574223l0.003319-0.595936h0.575478L36.792938,37.631832z           M36.807877,36.391052h-0.582539l0.003315-0.569134h0.583382L36.807877,36.391052z M36.81332,35.660648h-0.583824          l0.003746-0.662632h0.585415L36.81332,35.660648z M37.498676,38.40583h-0.553581l0.005016-0.615452h0.555199          L37.498676,38.40583z M37.507008,37.631832h-0.555279l0.005001-0.595936h0.556469L37.507008,37.631832z           M37.520248,36.391052h-0.55315l0.005013-0.569134h0.554333L37.520248,36.391052z M37.528141,35.660648h-0.554852          l0.005859-0.662632h0.556389L37.528141,35.660648z M38.895145,38.40583H38.33707l0.009083-0.615452h0.559361          L38.895145,38.40583z M38.908051,37.631832h-0.559772l0.008671-0.595936h0.561043L38.908051,37.631832z           M38.933708,36.391052h-0.5676l0.007904-0.569134h0.569283L38.933708,36.391052z M38.945759,35.660648h-0.569286          l0.009514-0.662632h0.57098L38.945759,35.660648z M39.621201,38.40583h-0.567677l0.010445-0.615452h0.56971          L39.621201,38.40583z M39.63657,37.631832h-0.569714l0.010368-0.595936h0.570889L39.63657,37.631832z M39.661018,36.391052          h-0.567661l0.009586-0.569134h0.569286L39.661018,36.391052z M39.675117,35.660648h-0.569283l0.011543-0.662632h0.570995          L39.675117,35.660648z M41.255688,34.998016h0.585506l-0.0191,0.662632h-0.583809L41.255688,34.998016z           M41.059525,36.391052h-0.553059l0.013241-0.569134h0.554344L41.059525,36.391052z M41.078209,35.660648h-0.554756          l0.015366-0.662632h0.556377L41.078209,35.660648z M41.219173,36.391052l0.014954-0.569134h0.583382l-0.016132,0.569134          H41.219173z"></path>
								<polygon fill="#9EA7C7" points="37.836994,39.328598 35.285732,39.328598 35.284966,39.891525 37.829945,39.891525           40.009689,39.891525 42.623199,39.891525 42.64138,39.328598 40.021755,39.328598         "></polygon>
								<polygon fill="#9EA7C7" points="40.129509,34.291603 42.801868,34.291603 42.145538,33.155178 41.586193,33.155178           41.568779,33.795536 40.562428,33.795536 40.577366,33.155178 40.153633,33.155178 37.912483,33.155178           35.993515,33.155178 35.299049,34.291603 37.898384,34.291603         "></polygon>
								<polygon fill="#9EA7C7" points="41.441498,32.654518 40.746525,32.654518 40.722076,33.692188 41.414066,33.692188                   "></polygon>
								<polygon fill="#9EA7C7" points="41.571667,39.218151 41.628487,37.173065 40.615074,37.173065 40.566586,39.218151                   "></polygon>
								<polygon fill="#9EA7C7" points="42.613613,38.949158 42.75959,34.341511 40.12833,34.341511 37.897957,34.341511           35.356205,34.341511 35.355869,34.499195 37.895924,34.499195 40.125011,34.499195 42.573444,34.499195           42.427895,39.137962 42.860722,39.137962 42.867008,38.949158         "></polygon>
							</g>
							<path fill="#BDC3D9" d="M33.976295,36.250183c-0.002037-0.14344-0.123135-0.27861-0.274025-0.305199         c0.118549-0.075413,0.133488-0.25951,0.027767-0.352417c-0.105732-0.092049-0.300182-0.064709-0.371098,0.053074         c-0.009926-0.148441-0.004578-0.281925-0.16465-0.362419c-0.082462-0.041435-0.16254-0.038975-0.232586-0.01078         c-0.110306,0.045689-0.194466,0.157589-0.216881,0.274544c-0.057999-0.047321-0.133076-0.069633-0.2089-0.071346         c-0.104954-0.000854-0.21069,0.039833-0.273273,0.119392c-0.112003,0.141804-0.055183,0.339172,0.079144,0.447857         c-0.253304,0.077953-0.412525,0.08202-0.457706,0.359024c-0.017403,0.107857,0.000854,0.492615,0.220535,0.379833         c-0.126865,0.064713-0.206436,0.20483-0.159985,0.340031c0.046452,0.13517,0.214756,0.223072,0.36116,0.189022         c0.020294,0.2911,0.347401,0.31266,0.575478,0.241344c0.002464-0.000854,0.005779-0.00246,0.008671-0.003319         l0.012062,1.376598h-0.429604c-0.124325,0-0.185291,0.089584-0.184448,0.178318h0.706516h0.743885         c-0.000427-0.088734-0.063091-0.178318-0.186989-0.178318h-0.462372l-0.011635-1.444622         c0.03532,0.012489,0.045673,0.055611,0.087967,0.062996c0.110229,0.020813,0.200245,0.063103,0.301804-0.018166         c0.112003-0.08873,0.113609-0.272831,0.002541-0.36488c0.159985,0.024025,0.329571-0.077122,0.373978-0.222244         c0.052658-0.137737-0.032356-0.220615-0.127708-0.307636c-0.00127-0.02327-0.002464-0.047321-0.004162-0.070564         C33.861492,36.531334,33.97842,36.394451,33.976295,36.250183z"></path>
							<path fill="#9EA7C7" d="M31.447876,36.213669c-0.004585-0.184875-0.162109-0.359051-0.356148-0.392998         c0.151318-0.097076,0.167461-0.333393,0.030659-0.452034c-0.137234-0.118534-0.386894-0.082874-0.475964,0.068027         c-0.015369-0.191589-0.010445-0.363197-0.217312-0.466026c-0.106575-0.053074-0.209404-0.05061-0.298992-0.014099         c-0.140961,0.058853-0.247108,0.203121-0.274448,0.353245c-0.075077-0.060535-0.17205-0.090416-0.269112-0.091194         c-0.134758-0.002537-0.27037,0.050537-0.349102,0.152615c-0.141376,0.182388-0.065548,0.436119,0.109051,0.575462         c-0.323456,0.100395-0.527859,0.106148-0.580933,0.461105c-0.02029,0.137657,0.009512,0.631878,0.289406,0.486755         c-0.16127,0.083733-0.260782,0.263683-0.19939,0.436226c0.062157,0.173317,0.279465,0.285244,0.466454,0.241344         c0.031071,0.372265,0.450661,0.400459,0.741333,0.309265c0.003731-0.000854,0.007477-0.00246,0.01078-0.004169         l0.037785,1.75806h-0.549408c-0.158806,0-0.235565,0.113609-0.232597,0.228077h0.903015h0.951591         c-0.002037-0.114468-0.083305-0.228077-0.242096-0.228077h-0.591286L30.313454,37.791         c0.045597,0.014874,0.059708,0.070488,0.11396,0.080414c0.141819,0.026508,0.25713,0.079582,0.386471-0.023247         c0.142231-0.114388,0.141376-0.349953-0.002476-0.467659c0.205673,0.030659,0.421711-0.098656,0.476391-0.284466         c0.065552-0.176636-0.044754-0.283638-0.168732-0.394711c-0.001698-0.029877-0.003731-0.060535-0.005779-0.090416         C31.304787,36.573624,31.452877,36.397766,31.447876,36.213669z"></path>
							<path fill="#BDC3D9" d="M45.987137,34.847855l0.240063-0.165001l-0.162109-0.325932l-0.279896,0.082981         c-0.043133-0.048927-0.091621-0.092903-0.144695-0.131882l0.077953-0.26622l-0.352829-0.142586l-0.164238,0.230488         c-0.067585-0.009953-0.137218-0.013245-0.207706-0.009098l-0.119053-0.241344l-0.01078,0.003319l-0.365658,0.106148         l0.026913,0.269539c-0.061394,0.034801-0.118534,0.074635-0.170429,0.119389l-0.258732-0.105289l-0.222233,0.309345         l0.205673,0.183243c-0.024036,0.061417-0.041451,0.124416-0.051804,0.189877l-0.277847,0.078808l0.035233,0.361588         l0.289066,0.011559c0.023182,0.059761,0.052219,0.11615,0.087036,0.168369l-0.167114,0.228024l0.273689,0.246346         l0.238361-0.167564c0.057236,0.029053,0.11821,0.053074,0.18121,0.071346l0.023273,0.271145l0.384758,0.017414         l0.038132-0.136803l0.036514-0.131882c0.031498-0.006634,0.063011-0.014099,0.094513-0.023193         c0.033207-0.009926,0.065552-0.020706,0.097061-0.033195l0.204819,0.187416l0.3176-0.219761l-0.124405-0.243805         c0.043564-0.048927,0.082111-0.102001,0.114895-0.157536l0.291008,0.014095l0.102829-0.355782l-0.264938-0.104465         C46.004967,34.974785,45.999538,34.911709,45.987137,34.847855L45.987137,34.847855z M45.076141,35.634007         c-0.298061,0.042294-0.583382-0.123562-0.663807-0.401318c-0.088734-0.306885,0.107002-0.635277,0.437843-0.731472         c0.029037-0.00824,0.058075-0.014095,0.086697-0.018192c0.301792-0.045662,0.591621,0.121021,0.671272,0.403027         c0.087048,0.307663-0.109879,0.633568-0.439529,0.728935C45.137962,35.624081,45.106876,35.62986,45.076141,35.634007         L45.076141,35.634007z"></path>
							<path fill="#BDC3D9" d="M31.662632,25.196789l0.262905-0.196512l-0.208988-0.389759l-0.314697,0.099512         c-0.053074-0.058929-0.1115-0.112003-0.175365-0.158443l0.070061-0.316755l-0.41465-0.170002l-0.170856,0.274464         c-0.078381-0.011559-0.157951-0.014875-0.238365-0.010807l-0.15387-0.288534l-0.011971,0.004147l-0.411346,0.126879         l0.050182,0.321758c-0.067585,0.041437-0.129833,0.089586-0.186222,0.14266l-0.30349-0.126101l-0.231819,0.369907         l0.248806,0.218048c-0.023193,0.073027-0.038559,0.149294-0.045609,0.226391l-0.312237,0.094616l0.067173,0.431196         l0.331776,0.014097c0.030643,0.071239,0.068348,0.138515,0.111912,0.200659l-0.174587,0.271147l0.331345,0.293562         l0.259941-0.199802c0.068012,0.03566,0.138916,0.063854,0.212292,0.085415l0.046883,0.323366l0.44072,0.019955         l0.033623-0.162539l0.032356-0.157589c0.035656-0.007488,0.071331-0.01656,0.10656-0.02734         c0.037281-0.010805,0.07338-0.024048,0.108608-0.038975l0.24754,0.223074l0.347481-0.261221l-0.159637-0.291931         c0.046452-0.057997,0.086193-0.121099,0.11982-0.187416l0.334236,0.017389l0.092049-0.424587l-0.310627-0.124392         C31.692097,25.347691,31.681305,25.272278,31.662632,25.196789L31.662632,25.196789z M30.677078,26.133842         c-0.337982,0.050611-0.676712-0.14673-0.789055-0.478518c-0.123989-0.366488,0.076256-0.757101,0.448185-0.872345         c0.032356-0.009926,0.065136-0.01656,0.097919-0.021561c0.342049-0.054707,0.685795,0.144268,0.797295,0.480953         c0.121929,0.36659-0.079998,0.754665-0.450321,0.869131C30.746712,26.122311,30.711468,26.128918,30.677078,26.133842         L30.677078,26.133842z"></path>
							<path fill="#9EA7C7" d="M47.103714,37.212971l0.234299-0.158367l-0.155918-0.313519l-0.272415,0.079662         c-0.041866-0.046463-0.088734-0.089611-0.139694-0.126877l0.076683-0.254589l-0.342052-0.136879l-0.160488,0.220612         c-0.065552-0.009098-0.13306-0.012386-0.201515-0.009098l-0.114037-0.231392l-0.010368,0.00246l-0.356133,0.102833         l0.024879,0.258759c-0.059696,0.033195-0.115322,0.072174-0.165844,0.115215l-0.250504-0.101974l-0.217648,0.29771         l0.198624,0.175781c-0.023697,0.058956-0.040684,0.120346-0.051037,0.182491l-0.270294,0.075489l0.032692,0.348244         l0.280735,0.010807c0.021988,0.05722,0.049759,0.1119,0.083305,0.161682l-0.163292,0.219006l0.264515,0.237175         l0.23217-0.161789c0.055534,0.029053,0.114464,0.052246,0.175442,0.068882l0.021561,0.261196l0.37355,0.01656         l0.037708-0.131779l0.036083-0.126953c0.030659-0.005779,0.061394-0.013245,0.092052-0.021564         c0.032352-0.009949,0.063438-0.019875,0.094093-0.032288l0.198196,0.180805l0.309361-0.21154l-0.119404-0.234634         c0.042721-0.047295,0.079998-0.097904,0.112354-0.151833l0.282341,0.014198l0.101562-0.342567l-0.256622-0.100288         C47.120705,37.334927,47.11578,37.274361,47.103714,37.212971L47.103714,37.212971z M46.215565,37.968388         c-0.289822,0.040684-0.56641-0.118534-0.643078-0.385586c-0.08416-0.295197,0.107418-0.610321,0.429161-0.70237         c0.028198-0.00832,0.055965-0.013245,0.08416-0.018246c0.293564-0.043926,0.573872,0.116928,0.649712,0.387299         c0.083378,0.296024-0.109467,0.608685-0.43037,0.700737C46.275257,37.958462,46.245457,37.964317,46.215565,37.968388         L46.215565,37.968388z"></path>
						</g>
					</g>
				</g>
			</g>
			<g>
				<path fill="#FFFFFF" d="M47.397705,27.230972c-0.349525,0.007488-0.217216,0.973593-0.162109,1.161863      c0.264515,0.898077,0.609959,1.976965,1.43129,2.525946c0.221466,0.147583,0.691654,0.231419,0.867859,0.365761      c-0.689953-1.138672-1.801193-1.97953-2.006012-3.331247C47.491024,27.704487,47.445858,27.464853,47.397705,27.230972z"></path>
				<path fill="#D5D5D9" d="M59.831013,30.697311c0.70031-0.762882,1.129486-1.423813,1.158096-2.601355      c-0.229271,0.420416-0.469761,0.835855-0.630249,1.300249C60.232407,29.75948,60.053661,30.218899,59.831013,30.697311z"></path>
				<path fill="#D5D5D9" d="M57.02515,33.477943c-0.444878,0.025658-0.878551-0.324295-1.306107-0.255413      c-0.427479,0.068775-0.569298,0.496681-0.946163,0.62439c-0.069283,0.024128-0.156757,0.044834-0.252541,0.063854v3.484612      c0.350368-0.017418,0.70031-0.049786,1.045769-0.119415l2.708786-0.547298l0.001698,0.004173      c-0.128994-1.233181-0.342556-2.542606-0.048153-3.700298c-0.159218,0.132736-0.323364,0.243053-0.493793,0.321007      C57.909145,33.273891,56.927334,33.483723,57.02515,33.477943z"></path>
				<path fill="#FFFFFF" d="M54.080799,37.413628c0.146835,0.000854,0.292801-0.01078,0.439541-0.018242v-3.484612      c-0.13018,0.025734-0.278194,0.048149-0.439541,0.063854c-0.731808,0.074661-1.696228,0.030735-2.052025-0.274437      c-0.790245-0.67757-0.219341-0.495079-1.170078-0.145981c-0.127724-0.568855-0.660919-1.157692-1.000507-1.704987      c0.329662,0.808517,0.680367,2.202526,0.6717,2.62048l-0.051041,2.414898l2.390862,0.423737      C53.270184,37.379654,53.675751,37.411167,54.080799,37.413628z"></path>
				<path fill="#86888B" d="M61.737499,24.122904c-0.06131,0.006634-0.122719,0.014097-0.184875,0.020733      c-0.211098,0.023167-0.422966,0.049755-0.633991,0.072094c0.211437-0.022339,0.422894-0.048071,0.633991-0.071239      C61.613941,24.137779,61.675762,24.130289,61.737499,24.122904z"></path>
				<path fill="#86888B" d="M59.552391,24.33437c-0.280735,0.022415-0.563091,0.049755-0.843399,0.068777      c-0.472233,0.032341-0.942417,0.052296-1.412266,0.073029c0.469849-0.020733,0.940033-0.040688,1.412266-0.072174      C58.989727,24.384981,59.271656,24.356785,59.552391,24.33437z"></path>
				<path fill="#86888B" d="M59.417633,26.062525c-1.642391,0.133564-3.273159,0.199881-4.897293,0.200735      C56.144047,26.262405,57.774815,26.196089,59.417633,26.062525c0.480122-0.038147,0.942066-0.155075,1.351715-0.320904      c0.152599-0.06217,0.29398-0.135197,0.429943-0.210609c-0.135963,0.075413-0.277344,0.148439-0.429943,0.209755      C60.36013,25.90745,59.898186,26.023548,59.417633,26.062525z"></path>
				<path fill="#86888B" d="M56.564476,24.511833c-0.682907,0.023193-1.364117,0.03483-2.044136,0.03483v0.00083      C55.200787,24.547493,55.882423,24.535027,56.564476,24.511833z"></path>
				<path fill="#86888B" d="M59.149803,17.201782c-0.117783,0.256195-0.244236,0.5315-0.385197,0.842556      C58.905567,17.733282,59.032021,17.457977,59.149803,17.201782L59.149803,17.201782z"></path>
				<path fill="#86888B" d="M58.238808,20.292448c0.517052-0.872356,1.071823-1.764669,1.655205-2.622177h-0.000416      C59.310631,18.527779,58.755859,19.420092,58.238808,20.292448z"></path>
				<path fill="#86888B" d="M54.52034,26.713505v7.197269c0.095783-0.01902,0.183258-0.039726,0.252541-0.063854      c0.376865-0.127708,0.518684-0.555614,0.946163-0.62439c0.427555-0.068882,0.861229,0.281071,1.306107,0.255413      c-0.097816,0.005779,0.883995-0.204052,0.709496-0.12439c0.170429-0.077953,0.334576-0.188271,0.493793-0.321007      c0.647251-0.537342,1.197941-1.466934,1.602573-2.335236c0.222649-0.478413,0.401394-0.937832,0.527847-1.301105      c0.160488-0.464394,0.400978-0.879833,0.630249-1.300249c0.164154-0.301027,0.324219-0.604542,0.440735-0.932985      c0.119049-0.336607,0.174156-0.704832,0.211861-1.078032c-0.872784,0.322588-1.796608,0.472635-1.994804,0.487589      C58.125183,26.686165,56.030437,26.713505,54.52034,26.713505z"></path>
				<path fill="#86888B" d="M56.530514,23.255484c0,0,0.000427,0,0.000427-0.000854      c0.423306-1.046518,0.833382-2.018494,1.216522-2.906645C57.363895,21.236992,56.953819,22.208952,56.530514,23.255484z"></path>
				<path fill="#8C8E91" d="M47.259621,24.12122c0.070061,0.007463,0.140961,0.01656,0.211452,0.024878      c0.234707,0.025734,0.469006,0.055536,0.702858,0.078808c-0.23344-0.023272-0.46899-0.053928-0.703197-0.079662      C47.400169,24.137001,47.330109,24.128683,47.259621,24.12122z"></path>
				<path fill="#8C8E91" d="M47.10873,25.028471c0.497097,0.257904,1.211517,0.439465,1.977818,0.5      C48.319912,25.467157,47.606255,25.287231,47.10873,25.028471z"></path>
				<rect x="54.505608" y="16.321871" fill="#8C8E91" width="0.000427" height="7.533981"></rect>
				<path fill="#8C8E91" d="M46.654251,24.049875L46.654251,24.049875c0.201511,0.02405,0.403866,0.048151,0.60537,0.071344      C47.058548,24.098026,46.856178,24.073147,46.654251,24.049875z"></path>
				<path fill="#8C8E91" d="M50.66296,18.870243c-0.295181-0.648518-0.568871-1.232327-0.803917-1.724852h-0.000427      C50.09409,17.637917,50.367779,18.221725,50.66296,18.870243z"></path>
				<path fill="#8C8E91" d="M51.566479,21.650023c-0.541943-0.943766-1.132374-1.9571-1.766792-2.953098      C50.434105,19.692923,51.024536,20.706257,51.566479,21.650023z"></path>
				<path fill="#8C8E91" d="M52.028774,33.700191c0.355797,0.305172,1.320217,0.349098,2.052025,0.274437      c0.161346-0.015705,0.309361-0.03812,0.439541-0.063854v-7.197269c-0.004585,0-0.009937,0-0.014523,0v0.00083      l-5.683029-0.238003c-0.147587-0.049679-0.944115-0.139265-1.705738-0.44532      c0.040596,0.15847,0.081268,0.315979,0.116848,0.465275c0.056469,0.238779,0.112003,0.483416,0.163807,0.734686      c0.048153,0.233881,0.093319,0.473515,0.131027,0.722322c0.204819,1.351717,1.316059,2.192575,2.006012,3.331247      c0.063,0.104435,0.128136,0.207264,0.182907,0.31673c0.041012,0.082123,0.088657,0.164223,0.140537,0.247952      c0.339588,0.547295,0.872784,1.136131,1.000507,1.704987C51.809433,33.205112,51.238529,33.022621,52.028774,33.700191z"></path>
				<path fill="#8C8E91" d="M54.52034,24.546663h-0.001266l-0.013256,0.00083c0.005013,0,0.009602,0,0.014523,0V24.546663z"></path>
				<path fill="#8C8E91" d="M50.990147,24.438807c0.242954,0.012489,0.486317,0.027416,0.728504,0.038223      c0.2202,0.009071,0.440723,0.024023,0.660492,0.032265c-0.219769-0.00749-0.440292-0.023193-0.660065-0.033119      C51.476463,24.465395,51.233101,24.451296,50.990147,24.438807z"></path>
				<path fill="#8C8E91" d="M47.783733,25.534328c0.132309,0.073805,0.265797,0.14673,0.414661,0.207293      c0.408367,0.165829,0.87236,0.27861,1.352135,0.317587c-0.479774-0.038977-0.944103-0.151758-1.352135-0.318441      C48.04953,25.681059,47.916042,25.607279,47.783733,25.534328z"></path>
				<path fill="#E1E4ED" d="M55.566109,37.27597c-0.345459,0.06963-0.6954,0.101997-1.045769,0.119415v1.403156l3.006508-0.051441      l1.183414-0.019878c0,0,0.045597,0.013245,0.133915,0.038124c0.047733,0.013241,0.111927,0.031509,0.183685,0.051464      l-0.75127-2.083965l-0.001698-0.004173L55.566109,37.27597z"></path>
				<path fill="#EDEFF5" d="M49.994564,38.876518l1.330585-0.02327l2.75565-0.047218l0.439541-0.007488v-1.403156      c-0.14674,0.007462-0.292706,0.019096-0.439541,0.018242c-0.405048-0.00246-0.810616-0.033974-1.21109-0.105289      l-2.390862-0.423737l-0.11607-0.019955l-0.681213,2.112137c0.071671-0.022312,0.135525-0.043045,0.183247-0.057999      C49.949825,38.891445,49.994564,38.876518,49.994564,38.876518z"></path>
				<path fill="#506099" d="M54.080799,38.80603l-2.75565,0.047218l-1.330585,0.02327c0,0-0.044739,0.014927-0.129753,0.042267      c-0.047722,0.014954-0.111576,0.035686-0.183247,0.057999c-0.385181,0.12281-1.095947,0.350807-1.965416,0.627811      c-2.768066,0.891472-7.084515,2.282162-7.199329,2.362576c-0.117771,0.082954-1.546185,3.13134-2.405712,4.980675      c-0.564789,1.214081-0.869469,5.997311-0.423397,8.740498h16.794083l0.038548-16.889801L54.080799,38.80603z"></path>
				<path fill="#36488A" d="M70.86869,46.390522c-0.92263-1.819427-2.457176-4.82135-2.577423-4.900158      c-0.120239-0.076267-4.481358-1.317665-7.278553-2.113766c-0.875244-0.247978-1.595081-0.449467-1.984852-0.559788      c-0.071758-0.019955-0.135952-0.038223-0.183685-0.051464c-0.088318-0.024879-0.133915-0.038124-0.133915-0.038124      l-1.183414,0.019878l-3.006508,0.051441l-0.038548,16.889801h16.74432      C71.802872,53.06786,71.514229,47.667603,70.86869,46.390522z"></path>
				<path fill="#4589FF" d="M60.564106,24.224905l-6.045033,0.321758h0.001266c0.680019,0,1.361229-0.011637,2.044136-0.03483      c0.012062,0,0.024113,0,0.036087-0.000854c0.231834-0.007463,0.463993-0.024023,0.696163-0.034803      c0.469849-0.020733,0.940033-0.040688,1.412266-0.073029c0.280308-0.019022,0.562664-0.046362,0.843399-0.068777      c0.427906-0.034052,0.855381-0.066343,1.2854-0.109465c0.026913-0.002565,0.053837-0.005857,0.080841-0.009174      c0.211025-0.022339,0.422894-0.048927,0.633991-0.072094c0.062157-0.006636,0.123566-0.014099,0.184875-0.020733      c0.007896-0.00083,0.015785-0.001684,0.023689-0.002539c0.36277-0.041439,0.725616-0.08127,1.090431-0.128487h0.000412      c0.003746-0.017414,0.008751-0.034906,0.012489-0.052296c0.609543-2.629564-0.332108-5.338867-2.542603-7.188122      c-0.212296-0.184942-0.445736-0.354101-0.681637-0.518335l-0.087463,0.151834      c0.128136,0.121851,0.244648,0.257891,0.367783,0.386377c0.114803,0.120245,0.237171,0.233013,0.343319,0.361576l0,0l0,0      c-0.125259,0.176636-0.24754,0.357418-0.369907,0.537357c-0.583382,0.857508-1.138153,1.749821-1.655205,2.622177      c-0.625259,1.055693-1.198277,2.079042-1.708294,2.963877c0,0,0.000427-0.000841,0.000427-0.001696      c0,0.000854-0.000427,0.000854-0.000427,0.000854c0.423306-1.046532,0.833382-2.018492,1.216949-2.907499      c0.372368-0.862419,0.71986-1.6469,1.017143-2.303646c0.140961-0.311056,0.267414-0.586361,0.385197-0.842556      c0.186134-0.403013,0.345352-0.743029,0.462708-0.990141c-0.011635-0.008318-0.022842-0.018255-0.034386-0.026575      l0.132645-0.179939c0-0.000854,0.000412-0.001698,0.000412-0.001698c0.08416-0.174938,0.132309-0.273609,0.132309-0.273609      s0.006622-0.050611,0.027767-0.136881c-0.302307-0.373135-1.680096-1.86005-5.360001-2.094759      c-0.002125,0-0.003315,0-0.004585,0l-0.000427,2.82369l-0.000427,7.533981L60.564106,24.224905z"></path>
				<path fill="#5492FF" d="M61.761189,24.120365c-0.007904,0.000854-0.015793,0.001709-0.023689,0.002539      c-0.061737,0.007385-0.123558,0.014875-0.184875,0.021587c-0.211098,0.023169-0.422554,0.048901-0.633991,0.071239      c-0.027004,0.003317-0.053928,0.006609-0.080841,0.009174c-0.430019,0.043121-0.857494,0.075413-1.2854,0.109465      c-0.280735,0.022415-0.562664,0.050611-0.843399,0.069632c-0.472233,0.031487-0.942417,0.051441-1.412266,0.072174      c-0.23217,0.01078-0.464329,0.02734-0.696163,0.034803c-0.011974,0.000854-0.024025,0.000854-0.036087,0.000854      c-0.682053,0.023193-1.363689,0.03566-2.044136,0.03566c-0.004921,0-0.00951,0-0.014523,0v0.250441v0.26034v0.354126v0.284468      c1.736149,0,3.477974-0.049757,5.226513-0.15098c0.855797-0.048927,1.647739-0.258656,2.178051-0.552219      c-0.000336,0-0.000755,0-0.001183,0.000751c0.000427,0,0.001183-0.000751,0.001183-0.000751      c-0.061729,0.056364-0.122284,0.1119-0.184013,0.168291c-0.01078,0.009951-0.021988,0.019876-0.033211,0.030657      c-0.139771,0.125246-0.310104,0.236343-0.493866,0.338396c-0.135963,0.075413-0.277344,0.148439-0.429943,0.210609      c-0.409649,0.165829-0.871593,0.282757-1.351715,0.320904c-1.642818,0.133564-3.273586,0.199881-4.897293,0.200735      c-0.004921,0-0.009937,0-0.01495,0h0.000427v0.057247v0.392998c0.004585,0,0.009937,0,0.014523,0      c1.510098,0,3.604843-0.02734,5.12656-0.140976c0.198196-0.014954,1.122021-0.165001,1.994804-0.487589      c0.730629-0.270395,1.425606-0.660931,1.627457-1.19742c0.096207-0.255442,0.036507-0.520031,0.055183-0.787031      c-0.071335-0.054758-0.11277-0.087023-0.184944-0.142662c-0.096207,0.013243-0.191574,0.021587-0.287369,0.034052H62.85162      C62.486805,24.039095,62.123959,24.078926,61.761189,24.120365z"></path>
				<path fill="#4B8DFF" d="M54.505817,26.714334v-0.00083v-0.392998V26.26326l0,0H54.50539      c-1.642727,0-3.293022-0.068026-4.954861-0.204052c-0.479774-0.038977-0.943768-0.151758-1.352135-0.317587      c-0.148865-0.060562-0.282352-0.133488-0.414661-0.207293c-0.209831-0.117783-0.40387-0.244637-0.556885-0.39147      c-0.040165-0.037291-0.0783-0.075411-0.118118-0.114388c0.497524,0.25876,1.211182,0.438686,1.977818,0.5      c0.049759,0.003319,0.096973,0.011637,0.14716,0.014954c0.881958,0.051441,1.762207,0.089588,2.64085,0.11532      c0.878654,0.025631,1.755169,0.038122,2.630833,0.038122l0,0h0.000427v-0.284468v-0.354126v-0.26034v-0.250441H54.50539      c-0.696995,0-1.395191-0.012466-2.095161-0.036514c-0.009941,0-0.020733-0.00083-0.031086-0.001684      c-0.219769-0.008242-0.440292-0.023193-0.660492-0.032265c-0.242188-0.010807-0.48555-0.025734-0.728504-0.038223      c-0.228516-0.010782-0.456944-0.019878-0.686222-0.034805c-0.280735-0.01902-0.563091-0.047216-0.845448-0.069632      c-0.426701-0.034052-0.854176-0.066343-1.284546-0.109465c-0.233852-0.023272-0.468151-0.053074-0.702858-0.078808      c-0.070492-0.008318-0.141392-0.017414-0.211452-0.024878c-0.201504-0.023193-0.403858-0.047295-0.60537-0.071344      c-0.162952-0.01902-0.325493-0.036409-0.489208-0.057219c-0.097492-0.012413-0.194893-0.021587-0.292801-0.03483      c-0.072094,0.055639-0.113194,0.087904-0.185719,0.142662c0.019451,0.267-0.053913,0.533197,0.055538,0.787031      c0.24049,0.55722,0.797798,0.912176,1.374989,1.143492c0.761623,0.306055,1.558151,0.395641,1.705738,0.44532      L54.505817,26.714334z"></path>
				<path fill="#4589FF" d="M59.417633,26.062525c0.480553-0.038977,0.942497-0.155075,1.351715-0.321758      c0.152599-0.061316,0.29398-0.134342,0.429943-0.209755c0.183762-0.102053,0.354095-0.21315,0.493866-0.338396      c0.011223-0.01078,0.02243-0.020706,0.033211-0.030657c0.061317-0.055536,0.12101-0.111149,0.182831-0.16754      c0.000427-0.000751,0.000847-0.000751,0.001183-0.000751c-0.530312,0.293564-1.322254,0.503292-2.178051,0.552219      c-1.748539,0.101223-3.490364,0.15098-5.226513,0.15098H54.50539l0,0v0.0439v0.522493l0,0c0.005013,0,0.010029,0,0.01495,0      C56.144474,26.262405,57.775242,26.196089,59.417633,26.062525z"></path>
				<path fill="#669EFF" d="M54.50539,25.696867c-0.875664,0-1.752178-0.012491-2.630833-0.038122      c-0.878643-0.025732-1.758892-0.063879-2.64085-0.11532c-0.050186-0.003317-0.097401-0.011635-0.14716-0.014954      c-0.7663-0.060535-1.480721-0.242096-1.977818-0.5c0.039818,0.038977,0.077953,0.077097,0.118118,0.114388      c0.153015,0.146833,0.347054,0.273687,0.556885,0.39147c0.132309,0.07295,0.265797,0.14673,0.414661,0.206438      c0.408031,0.166683,0.87236,0.279465,1.352135,0.318441c1.661839,0.136026,3.312134,0.204052,4.954861,0.204052v-0.522493      V25.696867z"></path>
				<path fill="#88B3FF" d="M47.470734,24.145243c0.234207,0.025734,0.469757,0.056391,0.703197,0.079662      c0.43037,0.043121,0.857845,0.075413,1.284546,0.109465c0.282356,0.022415,0.564713,0.050611,0.845448,0.069632      c0.229279,0.014927,0.457706,0.024023,0.686222,0.034805c0.242954,0.012489,0.486317,0.026588,0.728931,0.037369      c0.219772,0.009926,0.440296,0.025629,0.660065,0.033119c0.010353,0.000854,0.021145,0.001684,0.031086,0.001684      c0.69997,0.024048,1.398167,0.036514,2.095161,0.036514h0.000427l0.013256-0.00083l6.045033-0.321758l-6.058289-0.369053      H54.50539l0.000427-7.533981l0.000427-2.822836c-3.704784,0.235565-5.079266,1.739792-5.364159,2.103065      c-0.036087,0.064709-0.05928,0.092905-0.05928,0.092905l0.013668,0.018166      c0.007477-0.015705,0.022846-0.045597,0.04604-0.107754c0.019096,0.074648,0.025719,0.123549,0.025719,0.123549      s0.053074,0.105305,0.139267,0.280321l0.126102,0.175779c-0.00959,0.006622-0.018684,0.015795-0.028198,0.021561      c0.117706,0.24049,0.277344,0.570568,0.45364,0.938765c0.235046,0.492525,0.508736,1.076334,0.803917,1.724852      c0.610813,1.343399,1.292023,2.922361,1.825218,4.385241c-0.128483-0.220627-0.26078-0.450321-0.396393-0.687494      c-0.169586-0.296024-0.344509-0.602921-0.525307-0.917967c-0.541943-0.943766-1.132374-1.9571-1.766792-2.953098      c-0.338734-0.530735-0.689529-1.056456-1.052296-1.564011c0.100704-0.121086,0.216789-0.227234,0.325062-0.341621      c0.129326-0.135185,0.25211-0.277845,0.386883-0.406332l-0.029896-0.053928l-0.056805-0.099512      c-0.235901,0.16584-0.469769,0.334999-0.682907,0.519941c-2.210415,1.849255-3.152485,4.558558-2.53632,7.188122      c0.00246,0.018244,0.007889,0.034882,0.011208,0.052296c0.163715,0.021587,0.326252,0.038977,0.489635,0.057997      c0.201927,0.023272,0.404297,0.048151,0.60537,0.071344C47.330109,24.128683,47.400169,24.137001,47.470734,24.145243z"></path>
				<path fill="#5492FF" d="M59.711182,16.003429c0,0-0.000412,0.000843-0.000412,0.001698      c-0.028625,0.059694-0.061317,0.128563-0.098259,0.207279c-0.117355,0.24711-0.276573,0.587126-0.462708,0.989376      c-0.117783,0.256195-0.244236,0.5315-0.385197,0.842556c-0.297283,0.656746-0.644775,1.441227-1.017143,2.303646      c-0.383141,0.888151-0.793217,1.860126-1.216522,2.906645c0,0.000854-0.000427,0.000854-0.000427,0.000854      c0.510017-0.883993,1.083035-1.907343,1.708294-2.963036c0.517052-0.872356,1.071823-1.764669,1.654789-2.622177      c0.122784-0.179939,0.245064-0.360722,0.370323-0.537357l0,0c-0.106148-0.128563-0.228516-0.241331-0.343319-0.361576      c-0.123135-0.128487-0.239647-0.26367-0.367783-0.386377l0,0l0.087463-0.151834l0.29229-0.503305      c0,0-0.005348-0.012478-0.007812-0.018257c-0.00705-0.017414-0.022415-0.053072-0.053501-0.118624      c-0.021145,0.086269-0.027767,0.136881-0.027767,0.136881S59.795341,15.828491,59.711182,16.003429z"></path>
				<path fill="#4B8DFF" d="M49.459671,16.38496c-0.135521,0.128487-0.257893,0.271147-0.387218,0.406332      c-0.108273,0.114388-0.224358,0.220535-0.325062,0.341621c0.362766,0.507555,0.713562,1.033276,1.052296,1.564011      c0.634418,0.995998,1.22485,2.009333,1.766792,2.953098c0.180798,0.315046,0.355721,0.621943,0.525307,0.917967      c0.135612,0.237173,0.26791,0.466867,0.396393,0.687494c-0.533195-1.462879-1.214405-3.041842-1.825218-4.385241      c-0.295181-0.648518-0.568871-1.232327-0.804344-1.724852c-0.176285-0.368196-0.335857-0.698275-0.453625-0.938765      c-0.037369-0.076254-0.068455-0.1385-0.097492-0.19734c-0.086193-0.175016-0.139267-0.279467-0.139267-0.279467      s-0.006622-0.049755-0.025719-0.124403c-0.023193,0.063011-0.037708,0.092905-0.04604,0.107754      c-0.003731,0.005014-0.008316,0.016649-0.008316,0.016649l0.284893,0.501699l0.056389,0.099512l0.029896,0.053928H49.459671z"></path>
			</g>
			<g>
				<path fill="#E6E6E7" d="M13.680768,58.968658l0.094175,0.765446c0.036008,0.29356,0.390121,0.490902,0.790246,0.441147      l1.020875-0.125168l-0.159636-1.297039L13.680768,58.968658z"></path>
				<path fill="#8F99BE" d="M14.264578,57.733868c-0.400126,0.049755-0.695723,0.326759-0.659636,0.620323l0.075827,0.614468      l1.745661-0.215614L15.285466,57.6087L14.264578,57.733868z"></path>
				<polygon fill="#2E57CB" points="47.541691,56.11515 47.686398,56.096905 47.6819,56.06039     "></polygon>
				<polygon fill="#5476D4" points="47.241089,53.672913 47.390373,53.691933 47.385784,53.655525     "></polygon>
				<polygon fill="#8590B8" points="19.429699,58.260429 16.890915,58.573093 17.050991,59.869274 18.864574,59.646198       47.541691,56.11515 47.381626,54.818115     "></polygon>
				<polygon fill="#55649C" points="18.563963,57.204815 16.75038,57.427891 16.890915,58.573093 19.429699,58.260429       47.381626,54.818115 47.241089,53.672913     "></polygon>
				<polygon fill="#0A3ABF" points="15.595574,57.570473 15.285466,57.6087 15.426429,58.753044 15.736539,58.714897       16.890915,58.573093 16.75038,57.427891     "></polygon>
				<polygon fill="#2E57CB" points="15.736539,58.714897 15.426429,58.753044 15.586064,60.050083 15.896188,60.011856       17.050991,59.869274 16.890915,58.573093     "></polygon>
				<polygon fill="#9EA7C7" points="49.125668,54.603359 49.231388,55.461632 52.245369,54.296551 51.934822,54.257576     "></polygon>
				<polygon fill="#9EA0A2" points="49.125668,54.603359 51.934822,54.257576 49.038544,53.896843     "></polygon>
				<polygon fill="#88B3FF" points="47.526749,54.800724 47.381626,54.818115 47.541691,56.11515 47.6819,56.06039       49.231388,55.461632 49.125668,54.603359     "></polygon>
				<polygon fill="#498BFF" points="47.390373,53.691933 47.241089,53.672913 47.381626,54.818115 47.526749,54.800724       49.125668,54.603359 49.038544,53.896843     "></polygon>
			</g>
		</g>
		<g id="_x36_">
			<g id="_x36__1_">
				<g>
					<g>
						<path fill="#F0F0F0" d="M29.901791,59.415165c2.028969-1.63792,4.017902-3.056652,5.972507-4.273727        c-3.458878-5.392326-6.790524-10.524769-10.007416-15.41996c-1.57412,0.29744-3.175875,0.656456-4.80802,1.079868        C23.795563,46.5588,26.735243,52.746422,29.901791,59.415165z"></path>
					</g>
					<g>
						<path fill="#E6E6E7" d="M46.628628,59.822891c-3.501869-1.650459-7.082577-3.212433-10.75433-4.681454        c-3.458878-5.392326-6.790524-10.524769-10.007416-15.41996c2.257551,0.747177,4.471449,1.527046,6.644707,2.338627        C37.112236,47.720135,41.811943,53.63205,46.628628,59.822891z"></path>
					</g>
					<g>
						<g>
							<path fill="#F0F0F0" d="M10.472841,62.551914c3.073002-2.59248,6.001062-4.830795,8.803804-6.753689         c-1.792063-6.109703-3.391254-11.718403-4.817276-16.877758c-1.960114,0.497791-3.974319,1.076984-6.047541,1.74276         C8.870825,47.06847,9.545201,54.319294,10.472841,62.551914z"></path>
						</g>
						<g>
							<g>
								<path fill="#949EC1" d="M9.410897,41.684086c-0.049693-0.007683-0.116324-0.067944-0.162472-0.151581          c-0.055141-0.100304-0.059349-0.196476-0.009656-0.214462l4.686247-1.679611          c0.046147-0.012798,0.124067,0.047462,0.178228,0.141075c0.053829,0.093613,0.062163,0.183022,0.01825,0.199364          l-4.682701,1.703308C9.43046,41.684742,9.420874,41.685398,9.410897,41.684086z"></path>
							</g>
							<g>
								<path fill="#949EC1" d="M9.46669,42.333515c-0.050023-0.007351-0.116975-0.067944-0.162531-0.151905          c-0.056064-0.101288-0.060271-0.198444-0.010247-0.216694l4.783009-1.771317          c0.043914-0.017593,0.124067,0.046803,0.178558,0.140743c0.054481,0.094204,0.062494,0.184006,0.01825,0.20068          l-4.779132,1.795933C9.486584,42.334499,9.477258,42.335091,9.46669,42.333515z"></path>
							</g>
							<g>
								<path fill="#949EC1" d="M9.524728,43.014c-0.050024-0.007355-0.117637-0.068272-0.163524-0.153217          c-0.056394-0.102211-0.061182-0.200348-0.010577-0.219257l4.884368-1.869656          c0.044834-0.016998,0.124658,0.046478,0.178819,0.141338c0.055141,0.095184,0.063807,0.185905,0.019232,0.202579          l-4.880161,1.895321C9.544551,43.014656,9.535295,43.015312,9.524728,43.014z"></path>
							</g>
							<g>
								<path fill="#949EC1" d="M9.58656,43.729141c-0.050283-0.007092-0.117636-0.067616-0.164444-0.153545          c-0.056715-0.103191-0.061833-0.203239-0.011219-0.222801l4.988212-1.976719          c0.044504-0.017593,0.124989,0.045818,0.180131,0.141335c0.055141,0.09584,0.064728,0.188206,0.020153,0.205471          l-4.984275,2.003048C9.606785,43.729797,9.597128,43.730389,9.58656,43.729141z"></path>
							</g>
							<g>
								<path fill="#949EC1" d="M9.650698,44.479801c-0.050674-0.006695-0.118298-0.067619-0.165426-0.154469          c-0.057045-0.104179-0.062163-0.205143-0.011549-0.225685l5.098425-2.090488          c0.044575-0.019562,0.12539,0.045166,0.180792,0.141666c0.055803,0.096497,0.064789,0.189125,0.020875,0.207699          L9.679516,44.47665C9.671182,44.480457,9.661265,44.481113,9.650698,44.479801z"></path>
							</g>
							<g>
								<path fill="#949EC1" d="M9.718972,45.270569c-0.050685-0.006367-0.118949-0.067944-0.166348-0.154797          c-0.057376-0.105488-0.063146-0.208355-0.012541-0.229824l5.212526-2.214554          c0.043923-0.020878,0.125389,0.044182,0.181443,0.141663c0.056133,0.097088,0.066371,0.191685,0.022126,0.210594          l-5.207407,2.243435C9.739777,45.270897,9.72954,45.271881,9.718972,45.270569z"></path>
							</g>
							<g>
								<path fill="#949EC1" d="M9.790722,46.10368c-0.051276-0.006107-0.11954-0.067944-0.167921-0.156105          c-0.057706-0.106415-0.063486-0.210922-0.012541-0.233047l5.331805-2.348866          c0.044575-0.021793,0.12564,0.044247,0.182695,0.142323c0.056455,0.098072,0.066691,0.193588,0.022448,0.21315          l-5.326947,2.37867C9.811266,46.104004,9.80135,46.104927,9.790722,46.10368z"></path>
							</g>
							<g>
								<path fill="#949EC1" d="M9.866077,46.981621c-0.051266-0.005775-0.120522-0.067944-0.168571-0.156105          c-0.058357-0.108051-0.064467-0.214134-0.013793-0.237835l5.457065-2.492496          c0.043913-0.02055,0.126632,0.043915,0.183677,0.142319c0.057045,0.09906,0.067352,0.19582,0.02376,0.216366          l-5.451675,2.52388C9.887544,46.981949,9.877306,46.982868,9.866077,46.981621z"></path>
							</g>
							<g>
								<path fill="#949EC1" d="M9.94591,47.910183c-0.051927-0.005451-0.120861-0.067619-0.169893-0.157684          c-0.058688-0.108383-0.06539-0.217022-0.014113-0.241379l5.587883-2.649853          c0.042611-0.022121,0.126631,0.042011,0.184669,0.142651c0.057045,0.099319,0.068534,0.198051,0.02435,0.219517          l-5.582173,2.68261C9.967377,47.910183,9.957129,47.911163,9.94591,47.910183z"></path>
							</g>
							<g>
								<path fill="#949EC1" d="M10.030191,48.892956c-0.051927-0.005116-0.121833-0.067612-0.170545-0.158009          c-0.060261-0.110939-0.066631-0.220566-0.015025-0.245838l5.725082-2.821056          c0.045165-0.025013,0.127883,0.041683,0.185249,0.141991c0.058688,0.100964,0.069586,0.200348,0.025673,0.222473          l-5.719313,2.854996C10.051988,48.892956,10.041751,48.894203,10.030191,48.892956z"></path>
							</g>
							<g>
								<path fill="#949EC1" d="M10.119931,49.935349c-0.052257-0.005123-0.122755-0.067944-0.172117-0.159653          c-0.060922-0.11153-0.067944-0.224049-0.015697-0.250305l5.869313-3.008278          c0.043262-0.02462,0.127884,0.041355,0.186241,0.142651c0.058618,0.101288,0.070828,0.202908,0.026254,0.225361          l-5.862872,3.044445C10.142058,49.935017,10.131161,49.936264,10.119931,49.935349z"></path>
							</g>
							<g>
								<path fill="#949EC1" d="M10.21512,51.041214c-0.052848-0.004532-0.123676-0.067352-0.1737-0.160305          c-0.061572-0.114098-0.068274-0.227921-0.016678-0.25576l6.021288-3.211777          c0.046146-0.025669,0.128534,0.040371,0.187483,0.142647c0.059608,0.103523,0.071489,0.205475,0.027565,0.229828          l-6.014184,3.248932C10.237568,51.040554,10.226349,51.042133,10.21512,51.041214z"></path>
							</g>
							<g>
								<path fill="#949EC1" d="M10.31641,52.218502c-0.053169-0.004139-0.124328-0.067612-0.175344-0.16188          c-0.061833-0.11475-0.069846-0.231731-0.016928-0.260876l6.180202-3.435497          c0.043592-0.021797,0.127884,0.039387,0.188795,0.143562c0.05994,0.103855,0.072742,0.208359,0.028229,0.233047          l-6.172851,3.474949C10.339188,52.21693,10.32829,52.21949,10.31641,52.218502z"></path>
							</g>
							<g>
								<path fill="#949EC1" d="M10.423809,53.472794c-0.053499-0.003872-0.125319-0.06768-0.176585-0.162868          c-0.062824-0.11665-0.070898-0.235928-0.01832-0.266983l6.348853-3.68042          c0.046148-0.022713,0.129187,0.038799,0.190107,0.143635c0.060261,0.105095,0.073725,0.211182,0.02981,0.237831          l-6.34085,3.721718C10.446918,53.470825,10.43602,53.473381,10.423809,53.472794z"></path>
							</g>
							<g>
								<path fill="#949EC1" d="M10.539212,54.81295c-0.05357-0.002892-0.126632-0.067684-0.178558-0.164444          c-0.063477-0.118618-0.072141-0.240723-0.018581-0.273087l6.525119-3.950619          c0.048712-0.022778,0.130497,0.038471,0.192011,0.14455c0.060921,0.106083,0.075365,0.214138,0.03079,0.241711          l-6.516844,3.994473C10.562581,54.810982,10.551682,54.813541,10.539212,54.81295z"></path>
							</g>
							<g>
								<path fill="#949EC1" d="M10.662628,56.248619c-0.054161-0.00256-0.126963-0.067024-0.179871-0.165752          c-0.064398-0.120525-0.073393-0.245514-0.019823-0.27919l6.712662-4.249641          c0.044174-0.027237,0.130108,0.035912,0.19227,0.143639c0.062235,0.107655,0.076609,0.217613,0.032364,0.24617          l-6.703666,4.295784C10.686978,56.246059,10.675098,56.24921,10.662628,56.248619z"></path>
							</g>
							<g>
								<path fill="#949EC1" d="M10.7953,57.789719c-0.054822-0.002235-0.128534-0.067287-0.181713-0.167007          c-0.066041-0.123085-0.075356-0.251945-0.021526-0.287197l6.910782-4.581081          c0.046469-0.02882,0.13142,0.03558,0.193914,0.143959c0.063477,0.108974,0.078833,0.221752,0.034267,0.251297          l-6.900805,4.630444C10.819651,57.786827,10.808161,57.790043,10.7953,57.789719z"></path>
							</g>
							<g>
								<path fill="#949EC1" d="M10.937617,59.447205c-0.055733-0.001575-0.130107-0.067616-0.184008-0.168251          c-0.066961-0.125645-0.076608-0.257725-0.022388-0.295536l7.120323-4.950008          c0.043322-0.028557,0.13175,0.033936,0.195557,0.144875c0.063807,0.109894,0.079823,0.224972,0.035248,0.256416          l-7.109815,5.001934C10.962629,59.443985,10.950749,59.447205,10.937617,59.447205z"></path>
							</g>
						</g>
					</g>
					<g>
						<g>
							<g>
								<path fill="#949EC1" d="M21.762115,41.815506c-0.041348-0.007023-0.10227-0.062492-0.147766-0.139431          c-0.05389-0.090065-0.065378-0.174355-0.026323-0.187813l4.046469-1.420311          c0.032694-0.01759,0.105165,0.045887,0.157682,0.130505c0.052578,0.084618,0.066692,0.162804,0.031763,0.175011          l-4.04199,1.440792C21.776239,41.816818,21.769148,41.816818,21.762115,41.815506z"></path>
							</g>
						</g>
						<g>
							<g>
								<path fill="#949EC1" d="M22.058903,42.432903c-0.041679-0.006435-0.102531-0.062496-0.148098-0.139431          c-0.054482-0.091381-0.066631-0.176323-0.027567-0.190109l4.109283-1.492062          c0.032696-0.015427,0.105497,0.045494,0.158014,0.130112c0.05324,0.085274,0.067944,0.16444,0.033016,0.176914          l-4.104425,1.513264C22.073347,42.434151,22.066324,42.434151,22.058903,42.432903z"></path>
							</g>
						</g>
						<g>
							<g>
								<path fill="#949EC1" d="M22.368559,43.07748c-0.041689-0.006435-0.102871-0.062824-0.148758-0.140091          c-0.054482-0.091312-0.067282-0.17757-0.028156-0.192013l4.174603-1.567684          c0.032093-0.015755,0.105165,0.045166,0.158073,0.13044c0.053169,0.085274,0.068594,0.165688,0.033936,0.178226          l-4.169483,1.589542C22.383324,43.078793,22.376232,43.078793,22.368559,43.07748z"></path>
							</g>
						</g>
						<g>
							<g>
								<path fill="#949EC1" d="M22.692911,43.752842c-0.04162-0.006104-0.103193-0.062824-0.14934-0.140678          c-0.055141-0.092033-0.067623-0.178558-0.028818-0.193985l4.240963-1.65007          c0.033676-0.013126,0.105497,0.045166,0.158665,0.130768c0.053511,0.085602,0.068935,0.166016,0.034599,0.179802          l-4.235846,1.672588C22.707026,43.753166,22.700333,43.754154,22.692911,43.752842z"></path>
							</g>
						</g>
						<g>
							<g>
								<path fill="#949EC1" d="M23.032688,44.459972c-0.041349-0.006104-0.103191-0.06282-0.15-0.141399          c-0.055143-0.092953-0.068264-0.180458-0.02947-0.196148l4.309238-1.737968          c0.034336-0.01149,0.105495,0.044903,0.158995,0.131096c0.0539,0.086258,0.069586,0.167328,0.03558,0.181442          l-4.303787,1.761009C23.047132,44.459972,23.040371,44.460896,23.032688,44.459972z"></path>
							</g>
						</g>
						<g>
							<g>
								<path fill="#949EC1" d="M23.389143,45.20105c-0.041348-0.005779-0.103521-0.062824-0.15065-0.141991          c-0.055803-0.093613-0.069256-0.182106-0.030462-0.198448l4.379486-1.831844          c0.034597-0.012535,0.105165,0.043919,0.159645,0.131428c0.054161,0.086517,0.070177,0.168575,0.036171,0.183018          l-4.373705,1.855865C23.403587,45.201378,23.396826,45.202297,23.389143,45.20105z"></path>
							</g>
						</g>
						<g>
							<g>
								<path fill="#949EC1" d="M23.762869,45.978951c-0.041681-0.005447-0.103855-0.062824-0.151243-0.141991          c-0.056133-0.094528-0.070578-0.184925-0.031773-0.201599l4.451956-1.933132          c0.036501-0.012543,0.105425,0.04451,0.159906,0.131092c0.054491,0.087509,0.071819,0.170811,0.037813,0.185581          l-4.446115,1.957813C23.776981,45.978951,23.770552,45.979931,23.762869,45.978951z"></path>
							</g>
						</g>
						<g>
							<g>
								<path fill="#949EC1" d="M24.156155,46.796963c-0.041618-0.005451-0.104113-0.062824-0.151903-0.142979          c-0.056725-0.095184-0.071489-0.186497-0.033026-0.203831l4.52594-2.042103          c0.03624-0.013454,0.105495,0.043915,0.160307,0.13142c0.055143,0.087769,0.072742,0.171799,0.038795,0.187157          l-4.519569,2.067772C24.170269,46.796963,24.163567,46.797943,24.156155,46.796963z"></path>
							</g>
						</g>
						<g>
							<g>
								<path fill="#949EC1" d="M24.569324,47.657639c-0.041618-0.005184-0.104445-0.06282-0.152554-0.143631          c-0.057056-0.096169-0.072081-0.188141-0.033676-0.206718l4.602276-2.159809          c0.034597-0.013126,0.105757,0.043919,0.160898,0.131752c0.055143,0.088493,0.072742,0.172779,0.039787,0.189125          L24.5902,47.655014C24.584099,47.657314,24.577068,47.658562,24.569324,47.657639z"></path>
							</g>
						</g>
						<g>
							<g>
								<path fill="#949EC1" d="M25.005604,48.56506c-0.041679-0.004791-0.104836-0.062492-0.153547-0.14455          c-0.057695-0.097157-0.073051-0.190113-0.034918-0.209347l4.679817-2.287945          c0.033936-0.014114,0.105745,0.042931,0.161549,0.132339c0.055733,0.089149,0.074043,0.174358,0.040699,0.191029          l-4.672785,2.315582C25.020378,48.564728,25.013287,48.565975,25.005604,48.56506z"></path>
							</g>
						</g>
						<g>
							<g>
								<path fill="#949EC1" d="M25.465582,49.521843c-0.041679-0.004463-0.104836-0.062164-0.153868-0.14455          c-0.058357-0.098076-0.074373-0.193588-0.03657-0.213154l4.759308-2.4258          c0.036242-0.014114,0.105827,0.042603,0.16189,0.131687c0.056124,0.09013,0.075026,0.176979,0.042341,0.194244          l-4.751957,2.454357C25.480618,49.521519,25.473265,49.522831,25.465582,49.521843z"></path>
							</g>
						</g>
						<g>
							<g>
								<path fill="#949EC1" d="M25.951494,50.533115c-0.041679-0.004135-0.105427-0.062168-0.155119-0.145538          c-0.058689-0.098988-0.075687-0.19582-0.037483-0.216301l4.841366-2.575211          c0.03525-0.015034,0.106077,0.042011,0.162472,0.132076c0.056715,0.090721,0.076607,0.178493,0.043592,0.19648          l-4.833693,2.605282C25.966269,50.532459,25.959177,50.5341,25.951494,50.533115z"></path>
							</g>
						</g>
						<g>
							<g>
								<path fill="#949EC1" d="M26.465963,51.603729c-0.041691-0.003872-0.105427-0.062164-0.156111-0.146519          c-0.059601-0.100307-0.076939-0.198383-0.038795-0.219849l4.925066-2.738342          c0.03525-0.016018,0.105757,0.042015,0.163132,0.132671c0.057367,0.091377,0.077591,0.180458,0.044895,0.198772          l-4.916721,2.769722C26.480728,51.603073,26.473967,51.604385,26.465963,51.603729z"></path>
							</g>
						</g>
						<g>
							<g>
								<path fill="#949EC1" d="M27.011805,52.739403c-0.04228-0.003548-0.106419-0.062561-0.157352-0.147774          c-0.05994-0.100697-0.077921-0.200676-0.040047-0.223125l5.010277-2.916832          c0.03525-0.016083,0.106077,0.041351,0.163454,0.132996c0.057705,0.091644,0.07851,0.181774,0.046478,0.201271          l-5.001936,2.949589C27.026569,52.738415,27.019217,52.739994,27.011805,52.739403z"></path>
							</g>
						</g>
						<g>
							<g>
								<path fill="#949EC1" d="M27.591063,53.94426c-0.041691-0.003216-0.106739-0.062496-0.157743-0.148098          c-0.061182-0.102535-0.079763-0.204155-0.04195-0.226933l5.096794-3.111408          c0.031773-0.019238,0.105484,0.039715,0.16378,0.132339c0.058689,0.092957,0.080154,0.184334,0.048122,0.203896          l-5.087868,3.145409C27.606417,53.943012,27.599066,53.944916,27.591063,53.94426z"></path>
							</g>
						</g>
						<g>
							<g>
								<path fill="#949EC1" d="M28.207411,55.227371c-0.04195-0.002888-0.107069-0.061836-0.158995-0.149342          c-0.062164-0.104179-0.081406-0.207443-0.043592-0.231144l5.185942-3.323967          c0.031113-0.020153,0.105164,0.038799,0.164444,0.132736c0.059338,0.093937,0.081467,0.186569,0.049694,0.206722          l-5.176296,3.359547C28.222507,55.226124,28.215414,55.227699,28.207411,55.227371z"></path>
							</g>
						</g>
						<g>
							<g>
								<path fill="#949EC1" d="M28.864849,56.595428c-0.041689-0.002235-0.107399-0.061581-0.159977-0.150333          c-0.062494-0.104836-0.083309-0.211246-0.045496-0.235928l5.275351-3.558914          c0.031445-0.021465,0.105495,0.038139,0.165096,0.13306c0.059608,0.094204,0.08305,0.189064,0.051277,0.209938          l-5.265116,3.596397C28.880205,56.593784,28.873184,56.595753,28.864849,56.595428z"></path>
							</g>
						</g>
						<g>
							<g>
								<path fill="#949EC1" d="M29.567453,58.056763c-0.042011-0.001644-0.10799-0.061577-0.16123-0.150986          c-0.063807-0.107063-0.084942-0.21479-0.04772-0.241379l5.366072-3.816635          c0.033287-0.020485,0.105427,0.037548,0.165688,0.13306c0.060593,0.09584,0.084621,0.191357,0.05357,0.21381          l-5.354914,3.856026C29.582548,58.055119,29.575466,58.057095,29.567453,58.056763z"></path>
							</g>
						</g>
					</g>
					<g>
						<g>
							<path fill="#E6E6E7" d="M34.192127,48.289413l0.688549,0.218601l2.469395,3.414948l-0.804222-0.319233L34.192127,48.289413z          M33.266132,47.995453l0.646206,0.205143l2.307514,3.273945l-0.750984-0.2981L33.266132,47.995453z"></path>
						</g>
					</g>
					<g>
						<path fill="#949EC1" d="M42.911049,56.305008c0.033936,0.002232,0.033348-0.051266-0.003544-0.131096        c-0.042614-0.091377-0.117638-0.183346-0.16766-0.204811c-2.620968-1.141445-7.171329-3.110161-7.406273-3.130711        c-0.003876-0.000259-0.006439,0-0.008011,0.000656c-0.033016,0.01635-0.017662,0.108059,0.040375,0.202583        c0.058357,0.09486,0.126953,0.159985,0.160568,0.142651c0.182095,0.019238,4.569923,1.902081,7.368198,3.116596        C42.900482,56.303104,42.906193,56.305008,42.911049,56.305008z"></path>
						<path fill="#949EC1" d="M44.088337,57.296452c-0.042603-0.092033-0.117638-0.184002-0.167923-0.206779        c-2.337051-1.049736-7.969177-3.568169-8.213718-3.588387c-0.003216-0.000332-0.005768-0.000332-0.007092,0        c-0.033344,0.016346-0.01857,0.108047,0.039455,0.203239c0.058628,0.096169,0.128536,0.158989,0.16156,0.144875        c0.194565,0.024033,5.072113,2.184429,8.174915,3.573296c0.006432,0.002884,0.01247,0.004528,0.017658,0.004856        C44.126148,57.429123,44.125889,57.376541,44.088337,57.296452z"></path>
					</g>
					<g>
						<g>
							<path fill="#E6E6E7" d="M29.901791,59.415165c-3.43071-1.271553-6.968157-2.478706-10.625145-3.61694         c-1.792063-6.109703-3.391254-11.718403-4.817276-16.877758c2.250137,0.600986,4.449001,1.228294,6.599493,1.880878         C23.795563,46.5588,26.735243,52.746422,29.901791,59.415165z"></path>
						</g>
						<g>
							<path fill="#949EC1" d="M26.464651,53.847763c0.00643,0.002293,0.012211,0.003216,0.017658,0.002884         c0.033346-0.002228,0.037153-0.056713,0.00577-0.134899c-0.035248-0.089737-0.103853-0.175995-0.152885-0.193653         c-2.279676-0.810921-7.780975-2.756596-8.027145-2.748913c-0.003216,0.000328-0.005781,0.000328-0.007093,0.000984         c-0.034927,0.020878-0.027575,0.113827,0.024031,0.205471c0.051596,0.0923,0.117306,0.149078,0.151964,0.131096         C18.672115,51.112637,23.437855,52.775898,26.464651,53.847763z"></path>
							<path fill="#949EC1" d="M26.716923,54.551353c-2.291168-0.803574-7.820692-2.731583-8.067846-2.72134         c-0.003216,0-0.005779,0-0.007092,0.00098c-0.035248,0.021141-0.027245,0.116001,0.024681,0.208626         c0.052258,0.093609,0.118298,0.150986,0.153215,0.13208c0.195889,0.000324,4.98658,1.6479,8.027809,2.709785         c0.00643,0.0023,0.012541,0.003216,0.01766,0.002884c0.033676-0.00256,0.037151-0.057961,0.005779-0.137127         C26.834888,54.656189,26.765965,54.569008,26.716923,54.551353z"></path>
						</g>
					</g>
				</g>
			</g>
		</g>
		<g>
			<path fill="#8F99BE" d="M43.578217,63.512897l-0.395287,0.827412c-0.151234,0.31675-0.538715,0.446358-0.864735,0.290466     l-0.831985-0.397751l0.669331-1.400208L43.578217,63.512897z"></path>
			<path fill="#D9DADB" d="M43.579018,61.993423c0.325928,0.155876,0.46809,0.539227,0.316448,0.855827l-0.317249,0.663647     l-1.422676-0.68008l0.591434-1.237259L43.579018,61.993423z"></path>
			<polygon fill="#2E57CB" points="15.443071,51.783825 15.325058,51.727333 15.343945,51.68774    "></polygon>
			<polygon fill="#5476D4" points="16.703831,49.146381 16.567015,49.129551 16.585804,49.08997    "></polygon>
			<polygon fill="#2E57CB" points="38.892876,61.273399 40.96183,62.261753 40.292343,63.662773 38.814571,62.95599      15.443071,51.783825 16.112829,50.38364    "></polygon>
			<polygon fill="#5476D4" points="40.074989,60.318542 41.553089,61.02541 40.96183,62.261753 38.892876,61.273399      16.112829,50.38364 16.703831,49.146381    "></polygon>
			<polygon fill="#7683AF" points="42.494175,61.47551 42.746975,61.595558 42.15554,62.832817 41.902893,62.711922      40.96183,62.261753 41.553089,61.02541    "></polygon>
			<polygon fill="#5F6EA2" points="41.902893,62.711922 42.15554,62.832817 41.48621,64.233025 41.23357,64.112106      40.292343,63.662773 40.96183,62.261753    "></polygon>
			<polygon fill="#3B4B82" points="14.691734,49.703846 14.248791,50.630596 12.117695,48.574032 12.402376,48.609669    "></polygon>
			<polygon fill="#9EA0A2" points="14.691734,49.703846 12.402376,48.609669 15.056561,48.940865    "></polygon>
			<polygon fill="#5996FF" points="15.994476,50.327145 16.112829,50.38364 15.443071,51.783825 15.343945,51.68774      14.248791,50.630596 14.691734,49.703846    "></polygon>
			<polygon fill="#88B3FF" points="16.567015,49.129551 16.703831,49.146381 16.112829,50.38364 15.994476,50.327145      14.691734,49.703846 15.056561,48.940865    "></polygon>
		</g>
	</g>
	<path fill="#BDC3D9" d="M24.506924,33.840611l0.166857-0.119934l-0.151087-0.236523l-0.203403,0.060349   c-0.036932-0.035469-0.077398-0.067524-0.120491-0.095802l0.035631-0.191631l-0.27755-0.102974l-0.104195,0.166355   c-0.051619-0.007175-0.10408-0.009449-0.157049-0.006794l-0.109344-0.174278l-0.008123,0.002277l-0.266203,0.076942   l0.04224,0.194256c-0.043524,0.025261-0.082991,0.05431-0.118511,0.086758l-0.203426-0.076561l-0.142559,0.224079   l0.169983,0.132755c-0.013054,0.04451-0.02103,0.090931-0.023979,0.138065l-0.203196,0.057358l0.055838,0.264057l0.219809,0.008266   c0.022198,0.043766,0.049156,0.084908,0.079622,0.122986l-0.10791,0.166721l0.227709,0.180695l0.167048-0.12294   c0.045506,0.021465,0.093704,0.0392,0.143223,0.052414l0.040495,0.199154l0.293623,0.012836l0.01749-0.1007l0.016048-0.096954   c0.023748-0.00452,0.047047-0.010212,0.070229-0.016613c0.024433-0.007145,0.04756-0.015064,0.070604-0.024151l0.171547,0.137718   l0.221684-0.161476l-0.115513-0.179146c0.028648-0.035469,0.053352-0.074318,0.073345-0.115082l0.221622,0.010559l0.04623-0.259502   l-0.209631-0.076218C24.531647,33.932663,24.521765,33.886654,24.506924,33.840611z M23.954304,34.39967   c-0.022814,0.006416-0.045788,0.01054-0.068378,0.013939c-0.222477,0.030949-0.452698-0.090157-0.536242-0.293106   c-0.092476-0.223686,0.028349-0.461708,0.26972-0.531475c0.02117-0.006054,0.04249-0.010197,0.063839-0.013199   c0.224007-0.033192,0.456696,0.087868,0.540764,0.292332C24.31645,34.091846,24.195656,34.329868,23.954304,34.39967z"></path>
	<path fill="#9EA7C7" d="M23.62602,25.272612L23.62602,25.272612c-0.745615,0-1.311609,0.549044-1.264246,1.226383l0,0   c0.047365,0.67734,0.690145,1.226385,1.43576,1.226385l0,0c0.745615,0,1.311609-0.549046,1.264244-1.226385l0,0   C25.014416,25.821655,24.371635,25.272612,23.62602,25.272612z"></path>
	<g opacity="0.4">
		<path fill="#FFFFFF" d="M24.56065,27.138849h-0.246517l-0.202015-0.538546l-0.302776,0.538546h-0.27586l0.469715-0.837143    l-0.102684-0.293259l-0.642906,1.130402h-0.275858l0.815723-1.428999h0.240639l0.130266,0.351921h0.246517L24.263693,26.3337    L24.56065,27.138849L24.56065,27.138849z"></path>
	</g>
	<path fill="#BDC3D9" d="M23.490486,25.272612L23.490486,25.272612c-0.745598,0-1.311592,0.549044-1.264227,1.226383l0,0   c0.047363,0.67734,0.690144,1.226385,1.435741,1.226385l0,0c0.745615,0,1.311611-0.549046,1.264246-1.226385l0,0   C24.878883,25.821655,24.236101,25.272612,23.490486,25.272612z"></path>
	<g>
		<path fill="#EDEFF5" d="M24.425117,27.138849H24.1786l-0.202017-0.538546l-0.302759,0.538546h-0.275875l0.469715-0.837143    l-0.102667-0.293259l-0.642923,1.130402h-0.27586l0.815723-1.428999h0.240658l0.130249,0.351921h0.246517L24.128176,26.3337    L24.425117,27.138849L24.425117,27.138849z"></path>
	</g>
	<g>
		<path fill="#9EA7C7" d="M28.617319,29.251621c-0.012703-0.181665-0.279171-0.352346-0.668303-0.456947    c0.065889-0.357853,0.003838-0.638624-0.172022-0.726719c-0.043999-0.021906-0.092873-0.033298-0.141701-0.033026    l0.008856,0.126627l0.073496,0.010998c0.087931,0.044056,0.135834,0.209215,0.120554,0.42392    c-0.002596,0.049562-0.01087,0.104614-0.018759,0.165174c-0.129505-0.028656-0.260557-0.048893-0.392097-0.06056    c-0.085052-0.098425-0.176628-0.192223-0.274168-0.280787c0.181997-0.170666,0.363707-0.258745,0.490974-0.258745    l-0.008856-0.126627l0,0c-0.16362,0-0.380161,0.110107-0.591297,0.297293c-0.231268-0.187185-0.463207-0.297293-0.632891-0.297293    l0.008854,0.126627c0.127268,0,0.32168,0.093586,0.533222,0.258745c-0.083176,0.088655-0.159615,0.182438-0.228836,0.280787    c-0.131813,0.012121-0.262007,0.03236-0.38969,0.06056c-0.015972-0.055052-0.031946-0.110106-0.041859-0.165174    c-0.044922-0.209198-0.020117-0.374357,0.061653-0.418411c0.019203-0.011257,0.041964-0.016991,0.06551-0.016506    l-0.008469-0.12112l0,0c-0.046431-0.001516-0.091724,0.00798-0.131405,0.027519    c-0.169199,0.093601-0.185938,0.374374-0.076448,0.726719c-0.368425,0.104601-0.604979,0.275282-0.592274,0.456947    c0.012703,0.181679,0.273127,0.352345,0.662241,0.456959c-0.065887,0.357853-0.00382,0.638626,0.172022,0.726719    c0.043999,0.021908,0.092873,0.033298,0.141701,0.033028c0.169683,0,0.380163-0.110107,0.591314-0.297295    c0.237312,0.187187,0.462805,0.291786,0.632488,0.291786c0.048868,0.004856,0.097139-0.00481,0.137466-0.027519    c0.163155-0.093601,0.185938-0.374374,0.070389-0.726719C28.393486,29.603966,28.630024,29.4333,28.617319,29.251621    L28.617319,29.251621z M27.791555,28.882769c-0.017757,0.073227-0.04108,0.144968-0.069836,0.214706    c-0.027311-0.044041-0.05464-0.088095-0.088028-0.132133c-0.033373-0.044041-0.060699-0.088079-0.093689-0.126627    C27.624569,28.847544,27.708679,28.862274,27.791555,28.882769L27.791555,28.882769z M27.553967,29.471848    c-0.038054,0.075531-0.083744,0.147396-0.136501,0.214706l-0.271931,0.011013l-0.279552-0.011013l-0.16008-0.209198    c-0.053455-0.07235-0.101263-0.147793-0.143053-0.225735c0.031048-0.076157,0.068434-0.149763,0.111868-0.220213    c0.038881-0.073971,0.082432-0.145651,0.13044-0.214706l0.278011-0.011013l0.273472,0.011013    c0.059601,0.06901,0.115194,0.14069,0.166529,0.214706l0.142666,0.220213L27.553967,29.471848z M27.742893,29.400272    c0.038673,0.071606,0.072157,0.14518,0.100248,0.220215c-0.080009,0.020493-0.16206,0.035225-0.245392,0.044037    c0.032454-0.040016,0.05793-0.084541,0.075594-0.132118C27.700575,29.488369,27.721725,29.444313,27.742893,29.400272    L27.742893,29.400272z M27.166323,29.994858c-0.064453-0.05505-0.123245-0.115612-0.18202-0.17617h0.339384L27.166323,29.994858z     M26.688696,29.664524c-0.086767-0.006657-0.1731-0.021404-0.257629-0.044037    c0.019245-0.07156,0.04455-0.143131,0.069452-0.220215c0.025917,0.047531,0.05547,0.09354,0.088413,0.137642L26.688696,29.664524z     M27.056316,28.508396c0.064453,0.055052,0.123228,0.115612,0.182003,0.176172h-0.333323L27.056316,28.508396z     M26.630951,28.838715l-0.082058,0.126627l-0.069162,0.13764c-0.035299-0.071573-0.070614-0.143148-0.10025-0.220213    C26.461714,28.862774,26.545734,28.848059,26.630951,28.838715z M26.121897,29.532406    c-0.223955-0.082584-0.371027-0.192692-0.377188-0.280785c-0.006159-0.088081,0.125515-0.198187,0.337919-0.280773    l0.165833-0.055054c0.04549,0.11487,0.099913,0.2271,0.162874,0.335827c-0.047754,0.108738-0.086481,0.22097-0.115906,0.335838    L26.121897,29.532406z M26.504976,30.330685c-0.081867-0.044041-0.12977-0.209198-0.120554-0.42392    c0.002346-0.055977,0.010653-0.11129,0.024822-0.165157c0.129156,0.030853,0.260395,0.051121,0.392096,0.060558    c0.085052,0.098423,0.176628,0.192207,0.274168,0.280788c-0.188059,0.170666-0.369768,0.258743-0.497036,0.258743    L26.504976,30.330685z M27.929825,29.906765c0.044922,0.209213,0.020117,0.374374-0.061653,0.418411    c-0.019201,0.011272-0.041964,0.017006-0.06551,0.016521c-0.127268,0-0.32168-0.093586-0.533224-0.258759    c0.085154-0.088566,0.163612-0.18235,0.234901-0.280773c0.129906-0.011681,0.258129-0.031918,0.383627-0.060558    C27.90394,29.796658,27.919912,29.851711,27.929825,29.906765L27.929825,29.906765z M28.139994,29.532406l-0.165833,0.055054    c-0.045473-0.114868-0.099913-0.2271-0.162874-0.335838c0.04764-0.110607,0.086256-0.224674,0.11552-0.341333l0.17392,0.06056    c0.223953,0.082586,0.371042,0.192692,0.377203,0.280773C28.484089,29.339714,28.352398,29.449821,28.139994,29.532406z"></path>
		
			<ellipse transform="matrix(0.282706 -0.959207 0.959207 0.282706 -8.609373 46.990307)" fill="#9EA7C7" cx="27.114374" cy="29.251627" rx="0.25063" ry="0.2817"></ellipse>
	</g>
	<g>
		<path fill="#BDC3D9" d="M28.569592,29.261406c-0.012703-0.181681-0.279171-0.352346-0.668287-0.456963    c0.065872-0.357851,0.003822-0.638624-0.172039-0.726719c-0.043997-0.021906-0.092855-0.033298-0.141682-0.033026    l0.008854,0.126627l0.073481,0.011015c0.087929,0.044039,0.135849,0.209198,0.120554,0.423918    c-0.002596,0.049547-0.010872,0.104601-0.018761,0.165159c-0.129503-0.028641-0.260557-0.048893-0.392096-0.060558    c-0.085052-0.098425-0.176628-0.192209-0.274168-0.280773c0.181995-0.170681,0.363724-0.25876,0.49099-0.25876l-0.008854-0.126627    l0,0c-0.163639,0-0.38018,0.110107-0.591314,0.297293c-0.231268-0.187185-0.463192-0.297293-0.632893-0.297293l0.008856,0.126627    c0.127266,0,0.32168,0.093586,0.533222,0.25876c-0.083178,0.08864-0.159615,0.182423-0.228838,0.280773    c-0.131813,0.012121-0.26199,0.032358-0.389688,0.060558c-0.015974-0.055052-0.031948-0.110106-0.041842-0.165159    c-0.044939-0.209213-0.020134-0.374372,0.061636-0.418411c0.019201-0.011272,0.041964-0.017006,0.06551-0.016521    l-0.008471-0.121119l0,0c-0.046429-0.001503-0.091705,0.007978-0.131403,0.027517    c-0.169201,0.093601-0.185938,0.374374-0.07645,0.726719c-0.368423,0.104616-0.604959,0.275282-0.592257,0.456963    c0.012705,0.181679,0.273111,0.352345,0.662226,0.456944c-0.065889,0.357853-0.003822,0.638626,0.172022,0.726719    c0.044014,0.021908,0.092873,0.033298,0.141699,0.033028c0.169683,0,0.380163-0.110107,0.591314-0.297295    c0.237314,0.187187,0.462807,0.291786,0.63249,0.291786c0.048868,0.004856,0.097137-0.00481,0.137466-0.027519    c0.163155-0.093601,0.185938-0.374374,0.070387-0.726719C28.345758,29.61375,28.582296,29.443085,28.569592,29.261406    L28.569592,29.261406z M27.743826,28.892538c-0.017756,0.073242-0.041079,0.144968-0.069836,0.214706    c-0.027309-0.044041-0.054638-0.088079-0.088011-0.132133c-0.03339-0.044041-0.060717-0.088079-0.093704-0.126612    C27.576841,28.857328,27.66095,28.872044,27.743826,28.892538L27.743826,28.892538z M27.506239,29.481617    c-0.038054,0.075535-0.083729,0.147396-0.136484,0.214706l-0.27195,0.011013l-0.279551-0.011013l-0.160082-0.209198    c-0.053453-0.07235-0.101261-0.147778-0.143051-0.225719c0.031046-0.076172,0.068432-0.149778,0.111868-0.220228    c0.038881-0.073971,0.08243-0.145651,0.130438-0.214706l0.278011-0.011013l0.273489,0.011013    c0.059584,0.06901,0.115179,0.14069,0.166512,0.214706l0.142668,0.220228L27.506239,29.481617z M27.695164,29.410042    c0.038673,0.071606,0.072157,0.14518,0.100248,0.220215c-0.080009,0.020493-0.16206,0.035225-0.24539,0.044052    c0.032454-0.040031,0.05793-0.084557,0.075594-0.132133C27.652845,29.498138,27.674013,29.454082,27.695164,29.410042    L27.695164,29.410042z M27.118593,30.004627c-0.064451-0.05505-0.123226-0.115612-0.182018-0.17617h0.339382L27.118593,30.004627z     M26.640968,29.674309c-0.086767-0.006657-0.173101-0.02142-0.257612-0.044052    c0.019226-0.07156,0.044531-0.143131,0.069433-0.220215c0.025919,0.047546,0.055471,0.09354,0.088413,0.137642    L26.640968,29.674309z M27.008589,28.518166c0.064451,0.055052,0.123226,0.115612,0.182001,0.176172h-0.333321    L27.008589,28.518166z M26.583223,28.848499l-0.082058,0.126612l-0.069164,0.13764    c-0.035297-0.071573-0.070612-0.143148-0.100233-0.220213C26.413984,28.872543,26.498007,28.857828,26.583223,28.848499z     M26.074167,29.542175c-0.223953-0.082584-0.371027-0.192692-0.377186-0.280769    c-0.006161-0.088097,0.12553-0.198202,0.337917-0.280788l0.165852-0.055054c0.045471,0.11487,0.099895,0.2271,0.162874,0.335842    c-0.047773,0.108723-0.0865,0.220955-0.115908,0.335823L26.074167,29.542175z M26.457249,30.340469    c-0.081869-0.044056-0.129772-0.209213-0.120539-0.42392c0.002331-0.055992,0.010637-0.111305,0.024805-0.165173    c0.129158,0.030853,0.260397,0.051121,0.392097,0.060558c0.085052,0.098427,0.176628,0.192223,0.274168,0.280788    c-0.188059,0.170666-0.36977,0.258743-0.497036,0.258743L26.457249,30.340469z M27.882097,29.91655    c0.044937,0.209198,0.020115,0.374359-0.061653,0.418411c-0.019186,0.011257-0.041948,0.016991-0.065512,0.016506    c-0.127266,0-0.32168-0.093586-0.533222-0.258743c0.085154-0.088581,0.163612-0.182362,0.2349-0.280788    c0.129908-0.011665,0.258131-0.031902,0.383627-0.060558c0.015974,0.05505,0.031948,0.110104,0.041859,0.165157    L27.882097,29.91655z M28.092266,29.542175l-0.165834,0.055054c-0.045471-0.114868-0.099911-0.2271-0.162872-0.335823    c0.04764-0.110607,0.086254-0.224689,0.11552-0.341349l0.173918,0.06056c0.223953,0.082586,0.371044,0.192692,0.377205,0.280788    C28.436361,29.349483,28.30467,29.459591,28.092266,29.542175z"></path>
		
			<ellipse transform="matrix(0.282706 -0.959207 0.959207 0.282706 -8.652995 46.951546)" fill="#BDC3D9" cx="27.066645" cy="29.261412" rx="0.25063" ry="0.2817"></ellipse>
	</g>
	<g id="_1">
		
			<ellipse transform="matrix(0.012748 -0.999919 0.999919 0.012748 -7.236308 54.914665)" fill="#9EA7C7" cx="24.191463" cy="31.121908" rx="0.729338" ry="1.858128"></ellipse>
		<g>
			<path fill="#BDC3D9" d="M25.354298,30.810688c0.02774,0.39669-0.574516,0.718269-1.345182,0.718269     c-0.770647,0-1.417894-0.321579-1.445633-0.718269c-0.010403-0.148758,0.24128-0.398735,0.383726-0.513363     c0.237415-0.191055,0.479792-0.204906,0.961454-0.204906c0.469339,0,0.670574,0.022045,0.936308,0.204906     C25.015566,30.41473,25.343452,30.655586,25.354298,30.810688z"></path>
			
				<ellipse transform="matrix(0.025138 -0.999684 0.999684 0.025138 -7.120224 53.623978)" fill="#9EA7C7" cx="23.934565" cy="30.462748" rx="0.502029" ry="0.977028"></ellipse>
			
				<ellipse transform="matrix(0.01298 -0.999916 0.999916 0.01298 -6.783078 53.939499)" opacity="0.32" fill="#031051" enable-background="new    " cx="23.930578" cy="30.4056" rx="0.197063" ry="0.498257"></ellipse>
		</g>
		
			<ellipse transform="matrix(0.012748 -0.999919 0.999919 0.012748 -6.073446 60.557056)" fill="#9EA7C7" cx="27.630287" cy="33.354214" rx="0.750611" ry="1.912343"></ellipse>
		<g>
			<path fill="#BDC3D9" d="M28.827028,33.033897c0.028549,0.408264-0.591272,0.73922-1.384415,0.73922     c-0.79314,0-1.459248-0.330956-1.487795-0.73922c-0.010706-0.153084,0.248316-0.410355,0.394903-0.528336     c0.244341-0.196621,0.493803-0.210865,0.989511-0.210865c0.483032,0,0.690121,0.022663,0.96361,0.210865     C28.47842,32.626392,28.815866,32.874275,28.827028,33.033897z"></path>
			
				<ellipse transform="matrix(0.025138 -0.999684 0.999684 0.025138 -5.987521 59.211658)" fill="#9EA7C7" cx="27.365894" cy="32.675819" rx="0.51667" ry="1.005524"></ellipse>
			
				<ellipse transform="matrix(0.012979 -0.999916 0.999916 0.012979 -5.607578 59.553093)" opacity="0.32" fill="#031051" enable-background="new    " cx="27.361769" cy="32.616966" rx="0.20281" ry="0.512791"></ellipse>
		</g>
	</g>
	<path fill="#ABB3CE" d="M34.124695,48.75589l1.708885,0.694344l0.115627,0.481113l-1.472549-0.59832L34.124695,48.75589z"></path>
	<g>
		<path fill-rule="evenodd" clip-rule="evenodd" fill="#949EC1" d="M38.259796,52.442028l-2.114166-2.894947l-0.258373-0.838512    l2.90884,3.951366L38.259796,52.442028z M33.943508,46.541553l1.15263,1.576111l-0.255329-0.822304l-1.816895-2.474758    c-0.179913-0.235645-0.364578-0.418949-0.485111-0.481537c-0.108673-0.042774-0.114582,0.068142-0.014832,0.278404    l1.89444,4.093086l0.51812,0.210522l-1.147552-2.442314c-0.020061-0.051548-0.015545-0.077797,0.012035-0.069958l0.00909,0.003693    c0.028507,0.007835,0.082436,0.060005,0.133404,0.129051V46.541553z M35.385841,49.882084l0.810566,1.721558l-0.536297-0.217903    l-0.792389-1.714176L35.385841,49.882084z"></path>
		<path fill-rule="evenodd" clip-rule="evenodd" fill="#ABB3CE" d="M34.223316,44.903748    c-0.0369-0.129242,0.047882-0.114746,0.190834,0.032627c0.126389,0.124897,0.264912,0.329937,0.309402,0.45797    c0.003841,0.011059,0.006897,0.021336,0.009144,0.030743l0,0l1.167152,3.707764    c0.012157,0.034878,0.015202,0.051086,0.00914,0.048622l-0.048138,0.279842    c0.006092,0.032413-0.045452-0.018467-0.072773-0.074478l-0.35511-0.683208c-0.015182-0.03611-0.027321-0.056015-0.030365-0.07222    l-1.060768-3.365135l-0.04245-0.047188c-0.021229-0.023598-0.027271-0.011082-0.024223,0.005131l0.337391,1.080196    c0.03336,0.043495,0.069771,0.103203,0.063728,0.115719l0.060787,0.189369c0.022655,0.047947,0.012474,0.06353-0.022739,0.034801    c-0.007851-0.006401-0.016567-0.014725-0.025707-0.024548c-0.039318-0.040169-0.081551-0.100239-0.103134-0.146694    l0.00909,0.003693l-0.039509-0.120842l-0.033413-0.088428l-0.392082-1.237148    c-0.027584-0.085026,0.021301-0.081936,0.109192,0.006901c0.003948,0.00399,0.007942,0.008125,0.011974,0.01239l0.027267,0.011078    L34.223316,44.903748z"></path>
	</g>
	<path fill="#ABB3CE" d="M20.967354,43.868813L20.967354,43.868813c1.554857,1.246254,2.432911,3.29232,1.961273,4.570217l0,0   c-0.471638,1.277897-2.114305,1.303547-3.669163,0.057293l0,0c-1.554857-1.246254-2.432911-3.29232-1.961273-4.570217l0,0   C17.769829,42.648205,19.412497,42.622555,20.967354,43.868813z"></path>
	<path fill="#E6E6E7" d="M20.862455,45.54686l-0.058722-0.105064l-0.026861,0.083714l-0.144028,0.551762l-0.117167,0.468044   l-0.10191,0.415344l-0.052471,0.235546l-0.440132-0.109798l0.144028-0.551762l0.029896-0.139462L19.98193,46.19743   l-0.318682-0.565475l-0.255676-0.448044l-0.05872-0.105061l-0.026861,0.083714l-0.144028,0.551758l-0.12752,0.567181   l-0.144028,0.551758l-0.427908-0.10675l0.131804-0.55481l0.139744-0.564129l0.131802-0.55481l0.136087-0.542439l0.39123,0.097599   l0.021418,0.061852l0.330906,0.568527l0.017136,0.04948l0.28932,0.512943l0.092365,0.169964l0,0l0.131802-0.55481   l0.136087-0.542439l0.391228,0.097599l0.02142,0.061855l1.607416,2.706551l-0.440132-0.109798L20.862455,45.54686z"></path>
	<g>
		<path fill="#EDEFF5" d="M32.787006,32.422905h-0.405949l-0.27063-0.976206l-0.560596,0.976206h-0.454273l0.869886-1.517469    l-0.135315-0.531597l-1.188847,2.049067h-0.454275l1.507807-2.59033h0.396284l0.173977,0.637917h0.405945l-0.280296,0.492937    l0.396286,1.45948L32.787006,32.422905z"></path>
	</g>
</g>
</svg>