<?xml version="1.0" encoding="utf-8"?>
<!-- Generator: Adobe Illustrator 25.2.1, SVG Export Plug-In . SVG Version: 6.00 Build 0)  -->
<!DOCTYPE svg PUBLIC "-//W3C//DTD SVG 1.1//EN" "http://www.w3.org/Graphics/SVG/1.1/DTD/svg11.dtd" [
	<!ENTITY ns_extend "http://ns.adobe.com/Extensibility/1.0/">
	<!ENTITY ns_ai "http://ns.adobe.com/AdobeIllustrator/10.0/">
	<!ENTITY ns_graphs "http://ns.adobe.com/Graphs/1.0/">
	<!ENTITY ns_vars "http://ns.adobe.com/Variables/1.0/">
	<!ENTITY ns_imrep "http://ns.adobe.com/ImageReplacement/1.0/">
	<!ENTITY ns_sfw "http://ns.adobe.com/SaveForWeb/1.0/">
	<!ENTITY ns_custom "http://ns.adobe.com/GenericCustomNamespace/1.0/">
	<!ENTITY ns_adobe_xpath "http://ns.adobe.com/XPath/1.0/">
]>
<svg version="1.1" id="Layer_1" xmlns:x="&ns_extend;" xmlns:i="&ns_ai;" xmlns:graph="&ns_graphs;"
	 xmlns="http://www.w3.org/2000/svg" xmlns:xlink="http://www.w3.org/1999/xlink" x="0px" y="0px" viewBox="0 0 80 80"
	 enable-background="new 0 0 80 80" xml:space="preserve">
<metadata>
	<sfw  xmlns="&ns_sfw;">
		<slices></slices>
		<sliceSourceBounds  bottomLeftOrigin="true" height="59.4532623" width="60" x="10.0611248" y="-70.3624802"></sliceSourceBounds>
	</sfw>
</metadata>
<linearGradient id="SVGID_1_" gradientUnits="userSpaceOnUse" x1="34.0820465" y1="31.8097668" x2="35.6159172" y2="32.6953468">
	<stop  offset="0" style="stop-color:#69CAD6"/>
	<stop  offset="1" style="stop-color:#5A55A5"/>
</linearGradient>
<path fill="url(#SVGID_1_)" d="M35.5983887,32.1059418L35.5983887,32.1059418L35.5983887,32.1059418l-0.0911217-0.2581825
	c-0.103569-0.3066578-0.3901329-0.5139599-0.7137985-0.5163651c-0.0831451-0.0002365-0.1655846,0.0152206-0.2429924,0.0455627
	c-0.3951721,0.1334267-0.608757,0.5606022-0.4783974,0.9567909c0,0.1214981,0.0835266,0.235405,0.1214943,0.349308
	c0.1137047,0.2946815,0.3979492,0.4882088,0.7137985,0.4859886c0.0937653,0.0008087,0.1867371-0.0172691,0.2733688-0.053154
	c0.3891678-0.1518784,0.5825691-0.5895805,0.4328346-0.9795761L35.5983887,32.1059418z"/>
<linearGradient id="SVGID_2_" gradientUnits="userSpaceOnUse" x1="34.0019798" y1="26.8554344" x2="35.3972626" y2="27.6609993">
	<stop  offset="0" style="stop-color:#69CAD6"/>
	<stop  offset="1" style="stop-color:#5A55A5"/>
</linearGradient>
<path fill="url(#SVGID_2_)" d="M34.4365654,28.1648636c0.0681458,0.0073433,0.1368828,0.0073433,0.2050285,0
	c0.3530045,0.0120907,0.6677322-0.220808,0.7593613-0.5619278c0-0.0987167,0.053154-0.1974316,0.0835266-0.2961483
	c0.1241302-0.3982658-0.0962601-0.8220882-0.4935837-0.9491997c-0.0755043-0.0114574-0.1523056-0.0114574-0.2278061,0
	c-0.3444481-0.01577-0.6562805,0.2025146-0.7593613,0.5315514c0,0.113905-0.0759354,0.2354031-0.106308,0.3493061
	C33.7913208,27.6430359,34.0323792,28.0572453,34.4365654,28.1648636z"/>
<linearGradient id="SVGID_3_" gradientUnits="userSpaceOnUse" x1="36.7838402" y1="22.7834644" x2="38.2082863" y2="23.6058712">
	<stop  offset="0" style="stop-color:#69CAD6"/>
	<stop  offset="1" style="stop-color:#5A55A5"/>
</linearGradient>
<path fill="url(#SVGID_3_)" d="M37.838501,23.8896694l0.2354012-0.1822453
	c0.3396988-0.2474365,0.4144974-0.7234039,0.1670609-1.0631027c-0.2474365-0.3397007-0.7234077-0.4144955-1.0631065-0.1670609
	l-0.2885551,0.227808c-0.3256989,0.2608051-0.3799515,0.7355385-0.1214981,1.0631027
	c0.2600975,0.3289852,0.7376404,0.3848324,1.0666275,0.1247368C37.8357925,23.8918324,37.8371468,23.8907528,37.838501,23.8896694z"
	/>
<linearGradient id="SVGID_4_" gradientUnits="userSpaceOnUse" x1="49.3199425" y1="31.2375965" x2="50.7196007" y2="32.0456886">
	<stop  offset="0" style="stop-color:#69CAD6"/>
	<stop  offset="1" style="stop-color:#5A55A5"/>
</linearGradient>
<path fill="url(#SVGID_4_)" d="M50.2464333,30.7466869h-0.1822472c-0.3574295-0.0104122-0.6736908,0.2299461-0.7593613,0.5771122
	v0.0911236l0,0l-0.053154,0.1670589c-0.121624,0.402607,0.106163,0.8275795,0.50877,0.9491997
	c0.402607,0.121624,0.8275757-0.106163,0.9491997-0.50877c0-0.1214962,0.0683403-0.2354012,0.0987167-0.3568993
	c0.0994606-0.4074192-0.1501884-0.818325-0.5576096-0.9177837C50.2493134,30.7473774,50.2478714,30.7470303,50.2464333,30.7466869z"
	/>
<linearGradient id="SVGID_5_" gradientUnits="userSpaceOnUse" x1="49.0076828" y1="26.2810745" x2="50.549614" y2="27.1713066">
	<stop  offset="0" style="stop-color:#69CAD6"/>
	<stop  offset="1" style="stop-color:#5A55A5"/>
</linearGradient>
<path fill="url(#SVGID_5_)" d="M49.8515701,27.6257191c0.0854988-0.0009708,0.1702194-0.0163746,0.2505875-0.0455627
	c0.395649-0.1390858,0.6036301-0.5725746,0.4645424-0.9682217c-0.0004387-0.001255-0.000885-0.0025063-0.0013313-0.0037575
	l-0.1290894-0.341713c-0.1175423-0.2861214-0.3968849-0.4723511-0.7062073-0.4708023
	c-0.0987244-0.0012093-0.1967392,0.0168457-0.2885551,0.0531559c-0.3873329,0.1578751-0.5740662,0.5992451-0.4176483,0.9871674
	v0.053154l0,0l0,0l0,0l0,0l0,0c0.002018,0.0278053,0.002018,0.0557251,0,0.0835304
	C49.079071,27.3776226,49.4448814,27.6662483,49.8515701,27.6257191z"/>
<linearGradient id="SVGID_6_" gradientUnits="userSpaceOnUse" x1="46.60326" y1="35.3393364" x2="48.0251961" y2="36.1602936">
	<stop  offset="0" style="stop-color:#69CAD6"/>
	<stop  offset="1" style="stop-color:#5A55A5"/>
</linearGradient>
<path fill="url(#SVGID_6_)" d="M47.4064293,34.9079781c-0.1748161,0.0014153-0.3437881,0.0631027-0.4783974,0.1746521
	l-0.0911217,0.0759354l0,0l-0.1139069,0.0911217l0,0c-0.3330269,0.253952-0.3975792,0.7295837-0.1442757,1.0631065
	c0.1434097,0.1912079,0.3684731,0.3037415,0.6074867,0.3037415c0.1651726-0.002182,0.3251305-0.0581665,0.455616-0.159462
	l0.2885551-0.2278099c0.3229294-0.2675819,0.3677902-0.7462845,0.1002083-1.0692101
	c-0.1445961-0.1744995-0.3595734-0.2752991-0.5861969-0.2748566L47.4064293,34.9079781z"/>
<linearGradient id="SVGID_7_" gradientUnits="userSpaceOnUse" x1="45.8900414" y1="22.3807907" x2="47.4905853" y2="23.3048668">
	<stop  offset="0" style="stop-color:#69CAD6"/>
	<stop  offset="1" style="stop-color:#5A55A5"/>
</linearGradient>
<path fill="url(#SVGID_7_)" d="M47.451992,23.3657112c0.2400093-0.3420525,0.1585655-0.8137417-0.1822472-1.0555096
	l-0.3113365-0.1974335c-0.1189156-0.0799809-0.2591553-0.1223164-0.402462-0.1214962
	c-0.4193764-0.0013542-0.7604523,0.3375263-0.7618027,0.7569046c-0.0008507,0.2637177,0.1351852,0.5089893,0.3593445,0.6479092
	l0.2278061,0.1518726l0,0c0.1248398,0.0871639,0.2729988,0.1347866,0.4252434,0.1366863
	C47.061615,23.6935635,47.3041115,23.5737419,47.451992,23.3657112z"/>
<linearGradient id="SVGID_8_" gradientUnits="userSpaceOnUse" x1="37.0119591" y1="35.6359024" x2="38.6613731" y2="36.588192">
	<stop  offset="0" style="stop-color:#69CAD6"/>
	<stop  offset="1" style="stop-color:#5A55A5"/>
</linearGradient>
<path fill="url(#SVGID_8_)" d="M38.4232025,35.5838089c-0.0527725-0.0398178-0.1086388-0.075367-0.167057-0.1063118l0,0
	l-0.0987167-0.0607491c-0.3244514-0.2657356-0.802887-0.2181358-1.0686188,0.1063156
	c-0.2657356,0.3244514-0.2181358,0.802887,0.1063156,1.0686226c0.0281372,0.0230446,0.0578918,0.0440369,0.0890388,0.0628166
	l0.3037453,0.2050285c0.1222229,0.078949,0.2645531,0.1211205,0.4100533,0.1214981
	c0.419384-0.0010834,0.7584801-0.3419342,0.7574005-0.7613144c-0.0006638-0.257103-0.1313744-0.4964104-0.3473434-0.6359062
	H38.4232025z"/>
<linearGradient id="SVGID_9_" gradientUnits="userSpaceOnUse" x1="41.8378143" y1="37.0481186" x2="43.3940849" y2="37.9466324">
	<stop  offset="0" style="stop-color:#69CAD6"/>
	<stop  offset="1" style="stop-color:#5A55A5"/>
</linearGradient>
<path fill="url(#SVGID_9_)" d="M42.8047104,36.7380333h-0.3493042c-0.419384,0-0.7593613,0.3399773-0.7593613,0.7593613
	c0,0.4193802,0.3399773,0.7593575,0.7593613,0.7593575l0,0h0.3644905c0.4186745-0.0243645,0.738327-0.3835144,0.7139626-0.8021927
	c-0.0000534-0.0009079-0.0001106-0.0018196-0.000164-0.0027275C43.5105362,37.0617828,43.1951599,36.7529793,42.8047104,36.7380333z
	"/>
<linearGradient id="SVGID_10_" gradientUnits="userSpaceOnUse" x1="41.3439522" y1="21.0888958" x2="42.9441833" y2="22.0127888">
	<stop  offset="0" style="stop-color:#69CAD6"/>
	<stop  offset="1" style="stop-color:#5A55A5"/>
</linearGradient>
<path fill="url(#SVGID_10_)" d="M42.0301628,22.3102016h0.3037453c0.4193802,0,0.7593575-0.3399773,0.7593575-0.7593594
	s-0.3399773-0.7593594-0.7593575-0.7593594h-0.3796806c-0.419384,0-0.7593613,0.3399773-0.7593613,0.7593594
	s0.3399773,0.7593594,0.7593613,0.7593594H42.0301628z"/>
<linearGradient id="SVGID_11_" gradientUnits="userSpaceOnUse" x1="18.3700275" y1="23.9052219" x2="20.7362118" y2="25.2713394">
	<stop  offset="0" style="stop-color:#69CAD6"/>
	<stop  offset="1" style="stop-color:#5A55A5"/>
</linearGradient>
<rect x="18.4140797" y="23.8289223" fill="url(#SVGID_11_)" width="2.2780788" height="1.5187192"/>
<linearGradient id="SVGID_12_" gradientUnits="userSpaceOnUse" x1="18.3700275" y1="36.0549774" x2="20.7362118" y2="37.421093">
	<stop  offset="0" style="stop-color:#69CAD6"/>
	<stop  offset="1" style="stop-color:#5A55A5"/>
</linearGradient>
<rect x="18.4140797" y="35.9786758" fill="url(#SVGID_12_)" width="2.2780788" height="1.5187192"/>
<linearGradient id="SVGID_13_" gradientUnits="userSpaceOnUse" x1="13.8138695" y1="36.0549774" x2="16.1800537" y2="37.421093">
	<stop  offset="0" style="stop-color:#69CAD6"/>
	<stop  offset="1" style="stop-color:#5A55A5"/>
</linearGradient>
<rect x="13.8579226" y="35.9786758" fill="url(#SVGID_13_)" width="2.2780788" height="1.5187192"/>
<linearGradient id="SVGID_14_" gradientUnits="userSpaceOnUse" x1="10.0170717" y1="17.8303452" x2="12.383256" y2="19.1964626">
	<stop  offset="0" style="stop-color:#69CAD6"/>
	<stop  offset="1" style="stop-color:#5A55A5"/>
</linearGradient>
<rect x="10.0611248" y="17.7540455" fill="url(#SVGID_14_)" width="2.2780788" height="1.5187192"/>
<linearGradient id="SVGID_15_" gradientUnits="userSpaceOnUse" x1="14.5400419" y1="19.2030773" x2="66.0132523" y2="48.9211502">
	<stop  offset="0" style="stop-color:#69CAD6"/>
	<stop  offset="1" style="stop-color:#5A55A5"/>
</linearGradient>
<path fill="url(#SVGID_15_)" d="M64.0819626,30.6631584c0.4193878,1.6242599,2.076088,2.6010094,3.7003479,2.1816254
	c1.6242599-0.4193802,2.6010132-2.0760841,2.1816254-3.700346c-0.4193802-1.6242599-2.0760803-2.6010075-3.7003403-2.1816254
	c-1.0699005,0.2762451-1.9053802,1.1117249-2.181633,2.1816254H54.103981
	c-0.0549355-1.8627834-0.5548439-3.6853771-1.4579697-5.3155155h8.2922058v-6.9405479
	c1.6242638-0.4193821,2.6010132-2.0760832,2.1816292-3.700346c-0.4193802-1.6242628-2.0760841-2.6010094-3.7003479-2.1816273
	c-1.6242638,0.419383-2.6010132,2.0760841-2.1816292,3.700346c0.2762489,1.0699005,1.1117287,1.9053822,2.1816292,2.1816273
	v5.4218273h-7.8062172c-2.2227516-2.8712101-5.6483307-4.5531654-9.2793732-4.5561562c-0.1290894,0-0.2505913,0-0.3796806,0l0,0
	H15.3766413v1.5187187h21.1937256c-1.9117279,1.0669746-3.4891815,2.6444283-4.5561562,4.5561581h-8.2846127v1.5187187h7.5935955
	c-0.4666615,1.2133598-0.7234478,2.4972858-0.7593594,3.7967968h-15.187192v1.5187206h15.2479429
	c0.1787796,1.8990746,0.822998,3.7247849,1.875618,5.3155174h-9.5299644v1.5187187h10.7297516
	c0.6486511,0.705883,1.3804398,1.3305779,2.1793594,1.8604317v6.4925232h1.5187225v19.7433472l4.9358368,4.7687836
	l4.9358368-4.7687836v-4.1536942l-1.366848-1.8756218l1.366848-1.632618V45.8503494h1.5187187v-6.4925232
	c0.4968033-0.3323936,0.9688454-0.700386,1.4124107-1.1010742h5.4218254v8.3529587h6.5001183
	c0.8561859,1.442585,2.7197037,1.9179573,4.1622925,1.0617752c1.4425888-0.8561859,1.9179611-2.7197113,1.0617752-4.1622963
	c-0.8561783-1.442585-2.7197037-1.9179573-4.1622925-1.0617752c-0.9316559,0.5529404-1.4982681,1.5602493-1.4870148,2.6435738
	h-4.55616v-8.3529549h-5.5281372c1.3715019-1.7525024,2.2144852-3.8599586,2.4299507-6.0748749H64.0819626z M67.013092,28.3850784
	c0.838768,0,1.5187225,0.6799545,1.5187225,1.5187206c0,0.8387642-0.6799545,1.5187187-1.5187225,1.5187187
	c-0.8387604,0-1.5187149-0.6799545-1.5187149-1.5187187C65.4943771,29.065033,66.1743317,28.3850784,67.013092,28.3850784z
	 M58.6601372,13.9572468c0-0.8387651,0.6799545-1.5187197,1.5187187-1.5187197c0.838768,0,1.5187225,0.6799545,1.5187225,1.5187197
	c0,0.8387661-0.6799545,1.5187187-1.5187225,1.5187187C59.3400917,15.4759655,58.6601372,14.7960129,58.6601372,13.9572468z
	 M64.7350159,43.5722694c0.8387604,0,1.5187149,0.6799545,1.5187149,1.5187187c0,0.838768-0.6799545,1.5187225-1.5187149,1.5187225
	c-0.8387642,0-1.5187187-0.6799545-1.5187187-1.5187225C63.2162971,44.252224,63.8962517,43.5722694,64.7350159,43.5722694z
	 M45.7510262,57.37743l-1.7769012,2.1413918l1.7769012,2.4147644v3.0374374l-3.4171181,3.303215L38.91679,64.9406509V45.8503494
	h0.7593575v15.187191h1.5187187v-15.187191h4.55616V57.37743z M47.2697449,44.3316307h-9.8716736V40.193119
	c3.1267128,1.4685173,6.744957,1.4685173,9.8716736,0V44.3316307z M49.5478249,36.7380333v0.0683441
	c-4.0222321,3.9844856-10.5129585,3.9538879-14.4974442-0.0683441S31.0964928,26.2250767,35.118721,22.240591
	s10.5129585-3.9538898,14.4974442,0.0683422c3.9579468,3.9954414,3.9579468,10.4336586,0,14.4291H49.5478249z"/>
</svg>
