<?xml version="1.0" encoding="utf-8"?>
<!-- Generator: Adobe Illustrator 25.2.1, SVG Export Plug-In . SVG Version: 6.00 Build 0)  -->
<!DOCTYPE svg PUBLIC "-//W3C//DTD SVG 1.1//EN" "http://www.w3.org/Graphics/SVG/1.1/DTD/svg11.dtd" [
	<!ENTITY ns_extend "http://ns.adobe.com/Extensibility/1.0/">
	<!ENTITY ns_ai "http://ns.adobe.com/AdobeIllustrator/10.0/">
	<!ENTITY ns_graphs "http://ns.adobe.com/Graphs/1.0/">
	<!ENTITY ns_vars "http://ns.adobe.com/Variables/1.0/">
	<!ENTITY ns_imrep "http://ns.adobe.com/ImageReplacement/1.0/">
	<!ENTITY ns_sfw "http://ns.adobe.com/SaveForWeb/1.0/">
	<!ENTITY ns_custom "http://ns.adobe.com/GenericCustomNamespace/1.0/">
	<!ENTITY ns_adobe_xpath "http://ns.adobe.com/XPath/1.0/">
]>
<svg version="1.1" id="Layer_1" xmlns:x="&ns_extend;" xmlns:i="&ns_ai;" xmlns:graph="&ns_graphs;"
	 xmlns="http://www.w3.org/2000/svg" xmlns:xlink="http://www.w3.org/1999/xlink" x="0px" y="0px" viewBox="0 0 80 80"
	 enable-background="new 0 0 80 80" xml:space="preserve">
<metadata>
	<sfw  xmlns="&ns_sfw;">
		<slices></slices>
		<sliceSourceBounds  bottomLeftOrigin="true" height="69.0537109" width="60" x="10.2222223" y="-75.0016022"></sliceSourceBounds>
	</sfw>
</metadata>
<g>
	<linearGradient id="B_2_" gradientUnits="userSpaceOnUse" x1="10.3070173" y1="23.217905" x2="70.2908096" y2="57.8495598">
		<stop  offset="0" style="stop-color:#69CAD6"/>
		<stop  offset="1" style="stop-color:#5A55A5"/>
	</linearGradient>
	<path id="B" fill="url(#B_2_)" d="M40.0687714,75.0016022l-8.9002552-5.1406631v-9.5140648l-3.8363171-2.2250671
		l-8.2097225,4.7570305l-8.9002542-5.1406631V47.4568443l8.5166235-4.9104881v-4.0664978l-8.5166235-4.9104881V23.3647728
		l8.9002542-5.1406651l8.5166245,4.9104881l3.6061382-2.0716133V11.0118303l8.8235321-5.0639391l8.9002571,5.1406641v9.9744253
		l3.6061325,2.0716114l8.7468071-5.0639381l8.9002533,5.140667v10.281332l-8.5166206,4.9104881v4.3733978l8.5166206,4.9104881
		v10.2813301l-8.9002533,5.1406631l-8.3631744-4.8337631l-3.9130402,2.3017921v9.4373398L40.0687714,75.0016022z
		 M32.0125046,69.4773102l7.7493591,4.4501266v-8.6700745l-7.7493629-4.4501343L32.0125046,69.4773102z M40.452404,65.4108124
		v8.5166245l7.7493591-4.4501343v-8.5166206L40.452404,65.4108124z M32.2426834,59.9632416l7.826088,4.6035767l7.9028091-4.5268517
		l-7.902813-4.6035805C40.0687675,55.4363861,32.2426796,59.9632416,32.2426834,59.9632416z M53.649334,57.7381744
		l7.2122765,4.1432266v-8.2864494L53.649334,57.7381744z M61.7056007,53.211319v8.7468071l7.7493553-4.4501305v-8.7467995
		L61.7056007,53.211319z M19.5061092,53.5949516v8.1329918l7.0588245-4.0664978
		C26.5649338,57.6614456,19.5061092,53.5949478,19.5061092,53.5949516z M10.9894857,57.2778206l7.7493601,4.4501305V52.981144
		l-7.7493601-4.4501305V57.2778206z M40.0687714,54.5156708l8.8235321,5.1406631l3.5294075-1.9948845V47.687027l8.5166245-4.9104881
		v-4.4501305l-8.5166245-4.9104881v-9.514061l-3.9897652-2.3017902l-8.3631744,4.8337593l-8.2864475-4.7570343l-3.8363171,2.2250652
		v9.6675186l-8.5166225,4.9104881v4.0664978l8.5166225,4.9104881v10.1278725l3.4526863,1.9948845L40.0687714,54.5156708z
		 M19.73629,52.8276939l7.4424572,4.2966766v-8.5933571C27.1787472,48.5310135,19.73629,52.8276901,19.73629,52.8276939z
		 M53.1889763,48.7611961v8.3631744l7.2890015-4.2199516L53.1889763,48.7611961z M53.4191589,47.9939308l7.5191841,4.2966766
		v-8.5933533C60.938343,43.6972542,53.4191589,47.993927,53.4191589,47.9939308z M61.7056046,43.697258v8.6700745
		l7.5191879-4.2966766L61.7056046,43.697258z M19.506115,43.4670753v8.6700821l7.5191803-4.2966766
		C27.0252953,47.8404808,19.506115,43.467083,19.506115,43.4670753z M11.2196646,47.763752l7.5191813,4.2966728v-8.5933495
		L11.2196646,47.763752z M19.5061092,28.8890705v8.7468052l7.7493591-4.4501305V24.43894
		C27.2554684,24.43894,19.5061092,28.8890686,19.5061092,28.8890705z M10.9894857,33.1857452l7.7493601,4.4501305v-8.7468052
		l-7.7493601-4.4501266V33.1857452z M61.7056007,28.6588898v8.7468033l7.7493553-4.4501266v-8.7468033L61.7056007,28.6588898z
		 M53.1889763,32.9555626l7.7493591,4.4501305v-8.6700745L53.1889763,24.28549V32.9555626z M11.2196646,23.6716766
		l7.749362,4.5268555l7.902813-4.6035805l-7.7493629-4.5268555L11.2196646,23.6716766z M53.4191513,23.4414997l7.9028168,4.5268555
		l7.9028168-4.5268555l-7.9028168-4.5268555L53.4191513,23.4414997z M32.6263123,21.2164345l7.1355515,4.1432228v-8.2864437
		L32.6263123,21.2164345z M40.4523964,16.9964848v8.3631706l7.2122803-4.1432247L40.4523964,16.9964848z M32.0125008,12.0859976
		v8.5166254l7.3657265-4.2966728C39.3782272,16.3059502,32.0125008,12.0860004,32.0125008,12.0859976z M40.9127617,16.3059502
		l7.2890015,4.2199478v-8.4398975L40.9127617,16.3059502z M32.2426834,11.395462l7.826088,4.5268555l7.9028168-4.5268555
		l-7.9028168-4.603581L32.2426834,11.395462z M40.0687714,50.756073l-8.9002552-5.1406631V35.4108124l8.9002552-5.140667
		l8.9002571,5.140667v10.2813301L40.0687714,50.756073z M32.0125046,45.231781l7.6726341,4.4501305v-8.7468071l-7.7493591-4.6035805
		v8.9002571H32.0125046z M40.452404,40.9351044v8.7468071l7.7493591-4.4501305v-8.7467995
		C48.2017632,36.4849815,40.452404,40.935112,40.452404,40.9351044z M32.3961372,35.6409874l7.7493591,4.6035805
		l7.9028168-4.5268555l-7.9795418-4.5268574L32.3961372,35.6409874z"/>
</g>
<linearGradient id="SVGID_1_" gradientUnits="userSpaceOnUse" x1="27.5078812" y1="33.4691925" x2="61.277626" y2="52.9661636">
	<stop  offset="0" style="stop-color:#69CAD6"/>
	<stop  offset="1" style="stop-color:#5A55A5"/>
</linearGradient>
<path fill="url(#SVGID_1_)" d="M39.8385887,40.8583794l-12.5063915-7.0588226l0.3836308-0.6905403l12.5063934,7.1355515
	L39.8385887,40.8583794z M27.7925529,48.0706558l-0.3836308-0.6905365l3.9897709-2.3017921l0.3836308,0.6905403
	L27.7925529,48.0706558z M39.4549599,50.295723h0.7672615v14.7314529h-0.7672615V50.295723z M61.0917854,53.2880516
	l-12.7365723-7.5191841l0.4603577-0.6905403l12.6598473,7.5191841L61.0917854,53.2880516z M48.7388458,35.9478912
	l-0.3069077-0.6138077l12.6598473-7.1355515l0.3836327,0.6905384L48.7388458,35.9478912z M40.4523964,30.7305012h-0.7672615
	l0.15345-14.347826h0.7672615L40.4523964,30.7305012z"/>
<g>
	<linearGradient id="B_3_" gradientUnits="userSpaceOnUse" x1="10.3070173" y1="23.217905" x2="70.2908096" y2="57.8495598">
		<stop  offset="0" style="stop-color:#69CAD6"/>
		<stop  offset="1" style="stop-color:#5A55A5"/>
	</linearGradient>
	<path id="B_1_" fill="url(#B_3_)" d="M40.0687714,75.0016022l-8.9002552-5.1406631v-9.5140648l-3.8363171-2.2250671
		l-8.2097225,4.7570305l-8.9002542-5.1406631V47.4568443l8.5166235-4.9104881v-4.0664978l-8.5166235-4.9104881V23.3647728
		l8.9002542-5.1406651l8.5166245,4.9104881l3.6061382-2.0716133V11.0118303l8.8235321-5.0639391l8.9002571,5.1406641v9.9744253
		l3.6061325,2.0716114l8.7468071-5.0639381l8.9002533,5.140667v10.281332l-8.5166206,4.9104881v4.3733978l8.5166206,4.9104881
		v10.2813301l-8.9002533,5.1406631l-8.3631744-4.8337631l-3.9130402,2.3017921v9.4373398L40.0687714,75.0016022z
		 M32.0125046,69.4773102l7.7493591,4.4501266v-8.6700745l-7.7493629-4.4501343L32.0125046,69.4773102z M40.452404,65.4108124
		v8.5166245l7.7493591-4.4501343v-8.5166206L40.452404,65.4108124z M32.2426834,59.9632416l7.826088,4.6035767l7.9028091-4.5268517
		l-7.902813-4.6035805C40.0687675,55.4363861,32.2426796,59.9632416,32.2426834,59.9632416z M53.649334,57.7381744
		l7.2122765,4.1432266v-8.2864494L53.649334,57.7381744z M61.7056007,53.211319v8.7468071l7.7493553-4.4501305v-8.7467995
		L61.7056007,53.211319z M19.5061092,53.5949516v8.1329918l7.0588245-4.0664978
		C26.5649338,57.6614456,19.5061092,53.5949478,19.5061092,53.5949516z M10.9894857,57.2778206l7.7493601,4.4501305V52.981144
		l-7.7493601-4.4501305V57.2778206z M40.0687714,54.5156708l8.8235321,5.1406631l3.5294075-1.9948845V47.687027l8.5166245-4.9104881
		v-4.4501305l-8.5166245-4.9104881v-9.514061l-3.9897652-2.3017902l-8.3631744,4.8337593l-8.2864475-4.7570343l-3.8363171,2.2250652
		v9.6675186l-8.5166225,4.9104881v4.0664978l8.5166225,4.9104881v10.1278725l3.4526863,1.9948845L40.0687714,54.5156708z
		 M19.73629,52.8276939l7.4424572,4.2966766v-8.5933571C27.1787472,48.5310135,19.73629,52.8276901,19.73629,52.8276939z
		 M53.1889763,48.7611961v8.3631744l7.2890015-4.2199516L53.1889763,48.7611961z M53.4191589,47.9939308l7.5191841,4.2966766
		v-8.5933533C60.938343,43.6972542,53.4191589,47.993927,53.4191589,47.9939308z M61.7056046,43.697258v8.6700745
		l7.5191879-4.2966766L61.7056046,43.697258z M19.506115,43.4670753v8.6700821l7.5191803-4.2966766
		C27.0252953,47.8404808,19.506115,43.467083,19.506115,43.4670753z M11.2196646,47.763752l7.5191813,4.2966728v-8.5933495
		L11.2196646,47.763752z M19.5061092,28.8890705v8.7468052l7.7493591-4.4501305V24.43894
		C27.2554684,24.43894,19.5061092,28.8890686,19.5061092,28.8890705z M10.9894857,33.1857452l7.7493601,4.4501305v-8.7468052
		l-7.7493601-4.4501266V33.1857452z M61.7056007,28.6588898v8.7468033l7.7493553-4.4501266v-8.7468033L61.7056007,28.6588898z
		 M53.1889763,32.9555626l7.7493591,4.4501305v-8.6700745L53.1889763,24.28549V32.9555626z M11.2196646,23.6716766
		l7.749362,4.5268555l7.902813-4.6035805l-7.7493629-4.5268555L11.2196646,23.6716766z M53.4191513,23.4414997l7.9028168,4.5268555
		l7.9028168-4.5268555l-7.9028168-4.5268555L53.4191513,23.4414997z M32.6263123,21.2164345l7.1355515,4.1432228v-8.2864437
		L32.6263123,21.2164345z M40.4523964,16.9964848v8.3631706l7.2122803-4.1432247L40.4523964,16.9964848z M32.0125008,12.0859976
		v8.5166254l7.3657265-4.2966728C39.3782272,16.3059502,32.0125008,12.0860004,32.0125008,12.0859976z M40.9127617,16.3059502
		l7.2890015,4.2199478v-8.4398975L40.9127617,16.3059502z M32.2426834,11.395462l7.826088,4.5268555l7.9028168-4.5268555
		l-7.9028168-4.603581L32.2426834,11.395462z M40.0687714,50.756073l-8.9002552-5.1406631V35.4108124l8.9002552-5.140667
		l8.9002571,5.140667v10.2813301L40.0687714,50.756073z M32.0125046,45.231781l7.6726341,4.4501305v-8.7468071l-7.7493591-4.6035805
		v8.9002571H32.0125046z M40.452404,40.9351044v8.7468071l7.7493591-4.4501305v-8.7467995
		C48.2017632,36.4849815,40.452404,40.935112,40.452404,40.9351044z M32.3961372,35.6409874l7.7493591,4.6035805
		l7.9028168-4.5268555l-7.9795418-4.5268574L32.3961372,35.6409874z"/>
</g>
<linearGradient id="SVGID_2_" gradientUnits="userSpaceOnUse" x1="27.501524" y1="33.4640121" x2="61.2389412" y2="52.9423141">
	<stop  offset="0" style="stop-color:#69CAD6"/>
	<stop  offset="1" style="stop-color:#5A55A5"/>
</linearGradient>
<path fill="url(#SVGID_2_)" d="M27.321455,33.7895813l0.3774948-0.6675186l12.487215,7.066494L39.80867,40.8560791
	L27.321455,33.7895813z M27.3498421,47.3540344l4.012022-2.2572899l0.3759594,0.6690559l-4.0120201,2.2572899L27.3498421,47.3540344
	z M39.4549599,50.295723h0.7672615v14.7314529h-0.7672615V50.295723z M48.3774643,45.7435493l0.3890038-0.6613808
	l12.6959076,7.4731445l-0.3890038,0.6613808L48.3774643,45.7435493z M48.4027824,35.3118362l12.7381058-7.0879803
	l0.3728905,0.6705894l-12.7381058,7.0879803L48.4027824,35.3118362z M39.67976,30.755825l0.0982094-14.3478279l0.7672615,0.0053711
	l-0.0982056,14.3478279L39.67976,30.755825z"/>
</svg>
