<svg xmlns="http://www.w3.org/2000/svg" width="1em" height="1em" viewBox="0 0 34 34" fill="none">
<g xmlns="http://www.w3.org/2000/svg" style="" class="currentLayer">
  <title>Layer 1</title>
  <rect height="34" width="34" y="0" x="0" fill="#245ec7" rx="34"></rect>
  <path fill="#fff" d="M23.375 12.171l-.16-.613-.362.613-2.179 3.869-1.852 3.256-1.608 2.834-.926 1.633h-2.62l2.193-3.868.52-.92-.29-1.083-.828-3.174-.669-2.547-.16-.613-.361.613-2.18 3.869-2.192 3.855-2.193 3.868h-2.62l2.192-3.868 2.18-3.855 2.192-3.869 2.14-3.773.053-.082h2.286l.107.409.83 3.16.08.286.748 2.874.268.995.024.092.052-.092 2.193-3.869 2.14-3.773.053-.082h2.286l.107.409 4.397 15.038h-2.62z" width="1em"></path>
  </g>
  </svg>
